<?xml version="1.0" encoding="UTF-8" standalone="no"?>
<!DOCTYPE svg PUBLIC "-//W3C//DTD SVG 1.1//EN"
 "http://www.w3.org/Graphics/SVG/1.1/DTD/svg11.dtd">
<!-- Generated by graphviz version 2.43.0 (0)
 -->
<!-- Title: %3 Pages: 1 -->
<svg width="852pt" height="368pt"
 viewBox="0.00 0.00 852.00 368.00" xmlns="http://www.w3.org/2000/svg" xmlns:xlink="http://www.w3.org/1999/xlink">
<g id="graph0" class="graph" transform="scale(1 1) rotate(0) translate(4 364)">
<title>%3</title>
<polygon fill="white" stroke="transparent" points="-4,4 -4,-364 848,-364 848,4 -4,4"/>
<!-- F.P. Básica -->
<g id="node1" class="node">
<title>F.P. Básica</title>
<polygon fill="none" stroke="black" points="311.5,-354 252.5,-354 252.5,-330 311.5,-330 311.5,-324 329.5,-342 311.5,-360 311.5,-354"/>
<text text-anchor="middle" x="291" y="-338.3" font-family="Times,serif" font-size="14.00">F.P. Básica</text>
</g>
<!-- Grado Medio -->
<g id="node2" class="node">
<title>Grado Medio</title>
<polygon fill="none" stroke="black" points="318,-246 246,-246 246,-222 318,-222 318,-216 336,-234 318,-252 318,-246"/>
<text text-anchor="middle" x="291" y="-230.3" font-family="Times,serif" font-size="14.00">Grado Medio</text>
</g>
<!-- F.P. Básica&#45;&gt;Grado Medio -->
<g id="edge1" class="edge">
<title>F.P. Básica&#45;&gt;Grado Medio</title>
<path fill="none" stroke="black" d="M291,-323.97C291,-307.38 291,-281.88 291,-262.43"/>
<polygon fill="black" stroke="black" points="294.5,-262.34 291,-252.34 287.5,-262.34 294.5,-262.34"/>
</g>
<!-- Mantenimiento básico en pequeña oficina -->
<g id="node3" class="node">
<title>Mantenimiento básico en pequeña oficina</title>
<path fill="none" stroke="black" d="M598.5,-360C598.5,-360 377.5,-360 377.5,-360 371.5,-360 365.5,-354 365.5,-348 365.5,-348 365.5,-336 365.5,-336 365.5,-330 371.5,-324 377.5,-324 377.5,-324 598.5,-324 598.5,-324 604.5,-324 610.5,-330 610.5,-336 610.5,-336 610.5,-348 610.5,-348 610.5,-354 604.5,-360 598.5,-360"/>
<text text-anchor="middle" x="488" y="-338.3" font-family="Times,serif" font-size="14.00">Mantenimiento básico en pequeña oficina</text>
</g>
<!-- F.P. Básica&#45;&gt;Mantenimiento básico en pequeña oficina -->
<g id="edge2" class="edge">
<title>F.P. Básica&#45;&gt;Mantenimiento básico en pequeña oficina</title>
<path fill="none" stroke="black" d="M329.86,-342C338.28,-342 346.7,-342 355.11,-342"/>
<polygon fill="black" stroke="black" points="355.38,-345.5 365.38,-342 355.38,-338.5 355.38,-345.5"/>
</g>
<!-- Grado Superior (ASIR) -->
<g id="node4" class="node">
<title>Grado Superior (ASIR)</title>
<polygon fill="none" stroke="black" points="126,-138 0,-138 0,-114 126,-114 126,-108 144,-126 126,-144 126,-138"/>
<text text-anchor="middle" x="72" y="-122.3" font-family="Times,serif" font-size="14.00">Grado Superior (ASIR)</text>
</g>
<!-- Grado Medio&#45;&gt;Grado Superior (ASIR) -->
<g id="edge3" class="edge">
<title>Grado Medio&#45;&gt;Grado Superior (ASIR)</title>
<path fill="none" stroke="black" d="M255.81,-215.97C218.01,-197.67 157.84,-168.55 116.71,-148.64"/>
<polygon fill="black" stroke="black" points="117.99,-145.37 107.46,-144.16 114.94,-151.67 117.99,-145.37"/>
</g>
<!-- Grado Superior (DAM y DAW) -->
<g id="node5" class="node">
<title>Grado Superior (DAM y DAW)</title>
<polygon fill="none" stroke="black" points="588,-138 414,-138 414,-114 588,-114 588,-108 606,-126 588,-144 588,-138"/>
<text text-anchor="middle" x="510" y="-122.3" font-family="Times,serif" font-size="14.00">Grado Superior (DAM y DAW)</text>
</g>
<!-- Grado Medio&#45;&gt;Grado Superior (DAM y DAW) -->
<g id="edge4" class="edge">
<title>Grado Medio&#45;&gt;Grado Superior (DAM y DAW)</title>
<path fill="none" stroke="black" d="M326.19,-215.97C363.99,-197.67 424.16,-168.55 465.29,-148.64"/>
<polygon fill="black" stroke="black" points="467.06,-151.67 474.54,-144.16 464.01,-145.37 467.06,-151.67"/>
</g>
<!-- Mantenimiento de sistemas informáticos -->
<g id="node6" class="node">
<title>Mantenimiento de sistemas informáticos</title>
<path fill="none" stroke="black" d="M600,-252C600,-252 384,-252 384,-252 378,-252 372,-246 372,-240 372,-240 372,-228 372,-228 372,-222 378,-216 384,-216 384,-216 600,-216 600,-216 606,-216 612,-222 612,-228 612,-228 612,-240 612,-240 612,-246 606,-252 600,-252"/>
<text text-anchor="middle" x="492" y="-230.3" font-family="Times,serif" font-size="14.00">Mantenimiento de sistemas informáticos</text>
</g>
<!-- Grado Medio&#45;&gt;Mantenimiento de sistemas informáticos -->
<g id="edge5" class="edge">
<title>Grado Medio&#45;&gt;Mantenimiento de sistemas informáticos</title>
<path fill="none" stroke="black" d="M336.15,-234C344.68,-234 353.21,-234 361.74,-234"/>
<polygon fill="black" stroke="black" points="361.76,-237.5 371.76,-234 361.76,-230.5 361.76,-237.5"/>
</g>
<!-- Implantación de nuevos sistemas -->
<g id="node7" class="node">
<title>Implantación de nuevos sistemas</title>
<path fill="none" stroke="black" d="M365.5,-144C365.5,-144 192.5,-144 192.5,-144 186.5,-144 180.5,-138 180.5,-132 180.5,-132 180.5,-120 180.5,-120 180.5,-114 186.5,-108 192.5,-108 192.5,-108 365.5,-108 365.5,-108 371.5,-108 377.5,-114 377.5,-120 377.5,-120 377.5,-132 377.5,-132 377.5,-138 371.5,-144 365.5,-144"/>
<text text-anchor="middle" x="279" y="-122.3" font-family="Times,serif" font-size="14.00">Implantación de nuevos sistemas</text>
</g>
<!-- Grado Superior (ASIR)&#45;&gt;Implantación de nuevos sistemas -->
<g id="edge6" class="edge">
<title>Grado Superior (ASIR)&#45;&gt;Implantación de nuevos sistemas</title>
<path fill="none" stroke="black" d="M144.37,-126C153,-126 161.63,-126 170.26,-126"/>
<polygon fill="black" stroke="black" points="170.39,-129.5 180.39,-126 170.39,-122.5 170.39,-129.5"/>
</g>
<!-- Universidad (gestión) -->
<g id="node10" class="node">
<title>Universidad (gestión)</title>
<path fill="none" stroke="black" d="M127,-36C127,-36 17,-36 17,-36 11,-36 5,-30 5,-24 5,-24 5,-12 5,-12 5,-6 11,0 17,0 17,0 127,0 127,0 133,0 139,-6 139,-12 139,-12 139,-24 139,-24 139,-30 133,-36 127,-36"/>
<text text-anchor="middle" x="72" y="-14.3" font-family="Times,serif" font-size="14.00">Universidad (gestión)</text>
</g>
<!-- Grado Superior (ASIR)&#45;&gt;Universidad (gestión) -->
<g id="edge9" class="edge">
<title>Grado Superior (ASIR)&#45;&gt;Universidad (gestión)</title>
<path fill="none" stroke="black" d="M72,-107.97C72,-91.38 72,-65.88 72,-46.43"/>
<polygon fill="black" stroke="black" points="75.5,-46.34 72,-36.34 68.5,-46.34 75.5,-46.34"/>
</g>
<!-- Universidad (desarrollo) -->
<g id="node8" class="node">
<title>Universidad (desarrollo)</title>
<path fill="none" stroke="black" d="M572.5,-36C572.5,-36 447.5,-36 447.5,-36 441.5,-36 435.5,-30 435.5,-24 435.5,-24 435.5,-12 435.5,-12 435.5,-6 441.5,0 447.5,0 447.5,0 572.5,0 572.5,0 578.5,0 584.5,-6 584.5,-12 584.5,-12 584.5,-24 584.5,-24 584.5,-30 578.5,-36 572.5,-36"/>
<text text-anchor="middle" x="510" y="-14.3" font-family="Times,serif" font-size="14.00">Universidad (desarrollo)</text>
</g>
<!-- Grado Superior (DAM y DAW)&#45;&gt;Universidad (desarrollo) -->
<g id="edge7" class="edge">
<title>Grado Superior (DAM y DAW)&#45;&gt;Universidad (desarrollo)</title>
<path fill="none" stroke="black" d="M510,-107.97C510,-91.38 510,-65.88 510,-46.43"/>
<polygon fill="black" stroke="black" points="513.5,-46.34 510,-36.34 506.5,-46.34 513.5,-46.34"/>
</g>
<!-- Programación de nuevos sistemas -->
<g id="node9" class="node">
<title>Programación de nuevos sistemas</title>
<path fill="none" stroke="black" d="M832,-144C832,-144 654,-144 654,-144 648,-144 642,-138 642,-132 642,-132 642,-120 642,-120 642,-114 648,-108 654,-108 654,-108 832,-108 832,-108 838,-108 844,-114 844,-120 844,-120 844,-132 844,-132 844,-138 838,-144 832,-144"/>
<text text-anchor="middle" x="743" y="-122.3" font-family="Times,serif" font-size="14.00">Programación de nuevos sistemas</text>
</g>
<!-- Grado Superior (DAM y DAW)&#45;&gt;Programación de nuevos sistemas -->
<g id="edge8" class="edge">
<title>Grado Superior (DAM y DAW)&#45;&gt;Programación de nuevos sistemas</title>
<path fill="none" stroke="black" d="M606.02,-126C614.61,-126 623.2,-126 631.79,-126"/>
<polygon fill="black" stroke="black" points="631.87,-129.5 641.87,-126 631.87,-122.5 631.87,-129.5"/>
</g>
</g>
</svg>
