<?xml version="1.0" encoding="UTF-8" standalone="no"?>
<!DOCTYPE svg PUBLIC "-//W3C//DTD SVG 1.1//EN"
 "http://www.w3.org/Graphics/SVG/1.1/DTD/svg11.dtd">
<!-- Generated by graphviz version 2.43.0 (0)
 -->
<!-- Title: %3 Pages: 1 -->
<svg width="1038pt" height="368pt"
 viewBox="0.00 0.00 1037.50 368.00" xmlns="http://www.w3.org/2000/svg" xmlns:xlink="http://www.w3.org/1999/xlink">
<g id="graph0" class="graph" transform="scale(1 1) rotate(0) translate(4 364)">
<title>%3</title>
<polygon fill="white" stroke="transparent" points="-4,4 -4,-364 1033.5,-364 1033.5,4 -4,4"/>
<!-- F.P. Básica -->
<g id="node1" class="node">
<title>F.P. Básica</title>
<polygon fill="none" stroke="black" points="381,-354 308,-354 308,-330 381,-330 381,-324 399,-342 381,-360 381,-354"/>
<text text-anchor="middle" x="353.5" y="-338.3" font-family="Times,serif" font-size="14.00">F.P. Básica</text>
</g>
<!-- Grado Medio -->
<g id="node2" class="node">
<title>Grado Medio</title>
<polygon fill="none" stroke="black" points="390,-246 299,-246 299,-222 390,-222 390,-216 408,-234 390,-252 390,-246"/>
<text text-anchor="middle" x="353.5" y="-230.3" font-family="Times,serif" font-size="14.00">Grado Medio</text>
</g>
<!-- F.P. Básica&#45;&gt;Grado Medio -->
<g id="edge1" class="edge">
<title>F.P. Básica&#45;&gt;Grado Medio</title>
<path fill="none" stroke="black" d="M353.5,-323.97C353.5,-307.38 353.5,-281.88 353.5,-262.43"/>
<polygon fill="black" stroke="black" points="357,-262.34 353.5,-252.34 350,-262.34 357,-262.34"/>
</g>
<!-- Mantenimiento básico en pequeña oficina -->
<g id="node3" class="node">
<title>Mantenimiento básico en pequeña oficina</title>
<path fill="none" stroke="black" d="M736,-360C736,-360 447,-360 447,-360 441,-360 435,-354 435,-348 435,-348 435,-336 435,-336 435,-330 441,-324 447,-324 447,-324 736,-324 736,-324 742,-324 748,-330 748,-336 748,-336 748,-348 748,-348 748,-354 742,-360 736,-360"/>
<text text-anchor="middle" x="591.5" y="-338.3" font-family="Times,serif" font-size="14.00">Mantenimiento básico en pequeña oficina</text>
</g>
<!-- F.P. Básica&#45;&gt;Mantenimiento básico en pequeña oficina -->
<g id="edge2" class="edge">
<title>F.P. Básica&#45;&gt;Mantenimiento básico en pequeña oficina</title>
<path fill="none" stroke="black" d="M399.05,-342C407.61,-342 416.16,-342 424.72,-342"/>
<polygon fill="black" stroke="black" points="424.76,-345.5 434.76,-342 424.76,-338.5 424.76,-345.5"/>
</g>
<!-- Grado Superior (ASIR) -->
<g id="node4" class="node">
<title>Grado Superior (ASIR)</title>
<polygon fill="none" stroke="black" points="159,-138 0,-138 0,-114 159,-114 159,-108 177,-126 159,-144 159,-138"/>
<text text-anchor="middle" x="88.5" y="-122.3" font-family="Times,serif" font-size="14.00">Grado Superior (ASIR)</text>
</g>
<!-- Grado Medio&#45;&gt;Grado Superior (ASIR) -->
<g id="edge3" class="edge">
<title>Grado Medio&#45;&gt;Grado Superior (ASIR)</title>
<path fill="none" stroke="black" d="M310.92,-215.97C264.6,-197.44 190.52,-167.81 140.72,-147.89"/>
<polygon fill="black" stroke="black" points="142,-144.63 131.41,-144.16 139.4,-151.13 142,-144.63"/>
</g>
<!-- Grado Superior (DAM y DAW) -->
<g id="node5" class="node">
<title>Grado Superior (DAM y DAW)</title>
<polygon fill="none" stroke="black" points="715.5,-138 503.5,-138 503.5,-114 715.5,-114 715.5,-108 733.5,-126 715.5,-144 715.5,-138"/>
<text text-anchor="middle" x="618.5" y="-122.3" font-family="Times,serif" font-size="14.00">Grado Superior (DAM y DAW)</text>
</g>
<!-- Grado Medio&#45;&gt;Grado Superior (DAM y DAW) -->
<g id="edge4" class="edge">
<title>Grado Medio&#45;&gt;Grado Superior (DAM y DAW)</title>
<path fill="none" stroke="black" d="M396.08,-215.97C442.4,-197.44 516.48,-167.81 566.28,-147.89"/>
<polygon fill="black" stroke="black" points="567.6,-151.13 575.59,-144.16 565,-144.63 567.6,-151.13"/>
</g>
<!-- Mantenimiento de sistemas informáticos -->
<g id="node6" class="node">
<title>Mantenimiento de sistemas informáticos</title>
<path fill="none" stroke="black" d="M740.5,-252C740.5,-252 456.5,-252 456.5,-252 450.5,-252 444.5,-246 444.5,-240 444.5,-240 444.5,-228 444.5,-228 444.5,-222 450.5,-216 456.5,-216 456.5,-216 740.5,-216 740.5,-216 746.5,-216 752.5,-222 752.5,-228 752.5,-228 752.5,-240 752.5,-240 752.5,-246 746.5,-252 740.5,-252"/>
<text text-anchor="middle" x="598.5" y="-230.3" font-family="Times,serif" font-size="14.00">Mantenimiento de sistemas informáticos</text>
</g>
<!-- Grado Medio&#45;&gt;Mantenimiento de sistemas informáticos -->
<g id="edge5" class="edge">
<title>Grado Medio&#45;&gt;Mantenimiento de sistemas informáticos</title>
<path fill="none" stroke="black" d="M408.05,-234C416.7,-234 425.34,-234 433.98,-234"/>
<polygon fill="black" stroke="black" points="434.13,-237.5 444.13,-234 434.13,-230.5 434.13,-237.5"/>
</g>
<!-- Implantación de nuevos sistemas -->
<g id="node7" class="node">
<title>Implantación de nuevos sistemas</title>
<path fill="none" stroke="black" d="M455.5,-144C455.5,-144 225.5,-144 225.5,-144 219.5,-144 213.5,-138 213.5,-132 213.5,-132 213.5,-120 213.5,-120 213.5,-114 219.5,-108 225.5,-108 225.5,-108 455.5,-108 455.5,-108 461.5,-108 467.5,-114 467.5,-120 467.5,-120 467.5,-132 467.5,-132 467.5,-138 461.5,-144 455.5,-144"/>
<text text-anchor="middle" x="340.5" y="-122.3" font-family="Times,serif" font-size="14.00">Implantación de nuevos sistemas</text>
</g>
<!-- Grado Superior (ASIR)&#45;&gt;Implantación de nuevos sistemas -->
<g id="edge6" class="edge">
<title>Grado Superior (ASIR)&#45;&gt;Implantación de nuevos sistemas</title>
<path fill="none" stroke="black" d="M177.09,-126C185.81,-126 194.53,-126 203.24,-126"/>
<polygon fill="black" stroke="black" points="203.48,-129.5 213.48,-126 203.48,-122.5 203.48,-129.5"/>
</g>
<!-- Universidad (gestión) -->
<g id="node10" class="node">
<title>Universidad (gestión)</title>
<path fill="none" stroke="black" d="M162,-36C162,-36 15,-36 15,-36 9,-36 3,-30 3,-24 3,-24 3,-12 3,-12 3,-6 9,0 15,0 15,0 162,0 162,0 168,0 174,-6 174,-12 174,-12 174,-24 174,-24 174,-30 168,-36 162,-36"/>
<text text-anchor="middle" x="88.5" y="-14.3" font-family="Times,serif" font-size="14.00">Universidad (gestión)</text>
</g>
<!-- Grado Superior (ASIR)&#45;&gt;Universidad (gestión) -->
<g id="edge9" class="edge">
<title>Grado Superior (ASIR)&#45;&gt;Universidad (gestión)</title>
<path fill="none" stroke="black" d="M88.5,-107.97C88.5,-91.38 88.5,-65.88 88.5,-46.43"/>
<polygon fill="black" stroke="black" points="92,-46.34 88.5,-36.34 85,-46.34 92,-46.34"/>
</g>
<!-- Universidad (desarrollo) -->
<g id="node8" class="node">
<title>Universidad (desarrollo)</title>
<path fill="none" stroke="black" d="M702,-36C702,-36 535,-36 535,-36 529,-36 523,-30 523,-24 523,-24 523,-12 523,-12 523,-6 529,0 535,0 535,0 702,0 702,0 708,0 714,-6 714,-12 714,-12 714,-24 714,-24 714,-30 708,-36 702,-36"/>
<text text-anchor="middle" x="618.5" y="-14.3" font-family="Times,serif" font-size="14.00">Universidad (desarrollo)</text>
</g>
<!-- Grado Superior (DAM y DAW)&#45;&gt;Universidad (desarrollo) -->
<g id="edge7" class="edge">
<title>Grado Superior (DAM y DAW)&#45;&gt;Universidad (desarrollo)</title>
<path fill="none" stroke="black" d="M618.5,-107.97C618.5,-91.38 618.5,-65.88 618.5,-46.43"/>
<polygon fill="black" stroke="black" points="622,-46.34 618.5,-36.34 615,-46.34 622,-46.34"/>
</g>
<!-- Programación de nuevos sistemas -->
<g id="node9" class="node">
<title>Programación de nuevos sistemas</title>
<path fill="none" stroke="black" d="M1017.5,-144C1017.5,-144 781.5,-144 781.5,-144 775.5,-144 769.5,-138 769.5,-132 769.5,-132 769.5,-120 769.5,-120 769.5,-114 775.5,-108 781.5,-108 781.5,-108 1017.5,-108 1017.5,-108 1023.5,-108 1029.5,-114 1029.5,-120 1029.5,-120 1029.5,-132 1029.5,-132 1029.5,-138 1023.5,-144 1017.5,-144"/>
<text text-anchor="middle" x="899.5" y="-122.3" font-family="Times,serif" font-size="14.00">Programación de nuevos sistemas</text>
</g>
<!-- Grado Superior (DAM y DAW)&#45;&gt;Programación de nuevos sistemas -->
<g id="edge8" class="edge">
<title>Grado Superior (DAM y DAW)&#45;&gt;Programación de nuevos sistemas</title>
<path fill="none" stroke="black" d="M733.75,-126C742.29,-126 750.82,-126 759.35,-126"/>
<polygon fill="black" stroke="black" points="759.36,-129.5 769.36,-126 759.36,-122.5 759.36,-129.5"/>
</g>
</g>
</svg>
