<?xml version="1.0" encoding="UTF-8" standalone="no"?>
<!DOCTYPE svg PUBLIC "-//W3C//DTD SVG 1.1//EN"
 "http://www.w3.org/Graphics/SVG/1.1/DTD/svg11.dtd">
<!-- Generated by graphviz version 2.43.0 (0)
 -->
<!-- Title: %3 Pages: 1 -->
<svg width="1040pt" height="368pt"
 viewBox="0.00 0.00 1040.00 368.00" xmlns="http://www.w3.org/2000/svg" xmlns:xlink="http://www.w3.org/1999/xlink">
<g id="graph0" class="graph" transform="scale(1 1) rotate(0) translate(4 364)">
<title>%3</title>
<polygon fill="white" stroke="transparent" points="-4,4 -4,-364 1036,-364 1036,4 -4,4"/>
<!-- F.P. Básica -->
<g id="node1" class="node">
<title>F.P. Básica</title>
<polygon fill="none" stroke="black" points="383.5,-354 310.5,-354 310.5,-330 383.5,-330 383.5,-324 401.5,-342 383.5,-360 383.5,-354"/>
<text text-anchor="middle" x="356" y="-338.3" font-family="Times,serif" font-size="14.00">F.P. Básica</text>
</g>
<!-- Grado Medio -->
<g id="node2" class="node">
<title>Grado Medio</title>
<polygon fill="none" stroke="black" points="392.5,-246 301.5,-246 301.5,-222 392.5,-222 392.5,-216 410.5,-234 392.5,-252 392.5,-246"/>
<text text-anchor="middle" x="356" y="-230.3" font-family="Times,serif" font-size="14.00">Grado Medio</text>
</g>
<!-- F.P. Básica&#45;&gt;Grado Medio -->
<g id="edge1" class="edge">
<title>F.P. Básica&#45;&gt;Grado Medio</title>
<path fill="none" stroke="black" d="M356,-323.97C356,-307.38 356,-281.88 356,-262.43"/>
<polygon fill="black" stroke="black" points="359.5,-262.34 356,-252.34 352.5,-262.34 359.5,-262.34"/>
</g>
<!-- Mantenimiento básico en pequeña oficina -->
<g id="node3" class="node">
<title>Mantenimiento básico en pequeña oficina</title>
<path fill="none" stroke="black" d="M738.5,-360C738.5,-360 449.5,-360 449.5,-360 443.5,-360 437.5,-354 437.5,-348 437.5,-348 437.5,-336 437.5,-336 437.5,-330 443.5,-324 449.5,-324 449.5,-324 738.5,-324 738.5,-324 744.5,-324 750.5,-330 750.5,-336 750.5,-336 750.5,-348 750.5,-348 750.5,-354 744.5,-360 738.5,-360"/>
<text text-anchor="middle" x="594" y="-338.3" font-family="Times,serif" font-size="14.00">Mantenimiento básico en pequeña oficina</text>
</g>
<!-- F.P. Básica&#45;&gt;Mantenimiento básico en pequeña oficina -->
<g id="edge2" class="edge">
<title>F.P. Básica&#45;&gt;Mantenimiento básico en pequeña oficina</title>
<path fill="none" stroke="black" d="M401.55,-342C410.11,-342 418.66,-342 427.22,-342"/>
<polygon fill="black" stroke="black" points="427.26,-345.5 437.26,-342 427.26,-338.5 427.26,-345.5"/>
</g>
<!-- Grado Superior (ASIR) -->
<g id="node4" class="node">
<title>Grado Superior (ASIR)</title>
<polygon fill="none" stroke="black" points="161.5,-138 2.5,-138 2.5,-114 161.5,-114 161.5,-108 179.5,-126 161.5,-144 161.5,-138"/>
<text text-anchor="middle" x="91" y="-122.3" font-family="Times,serif" font-size="14.00">Grado Superior (ASIR)</text>
</g>
<!-- Grado Medio&#45;&gt;Grado Superior (ASIR) -->
<g id="edge3" class="edge">
<title>Grado Medio&#45;&gt;Grado Superior (ASIR)</title>
<path fill="none" stroke="black" d="M313.42,-215.97C267.1,-197.44 193.02,-167.81 143.22,-147.89"/>
<polygon fill="black" stroke="black" points="144.5,-144.63 133.91,-144.16 141.9,-151.13 144.5,-144.63"/>
</g>
<!-- Grado Superior (DAM y DAW) -->
<g id="node5" class="node">
<title>Grado Superior (DAM y DAW)</title>
<polygon fill="none" stroke="black" points="718,-138 506,-138 506,-114 718,-114 718,-108 736,-126 718,-144 718,-138"/>
<text text-anchor="middle" x="621" y="-122.3" font-family="Times,serif" font-size="14.00">Grado Superior (DAM y DAW)</text>
</g>
<!-- Grado Medio&#45;&gt;Grado Superior (DAM y DAW) -->
<g id="edge4" class="edge">
<title>Grado Medio&#45;&gt;Grado Superior (DAM y DAW)</title>
<path fill="none" stroke="black" d="M398.58,-215.97C444.9,-197.44 518.98,-167.81 568.78,-147.89"/>
<polygon fill="black" stroke="black" points="570.1,-151.13 578.09,-144.16 567.5,-144.63 570.1,-151.13"/>
</g>
<!-- Mantenimiento de sistemas informáticos -->
<g id="node6" class="node">
<title>Mantenimiento de sistemas informáticos</title>
<path fill="none" stroke="black" d="M743,-252C743,-252 459,-252 459,-252 453,-252 447,-246 447,-240 447,-240 447,-228 447,-228 447,-222 453,-216 459,-216 459,-216 743,-216 743,-216 749,-216 755,-222 755,-228 755,-228 755,-240 755,-240 755,-246 749,-252 743,-252"/>
<text text-anchor="middle" x="601" y="-230.3" font-family="Times,serif" font-size="14.00">Mantenimiento de sistemas informáticos</text>
</g>
<!-- Grado Medio&#45;&gt;Mantenimiento de sistemas informáticos -->
<g id="edge5" class="edge">
<title>Grado Medio&#45;&gt;Mantenimiento de sistemas informáticos</title>
<path fill="none" stroke="black" d="M410.55,-234C419.2,-234 427.84,-234 436.48,-234"/>
<polygon fill="black" stroke="black" points="436.63,-237.5 446.63,-234 436.63,-230.5 436.63,-237.5"/>
</g>
<!-- Implantación de nuevos sistemas -->
<g id="node7" class="node">
<title>Implantación de nuevos sistemas</title>
<path fill="none" stroke="black" d="M458,-144C458,-144 228,-144 228,-144 222,-144 216,-138 216,-132 216,-132 216,-120 216,-120 216,-114 222,-108 228,-108 228,-108 458,-108 458,-108 464,-108 470,-114 470,-120 470,-120 470,-132 470,-132 470,-138 464,-144 458,-144"/>
<text text-anchor="middle" x="343" y="-122.3" font-family="Times,serif" font-size="14.00">Implantación de nuevos sistemas</text>
</g>
<!-- Grado Superior (ASIR)&#45;&gt;Implantación de nuevos sistemas -->
<g id="edge6" class="edge">
<title>Grado Superior (ASIR)&#45;&gt;Implantación de nuevos sistemas</title>
<path fill="none" stroke="black" d="M179.59,-126C188.31,-126 197.03,-126 205.74,-126"/>
<polygon fill="black" stroke="black" points="205.98,-129.5 215.98,-126 205.98,-122.5 205.98,-129.5"/>
</g>
<!-- Universidad (sistemas) -->
<g id="node10" class="node">
<title>Universidad (sistemas)</title>
<path fill="none" stroke="black" d="M170,-36C170,-36 12,-36 12,-36 6,-36 0,-30 0,-24 0,-24 0,-12 0,-12 0,-6 6,0 12,0 12,0 170,0 170,0 176,0 182,-6 182,-12 182,-12 182,-24 182,-24 182,-30 176,-36 170,-36"/>
<text text-anchor="middle" x="91" y="-14.3" font-family="Times,serif" font-size="14.00">Universidad (sistemas)</text>
</g>
<!-- Grado Superior (ASIR)&#45;&gt;Universidad (sistemas) -->
<g id="edge9" class="edge">
<title>Grado Superior (ASIR)&#45;&gt;Universidad (sistemas)</title>
<path fill="none" stroke="black" d="M91,-107.97C91,-91.38 91,-65.88 91,-46.43"/>
<polygon fill="black" stroke="black" points="94.5,-46.34 91,-36.34 87.5,-46.34 94.5,-46.34"/>
</g>
<!-- Universidad (desarrollo) -->
<g id="node8" class="node">
<title>Universidad (desarrollo)</title>
<path fill="none" stroke="black" d="M704.5,-36C704.5,-36 537.5,-36 537.5,-36 531.5,-36 525.5,-30 525.5,-24 525.5,-24 525.5,-12 525.5,-12 525.5,-6 531.5,0 537.5,0 537.5,0 704.5,0 704.5,0 710.5,0 716.5,-6 716.5,-12 716.5,-12 716.5,-24 716.5,-24 716.5,-30 710.5,-36 704.5,-36"/>
<text text-anchor="middle" x="621" y="-14.3" font-family="Times,serif" font-size="14.00">Universidad (desarrollo)</text>
</g>
<!-- Grado Superior (DAM y DAW)&#45;&gt;Universidad (desarrollo) -->
<g id="edge7" class="edge">
<title>Grado Superior (DAM y DAW)&#45;&gt;Universidad (desarrollo)</title>
<path fill="none" stroke="black" d="M621,-107.97C621,-91.38 621,-65.88 621,-46.43"/>
<polygon fill="black" stroke="black" points="624.5,-46.34 621,-36.34 617.5,-46.34 624.5,-46.34"/>
</g>
<!-- Programación de nuevos sistemas -->
<g id="node9" class="node">
<title>Programación de nuevos sistemas</title>
<path fill="none" stroke="black" d="M1020,-144C1020,-144 784,-144 784,-144 778,-144 772,-138 772,-132 772,-132 772,-120 772,-120 772,-114 778,-108 784,-108 784,-108 1020,-108 1020,-108 1026,-108 1032,-114 1032,-120 1032,-120 1032,-132 1032,-132 1032,-138 1026,-144 1020,-144"/>
<text text-anchor="middle" x="902" y="-122.3" font-family="Times,serif" font-size="14.00">Programación de nuevos sistemas</text>
</g>
<!-- Grado Superior (DAM y DAW)&#45;&gt;Programación de nuevos sistemas -->
<g id="edge8" class="edge">
<title>Grado Superior (DAM y DAW)&#45;&gt;Programación de nuevos sistemas</title>
<path fill="none" stroke="black" d="M736.25,-126C744.79,-126 753.32,-126 761.85,-126"/>
<polygon fill="black" stroke="black" points="761.86,-129.5 771.86,-126 761.86,-122.5 761.86,-129.5"/>
</g>
</g>
</svg>
