<?xml version="1.0" encoding="UTF-8" standalone="no"?>
<!DOCTYPE svg PUBLIC "-//W3C//DTD SVG 1.1//EN"
 "http://www.w3.org/Graphics/SVG/1.1/DTD/svg11.dtd">
<!-- Generated by graphviz version 2.43.0 (0)
 -->
<!-- Title: %3 Pages: 1 -->
<svg width="1040pt" height="400pt"
 viewBox="0.00 0.00 1040.00 400.00" xmlns="http://www.w3.org/2000/svg" xmlns:xlink="http://www.w3.org/1999/xlink">
<g id="graph0" class="graph" transform="scale(1 1) rotate(0) translate(4 396)">
<title>%3</title>
<polygon fill="white" stroke="transparent" points="-4,4 -4,-396 1036,-396 1036,4 -4,4"/>
<!-- F.P. Básica -->
<g id="node1" class="node">
<title>F.P. Básica</title>
<polygon fill="none" stroke="black" points="383.5,-386 310.5,-386 310.5,-362 383.5,-362 383.5,-356 401.5,-374 383.5,-392 383.5,-386"/>
<text text-anchor="middle" x="356" y="-370.3" font-family="Times,serif" font-size="14.00">F.P. Básica</text>
</g>
<!-- Grado Medio -->
<g id="node2" class="node">
<title>Grado Medio</title>
<polygon fill="none" stroke="black" points="392.5,-278 301.5,-278 301.5,-254 392.5,-254 392.5,-248 410.5,-266 392.5,-284 392.5,-278"/>
<text text-anchor="middle" x="356" y="-262.3" font-family="Times,serif" font-size="14.00">Grado Medio</text>
</g>
<!-- F.P. Básica&#45;&gt;Grado Medio -->
<g id="edge1" class="edge">
<title>F.P. Básica&#45;&gt;Grado Medio</title>
<path fill="none" stroke="black" d="M356,-355.97C356,-339.38 356,-313.88 356,-294.43"/>
<polygon fill="black" stroke="black" points="359.5,-294.34 356,-284.34 352.5,-294.34 359.5,-294.34"/>
</g>
<!-- Mantenimiento básico en pequeña oficina -->
<g id="node3" class="node">
<title>Mantenimiento básico en pequeña oficina</title>
<path fill="none" stroke="black" d="M738.5,-392C738.5,-392 449.5,-392 449.5,-392 443.5,-392 437.5,-386 437.5,-380 437.5,-380 437.5,-368 437.5,-368 437.5,-362 443.5,-356 449.5,-356 449.5,-356 738.5,-356 738.5,-356 744.5,-356 750.5,-362 750.5,-368 750.5,-368 750.5,-380 750.5,-380 750.5,-386 744.5,-392 738.5,-392"/>
<text text-anchor="middle" x="594" y="-370.3" font-family="Times,serif" font-size="14.00">Mantenimiento básico en pequeña oficina</text>
</g>
<!-- F.P. Básica&#45;&gt;Mantenimiento básico en pequeña oficina -->
<g id="edge2" class="edge">
<title>F.P. Básica&#45;&gt;Mantenimiento básico en pequeña oficina</title>
<path fill="none" stroke="black" d="M401.55,-374C410.11,-374 418.66,-374 427.22,-374"/>
<polygon fill="black" stroke="black" points="427.26,-377.5 437.26,-374 427.26,-370.5 427.26,-377.5"/>
</g>
<!-- Grado Superior (ASIR) -->
<g id="node4" class="node">
<title>Grado Superior (ASIR)</title>
<polygon fill="none" stroke="black" points="161.5,-170 2.5,-170 2.5,-146 161.5,-146 161.5,-140 179.5,-158 161.5,-176 161.5,-170"/>
<text text-anchor="middle" x="91" y="-154.3" font-family="Times,serif" font-size="14.00">Grado Superior (ASIR)</text>
</g>
<!-- Grado Medio&#45;&gt;Grado Superior (ASIR) -->
<g id="edge3" class="edge">
<title>Grado Medio&#45;&gt;Grado Superior (ASIR)</title>
<path fill="none" stroke="black" d="M313.42,-247.97C267.1,-229.44 193.02,-199.81 143.22,-179.89"/>
<polygon fill="black" stroke="black" points="144.5,-176.63 133.91,-176.16 141.9,-183.13 144.5,-176.63"/>
</g>
<!-- Grado Superior (DAM y DAW) -->
<g id="node5" class="node">
<title>Grado Superior (DAM y DAW)</title>
<polygon fill="none" stroke="black" points="718,-170 506,-170 506,-146 718,-146 718,-140 736,-158 718,-176 718,-170"/>
<text text-anchor="middle" x="621" y="-154.3" font-family="Times,serif" font-size="14.00">Grado Superior (DAM y DAW)</text>
</g>
<!-- Grado Medio&#45;&gt;Grado Superior (DAM y DAW) -->
<g id="edge4" class="edge">
<title>Grado Medio&#45;&gt;Grado Superior (DAM y DAW)</title>
<path fill="none" stroke="black" d="M398.58,-247.97C444.9,-229.44 518.98,-199.81 568.78,-179.89"/>
<polygon fill="black" stroke="black" points="570.1,-183.13 578.09,-176.16 567.5,-176.63 570.1,-183.13"/>
</g>
<!-- Mantenimiento de sistemas informáticos -->
<g id="node6" class="node">
<title>Mantenimiento de sistemas informáticos</title>
<path fill="none" stroke="black" d="M743,-284C743,-284 459,-284 459,-284 453,-284 447,-278 447,-272 447,-272 447,-260 447,-260 447,-254 453,-248 459,-248 459,-248 743,-248 743,-248 749,-248 755,-254 755,-260 755,-260 755,-272 755,-272 755,-278 749,-284 743,-284"/>
<text text-anchor="middle" x="601" y="-262.3" font-family="Times,serif" font-size="14.00">Mantenimiento de sistemas informáticos</text>
</g>
<!-- Grado Medio&#45;&gt;Mantenimiento de sistemas informáticos -->
<g id="edge5" class="edge">
<title>Grado Medio&#45;&gt;Mantenimiento de sistemas informáticos</title>
<path fill="none" stroke="black" d="M410.55,-266C419.2,-266 427.84,-266 436.48,-266"/>
<polygon fill="black" stroke="black" points="436.63,-269.5 446.63,-266 436.63,-262.5 436.63,-269.5"/>
</g>
<!-- Implantación de nuevos sistemas -->
<g id="node7" class="node">
<title>Implantación de nuevos sistemas</title>
<path fill="none" stroke="black" d="M458,-176C458,-176 228,-176 228,-176 222,-176 216,-170 216,-164 216,-164 216,-152 216,-152 216,-146 222,-140 228,-140 228,-140 458,-140 458,-140 464,-140 470,-146 470,-152 470,-152 470,-164 470,-164 470,-170 464,-176 458,-176"/>
<text text-anchor="middle" x="343" y="-154.3" font-family="Times,serif" font-size="14.00">Implantación de nuevos sistemas</text>
</g>
<!-- Grado Superior (ASIR)&#45;&gt;Implantación de nuevos sistemas -->
<g id="edge6" class="edge">
<title>Grado Superior (ASIR)&#45;&gt;Implantación de nuevos sistemas</title>
<path fill="none" stroke="black" d="M179.59,-158C188.31,-158 197.03,-158 205.74,-158"/>
<polygon fill="black" stroke="black" points="205.98,-161.5 215.98,-158 205.98,-154.5 205.98,-161.5"/>
</g>
<!-- Cursos de especialización\nVideojuegos\nBigdata\nSeguridad -->
<g id="node9" class="node">
<title>Cursos de especialización\nVideojuegos\nBigdata\nSeguridad</title>
<path fill="none" stroke="black" d="M442,-68C442,-68 266,-68 266,-68 260,-68 254,-62 254,-56 254,-56 254,-12 254,-12 254,-6 260,0 266,0 266,0 442,0 442,0 448,0 454,-6 454,-12 454,-12 454,-56 454,-56 454,-62 448,-68 442,-68"/>
<text text-anchor="middle" x="354" y="-52.8" font-family="Times,serif" font-size="14.00">Cursos de especialización</text>
<text text-anchor="middle" x="354" y="-37.8" font-family="Times,serif" font-size="14.00">Videojuegos</text>
<text text-anchor="middle" x="354" y="-22.8" font-family="Times,serif" font-size="14.00">Bigdata</text>
<text text-anchor="middle" x="354" y="-7.8" font-family="Times,serif" font-size="14.00">Seguridad</text>
</g>
<!-- Grado Superior (ASIR)&#45;&gt;Cursos de especialización\nVideojuegos\nBigdata\nSeguridad -->
<g id="edge11" class="edge">
<title>Grado Superior (ASIR)&#45;&gt;Cursos de especialización\nVideojuegos\nBigdata\nSeguridad</title>
<path fill="none" stroke="black" d="M127.85,-139.91C165.43,-122.47 224.96,-94.86 273.51,-72.34"/>
<polygon fill="black" stroke="black" points="275.16,-75.43 282.76,-68.05 272.21,-69.08 275.16,-75.43"/>
</g>
<!-- Universidad (sistemas) -->
<g id="node11" class="node">
<title>Universidad (sistemas)</title>
<path fill="none" stroke="black" d="M170,-52C170,-52 12,-52 12,-52 6,-52 0,-46 0,-40 0,-40 0,-28 0,-28 0,-22 6,-16 12,-16 12,-16 170,-16 170,-16 176,-16 182,-22 182,-28 182,-28 182,-40 182,-40 182,-46 176,-52 170,-52"/>
<text text-anchor="middle" x="91" y="-30.3" font-family="Times,serif" font-size="14.00">Universidad (sistemas)</text>
</g>
<!-- Grado Superior (ASIR)&#45;&gt;Universidad (sistemas) -->
<g id="edge10" class="edge">
<title>Grado Superior (ASIR)&#45;&gt;Universidad (sistemas)</title>
<path fill="none" stroke="black" d="M91,-139.78C91,-119.62 91,-85.96 91,-62.25"/>
<polygon fill="black" stroke="black" points="94.5,-62.13 91,-52.13 87.5,-62.13 94.5,-62.13"/>
</g>
<!-- Universidad (desarrollo) -->
<g id="node8" class="node">
<title>Universidad (desarrollo)</title>
<path fill="none" stroke="black" d="M704.5,-52C704.5,-52 537.5,-52 537.5,-52 531.5,-52 525.5,-46 525.5,-40 525.5,-40 525.5,-28 525.5,-28 525.5,-22 531.5,-16 537.5,-16 537.5,-16 704.5,-16 704.5,-16 710.5,-16 716.5,-22 716.5,-28 716.5,-28 716.5,-40 716.5,-40 716.5,-46 710.5,-52 704.5,-52"/>
<text text-anchor="middle" x="621" y="-30.3" font-family="Times,serif" font-size="14.00">Universidad (desarrollo)</text>
</g>
<!-- Grado Superior (DAM y DAW)&#45;&gt;Universidad (desarrollo) -->
<g id="edge7" class="edge">
<title>Grado Superior (DAM y DAW)&#45;&gt;Universidad (desarrollo)</title>
<path fill="none" stroke="black" d="M621,-139.78C621,-119.62 621,-85.96 621,-62.25"/>
<polygon fill="black" stroke="black" points="624.5,-62.13 621,-52.13 617.5,-62.13 624.5,-62.13"/>
</g>
<!-- Grado Superior (DAM y DAW)&#45;&gt;Cursos de especialización\nVideojuegos\nBigdata\nSeguridad -->
<g id="edge8" class="edge">
<title>Grado Superior (DAM y DAW)&#45;&gt;Cursos de especialización\nVideojuegos\nBigdata\nSeguridad</title>
<path fill="none" stroke="black" d="M583.59,-139.91C545.44,-122.47 485,-94.86 435.71,-72.34"/>
<polygon fill="black" stroke="black" points="436.88,-69.02 426.33,-68.05 433.97,-75.39 436.88,-69.02"/>
</g>
<!-- Programación de nuevos sistemas -->
<g id="node10" class="node">
<title>Programación de nuevos sistemas</title>
<path fill="none" stroke="black" d="M1020,-176C1020,-176 784,-176 784,-176 778,-176 772,-170 772,-164 772,-164 772,-152 772,-152 772,-146 778,-140 784,-140 784,-140 1020,-140 1020,-140 1026,-140 1032,-146 1032,-152 1032,-152 1032,-164 1032,-164 1032,-170 1026,-176 1020,-176"/>
<text text-anchor="middle" x="902" y="-154.3" font-family="Times,serif" font-size="14.00">Programación de nuevos sistemas</text>
</g>
<!-- Grado Superior (DAM y DAW)&#45;&gt;Programación de nuevos sistemas -->
<g id="edge9" class="edge">
<title>Grado Superior (DAM y DAW)&#45;&gt;Programación de nuevos sistemas</title>
<path fill="none" stroke="black" d="M736.25,-158C744.79,-158 753.32,-158 761.85,-158"/>
<polygon fill="black" stroke="black" points="761.86,-161.5 771.86,-158 761.86,-154.5 761.86,-161.5"/>
</g>
</g>
</svg>
