<?xml version="1.0" encoding="UTF-8" standalone="no"?>
<!DOCTYPE svg PUBLIC "-//W3C//DTD SVG 1.1//EN"
 "http://www.w3.org/Graphics/SVG/1.1/DTD/svg11.dtd">
<!-- Generated by graphviz version 2.40.1 (20161225.0304)
 -->
<!-- Title: %3 Pages: 1 -->
<svg width="310pt" height="260pt"
 viewBox="0.00 0.00 310.00 260.00" xmlns="http://www.w3.org/2000/svg" xmlns:xlink="http://www.w3.org/1999/xlink">
<g id="graph0" class="graph" transform="scale(1 1) rotate(0) translate(4 256)">
<title>%3</title>
<polygon fill="#ffffff" stroke="transparent" points="-4,4 -4,-256 306,-256 306,4 -4,4"/>
<!-- Shutdown -->
<g id="node1" class="node">
<title>Shutdown</title>
<polygon fill="none" stroke="#000000" points="71,-144 0,-144 0,-108 71,-108 71,-144"/>
<text text-anchor="middle" x="35.5" y="-122.3" font-family="Times,serif" font-size="14.00" fill="#000000">Shutdown</text>
</g>
<!-- Nomount -->
<g id="node2" class="node">
<title>Nomount</title>
<polygon fill="none" stroke="#000000" points="302,-252 234,-252 234,-216 302,-216 302,-252"/>
<text text-anchor="middle" x="268" y="-230.3" font-family="Times,serif" font-size="14.00" fill="#000000">Nomount</text>
</g>
<!-- Shutdown&#45;&gt;Nomount -->
<g id="edge1" class="edge">
<title>Shutdown&#45;&gt;Nomount</title>
<path fill="none" stroke="#000000" d="M44.2361,-144.0857C55.5264,-165.2765 77.3165,-199.5753 107,-216 142.7951,-235.8065 189.8891,-238.9166 223.8869,-237.9094"/>
<polygon fill="#000000" stroke="#000000" points="224.1487,-241.4015 233.9904,-237.4785 223.8504,-234.4079 224.1487,-241.4015"/>
<text text-anchor="middle" x="152.5" y="-240" font-family="Courier,monospace" font-size="10.00" fill="#000000">startup nomount</text>
</g>
<!-- Mount -->
<g id="node3" class="node">
<title>Mount</title>
<polygon fill="none" stroke="#000000" points="295,-144 241,-144 241,-108 295,-108 295,-144"/>
<text text-anchor="middle" x="268" y="-122.3" font-family="Times,serif" font-size="14.00" fill="#000000">Mount</text>
</g>
<!-- Shutdown&#45;&gt;Mount -->
<g id="edge2" class="edge">
<title>Shutdown&#45;&gt;Mount</title>
<path fill="none" stroke="#000000" d="M71.0648,-126C114.1939,-126 186.5601,-126 230.5297,-126"/>
<polygon fill="#000000" stroke="#000000" points="230.7944,-129.5001 240.7944,-126 230.7944,-122.5001 230.7944,-129.5001"/>
<text text-anchor="middle" x="152.5" y="-129" font-family="Courier,monospace" font-size="10.00" fill="#000000">startup mount</text>
</g>
<!-- Open -->
<g id="node4" class="node">
<title>Open</title>
<polygon fill="none" stroke="#000000" points="295,-36 241,-36 241,0 295,0 295,-36"/>
<text text-anchor="middle" x="268" y="-14.3" font-family="Times,serif" font-size="14.00" fill="#000000">Open</text>
</g>
<!-- Shutdown&#45;&gt;Open -->
<g id="edge3" class="edge">
<title>Shutdown&#45;&gt;Open</title>
<path fill="none" stroke="#000000" d="M61.6266,-107.887C74.8726,-99.14 91.4179,-88.8635 107,-81 148.1617,-60.2277 197.8934,-41.7009 231.0905,-30.2038"/>
<polygon fill="#000000" stroke="#000000" points="232.5079,-33.418 240.8344,-26.8667 230.2398,-26.7956 232.5079,-33.418"/>
<text text-anchor="middle" x="152.5" y="-84" font-family="Courier,monospace" font-size="10.00" fill="#000000">startup open</text>
</g>
<!-- Nomount&#45;&gt;Shutdown -->
<g id="edge6" class="edge">
<title>Nomount&#45;&gt;Shutdown</title>
<path fill="none" stroke="#000000" d="M233.9532,-218.1847C193.2953,-199.2984 125.1643,-167.6505 80.2731,-146.7978"/>
<polygon fill="#000000" stroke="#000000" points="81.6086,-143.5591 71.0648,-142.5204 78.6596,-149.9076 81.6086,-143.5591"/>
<text text-anchor="middle" x="152.5" y="-202" font-family="Courier,monospace" font-size="10.00" fill="#000000">shutdown</text>
</g>
<!-- Nomount&#45;&gt;Mount -->
<g id="edge4" class="edge">
<title>Nomount&#45;&gt;Mount</title>
<path fill="none" stroke="#000000" d="M268,-215.9498C268,-199.182 268,-173.9403 268,-154.46"/>
<polygon fill="#000000" stroke="#000000" points="271.5001,-154.3207 268,-144.3207 264.5001,-154.3208 271.5001,-154.3207"/>
<text text-anchor="middle" x="259.5" y="-177.5" font-family="Courier,monospace" font-size="10.00" fill="#000000">alter database mount &#160;&#160;&#160;&#160;&#160;</text>
</g>
<!-- Mount&#45;&gt;Shutdown -->
<g id="edge7" class="edge">
<title>Mount&#45;&gt;Shutdown</title>
<path fill="none" stroke="#000000" d="M240.7864,-116.3165C227.9822,-112.2567 212.3945,-108.016 198,-106 157.9465,-100.3903 147.0689,-100.5015 107,-106 98.4641,-107.1714 89.511,-109.0946 80.9407,-111.2971"/>
<polygon fill="#000000" stroke="#000000" points="79.8287,-107.9726 71.1035,-113.9828 81.6723,-114.7254 79.8287,-107.9726"/>
<text text-anchor="middle" x="152.5" y="-109" font-family="Courier,monospace" font-size="10.00" fill="#000000">shutdown</text>
</g>
<!-- Mount&#45;&gt;Open -->
<g id="edge5" class="edge">
<title>Mount&#45;&gt;Open</title>
<path fill="none" stroke="#000000" d="M268,-107.9498C268,-91.182 268,-65.9403 268,-46.46"/>
<polygon fill="#000000" stroke="#000000" points="271.5001,-46.3207 268,-36.3207 264.5001,-46.3208 271.5001,-46.3207"/>
<text text-anchor="middle" x="259.5" y="-69.5" font-family="Courier,monospace" font-size="10.00" fill="#000000">alter database open &#160;&#160;&#160;&#160;</text>
</g>
<!-- Open&#45;&gt;Shutdown -->
<g id="edge8" class="edge">
<title>Open&#45;&gt;Shutdown</title>
<path fill="none" stroke="#000000" d="M240.7318,-11.7934C207.0787,-5.646 149.1456,-.1114 107,-23 77.1092,-39.2332 57.0695,-74.0239 45.9914,-98.6697"/>
<polygon fill="#000000" stroke="#000000" points="42.7661,-97.3103 42.0514,-107.881 49.2021,-100.0632 42.7661,-97.3103"/>
<text text-anchor="middle" x="152.5" y="-26" font-family="Courier,monospace" font-size="10.00" fill="#000000">shutdown</text>
</g>
</g>
</svg>
