<?xml version="1.0" encoding="UTF-8" standalone="no"?>
<!DOCTYPE svg PUBLIC "-//W3C//DTD SVG 1.1//EN"
 "http://www.w3.org/Graphics/SVG/1.1/DTD/svg11.dtd">
<!-- Generated by graphviz version 2.40.1 (20161225.0304)
 -->
<!-- Title: %3 Pages: 1 -->
<svg width="309pt" height="266pt"
 viewBox="0.00 0.00 309.00 266.46" xmlns="http://www.w3.org/2000/svg" xmlns:xlink="http://www.w3.org/1999/xlink">
<g id="graph0" class="graph" transform="scale(1 1) rotate(0) translate(4 262.4644)">
<title>%3</title>
<polygon fill="#ffffff" stroke="transparent" points="-4,4 -4,-262.4644 305,-262.4644 305,4 -4,4"/>
<!-- Shutdown -->
<g id="node1" class="node">
<title>Shutdown</title>
<polygon fill="none" stroke="#000000" points="71,-144.4644 0,-144.4644 0,-108.4644 71,-108.4644 71,-144.4644"/>
<text text-anchor="middle" x="35.5" y="-122.7644" font-family="Times,serif" font-size="14.00" fill="#000000">Shutdown</text>
</g>
<!-- Nomount -->
<g id="node2" class="node">
<title>Nomount</title>
<polygon fill="none" stroke="#000000" points="301,-252.4644 233,-252.4644 233,-216.4644 301,-216.4644 301,-252.4644"/>
<text text-anchor="middle" x="267" y="-230.7644" font-family="Times,serif" font-size="14.00" fill="#000000">Nomount</text>
</g>
<!-- Shutdown&#45;&gt;Nomount -->
<g id="edge1" class="edge">
<title>Shutdown&#45;&gt;Nomount</title>
<path fill="none" stroke="#000000" d="M42.6004,-144.7849C52.8466,-168.4028 74.2234,-208.5578 107,-226.4644 142.3909,-245.7993 189.0211,-245.7979 222.8046,-242.1617"/>
<polygon fill="#000000" stroke="#000000" points="223.3486,-245.6213 232.8501,-240.9339 222.4993,-238.673 223.3486,-245.6213"/>
<text text-anchor="middle" x="152" y="-247.2644" font-family="Times,serif" font-size="14.00" fill="#000000">startup nomount</text>
</g>
<!-- Mount -->
<g id="node3" class="node">
<title>Mount</title>
<polygon fill="none" stroke="#000000" points="294,-144.4644 240,-144.4644 240,-108.4644 294,-108.4644 294,-144.4644"/>
<text text-anchor="middle" x="267" y="-122.7644" font-family="Times,serif" font-size="14.00" fill="#000000">Mount</text>
</g>
<!-- Shutdown&#45;&gt;Mount -->
<g id="edge2" class="edge">
<title>Shutdown&#45;&gt;Mount</title>
<path fill="none" stroke="#000000" d="M71.1645,-126.4644C114.166,-126.4644 186.0914,-126.4644 229.7777,-126.4644"/>
<polygon fill="#000000" stroke="#000000" points="229.9759,-129.9645 239.9758,-126.4644 229.9758,-122.9645 229.9759,-129.9645"/>
<text text-anchor="middle" x="152" y="-130.2644" font-family="Times,serif" font-size="14.00" fill="#000000">startup mount</text>
</g>
<!-- Open -->
<g id="node4" class="node">
<title>Open</title>
<polygon fill="none" stroke="#000000" points="294,-36.4644 240,-36.4644 240,-.4644 294,-.4644 294,-36.4644"/>
<text text-anchor="middle" x="267" y="-14.7644" font-family="Times,serif" font-size="14.00" fill="#000000">Open</text>
</g>
<!-- Shutdown&#45;&gt;Open -->
<g id="edge3" class="edge">
<title>Shutdown&#45;&gt;Open</title>
<path fill="none" stroke="#000000" d="M56.2545,-108.3968C69.9465,-97.1772 88.6777,-83.108 107,-73.4644 147.0449,-52.3875 196.8387,-36.7596 230.1443,-27.6557"/>
<polygon fill="#000000" stroke="#000000" points="231.1657,-31.0056 239.9221,-25.041 229.3573,-24.2432 231.1657,-31.0056"/>
<text text-anchor="middle" x="152" y="-77.2644" font-family="Times,serif" font-size="14.00" fill="#000000">startup open</text>
</g>
<!-- Nomount&#45;&gt;Shutdown -->
<g id="edge6" class="edge">
<title>Nomount&#45;&gt;Shutdown</title>
<path fill="none" stroke="#000000" d="M232.8054,-218.5118C192.3595,-199.6429 124.9073,-168.1749 80.3151,-147.3717"/>
<polygon fill="#000000" stroke="#000000" points="81.7066,-144.1587 71.1645,-143.1027 78.7471,-150.5024 81.7066,-144.1587"/>
<text text-anchor="middle" x="152" y="-203.2644" font-family="Times,serif" font-size="14.00" fill="#000000">shutdown</text>
</g>
<!-- Nomount&#45;&gt;Mount -->
<g id="edge4" class="edge">
<title>Nomount&#45;&gt;Mount</title>
<path fill="none" stroke="#000000" d="M267,-216.4142C267,-199.6464 267,-174.4047 267,-154.9244"/>
<polygon fill="#000000" stroke="#000000" points="270.5001,-154.7851 267,-144.7851 263.5001,-154.7852 270.5001,-154.7851"/>
<text text-anchor="middle" x="256.5" y="-176.7644" font-family="Times,serif" font-size="14.00" fill="#000000">alter database mount &#160;&#160;&#160;&#160;</text>
</g>
<!-- Mount&#45;&gt;Shutdown -->
<g id="edge7" class="edge">
<title>Mount&#45;&gt;Shutdown</title>
<path fill="none" stroke="#000000" d="M239.9492,-114.853C227.1792,-109.9831 211.5733,-104.8933 197,-102.4644 157.5442,-95.8884 146.4768,-96.0157 107,-102.4644 98.455,-103.8603 89.5539,-106.1363 81.0508,-108.7446"/>
<polygon fill="#000000" stroke="#000000" points="79.7184,-105.4977 71.2969,-111.9265 81.8893,-112.1526 79.7184,-105.4977"/>
<text text-anchor="middle" x="152" y="-106.2644" font-family="Times,serif" font-size="14.00" fill="#000000">shutdown</text>
</g>
<!-- Mount&#45;&gt;Open -->
<g id="edge5" class="edge">
<title>Mount&#45;&gt;Open</title>
<path fill="none" stroke="#000000" d="M267,-108.4142C267,-91.6464 267,-66.4047 267,-46.9244"/>
<polygon fill="#000000" stroke="#000000" points="270.5001,-46.7851 267,-36.7851 263.5001,-46.7852 270.5001,-46.7851"/>
<text text-anchor="middle" x="256.5" y="-68.7644" font-family="Times,serif" font-size="14.00" fill="#000000">alter database open &#160;&#160;</text>
</g>
<!-- Open&#45;&gt;Shutdown -->
<g id="edge8" class="edge">
<title>Open&#45;&gt;Shutdown</title>
<path fill="none" stroke="#000000" d="M239.8706,-9.9593C206.3953,-1.1412 148.7901,8.4369 107,-14.4644 74.5311,-32.2576 54.671,-71.762 44.3718,-98.7609"/>
<polygon fill="#000000" stroke="#000000" points="40.9867,-97.8305 40.8863,-108.4248 47.5715,-100.2055 40.9867,-97.8305"/>
<text text-anchor="middle" x="152" y="-18.2644" font-family="Times,serif" font-size="14.00" fill="#000000">shutdown</text>
</g>
</g>
</svg>
