<?xml version="1.0" encoding="UTF-8" standalone="no"?>
<!DOCTYPE svg PUBLIC "-//W3C//DTD SVG 1.1//EN"
 "http://www.w3.org/Graphics/SVG/1.1/DTD/svg11.dtd">
<!-- Generated by graphviz version 2.43.0 (0)
 -->
<!-- Title: %3 Pages: 1 -->
<svg width="343pt" height="260pt"
 viewBox="0.00 0.00 343.00 260.00" xmlns="http://www.w3.org/2000/svg" xmlns:xlink="http://www.w3.org/1999/xlink">
<g id="graph0" class="graph" transform="scale(1 1) rotate(0) translate(4 256)">
<title>%3</title>
<polygon fill="white" stroke="transparent" points="-4,4 -4,-256 339,-256 339,4 -4,4"/>
<!-- Shutdown -->
<g id="node1" class="node">
<title>Shutdown</title>
<polygon fill="none" stroke="black" points="89,-144 0,-144 0,-108 89,-108 89,-144"/>
<text text-anchor="middle" x="44.5" y="-122.3" font-family="Times,serif" font-size="14.00">Shutdown</text>
</g>
<!-- Nomount -->
<g id="node2" class="node">
<title>Nomount</title>
<polygon fill="none" stroke="black" points="335,-252 252,-252 252,-216 335,-216 335,-252"/>
<text text-anchor="middle" x="293.5" y="-230.3" font-family="Times,serif" font-size="14.00">Nomount</text>
</g>
<!-- Shutdown&#45;&gt;Nomount -->
<g id="edge1" class="edge">
<title>Shutdown&#45;&gt;Nomount</title>
<path fill="none" stroke="black" d="M55.73,-144.14C68.79,-165.38 93.52,-199.72 125,-216 160.91,-234.56 206.86,-238.33 241.55,-237.87"/>
<polygon fill="black" stroke="black" points="242.02,-241.35 251.93,-237.6 241.84,-234.36 242.02,-241.35"/>
<text text-anchor="middle" x="170.5" y="-240" font-family="Courier,monospace" font-size="10.00">startup nomount</text>
</g>
<!-- Mount -->
<g id="node3" class="node">
<title>Mount</title>
<polygon fill="none" stroke="black" points="325,-144 262,-144 262,-108 325,-108 325,-144"/>
<text text-anchor="middle" x="293.5" y="-122.3" font-family="Times,serif" font-size="14.00">Mount</text>
</g>
<!-- Shutdown&#45;&gt;Mount -->
<g id="edge2" class="edge">
<title>Shutdown&#45;&gt;Mount</title>
<path fill="none" stroke="black" d="M89.09,-126C134.99,-126 206.7,-126 251.57,-126"/>
<polygon fill="black" stroke="black" points="251.82,-129.5 261.82,-126 251.82,-122.5 251.82,-129.5"/>
<text text-anchor="middle" x="170.5" y="-129" font-family="Courier,monospace" font-size="10.00">startup mount</text>
</g>
<!-- Open -->
<g id="node4" class="node">
<title>Open</title>
<polygon fill="none" stroke="black" points="320.5,-36 266.5,-36 266.5,0 320.5,0 320.5,-36"/>
<text text-anchor="middle" x="293.5" y="-14.3" font-family="Times,serif" font-size="14.00">Open</text>
</g>
<!-- Shutdown&#45;&gt;Open -->
<g id="edge3" class="edge">
<title>Shutdown&#45;&gt;Open</title>
<path fill="none" stroke="black" d="M75.94,-107.84C90.53,-99.47 108.41,-89.72 125,-82 169.45,-61.33 222.58,-41.88 256.91,-29.96"/>
<polygon fill="black" stroke="black" points="258.18,-33.23 266.5,-26.66 255.9,-26.61 258.18,-33.23"/>
<text text-anchor="middle" x="170.5" y="-85" font-family="Courier,monospace" font-size="10.00">startup open</text>
</g>
<!-- Nomount&#45;&gt;Shutdown -->
<g id="edge6" class="edge">
<title>Nomount&#45;&gt;Shutdown</title>
<path fill="none" stroke="black" d="M251.84,-216.22C209.19,-197.57 142.08,-168.23 96.04,-148.1"/>
<polygon fill="black" stroke="black" points="97.41,-144.88 86.84,-144.08 94.6,-151.29 97.41,-144.88"/>
<text text-anchor="middle" x="170.5" y="-202" font-family="Courier,monospace" font-size="10.00">shutdown</text>
</g>
<!-- Nomount&#45;&gt;Mount -->
<g id="edge4" class="edge">
<title>Nomount&#45;&gt;Mount</title>
<path fill="none" stroke="black" d="M293.5,-215.95C293.5,-199.18 293.5,-173.94 293.5,-154.46"/>
<polygon fill="black" stroke="black" points="297,-154.32 293.5,-144.32 290,-154.32 297,-154.32"/>
<text text-anchor="middle" x="285" y="-177.5" font-family="Courier,monospace" font-size="10.00">alter database mount &#160;&#160;&#160;&#160;&#160;</text>
</g>
<!-- Mount&#45;&gt;Shutdown -->
<g id="edge7" class="edge">
<title>Mount&#45;&gt;Shutdown</title>
<path fill="none" stroke="black" d="M261.96,-116.1C248.09,-112.11 231.39,-107.98 216,-106 175.89,-100.84 165.14,-101.03 125,-106 116.57,-107.04 107.76,-108.69 99.19,-110.59"/>
<polygon fill="black" stroke="black" points="98.21,-107.23 89.29,-112.93 99.82,-114.04 98.21,-107.23"/>
<text text-anchor="middle" x="170.5" y="-109" font-family="Courier,monospace" font-size="10.00">shutdown</text>
</g>
<!-- Mount&#45;&gt;Open -->
<g id="edge5" class="edge">
<title>Mount&#45;&gt;Open</title>
<path fill="none" stroke="black" d="M293.5,-107.95C293.5,-91.18 293.5,-65.94 293.5,-46.46"/>
<polygon fill="black" stroke="black" points="297,-46.32 293.5,-36.32 290,-46.32 297,-46.32"/>
<text text-anchor="middle" x="285" y="-69.5" font-family="Courier,monospace" font-size="10.00">alter database open &#160;&#160;&#160;&#160;</text>
</g>
<!-- Open&#45;&gt;Shutdown -->
<g id="edge8" class="edge">
<title>Open&#45;&gt;Shutdown</title>
<path fill="none" stroke="black" d="M266.42,-12.69C231.97,-7.05 170.35,-1.8 125,-25 94.13,-40.79 71.45,-74.62 58.39,-98.77"/>
<polygon fill="black" stroke="black" points="55.19,-97.33 53.7,-107.82 61.41,-100.55 55.19,-97.33"/>
<text text-anchor="middle" x="170.5" y="-28" font-family="Courier,monospace" font-size="10.00">shutdown</text>
</g>
</g>
</svg>
