<?xml version="1.0" encoding="UTF-8" standalone="no"?>
<!DOCTYPE svg PUBLIC "-//W3C//DTD SVG 1.1//EN"
 "http://www.w3.org/Graphics/SVG/1.1/DTD/svg11.dtd">
<!-- Generated by graphviz version 2.38.0 (20140413.2041)
 -->
<!-- Title: %3 Pages: 1 -->
<svg width="775pt" height="44pt"
 viewBox="0.00 0.00 775.00 44.00" xmlns="http://www.w3.org/2000/svg" xmlns:xlink="http://www.w3.org/1999/xlink">
<g id="graph0" class="graph" transform="scale(1 1) rotate(0) translate(4 40)">
<title>%3</title>
<polygon fill="white" stroke="none" points="-4,4 -4,-40 771,-40 771,4 -4,4"/>
<!-- Database -->
<g id="node1" class="node"><title>Database</title>
<polygon fill="none" stroke="black" points="66,-36 0,-36 0,-0 66,-0 66,-36"/>
<text text-anchor="middle" x="33" y="-14.3" font-family="Times,serif" font-size="14.00">Database</text>
</g>
<!-- Tablespace -->
<g id="node2" class="node"><title>Tablespace</title>
<polygon fill="none" stroke="black" points="216,-36 139,-36 139,-0 216,-0 216,-36"/>
<text text-anchor="middle" x="177.5" y="-14.3" font-family="Times,serif" font-size="14.00">Tablespace</text>
</g>
<!-- Database&#45;&#45;Tablespace -->
<g id="edge1" class="edge"><title>Database&#45;&#45;Tablespace</title>
<path fill="none" stroke="black" d="M66.3355,-18C87.8499,-18 116.193,-18 138.742,-18"/>
<text text-anchor="middle" x="102.5" y="-21" font-family="Courier,monospace" font-size="10.00">1 &#160;&#160;&#160;N</text>
</g>
<!-- File -->
<g id="node3" class="node"><title>File</title>
<polygon fill="none" stroke="black" points="343,-36 289,-36 289,-0 343,-0 343,-36"/>
<text text-anchor="middle" x="316" y="-14.3" font-family="Times,serif" font-size="14.00">File</text>
</g>
<!-- Tablespace&#45;&#45;File -->
<g id="edge2" class="edge"><title>Tablespace&#45;&#45;File</title>
<path fill="none" stroke="black" d="M216.161,-18C239.203,-18 268.111,-18 288.699,-18"/>
<text text-anchor="middle" x="252.5" y="-21" font-family="Courier,monospace" font-size="10.00">1 &#160;&#160;&#160;N</text>
</g>
<!-- Segment -->
<g id="node4" class="node"><title>Segment</title>
<polygon fill="none" stroke="black" points="481,-36 416,-36 416,-0 481,-0 481,-36"/>
<text text-anchor="middle" x="448.5" y="-14.3" font-family="Times,serif" font-size="14.00">Segment</text>
</g>
<!-- File&#45;&#45;Segment -->
<g id="edge3" class="edge"><title>File&#45;&#45;Segment</title>
<path fill="none" stroke="black" d="M343.095,-18C364.071,-18 393.612,-18 415.921,-18"/>
<text text-anchor="middle" x="379.5" y="-21" font-family="Courier,monospace" font-size="10.00">N &#160;&#160;&#160;N</text>
</g>
<!-- Extent -->
<g id="node5" class="node"><title>Extent</title>
<polygon fill="none" stroke="black" points="608,-36 554,-36 554,-0 608,-0 608,-36"/>
<text text-anchor="middle" x="581" y="-14.3" font-family="Times,serif" font-size="14.00">Extent</text>
</g>
<!-- Segment&#45;&#45;Extent -->
<g id="edge4" class="edge"><title>Segment&#45;&#45;Extent</title>
<path fill="none" stroke="black" d="M481.09,-18C503.419,-18 532.988,-18 553.964,-18"/>
<text text-anchor="middle" x="517.5" y="-21" font-family="Courier,monospace" font-size="10.00">1 &#160;&#160;&#160;N</text>
</g>
<!-- Oracle block -->
<g id="node6" class="node"><title>Oracle block</title>
<polygon fill="none" stroke="black" points="767,-36 681,-36 681,-0 767,-0 767,-36"/>
<text text-anchor="middle" x="724" y="-14.3" font-family="Times,serif" font-size="14.00">Oracle block</text>
</g>
<!-- Extent&#45;&#45;Oracle block -->
<g id="edge5" class="edge"><title>Extent&#45;&#45;Oracle block</title>
<path fill="none" stroke="black" d="M608.191,-18C628.579,-18 657.281,-18 680.886,-18"/>
<text text-anchor="middle" x="644.5" y="-21" font-family="Courier,monospace" font-size="10.00">1 &#160;&#160;&#160;N</text>
</g>
</g>
</svg>
