<?xml version="1.0" encoding="UTF-8" standalone="no"?>
<!DOCTYPE svg PUBLIC "-//W3C//DTD SVG 1.1//EN"
 "http://www.w3.org/Graphics/SVG/1.1/DTD/svg11.dtd">
<!-- Generated by graphviz version 2.36.0 (20140111.2315)
 -->
<!-- Title: %3 Pages: 1 -->
<svg width="786pt" height="44pt"
 viewBox="0.00 0.00 786.00 44.00" xmlns="http://www.w3.org/2000/svg" xmlns:xlink="http://www.w3.org/1999/xlink">
<g id="graph0" class="graph" transform="scale(1 1) rotate(0) translate(4 40)">
<title>%3</title>
<polygon fill="white" stroke="none" points="-4,4 -4,-40 782,-40 782,4 -4,4"/>
<!-- Database -->
<g id="node1" class="node"><title>Database</title>
<polygon fill="none" stroke="black" points="66,-36 0,-36 0,-0 66,-0 66,-36"/>
<text text-anchor="middle" x="33" y="-14.3" font-family="Times,serif" font-size="14.00">Database</text>
</g>
<!-- Tablespace -->
<g id="node2" class="node"><title>Tablespace</title>
<polygon fill="none" stroke="black" points="217.5,-36 140.5,-36 140.5,-0 217.5,-0 217.5,-36"/>
<text text-anchor="middle" x="179" y="-14.3" font-family="Times,serif" font-size="14.00">Tablespace</text>
</g>
<!-- Database&#45;&#45;Tablespace -->
<g id="edge1" class="edge"><title>Database&#45;&#45;Tablespace</title>
<path fill="none" stroke="black" d="M66.3164,-18C88.2907,-18 117.437,-18 140.444,-18"/>
<text text-anchor="middle" x="103" y="-21" font-family="Courier,monospace" font-size="10.00">1 &#160;&#160;&#160;N</text>
</g>
<!-- File -->
<g id="node3" class="node"><title>File</title>
<polygon fill="none" stroke="black" points="346,-36 292,-36 292,-0 346,-0 346,-36"/>
<text text-anchor="middle" x="319" y="-14.3" font-family="Times,serif" font-size="14.00">File</text>
</g>
<!-- Tablespace&#45;&#45;File -->
<g id="edge2" class="edge"><title>Tablespace&#45;&#45;File</title>
<path fill="none" stroke="black" d="M217.709,-18C241.171,-18 270.757,-18 291.698,-18"/>
<text text-anchor="middle" x="255" y="-21" font-family="Courier,monospace" font-size="10.00">1 &#160;&#160;&#160;N</text>
</g>
<!-- Segment -->
<g id="node4" class="node"><title>Segment</title>
<polygon fill="none" stroke="black" points="485.5,-36 420.5,-36 420.5,-0 485.5,-0 485.5,-36"/>
<text text-anchor="middle" x="453" y="-14.3" font-family="Times,serif" font-size="14.00">Segment</text>
</g>
<!-- File&#45;&#45;Segment -->
<g id="edge3" class="edge"><title>File&#45;&#45;Segment</title>
<path fill="none" stroke="black" d="M346.079,-18C367.417,-18 397.673,-18 420.388,-18"/>
<text text-anchor="middle" x="383" y="-21" font-family="Courier,monospace" font-size="10.00">N &#160;&#160;&#160;N</text>
</g>
<!-- Extent -->
<g id="node5" class="node"><title>Extent</title>
<polygon fill="none" stroke="black" points="614,-36 560,-36 560,-0 614,-0 614,-36"/>
<text text-anchor="middle" x="587" y="-14.3" font-family="Times,serif" font-size="14.00">Extent</text>
</g>
<!-- Segment&#45;&#45;Extent -->
<g id="edge4" class="edge"><title>Segment&#45;&#45;Extent</title>
<path fill="none" stroke="black" d="M485.617,-18C508.346,-18 538.623,-18 559.962,-18"/>
<text text-anchor="middle" x="523" y="-21" font-family="Courier,monospace" font-size="10.00">1 &#160;&#160;&#160;N</text>
</g>
<!-- Oracle_block -->
<g id="node6" class="node"><title>Oracle_block</title>
<polygon fill="none" stroke="black" points="777.5,-36 688.5,-36 688.5,-0 777.5,-0 777.5,-36"/>
<text text-anchor="middle" x="733" y="-14.3" font-family="Times,serif" font-size="14.00">Oracle_block</text>
</g>
<!-- Extent&#45;&#45;Oracle_block -->
<g id="edge5" class="edge"><title>Extent&#45;&#45;Oracle_block</title>
<path fill="none" stroke="black" d="M614.077,-18C634.745,-18 664.076,-18 688.315,-18"/>
<text text-anchor="middle" x="651" y="-21" font-family="Courier,monospace" font-size="10.00">1 &#160;&#160;&#160;N</text>
</g>
</g>
</svg>
