<?xml version="1.0" encoding="UTF-8" standalone="no"?>
<!DOCTYPE svg PUBLIC "-//W3C//DTD SVG 1.1//EN"
 "http://www.w3.org/Graphics/SVG/1.1/DTD/svg11.dtd">
<!-- Generated by graphviz version 2.43.0 (0)
 -->
<!-- Title: %3 Pages: 1 -->
<svg width="763pt" height="802pt"
 viewBox="0.00 0.00 762.58 802.00" xmlns="http://www.w3.org/2000/svg" xmlns:xlink="http://www.w3.org/1999/xlink">
<g id="graph0" class="graph" transform="scale(1 1) rotate(0) translate(4 798)">
<title>%3</title>
<polygon fill="white" stroke="transparent" points="-4,4 -4,-798 758.58,-798 758.58,4 -4,4"/>
<!-- Descomprimir -->
<g id="node1" class="node">
<title>Descomprimir</title>
<ellipse fill="none" stroke="black" cx="214.29" cy="-776" rx="76.89" ry="18"/>
<text text-anchor="middle" x="214.29" y="-772.3" font-family="Times,serif" font-size="14.00">Descomprimir</text>
</g>
<!-- Instalar -->
<g id="node2" class="node">
<title>Instalar</title>
<ellipse fill="none" stroke="black" cx="214.29" cy="-703" rx="46.59" ry="18"/>
<text text-anchor="middle" x="214.29" y="-699.3" font-family="Times,serif" font-size="14.00">Instalar</text>
</g>
<!-- Descomprimir&#45;&gt;Instalar -->
<g id="edge1" class="edge">
<title>Descomprimir&#45;&gt;Instalar</title>
<path fill="none" stroke="black" d="M214.29,-757.81C214.29,-749.79 214.29,-740.05 214.29,-731.07"/>
<polygon fill="black" stroke="black" points="217.79,-731.03 214.29,-721.03 210.79,-731.03 217.79,-731.03"/>
</g>
<!-- Paquetes_como_root -->
<g id="node3" class="node">
<title>Paquetes_como_root</title>
<ellipse fill="none" stroke="black" cx="105.29" cy="-630" rx="105.08" ry="18"/>
<text text-anchor="middle" x="105.29" y="-626.3" font-family="Times,serif" font-size="14.00">Paquetes_como_root</text>
</g>
<!-- Instalar&#45;&gt;Paquetes_como_root -->
<g id="edge2" class="edge">
<title>Instalar&#45;&gt;Paquetes_como_root</title>
<path fill="none" stroke="black" d="M191.44,-687.12C176.34,-677.28 156.29,-664.22 139.32,-653.17"/>
<polygon fill="black" stroke="black" points="141.07,-650.13 130.78,-647.6 137.25,-655.99 141.07,-650.13"/>
</g>
<!-- Scripts_como_root -->
<g id="node4" class="node">
<title>Scripts_como_root</title>
<ellipse fill="none" stroke="black" cx="324.29" cy="-630" rx="96.38" ry="18"/>
<text text-anchor="middle" x="324.29" y="-626.3" font-family="Times,serif" font-size="14.00">Scripts_como_root</text>
</g>
<!-- Instalar&#45;&gt;Scripts_como_root -->
<g id="edge3" class="edge">
<title>Instalar&#45;&gt;Scripts_como_root</title>
<path fill="none" stroke="black" d="M237.35,-687.12C252.59,-677.28 272.83,-664.22 289.94,-653.17"/>
<polygon fill="black" stroke="black" points="292.06,-655.97 298.57,-647.6 288.27,-650.09 292.06,-655.97"/>
</g>
<!-- Software_instalado -->
<g id="node5" class="node">
<title>Software_instalado</title>
<ellipse fill="none" stroke="black" cx="214.29" cy="-557" rx="99.38" ry="18"/>
<text text-anchor="middle" x="214.29" y="-553.3" font-family="Times,serif" font-size="14.00">Software_instalado</text>
</g>
<!-- Paquetes_como_root&#45;&gt;Software_instalado -->
<g id="edge4" class="edge">
<title>Paquetes_como_root&#45;&gt;Software_instalado</title>
<path fill="none" stroke="black" d="M130.85,-612.35C145.61,-602.74 164.36,-590.53 180.34,-580.11"/>
<polygon fill="black" stroke="black" points="182.43,-582.93 188.9,-574.54 178.61,-577.07 182.43,-582.93"/>
</g>
<!-- Scripts_como_root&#45;&gt;Software_instalado -->
<g id="edge5" class="edge">
<title>Scripts_como_root&#45;&gt;Software_instalado</title>
<path fill="none" stroke="black" d="M298.78,-612.53C283.89,-602.92 264.91,-590.67 248.71,-580.22"/>
<polygon fill="black" stroke="black" points="250.35,-577.11 240.05,-574.62 246.55,-582.99 250.35,-577.11"/>
</g>
<!-- Variables_en_bash -->
<g id="node6" class="node">
<title>Variables_en_bash</title>
<ellipse fill="none" stroke="black" cx="214.29" cy="-484" rx="95.58" ry="18"/>
<text text-anchor="middle" x="214.29" y="-480.3" font-family="Times,serif" font-size="14.00">Variables_en_bash</text>
</g>
<!-- Software_instalado&#45;&gt;Variables_en_bash -->
<g id="edge6" class="edge">
<title>Software_instalado&#45;&gt;Variables_en_bash</title>
<path fill="none" stroke="black" d="M214.29,-538.81C214.29,-530.79 214.29,-521.05 214.29,-512.07"/>
<polygon fill="black" stroke="black" points="217.79,-512.03 214.29,-502.03 210.79,-512.03 217.79,-512.03"/>
</g>
<!-- dbca -->
<g id="node7" class="node">
<title>dbca</title>
<ellipse fill="none" stroke="black" cx="105.29" cy="-411" rx="32.49" ry="18"/>
<text text-anchor="middle" x="105.29" y="-407.3" font-family="Times,serif" font-size="14.00">dbca</text>
</g>
<!-- Software_instalado&#45;&gt;dbca -->
<g id="edge7" class="edge">
<title>Software_instalado&#45;&gt;dbca</title>
<path fill="none" stroke="black" d="M162.12,-541.64C142.18,-533.39 121.35,-520.81 109.29,-502 97.45,-483.53 97.38,-458.29 99.74,-439.23"/>
<polygon fill="black" stroke="black" points="103.24,-439.51 101.29,-429.1 96.32,-438.45 103.24,-439.51"/>
</g>
<!-- netca -->
<g id="node8" class="node">
<title>netca</title>
<ellipse fill="none" stroke="black" cx="324.29" cy="-411" rx="36.29" ry="18"/>
<text text-anchor="middle" x="324.29" y="-407.3" font-family="Times,serif" font-size="14.00">netca</text>
</g>
<!-- Software_instalado&#45;&gt;netca -->
<g id="edge8" class="edge">
<title>Software_instalado&#45;&gt;netca</title>
<path fill="none" stroke="black" d="M266.36,-541.57C286.29,-533.31 307.13,-520.74 319.29,-502 331.24,-483.59 331.6,-458.34 329.48,-439.27"/>
<polygon fill="black" stroke="black" points="332.91,-438.54 328.06,-429.12 325.98,-439.51 332.91,-438.54"/>
</g>
<!-- Variables_en_bash&#45;&gt;dbca -->
<g id="edge9" class="edge">
<title>Variables_en_bash&#45;&gt;dbca</title>
<path fill="none" stroke="black" d="M189.01,-466.53C172.62,-455.86 151.23,-441.92 134.17,-430.81"/>
<polygon fill="black" stroke="black" points="135.99,-427.82 125.7,-425.29 132.17,-433.68 135.99,-427.82"/>
</g>
<!-- Variables_en_bash&#45;&gt;netca -->
<g id="edge10" class="edge">
<title>Variables_en_bash&#45;&gt;netca</title>
<path fill="none" stroke="black" d="M239.8,-466.53C256.13,-456 277.37,-442.29 294.47,-431.25"/>
<polygon fill="black" stroke="black" points="296.48,-434.12 302.98,-425.75 292.68,-428.24 296.48,-434.12"/>
</g>
<!-- Instancia_creada -->
<g id="node11" class="node">
<title>Instancia_creada</title>
<ellipse fill="none" stroke="black" cx="105.29" cy="-338" rx="89.08" ry="18"/>
<text text-anchor="middle" x="105.29" y="-334.3" font-family="Times,serif" font-size="14.00">Instancia_creada</text>
</g>
<!-- dbca&#45;&gt;Instancia_creada -->
<g id="edge13" class="edge">
<title>dbca&#45;&gt;Instancia_creada</title>
<path fill="none" stroke="black" d="M105.29,-392.81C105.29,-384.79 105.29,-375.05 105.29,-366.07"/>
<polygon fill="black" stroke="black" points="108.79,-366.03 105.29,-356.03 101.79,-366.03 108.79,-366.03"/>
</g>
<!-- Listener_creado -->
<g id="node9" class="node">
<title>Listener_creado</title>
<ellipse fill="none" stroke="black" cx="324.29" cy="-338" rx="85.29" ry="18"/>
<text text-anchor="middle" x="324.29" y="-334.3" font-family="Times,serif" font-size="14.00">Listener_creado</text>
</g>
<!-- netca&#45;&gt;Listener_creado -->
<g id="edge11" class="edge">
<title>netca&#45;&gt;Listener_creado</title>
<path fill="none" stroke="black" d="M324.29,-392.81C324.29,-384.79 324.29,-375.05 324.29,-366.07"/>
<polygon fill="black" stroke="black" points="327.79,-366.03 324.29,-356.03 320.79,-366.03 327.79,-366.03"/>
</g>
<!-- Listener_levantado -->
<g id="node10" class="node">
<title>Listener_levantado</title>
<ellipse fill="none" stroke="black" cx="324.29" cy="-251" rx="98.58" ry="18"/>
<text text-anchor="middle" x="324.29" y="-247.3" font-family="Times,serif" font-size="14.00">Listener_levantado</text>
</g>
<!-- Listener_creado&#45;&gt;Listener_levantado -->
<g id="edge12" class="edge">
<title>Listener_creado&#45;&gt;Listener_levantado</title>
<path fill="none" stroke="black" d="M324.29,-319.8C324.29,-308.16 324.29,-292.55 324.29,-279.24"/>
<polygon fill="black" stroke="black" points="327.79,-279.18 324.29,-269.18 320.79,-279.18 327.79,-279.18"/>
<text text-anchor="middle" x="366.79" y="-290.8" font-family="Times,serif" font-size="14.00">lsnrctl start</text>
</g>
<!-- Instancia_conectada -->
<g id="node13" class="node">
<title>Instancia_conectada</title>
<ellipse fill="none" stroke="black" cx="214.29" cy="-164" rx="104.78" ry="18"/>
<text text-anchor="middle" x="214.29" y="-160.3" font-family="Times,serif" font-size="14.00">Instancia_conectada</text>
</g>
<!-- Listener_levantado&#45;&gt;Instancia_conectada -->
<g id="edge16" class="edge">
<title>Listener_levantado&#45;&gt;Instancia_conectada</title>
<path fill="none" stroke="black" d="M302.82,-233.41C286.12,-220.51 262.75,-202.45 244.22,-188.13"/>
<polygon fill="black" stroke="black" points="246.14,-185.18 236.08,-181.84 241.86,-190.72 246.14,-185.18"/>
</g>
<!-- Instancia_levantada -->
<g id="node12" class="node">
<title>Instancia_levantada</title>
<ellipse fill="none" stroke="black" cx="105.29" cy="-251" rx="102.88" ry="18"/>
<text text-anchor="middle" x="105.29" y="-247.3" font-family="Times,serif" font-size="14.00">Instancia_levantada</text>
</g>
<!-- Instancia_creada&#45;&gt;Instancia_levantada -->
<g id="edge14" class="edge">
<title>Instancia_creada&#45;&gt;Instancia_levantada</title>
<path fill="none" stroke="black" d="M105.29,-319.8C105.29,-308.16 105.29,-292.55 105.29,-279.24"/>
<polygon fill="black" stroke="black" points="108.79,-279.18 105.29,-269.18 101.79,-279.18 108.79,-279.18"/>
<text text-anchor="middle" x="151.29" y="-290.8" font-family="Times,serif" font-size="14.00">startup open</text>
</g>
<!-- Instancia_levantada&#45;&gt;Instancia_conectada -->
<g id="edge15" class="edge">
<title>Instancia_levantada&#45;&gt;Instancia_conectada</title>
<path fill="none" stroke="black" d="M126.83,-233.21C143.4,-220.28 166.48,-202.28 184.77,-188.02"/>
<polygon fill="black" stroke="black" points="187.07,-190.67 192.8,-181.76 182.76,-185.15 187.07,-190.67"/>
<text text-anchor="middle" x="208.29" y="-203.8" font-family="Times,serif" font-size="14.00">Automático</text>
</g>
<!-- Conectar_cliente_remoto -->
<g id="node15" class="node">
<title>Conectar_cliente_remoto</title>
<ellipse fill="none" stroke="black" cx="456.29" cy="-91" rx="126.18" ry="18"/>
<text text-anchor="middle" x="456.29" y="-87.3" font-family="Times,serif" font-size="14.00">Conectar_cliente_remoto</text>
</g>
<!-- Instancia_conectada&#45;&gt;Conectar_cliente_remoto -->
<g id="edge19" class="edge">
<title>Instancia_conectada&#45;&gt;Conectar_cliente_remoto</title>
<path fill="none" stroke="black" d="M264.73,-148.2C302.35,-137.16 353.96,-122.02 394.14,-110.23"/>
<polygon fill="black" stroke="black" points="395.22,-113.57 403.83,-107.39 393.25,-106.85 395.22,-113.57"/>
</g>
<!-- Conseguido -->
<g id="node17" class="node">
<title>Conseguido</title>
<ellipse fill="none" stroke="black" cx="227.29" cy="-18" rx="64.99" ry="18"/>
<text text-anchor="middle" x="227.29" y="-14.3" font-family="Times,serif" font-size="14.00">Conseguido</text>
</g>
<!-- Instancia_conectada&#45;&gt;Conseguido -->
<g id="edge21" class="edge">
<title>Instancia_conectada&#45;&gt;Conseguido</title>
<path fill="none" stroke="black" d="M215.83,-145.92C218.06,-121.23 222.2,-75.35 224.85,-46.04"/>
<polygon fill="black" stroke="black" points="228.34,-46.34 225.75,-36.06 221.37,-45.71 228.34,-46.34"/>
<text text-anchor="middle" x="270.79" y="-87.3" font-family="Times,serif" font-size="14.00">lsnrctl status</text>
</g>
<!-- Instalar_cliente_remoto -->
<g id="node14" class="node">
<title>Instalar_cliente_remoto</title>
<ellipse fill="none" stroke="black" cx="457.29" cy="-164" rx="120.48" ry="18"/>
<text text-anchor="middle" x="457.29" y="-160.3" font-family="Times,serif" font-size="14.00">Instalar_cliente_remoto</text>
</g>
<!-- Instalar_cliente_remoto&#45;&gt;Conectar_cliente_remoto -->
<g id="edge17" class="edge">
<title>Instalar_cliente_remoto&#45;&gt;Conectar_cliente_remoto</title>
<path fill="none" stroke="black" d="M457.05,-145.81C456.94,-137.79 456.8,-128.05 456.67,-119.07"/>
<polygon fill="black" stroke="black" points="460.17,-118.98 456.53,-109.03 453.17,-119.08 460.17,-118.98"/>
</g>
<!-- Conectar_cliente_remoto&#45;&gt;Conseguido -->
<g id="edge20" class="edge">
<title>Conectar_cliente_remoto&#45;&gt;Conseguido</title>
<path fill="none" stroke="black" d="M406.04,-74.42C368.33,-62.73 316.87,-46.77 278.85,-34.99"/>
<polygon fill="black" stroke="black" points="279.59,-31.55 269,-31.93 277.52,-38.24 279.59,-31.55"/>
</g>
<!-- Quitar_firewall -->
<g id="node16" class="node">
<title>Quitar_firewall</title>
<ellipse fill="none" stroke="black" cx="675.29" cy="-164" rx="79.09" ry="18"/>
<text text-anchor="middle" x="675.29" y="-160.3" font-family="Times,serif" font-size="14.00">Quitar_firewall</text>
</g>
<!-- Quitar_firewall&#45;&gt;Conectar_cliente_remoto -->
<g id="edge18" class="edge">
<title>Quitar_firewall&#45;&gt;Conectar_cliente_remoto</title>
<path fill="none" stroke="black" d="M631.76,-148.89C598.1,-137.97 551.17,-122.76 514.31,-110.81"/>
<polygon fill="black" stroke="black" points="515.28,-107.45 504.69,-107.69 513.12,-114.1 515.28,-107.45"/>
</g>
</g>
</svg>
