<?xml version="1.0" encoding="UTF-8" standalone="no"?>
<!DOCTYPE svg PUBLIC "-//W3C//DTD SVG 1.1//EN"
 "http://www.w3.org/Graphics/SVG/1.1/DTD/svg11.dtd">
<!-- Generated by graphviz version 2.40.1 (20161225.0304)
 -->
<!-- Title: %3 Pages: 1 -->
<svg width="621pt" height="802pt"
 viewBox="0.00 0.00 621.14 802.00" xmlns="http://www.w3.org/2000/svg" xmlns:xlink="http://www.w3.org/1999/xlink">
<g id="graph0" class="graph" transform="scale(1 1) rotate(0) translate(4 798)">
<title>%3</title>
<polygon fill="#ffffff" stroke="transparent" points="-4,4 -4,-798 617.1367,-798 617.1367,4 -4,4"/>
<!-- Descomprimir -->
<g id="node1" class="node">
<title>Descomprimir</title>
<ellipse fill="none" stroke="#000000" cx="175.1424" cy="-776" rx="62.2891" ry="18"/>
<text text-anchor="middle" x="175.1424" y="-772.3" font-family="Times,serif" font-size="14.00" fill="#000000">Descomprimir</text>
</g>
<!-- Instalar -->
<g id="node2" class="node">
<title>Instalar</title>
<ellipse fill="none" stroke="#000000" cx="175.1424" cy="-703" rx="37.0935" ry="18"/>
<text text-anchor="middle" x="175.1424" y="-699.3" font-family="Times,serif" font-size="14.00" fill="#000000">Instalar</text>
</g>
<!-- Descomprimir&#45;&gt;Instalar -->
<g id="edge1" class="edge">
<title>Descomprimir&#45;&gt;Instalar</title>
<path fill="none" stroke="#000000" d="M175.1424,-757.9551C175.1424,-749.8828 175.1424,-740.1764 175.1424,-731.1817"/>
<polygon fill="#000000" stroke="#000000" points="178.6425,-731.0903 175.1424,-721.0904 171.6425,-731.0904 178.6425,-731.0903"/>
</g>
<!-- Paquetes_como_root -->
<g id="node3" class="node">
<title>Paquetes_como_root</title>
<ellipse fill="none" stroke="#000000" cx="85.1424" cy="-630" rx="85.2851" ry="18"/>
<text text-anchor="middle" x="85.1424" y="-626.3" font-family="Times,serif" font-size="14.00" fill="#000000">Paquetes_como_root</text>
</g>
<!-- Instalar&#45;&gt;Paquetes_como_root -->
<g id="edge2" class="edge">
<title>Instalar&#45;&gt;Paquetes_como_root</title>
<path fill="none" stroke="#000000" d="M156.0558,-687.5186C144.0912,-677.814 128.4193,-665.1024 114.852,-654.0977"/>
<polygon fill="#000000" stroke="#000000" points="116.6996,-651.0897 106.7283,-647.5085 112.2899,-656.5262 116.6996,-651.0897"/>
</g>
<!-- Scripts_como_root -->
<g id="node4" class="node">
<title>Scripts_como_root</title>
<ellipse fill="none" stroke="#000000" cx="266.1424" cy="-630" rx="77.9862" ry="18"/>
<text text-anchor="middle" x="266.1424" y="-626.3" font-family="Times,serif" font-size="14.00" fill="#000000">Scripts_como_root</text>
</g>
<!-- Instalar&#45;&gt;Scripts_como_root -->
<g id="edge3" class="edge">
<title>Instalar&#45;&gt;Scripts_como_root</title>
<path fill="none" stroke="#000000" d="M194.4412,-687.5186C206.6528,-677.7225 222.684,-664.8623 236.4905,-653.7867"/>
<polygon fill="#000000" stroke="#000000" points="238.7065,-656.4961 244.3167,-647.5085 234.3263,-651.0358 238.7065,-656.4961"/>
</g>
<!-- Software_instalado -->
<g id="node5" class="node">
<title>Software_instalado</title>
<ellipse fill="none" stroke="#000000" cx="175.1424" cy="-557" rx="78.7863" ry="18"/>
<text text-anchor="middle" x="175.1424" y="-553.3" font-family="Times,serif" font-size="14.00" fill="#000000">Software_instalado</text>
</g>
<!-- Paquetes_como_root&#45;&gt;Software_instalado -->
<g id="edge4" class="edge">
<title>Paquetes_como_root&#45;&gt;Software_instalado</title>
<path fill="none" stroke="#000000" d="M106.9289,-612.3287C118.5366,-602.9137 132.9819,-591.1969 145.5871,-580.9726"/>
<polygon fill="#000000" stroke="#000000" points="147.995,-583.5262 153.5566,-574.5085 143.5853,-578.0897 147.995,-583.5262"/>
</g>
<!-- Scripts_como_root&#45;&gt;Software_instalado -->
<g id="edge5" class="edge">
<title>Scripts_como_root&#45;&gt;Software_instalado</title>
<path fill="none" stroke="#000000" d="M244.5767,-612.7C232.7634,-603.2234 217.9409,-591.3328 205.0279,-580.974"/>
<polygon fill="#000000" stroke="#000000" points="206.8592,-577.9561 196.8687,-574.4288 202.479,-583.4163 206.8592,-577.9561"/>
</g>
<!-- Variables_en_bash -->
<g id="node6" class="node">
<title>Variables_en_bash</title>
<ellipse fill="none" stroke="#000000" cx="175.1424" cy="-484" rx="77.1866" ry="18"/>
<text text-anchor="middle" x="175.1424" y="-480.3" font-family="Times,serif" font-size="14.00" fill="#000000">Variables_en_bash</text>
</g>
<!-- Software_instalado&#45;&gt;Variables_en_bash -->
<g id="edge6" class="edge">
<title>Software_instalado&#45;&gt;Variables_en_bash</title>
<path fill="none" stroke="#000000" d="M175.1424,-538.9551C175.1424,-530.8828 175.1424,-521.1764 175.1424,-512.1817"/>
<polygon fill="#000000" stroke="#000000" points="178.6425,-512.0903 175.1424,-502.0904 171.6425,-512.0904 178.6425,-512.0903"/>
</g>
<!-- dbca -->
<g id="node7" class="node">
<title>dbca</title>
<ellipse fill="none" stroke="#000000" cx="87.1424" cy="-411" rx="27.0966" ry="18"/>
<text text-anchor="middle" x="87.1424" y="-407.3" font-family="Times,serif" font-size="14.00" fill="#000000">dbca</text>
</g>
<!-- Software_instalado&#45;&gt;dbca -->
<g id="edge7" class="edge">
<title>Software_instalado&#45;&gt;dbca</title>
<path fill="none" stroke="#000000" d="M134.6998,-541.4959C117.4943,-532.6722 99.1258,-519.7687 89.1424,-502 78.4811,-483.0245 78.713,-458.1258 81.2025,-439.1703"/>
<polygon fill="#000000" stroke="#000000" points="84.6968,-439.4828 82.8132,-429.0567 77.7839,-438.3818 84.6968,-439.4828"/>
</g>
<!-- netca -->
<g id="node8" class="node">
<title>netca</title>
<ellipse fill="none" stroke="#000000" cx="264.1424" cy="-411" rx="29.4969" ry="18"/>
<text text-anchor="middle" x="264.1424" y="-407.3" font-family="Times,serif" font-size="14.00" fill="#000000">netca</text>
</g>
<!-- Software_instalado&#45;&gt;netca -->
<g id="edge8" class="edge">
<title>Software_instalado&#45;&gt;netca</title>
<path fill="none" stroke="#000000" d="M215.4964,-541.4458C232.6833,-532.6115 251.0617,-519.7136 261.1424,-502 271.911,-483.0777 271.9605,-458.1749 269.708,-439.2043"/>
<polygon fill="#000000" stroke="#000000" points="273.1377,-438.469 268.2265,-429.0812 266.2115,-439.4827 273.1377,-438.469"/>
</g>
<!-- Variables_en_bash&#45;&gt;dbca -->
<g id="edge9" class="edge">
<title>Variables_en_bash&#45;&gt;dbca</title>
<path fill="none" stroke="#000000" d="M153.8401,-466.3287C141.2029,-455.8456 125.1257,-442.5089 111.9224,-431.5561"/>
<polygon fill="#000000" stroke="#000000" points="114.0605,-428.7822 104.1293,-425.0913 109.5912,-434.1698 114.0605,-428.7822"/>
</g>
<!-- Variables_en_bash&#45;&gt;netca -->
<g id="edge10" class="edge">
<title>Variables_en_bash&#45;&gt;netca</title>
<path fill="none" stroke="#000000" d="M196.6869,-466.3287C209.2973,-455.9853 225.2946,-442.864 238.5452,-431.9955"/>
<polygon fill="#000000" stroke="#000000" points="240.8737,-434.6124 246.3859,-425.5644 236.4344,-429.2001 240.8737,-434.6124"/>
</g>
<!-- Instancia_creada -->
<g id="node11" class="node">
<title>Instancia_creada</title>
<ellipse fill="none" stroke="#000000" cx="87.1424" cy="-338" rx="69.5877" ry="18"/>
<text text-anchor="middle" x="87.1424" y="-334.3" font-family="Times,serif" font-size="14.00" fill="#000000">Instancia_creada</text>
</g>
<!-- dbca&#45;&gt;Instancia_creada -->
<g id="edge13" class="edge">
<title>dbca&#45;&gt;Instancia_creada</title>
<path fill="none" stroke="#000000" d="M87.1424,-392.9551C87.1424,-384.8828 87.1424,-375.1764 87.1424,-366.1817"/>
<polygon fill="#000000" stroke="#000000" points="90.6425,-366.0903 87.1424,-356.0904 83.6425,-366.0904 90.6425,-366.0903"/>
</g>
<!-- Listener_creado -->
<g id="node9" class="node">
<title>Listener_creado</title>
<ellipse fill="none" stroke="#000000" cx="264.1424" cy="-338" rx="67.6881" ry="18"/>
<text text-anchor="middle" x="264.1424" y="-334.3" font-family="Times,serif" font-size="14.00" fill="#000000">Listener_creado</text>
</g>
<!-- netca&#45;&gt;Listener_creado -->
<g id="edge11" class="edge">
<title>netca&#45;&gt;Listener_creado</title>
<path fill="none" stroke="#000000" d="M264.1424,-392.9551C264.1424,-384.8828 264.1424,-375.1764 264.1424,-366.1817"/>
<polygon fill="#000000" stroke="#000000" points="267.6425,-366.0903 264.1424,-356.0904 260.6425,-366.0904 267.6425,-366.0903"/>
</g>
<!-- Listener_levantado -->
<g id="node10" class="node">
<title>Listener_levantado</title>
<ellipse fill="none" stroke="#000000" cx="264.1424" cy="-251" rx="77.9862" ry="18"/>
<text text-anchor="middle" x="264.1424" y="-247.3" font-family="Times,serif" font-size="14.00" fill="#000000">Listener_levantado</text>
</g>
<!-- Listener_creado&#45;&gt;Listener_levantado -->
<g id="edge12" class="edge">
<title>Listener_creado&#45;&gt;Listener_levantado</title>
<path fill="none" stroke="#000000" d="M264.1424,-319.9735C264.1424,-308.1918 264.1424,-292.5607 264.1424,-279.1581"/>
<polygon fill="#000000" stroke="#000000" points="267.6425,-279.0033 264.1424,-269.0034 260.6425,-279.0034 267.6425,-279.0033"/>
<text text-anchor="middle" x="294.6424" y="-290.8" font-family="Times,serif" font-size="14.00" fill="#000000">lsnrctl start</text>
</g>
<!-- Instancia_conectada -->
<g id="node13" class="node">
<title>Instancia_conectada</title>
<ellipse fill="none" stroke="#000000" cx="175.1424" cy="-164" rx="81.7856" ry="18"/>
<text text-anchor="middle" x="175.1424" y="-160.3" font-family="Times,serif" font-size="14.00" fill="#000000">Instancia_conectada</text>
</g>
<!-- Listener_levantado&#45;&gt;Instancia_conectada -->
<g id="edge16" class="edge">
<title>Listener_levantado&#45;&gt;Instancia_conectada</title>
<path fill="none" stroke="#000000" d="M246.132,-233.3943C232.9829,-220.5407 214.9823,-202.9446 200.3978,-188.6878"/>
<polygon fill="#000000" stroke="#000000" points="202.7237,-186.067 193.1261,-181.5796 197.8305,-191.0727 202.7237,-186.067"/>
</g>
<!-- Instancia_levantada -->
<g id="node12" class="node">
<title>Instancia_levantada</title>
<ellipse fill="none" stroke="#000000" cx="87.1424" cy="-251" rx="80.6858" ry="18"/>
<text text-anchor="middle" x="87.1424" y="-247.3" font-family="Times,serif" font-size="14.00" fill="#000000">Instancia_levantada</text>
</g>
<!-- Instancia_creada&#45;&gt;Instancia_levantada -->
<g id="edge14" class="edge">
<title>Instancia_creada&#45;&gt;Instancia_levantada</title>
<path fill="none" stroke="#000000" d="M87.1424,-319.9735C87.1424,-308.1918 87.1424,-292.5607 87.1424,-279.1581"/>
<polygon fill="#000000" stroke="#000000" points="90.6425,-279.0033 87.1424,-269.0034 83.6425,-279.0034 90.6425,-279.0033"/>
<text text-anchor="middle" x="120.6424" y="-290.8" font-family="Times,serif" font-size="14.00" fill="#000000">startup open</text>
</g>
<!-- Instancia_levantada&#45;&gt;Instancia_conectada -->
<g id="edge15" class="edge">
<title>Instancia_levantada&#45;&gt;Instancia_conectada</title>
<path fill="none" stroke="#000000" d="M104.9506,-233.3943C117.9519,-220.5407 135.7502,-202.9446 150.1709,-188.6878"/>
<polygon fill="#000000" stroke="#000000" points="152.7101,-191.0991 157.3608,-181.5796 147.7887,-186.1212 152.7101,-191.0991"/>
<text text-anchor="middle" x="169.6424" y="-203.8" font-family="Times,serif" font-size="14.00" fill="#000000">Automático</text>
</g>
<!-- Conectar_cliente_remoto -->
<g id="node15" class="node">
<title>Conectar_cliente_remoto</title>
<ellipse fill="none" stroke="#000000" cx="368.1424" cy="-91" rx="100.1823" ry="18"/>
<text text-anchor="middle" x="368.1424" y="-87.3" font-family="Times,serif" font-size="14.00" fill="#000000">Conectar_cliente_remoto</text>
</g>
<!-- Instancia_conectada&#45;&gt;Conectar_cliente_remoto -->
<g id="edge19" class="edge">
<title>Instancia_conectada&#45;&gt;Conectar_cliente_remoto</title>
<path fill="none" stroke="#000000" d="M216.5458,-148.3397C245.5548,-137.3673 284.5537,-122.6165 315.7313,-110.8239"/>
<polygon fill="#000000" stroke="#000000" points="317.0212,-114.0781 325.1362,-107.2666 314.5447,-107.5308 317.0212,-114.0781"/>
</g>
<!-- Conseguido -->
<g id="node17" class="node">
<title>Conseguido</title>
<ellipse fill="none" stroke="#000000" cx="189.1424" cy="-18" rx="52.7911" ry="18"/>
<text text-anchor="middle" x="189.1424" y="-14.3" font-family="Times,serif" font-size="14.00" fill="#000000">Conseguido</text>
</g>
<!-- Instancia_conectada&#45;&gt;Conseguido -->
<g id="edge21" class="edge">
<title>Instancia_conectada&#45;&gt;Conseguido</title>
<path fill="none" stroke="#000000" d="M176.8872,-145.8042C179.2766,-120.8868 183.591,-75.8938 186.4107,-46.4877"/>
<polygon fill="#000000" stroke="#000000" points="189.9051,-46.7136 187.3757,-36.4251 182.937,-46.0453 189.9051,-46.7136"/>
<text text-anchor="middle" x="218.6424" y="-87.3" font-family="Times,serif" font-size="14.00" fill="#000000">lsnrctl status</text>
</g>
<!-- Instalar_cliente_remoto -->
<g id="node14" class="node">
<title>Instalar_cliente_remoto</title>
<ellipse fill="none" stroke="#000000" cx="370.1424" cy="-164" rx="94.7833" ry="18"/>
<text text-anchor="middle" x="370.1424" y="-160.3" font-family="Times,serif" font-size="14.00" fill="#000000">Instalar_cliente_remoto</text>
</g>
<!-- Instalar_cliente_remoto&#45;&gt;Conectar_cliente_remoto -->
<g id="edge17" class="edge">
<title>Instalar_cliente_remoto&#45;&gt;Conectar_cliente_remoto</title>
<path fill="none" stroke="#000000" d="M369.6481,-145.9551C369.4269,-137.8828 369.161,-128.1764 368.9145,-119.1817"/>
<polygon fill="#000000" stroke="#000000" points="372.4107,-118.9907 368.6381,-109.0904 365.4134,-119.1825 372.4107,-118.9907"/>
</g>
<!-- Conectar_cliente_remoto&#45;&gt;Conseguido -->
<g id="edge20" class="edge">
<title>Conectar_cliente_remoto&#45;&gt;Conseguido</title>
<path fill="none" stroke="#000000" d="M327.5246,-74.4352C299.1665,-62.8702 261.3639,-47.4534 232.4356,-35.6559"/>
<polygon fill="#000000" stroke="#000000" points="233.5731,-32.3399 222.9918,-31.8045 230.9297,-38.8217 233.5731,-32.3399"/>
</g>
<!-- Quitar_firewall -->
<g id="node16" class="node">
<title>Quitar_firewall</title>
<ellipse fill="none" stroke="#000000" cx="548.1424" cy="-164" rx="64.9885" ry="18"/>
<text text-anchor="middle" x="548.1424" y="-160.3" font-family="Times,serif" font-size="14.00" fill="#000000">Quitar_firewall</text>
</g>
<!-- Quitar_firewall&#45;&gt;Conectar_cliente_remoto -->
<g id="edge18" class="edge">
<title>Quitar_firewall&#45;&gt;Conectar_cliente_remoto</title>
<path fill="none" stroke="#000000" d="M511.2824,-149.0512C484.4604,-138.1734 447.8278,-123.3169 418.3365,-111.3565"/>
<polygon fill="#000000" stroke="#000000" points="419.6162,-108.0986 409.0338,-107.5837 416.9853,-114.5855 419.6162,-108.0986"/>
</g>
</g>
</svg>
