<?xml version="1.0" encoding="UTF-8" standalone="no"?>
<!DOCTYPE svg PUBLIC "-//W3C//DTD SVG 1.1//EN"
 "http://www.w3.org/Graphics/SVG/1.1/DTD/svg11.dtd">
<!-- Generated by graphviz version 2.30.1 (20180420.1509)
 -->
<!-- Title: %3 Pages: 1 -->
<svg width="651pt" height="812pt"
 viewBox="0.00 0.00 651.00 812.00" xmlns="http://www.w3.org/2000/svg" xmlns:xlink="http://www.w3.org/1999/xlink">
<g id="graph0" class="graph" transform="scale(1 1) rotate(0) translate(4 808)">
<title>%3</title>
<polygon fill="white" stroke="white" points="-4,5 -4,-808 648,-808 648,5 -4,5"/>
<!-- Descomprimir -->
<g id="node1" class="node"><title>Descomprimir</title>
<ellipse fill="none" stroke="black" cx="175" cy="-786" rx="62.0922" ry="18"/>
<text text-anchor="middle" x="175" y="-782.3" font-family="Times,serif" font-size="14.00">Descomprimir</text>
</g>
<!-- Instalar -->
<g id="node2" class="node"><title>Instalar</title>
<ellipse fill="none" stroke="black" cx="175" cy="-712" rx="37.0701" ry="18"/>
<text text-anchor="middle" x="175" y="-708.3" font-family="Times,serif" font-size="14.00">Instalar</text>
</g>
<!-- Descomprimir&#45;&gt;Instalar -->
<g id="edge1" class="edge"><title>Descomprimir&#45;&gt;Instalar</title>
<path fill="none" stroke="black" d="M175,-767.937C175,-759.807 175,-749.876 175,-740.705"/>
<polygon fill="black" stroke="black" points="178.5,-740.441 175,-730.441 171.5,-740.441 178.5,-740.441"/>
</g>
<!-- Paquetes_como_root -->
<g id="node3" class="node"><title>Paquetes_como_root</title>
<ellipse fill="none" stroke="black" cx="85" cy="-638" rx="85.2138" ry="18"/>
<text text-anchor="middle" x="85" y="-634.3" font-family="Times,serif" font-size="14.00">Paquetes_como_root</text>
</g>
<!-- Instalar&#45;&gt;Paquetes_como_root -->
<g id="edge2" class="edge"><title>Instalar&#45;&gt;Paquetes_como_root</title>
<path fill="none" stroke="black" d="M156.352,-696.082C144.042,-686.234 127.671,-673.137 113.715,-661.972"/>
<polygon fill="black" stroke="black" points="115.821,-659.175 105.826,-655.661 111.449,-664.641 115.821,-659.175"/>
</g>
<!-- Scripts_como_root -->
<g id="node4" class="node"><title>Scripts_como_root</title>
<ellipse fill="none" stroke="black" cx="266" cy="-638" rx="77.4897" ry="18"/>
<text text-anchor="middle" x="266" y="-634.3" font-family="Times,serif" font-size="14.00">Scripts_como_root</text>
</g>
<!-- Instalar&#45;&gt;Scripts_como_root -->
<g id="edge3" class="edge"><title>Instalar&#45;&gt;Scripts_como_root</title>
<path fill="none" stroke="black" d="M193.855,-696.082C206.389,-686.165 223.087,-672.954 237.261,-661.738"/>
<polygon fill="black" stroke="black" points="239.595,-664.355 245.265,-655.405 235.251,-658.866 239.595,-664.355"/>
</g>
<!-- Software_instalado -->
<g id="node5" class="node"><title>Software_instalado</title>
<ellipse fill="none" stroke="black" cx="195" cy="-564" rx="78.4642" ry="18"/>
<text text-anchor="middle" x="195" y="-560.3" font-family="Times,serif" font-size="14.00">Software_instalado</text>
</g>
<!-- Paquetes_como_root&#45;&gt;Software_instalado -->
<g id="edge4" class="edge"><title>Paquetes_como_root&#45;&gt;Software_instalado</title>
<path fill="none" stroke="black" d="M109.961,-620.662C125.291,-610.628 145.112,-597.654 161.761,-586.756"/>
<polygon fill="black" stroke="black" points="163.688,-589.678 170.138,-581.273 159.854,-583.821 163.688,-589.678"/>
</g>
<!-- Scripts_como_root&#45;&gt;Software_instalado -->
<g id="edge5" class="edge"><title>Scripts_como_root&#45;&gt;Software_instalado</title>
<path fill="none" stroke="black" d="M249.533,-620.301C240.303,-610.941 228.636,-599.11 218.464,-588.795"/>
<polygon fill="black" stroke="black" points="220.892,-586.272 211.378,-581.609 215.907,-591.187 220.892,-586.272"/>
</g>
<!-- Variables_en_bash -->
<g id="node6" class="node"><title>Variables_en_bash</title>
<ellipse fill="none" stroke="black" cx="195" cy="-490" rx="77.0154" ry="18"/>
<text text-anchor="middle" x="195" y="-486.3" font-family="Times,serif" font-size="14.00">Variables_en_bash</text>
</g>
<!-- Software_instalado&#45;&gt;Variables_en_bash -->
<g id="edge6" class="edge"><title>Software_instalado&#45;&gt;Variables_en_bash</title>
<path fill="none" stroke="black" d="M195,-545.937C195,-537.807 195,-527.876 195,-518.705"/>
<polygon fill="black" stroke="black" points="198.5,-518.441 195,-508.441 191.5,-518.441 198.5,-518.441"/>
</g>
<!-- dbca -->
<g id="node7" class="node"><title>dbca</title>
<ellipse fill="none" stroke="black" cx="106" cy="-416" rx="26.949" ry="18"/>
<text text-anchor="middle" x="106" y="-412.3" font-family="Times,serif" font-size="14.00">dbca</text>
</g>
<!-- Software_instalado&#45;&gt;dbca -->
<g id="edge7" class="edge"><title>Software_instalado&#45;&gt;dbca</title>
<path fill="none" stroke="black" d="M155.988,-548.129C138.424,-539.281 119.344,-526.176 109,-508 98.0344,-488.732 98.1837,-463.262 100.56,-444.169"/>
<polygon fill="black" stroke="black" points="104.059,-444.442 102.101,-434.03 97.1385,-443.39 104.059,-444.442"/>
</g>
<!-- netca -->
<g id="node8" class="node"><title>netca</title>
<ellipse fill="none" stroke="black" cx="283" cy="-416" rx="29.3722" ry="18"/>
<text text-anchor="middle" x="283" y="-412.3" font-family="Times,serif" font-size="14.00">netca</text>
</g>
<!-- Software_instalado&#45;&gt;netca -->
<g id="edge8" class="edge"><title>Software_instalado&#45;&gt;netca</title>
<path fill="none" stroke="black" d="M234.099,-548.178C251.684,-539.342 270.756,-526.232 281,-508 291.856,-488.677 291.417,-463.213 288.801,-444.136"/>
<polygon fill="black" stroke="black" points="292.211,-443.303 287.13,-434.006 285.304,-444.443 292.211,-443.303"/>
</g>
<!-- Variables_en_bash&#45;&gt;dbca -->
<g id="edge9" class="edge"><title>Variables_en_bash&#45;&gt;dbca</title>
<path fill="none" stroke="black" d="M174.358,-472.301C161.345,-461.774 144.469,-448.121 130.74,-437.015"/>
<polygon fill="black" stroke="black" points="132.638,-434.048 122.662,-430.479 128.235,-439.49 132.638,-434.048"/>
</g>
<!-- Variables_en_bash&#45;&gt;netca -->
<g id="edge10" class="edge"><title>Variables_en_bash&#45;&gt;netca</title>
<path fill="none" stroke="black" d="M215.41,-472.301C228.108,-461.911 244.528,-448.477 258.004,-437.451"/>
<polygon fill="black" stroke="black" points="260.431,-439.988 265.954,-430.946 255.999,-434.57 260.431,-439.988"/>
</g>
<!-- Instancia_creada -->
<g id="node11" class="node"><title>Instancia_creada</title>
<ellipse fill="none" stroke="black" cx="106" cy="-342" rx="69.3156" ry="18"/>
<text text-anchor="middle" x="106" y="-338.3" font-family="Times,serif" font-size="14.00">Instancia_creada</text>
</g>
<!-- dbca&#45;&gt;Instancia_creada -->
<g id="edge13" class="edge"><title>dbca&#45;&gt;Instancia_creada</title>
<path fill="none" stroke="black" d="M106,-397.937C106,-389.807 106,-379.876 106,-370.705"/>
<polygon fill="black" stroke="black" points="109.5,-370.441 106,-360.441 102.5,-370.441 109.5,-370.441"/>
</g>
<!-- Listener_creado -->
<g id="node9" class="node"><title>Listener_creado</title>
<ellipse fill="none" stroke="black" cx="283" cy="-342" rx="67.3907" ry="18"/>
<text text-anchor="middle" x="283" y="-338.3" font-family="Times,serif" font-size="14.00">Listener_creado</text>
</g>
<!-- netca&#45;&gt;Listener_creado -->
<g id="edge11" class="edge"><title>netca&#45;&gt;Listener_creado</title>
<path fill="none" stroke="black" d="M283,-397.937C283,-389.807 283,-379.876 283,-370.705"/>
<polygon fill="black" stroke="black" points="286.5,-370.441 283,-360.441 279.5,-370.441 286.5,-370.441"/>
</g>
<!-- Listener_levantado -->
<g id="node10" class="node"><title>Listener_levantado</title>
<ellipse fill="none" stroke="black" cx="283" cy="-254" rx="77.4897" ry="18"/>
<text text-anchor="middle" x="283" y="-250.3" font-family="Times,serif" font-size="14.00">Listener_levantado</text>
</g>
<!-- Listener_creado&#45;&gt;Listener_levantado -->
<g id="edge12" class="edge"><title>Listener_creado&#45;&gt;Listener_levantado</title>
<path fill="none" stroke="black" d="M283,-323.597C283,-311.746 283,-295.817 283,-282.292"/>
<polygon fill="black" stroke="black" points="286.5,-282.084 283,-272.084 279.5,-282.084 286.5,-282.084"/>
<text text-anchor="middle" x="313.5" y="-294.3" font-family="Times,serif" font-size="14.00">lsnrctl start</text>
</g>
<!-- Instancia_conectada -->
<g id="node13" class="node"><title>Instancia_conectada</title>
<ellipse fill="none" stroke="black" cx="206" cy="-166" rx="81.3398" ry="18"/>
<text text-anchor="middle" x="206" y="-162.3" font-family="Times,serif" font-size="14.00">Instancia_conectada</text>
</g>
<!-- Listener_levantado&#45;&gt;Instancia_conectada -->
<g id="edge16" class="edge"><title>Listener_levantado&#45;&gt;Instancia_conectada</title>
<path fill="none" stroke="black" d="M267.787,-236.009C256.397,-223.288 240.652,-205.702 227.906,-191.467"/>
<polygon fill="black" stroke="black" points="230.459,-189.071 221.181,-183.956 225.244,-193.74 230.459,-189.071"/>
</g>
<!-- Instancia_levantada -->
<g id="node12" class="node"><title>Instancia_levantada</title>
<ellipse fill="none" stroke="black" cx="106" cy="-254" rx="80.389" ry="18"/>
<text text-anchor="middle" x="106" y="-250.3" font-family="Times,serif" font-size="14.00">Instancia_levantada</text>
</g>
<!-- Instancia_creada&#45;&gt;Instancia_levantada -->
<g id="edge14" class="edge"><title>Instancia_creada&#45;&gt;Instancia_levantada</title>
<path fill="none" stroke="black" d="M106,-323.597C106,-311.746 106,-295.817 106,-282.292"/>
<polygon fill="black" stroke="black" points="109.5,-282.084 106,-272.084 102.5,-282.084 109.5,-282.084"/>
<text text-anchor="middle" x="139.5" y="-294.3" font-family="Times,serif" font-size="14.00">startup open</text>
</g>
<!-- Instancia_levantada&#45;&gt;Instancia_conectada -->
<g id="edge15" class="edge"><title>Instancia_levantada&#45;&gt;Instancia_conectada</title>
<path fill="none" stroke="black" d="M125.281,-236.418C140.499,-223.331 161.914,-204.914 178.863,-190.338"/>
<polygon fill="black" stroke="black" points="181.478,-192.705 186.778,-183.531 176.914,-187.398 181.478,-192.705"/>
<text text-anchor="middle" x="197.5" y="-206.3" font-family="Times,serif" font-size="14.00">Automático</text>
</g>
<!-- Conectar_cliente_remoto -->
<g id="node15" class="node"><title>Conectar_cliente_remoto</title>
<ellipse fill="none" stroke="black" cx="397" cy="-92" rx="100.137" ry="18"/>
<text text-anchor="middle" x="397" y="-88.3" font-family="Times,serif" font-size="14.00">Conectar_cliente_remoto</text>
</g>
<!-- Instancia_conectada&#45;&gt;Conectar_cliente_remoto -->
<g id="edge19" class="edge"><title>Instancia_conectada&#45;&gt;Conectar_cliente_remoto</title>
<path fill="none" stroke="black" d="M245.575,-150.082C274.787,-139.07 314.778,-123.995 346.327,-112.102"/>
<polygon fill="black" stroke="black" points="347.703,-115.324 355.826,-108.521 345.234,-108.774 347.703,-115.324"/>
</g>
<!-- Conseguido -->
<g id="node17" class="node"><title>Conseguido</title>
<ellipse fill="none" stroke="black" cx="261" cy="-18" rx="52.4675" ry="18"/>
<text text-anchor="middle" x="261" y="-14.3" font-family="Times,serif" font-size="14.00">Conseguido</text>
</g>
<!-- Instancia_conectada&#45;&gt;Conseguido -->
<g id="edge21" class="edge"><title>Instancia_conectada&#45;&gt;Conseguido</title>
<path fill="none" stroke="black" d="M205.9,-147.884C206.361,-129.068 208.818,-98.284 219,-74 223.624,-62.9722 231.001,-52.2056 238.292,-43.1641"/>
<polygon fill="black" stroke="black" points="241.087,-45.2797 244.881,-35.3877 235.746,-40.7542 241.087,-45.2797"/>
<text text-anchor="middle" x="253.5" y="-88.3" font-family="Times,serif" font-size="14.00">lsnrctl status</text>
</g>
<!-- Instalar_cliente_remoto -->
<g id="node14" class="node"><title>Instalar_cliente_remoto</title>
<ellipse fill="none" stroke="black" cx="401" cy="-166" rx="94.338" ry="18"/>
<text text-anchor="middle" x="401" y="-162.3" font-family="Times,serif" font-size="14.00">Instalar_cliente_remoto</text>
</g>
<!-- Instalar_cliente_remoto&#45;&gt;Conectar_cliente_remoto -->
<g id="edge17" class="edge"><title>Instalar_cliente_remoto&#45;&gt;Conectar_cliente_remoto</title>
<path fill="none" stroke="black" d="M400.052,-147.937C399.6,-139.807 399.049,-129.876 398.539,-120.705"/>
<polygon fill="black" stroke="black" points="402.018,-120.231 397.969,-110.441 395.029,-120.619 402.018,-120.231"/>
</g>
<!-- Conectar_cliente_remoto&#45;&gt;Conseguido -->
<g id="edge20" class="edge"><title>Conectar_cliente_remoto&#45;&gt;Conseguido</title>
<path fill="none" stroke="black" d="M366.479,-74.8418C345.921,-63.9583 318.717,-49.5563 297.086,-38.1044"/>
<polygon fill="black" stroke="black" points="298.668,-34.9815 288.192,-33.3959 295.392,-41.1681 298.668,-34.9815"/>
</g>
<!-- Quitar_firewall -->
<g id="node16" class="node"><title>Quitar_firewall</title>
<ellipse fill="none" stroke="black" cx="579" cy="-166" rx="64.4914" ry="18"/>
<text text-anchor="middle" x="579" y="-162.3" font-family="Times,serif" font-size="14.00">Quitar_firewall</text>
</g>
<!-- Quitar_firewall&#45;&gt;Conectar_cliente_remoto -->
<g id="edge18" class="edge"><title>Quitar_firewall&#45;&gt;Conectar_cliente_remoto</title>
<path fill="none" stroke="black" d="M543.477,-150.947C515.753,-139.979 476.921,-124.617 446.204,-112.465"/>
<polygon fill="black" stroke="black" points="447.128,-109.067 436.541,-108.643 444.552,-115.576 447.128,-109.067"/>
</g>
</g>
</svg>
