<?xml version="1.0" encoding="UTF-8" standalone="no"?>
<!DOCTYPE svg PUBLIC "-//W3C//DTD SVG 1.1//EN"
 "http://www.w3.org/Graphics/SVG/1.1/DTD/svg11.dtd">
<!-- Generated by graphviz version 2.40.1 (20161225.0304)
 -->
<!-- Title: %3 Pages: 1 -->
<svg width="352pt" height="743pt"
 viewBox="0.00 0.00 352.14 743.00" xmlns="http://www.w3.org/2000/svg" xmlns:xlink="http://www.w3.org/1999/xlink">
<g id="graph0" class="graph" transform="scale(1 1) rotate(0) translate(4 739)">
<title>%3</title>
<polygon fill="#ffffff" stroke="transparent" points="-4,4 -4,-739 348.1355,-739 348.1355,4 -4,4"/>
<!-- Descomprimir -->
<g id="node1" class="node">
<title>Descomprimir</title>
<ellipse fill="none" stroke="#000000" cx="175.1424" cy="-717" rx="62.2891" ry="18"/>
<text text-anchor="middle" x="175.1424" y="-713.3" font-family="Times,serif" font-size="14.00" fill="#000000">Descomprimir</text>
</g>
<!-- Instalar -->
<g id="node2" class="node">
<title>Instalar</title>
<ellipse fill="none" stroke="#000000" cx="175.1424" cy="-644" rx="37.0935" ry="18"/>
<text text-anchor="middle" x="175.1424" y="-640.3" font-family="Times,serif" font-size="14.00" fill="#000000">Instalar</text>
</g>
<!-- Descomprimir&#45;&gt;Instalar -->
<g id="edge1" class="edge">
<title>Descomprimir&#45;&gt;Instalar</title>
<path fill="none" stroke="#000000" d="M175.1424,-698.9551C175.1424,-690.8828 175.1424,-681.1764 175.1424,-672.1817"/>
<polygon fill="#000000" stroke="#000000" points="178.6425,-672.0903 175.1424,-662.0904 171.6425,-672.0904 178.6425,-672.0903"/>
</g>
<!-- Paquetes_como_root -->
<g id="node3" class="node">
<title>Paquetes_como_root</title>
<ellipse fill="none" stroke="#000000" cx="85.1424" cy="-571" rx="85.2851" ry="18"/>
<text text-anchor="middle" x="85.1424" y="-567.3" font-family="Times,serif" font-size="14.00" fill="#000000">Paquetes_como_root</text>
</g>
<!-- Instalar&#45;&gt;Paquetes_como_root -->
<g id="edge2" class="edge">
<title>Instalar&#45;&gt;Paquetes_como_root</title>
<path fill="none" stroke="#000000" d="M156.0558,-628.5186C144.0912,-618.814 128.4193,-606.1024 114.852,-595.0977"/>
<polygon fill="#000000" stroke="#000000" points="116.6996,-592.0897 106.7283,-588.5085 112.2899,-597.5262 116.6996,-592.0897"/>
</g>
<!-- Scripts_como_root -->
<g id="node4" class="node">
<title>Scripts_como_root</title>
<ellipse fill="none" stroke="#000000" cx="266.1424" cy="-571" rx="77.9862" ry="18"/>
<text text-anchor="middle" x="266.1424" y="-567.3" font-family="Times,serif" font-size="14.00" fill="#000000">Scripts_como_root</text>
</g>
<!-- Instalar&#45;&gt;Scripts_como_root -->
<g id="edge3" class="edge">
<title>Instalar&#45;&gt;Scripts_como_root</title>
<path fill="none" stroke="#000000" d="M194.4412,-628.5186C206.6528,-618.7225 222.684,-605.8623 236.4905,-594.7867"/>
<polygon fill="#000000" stroke="#000000" points="238.7065,-597.4961 244.3167,-588.5085 234.3263,-592.0358 238.7065,-597.4961"/>
</g>
<!-- Software_instalado -->
<g id="node5" class="node">
<title>Software_instalado</title>
<ellipse fill="none" stroke="#000000" cx="175.1424" cy="-498" rx="78.7863" ry="18"/>
<text text-anchor="middle" x="175.1424" y="-494.3" font-family="Times,serif" font-size="14.00" fill="#000000">Software_instalado</text>
</g>
<!-- Paquetes_como_root&#45;&gt;Software_instalado -->
<g id="edge4" class="edge">
<title>Paquetes_como_root&#45;&gt;Software_instalado</title>
<path fill="none" stroke="#000000" d="M106.9289,-553.3287C118.5366,-543.9137 132.9819,-532.1969 145.5871,-521.9726"/>
<polygon fill="#000000" stroke="#000000" points="147.995,-524.5262 153.5566,-515.5085 143.5853,-519.0897 147.995,-524.5262"/>
</g>
<!-- Scripts_como_root&#45;&gt;Software_instalado -->
<g id="edge5" class="edge">
<title>Scripts_como_root&#45;&gt;Software_instalado</title>
<path fill="none" stroke="#000000" d="M244.5767,-553.7C232.7634,-544.2234 217.9409,-532.3328 205.0279,-521.974"/>
<polygon fill="#000000" stroke="#000000" points="206.8592,-518.9561 196.8687,-515.4288 202.479,-524.4163 206.8592,-518.9561"/>
</g>
<!-- Variables_en_bash -->
<g id="node6" class="node">
<title>Variables_en_bash</title>
<ellipse fill="none" stroke="#000000" cx="175.1424" cy="-425" rx="77.1866" ry="18"/>
<text text-anchor="middle" x="175.1424" y="-421.3" font-family="Times,serif" font-size="14.00" fill="#000000">Variables_en_bash</text>
</g>
<!-- Software_instalado&#45;&gt;Variables_en_bash -->
<g id="edge6" class="edge">
<title>Software_instalado&#45;&gt;Variables_en_bash</title>
<path fill="none" stroke="#000000" d="M175.1424,-479.9551C175.1424,-471.8828 175.1424,-462.1764 175.1424,-453.1817"/>
<polygon fill="#000000" stroke="#000000" points="178.6425,-453.0903 175.1424,-443.0904 171.6425,-453.0904 178.6425,-453.0903"/>
</g>
<!-- dbca -->
<g id="node7" class="node">
<title>dbca</title>
<ellipse fill="none" stroke="#000000" cx="87.1424" cy="-352" rx="27.0966" ry="18"/>
<text text-anchor="middle" x="87.1424" y="-348.3" font-family="Times,serif" font-size="14.00" fill="#000000">dbca</text>
</g>
<!-- Software_instalado&#45;&gt;dbca -->
<g id="edge7" class="edge">
<title>Software_instalado&#45;&gt;dbca</title>
<path fill="none" stroke="#000000" d="M134.6998,-482.4959C117.4943,-473.6722 99.1258,-460.7687 89.1424,-443 78.4811,-424.0245 78.713,-399.1258 81.2025,-380.1703"/>
<polygon fill="#000000" stroke="#000000" points="84.6968,-380.4828 82.8132,-370.0567 77.7839,-379.3818 84.6968,-380.4828"/>
</g>
<!-- netca -->
<g id="node8" class="node">
<title>netca</title>
<ellipse fill="none" stroke="#000000" cx="264.1424" cy="-352" rx="29.4969" ry="18"/>
<text text-anchor="middle" x="264.1424" y="-348.3" font-family="Times,serif" font-size="14.00" fill="#000000">netca</text>
</g>
<!-- Software_instalado&#45;&gt;netca -->
<g id="edge8" class="edge">
<title>Software_instalado&#45;&gt;netca</title>
<path fill="none" stroke="#000000" d="M215.4964,-482.4458C232.6833,-473.6115 251.0617,-460.7136 261.1424,-443 271.911,-424.0777 271.9605,-399.1749 269.708,-380.2043"/>
<polygon fill="#000000" stroke="#000000" points="273.1377,-379.469 268.2265,-370.0812 266.2115,-380.4827 273.1377,-379.469"/>
</g>
<!-- Variables_en_bash&#45;&gt;dbca -->
<g id="edge9" class="edge">
<title>Variables_en_bash&#45;&gt;dbca</title>
<path fill="none" stroke="#000000" d="M153.8401,-407.3287C141.2029,-396.8456 125.1257,-383.5089 111.9224,-372.5561"/>
<polygon fill="#000000" stroke="#000000" points="114.0605,-369.7822 104.1293,-366.0913 109.5912,-375.1698 114.0605,-369.7822"/>
</g>
<!-- Variables_en_bash&#45;&gt;netca -->
<g id="edge10" class="edge">
<title>Variables_en_bash&#45;&gt;netca</title>
<path fill="none" stroke="#000000" d="M196.6869,-407.3287C209.2973,-396.9853 225.2946,-383.864 238.5452,-372.9955"/>
<polygon fill="#000000" stroke="#000000" points="240.8737,-375.6124 246.3859,-366.5644 236.4344,-370.2001 240.8737,-375.6124"/>
</g>
<!-- Instancia_creada -->
<g id="node11" class="node">
<title>Instancia_creada</title>
<ellipse fill="none" stroke="#000000" cx="87.1424" cy="-279" rx="69.5877" ry="18"/>
<text text-anchor="middle" x="87.1424" y="-275.3" font-family="Times,serif" font-size="14.00" fill="#000000">Instancia_creada</text>
</g>
<!-- dbca&#45;&gt;Instancia_creada -->
<g id="edge13" class="edge">
<title>dbca&#45;&gt;Instancia_creada</title>
<path fill="none" stroke="#000000" d="M87.1424,-333.9551C87.1424,-325.8828 87.1424,-316.1764 87.1424,-307.1817"/>
<polygon fill="#000000" stroke="#000000" points="90.6425,-307.0903 87.1424,-297.0904 83.6425,-307.0904 90.6425,-307.0903"/>
</g>
<!-- Listener_creado -->
<g id="node9" class="node">
<title>Listener_creado</title>
<ellipse fill="none" stroke="#000000" cx="264.1424" cy="-279" rx="67.6881" ry="18"/>
<text text-anchor="middle" x="264.1424" y="-275.3" font-family="Times,serif" font-size="14.00" fill="#000000">Listener_creado</text>
</g>
<!-- netca&#45;&gt;Listener_creado -->
<g id="edge11" class="edge">
<title>netca&#45;&gt;Listener_creado</title>
<path fill="none" stroke="#000000" d="M264.1424,-333.9551C264.1424,-325.8828 264.1424,-316.1764 264.1424,-307.1817"/>
<polygon fill="#000000" stroke="#000000" points="267.6425,-307.0903 264.1424,-297.0904 260.6425,-307.0904 267.6425,-307.0903"/>
</g>
<!-- Listener_levantado -->
<g id="node10" class="node">
<title>Listener_levantado</title>
<ellipse fill="none" stroke="#000000" cx="264.1424" cy="-192" rx="77.9862" ry="18"/>
<text text-anchor="middle" x="264.1424" y="-188.3" font-family="Times,serif" font-size="14.00" fill="#000000">Listener_levantado</text>
</g>
<!-- Listener_creado&#45;&gt;Listener_levantado -->
<g id="edge12" class="edge">
<title>Listener_creado&#45;&gt;Listener_levantado</title>
<path fill="none" stroke="#000000" d="M264.1424,-260.9735C264.1424,-249.1918 264.1424,-233.5607 264.1424,-220.1581"/>
<polygon fill="#000000" stroke="#000000" points="267.6425,-220.0033 264.1424,-210.0034 260.6425,-220.0034 267.6425,-220.0033"/>
<text text-anchor="middle" x="294.6424" y="-231.8" font-family="Times,serif" font-size="14.00" fill="#000000">lsnrctl start</text>
</g>
<!-- Instancia_conectada -->
<g id="node13" class="node">
<title>Instancia_conectada</title>
<ellipse fill="none" stroke="#000000" cx="175.1424" cy="-105" rx="81.7856" ry="18"/>
<text text-anchor="middle" x="175.1424" y="-101.3" font-family="Times,serif" font-size="14.00" fill="#000000">Instancia_conectada</text>
</g>
<!-- Listener_levantado&#45;&gt;Instancia_conectada -->
<g id="edge16" class="edge">
<title>Listener_levantado&#45;&gt;Instancia_conectada</title>
<path fill="none" stroke="#000000" d="M246.132,-174.3943C232.9829,-161.5407 214.9823,-143.9446 200.3978,-129.6878"/>
<polygon fill="#000000" stroke="#000000" points="202.7237,-127.067 193.1261,-122.5796 197.8305,-132.0727 202.7237,-127.067"/>
</g>
<!-- Instancia_levantada -->
<g id="node12" class="node">
<title>Instancia_levantada</title>
<ellipse fill="none" stroke="#000000" cx="87.1424" cy="-192" rx="80.6858" ry="18"/>
<text text-anchor="middle" x="87.1424" y="-188.3" font-family="Times,serif" font-size="14.00" fill="#000000">Instancia_levantada</text>
</g>
<!-- Instancia_creada&#45;&gt;Instancia_levantada -->
<g id="edge14" class="edge">
<title>Instancia_creada&#45;&gt;Instancia_levantada</title>
<path fill="none" stroke="#000000" d="M87.1424,-260.9735C87.1424,-249.1918 87.1424,-233.5607 87.1424,-220.1581"/>
<polygon fill="#000000" stroke="#000000" points="90.6425,-220.0033 87.1424,-210.0034 83.6425,-220.0034 90.6425,-220.0033"/>
<text text-anchor="middle" x="120.6424" y="-231.8" font-family="Times,serif" font-size="14.00" fill="#000000">startup open</text>
</g>
<!-- Instancia_levantada&#45;&gt;Instancia_conectada -->
<g id="edge15" class="edge">
<title>Instancia_levantada&#45;&gt;Instancia_conectada</title>
<path fill="none" stroke="#000000" d="M104.9506,-174.3943C117.9519,-161.5407 135.7502,-143.9446 150.1709,-129.6878"/>
<polygon fill="#000000" stroke="#000000" points="152.7101,-132.0991 157.3608,-122.5796 147.7887,-127.1212 152.7101,-132.0991"/>
<text text-anchor="middle" x="169.6424" y="-144.8" font-family="Times,serif" font-size="14.00" fill="#000000">Automático</text>
</g>
<!-- Conseguido -->
<g id="node14" class="node">
<title>Conseguido</title>
<ellipse fill="none" stroke="#000000" cx="175.1424" cy="-18" rx="52.7911" ry="18"/>
<text text-anchor="middle" x="175.1424" y="-14.3" font-family="Times,serif" font-size="14.00" fill="#000000">Conseguido</text>
</g>
<!-- Instancia_conectada&#45;&gt;Conseguido -->
<g id="edge17" class="edge">
<title>Instancia_conectada&#45;&gt;Conseguido</title>
<path fill="none" stroke="#000000" d="M175.1424,-86.9735C175.1424,-75.1918 175.1424,-59.5607 175.1424,-46.1581"/>
<polygon fill="#000000" stroke="#000000" points="178.6425,-46.0033 175.1424,-36.0034 171.6425,-46.0034 178.6425,-46.0033"/>
<text text-anchor="middle" x="209.6424" y="-57.8" font-family="Times,serif" font-size="14.00" fill="#000000">lsnrctl status</text>
</g>
</g>
</svg>
