<?xml version="1.0" encoding="UTF-8" standalone="no"?>
<!DOCTYPE svg PUBLIC "-//W3C//DTD SVG 1.1//EN"
 "http://www.w3.org/Graphics/SVG/1.1/DTD/svg11.dtd">
<!-- Generated by graphviz version 2.40.1 (20161225.0304)
 -->
<!-- Title: %3 Pages: 1 -->
<svg width="726pt" height="305pt"
 viewBox="0.00 0.00 726.43 305.00" xmlns="http://www.w3.org/2000/svg" xmlns:xlink="http://www.w3.org/1999/xlink">
<g id="graph0" class="graph" transform="scale(1 1) rotate(0) translate(4 301)">
<title>%3</title>
<polygon fill="#ffffff" stroke="transparent" points="-4,4 -4,-301 722.4343,-301 722.4343,4 -4,4"/>
<!-- ~/.bash_profile -->
<g id="node1" class="node">
<title>~/.bash_profile</title>
<ellipse fill="none" stroke="#000000" cx="447.8414" cy="-105" rx="90.9839" ry="18"/>
<text text-anchor="middle" x="447.8414" y="-101.3" font-family="courier new" font-size="14.00" fill="#000000">~/.bash_profile</text>
</g>
<!-- ~/.bashrc -->
<g id="node6" class="node">
<title>~/.bashrc</title>
<ellipse fill="none" stroke="#000000" cx="358.8414" cy="-18" rx="59.2899" ry="18"/>
<text text-anchor="middle" x="358.8414" y="-14.3" font-family="courier new" font-size="14.00" fill="#000000">~/.bashrc</text>
</g>
<!-- ~/.bash_profile&#45;&gt;~/.bashrc -->
<g id="edge11" class="edge">
<title>~/.bash_profile&#45;&gt;~/.bashrc</title>
<path fill="none" stroke="#000000" stroke-dasharray="1,5" d="M429.4005,-86.9735C416.2198,-74.089 398.3297,-56.6009 383.862,-42.4583"/>
<polygon fill="#000000" stroke="#000000" points="386.2489,-39.8971 376.6513,-35.4097 381.3557,-44.9028 386.2489,-39.8971"/>
</g>
<!-- ~/.bash_login -->
<g id="node2" class="node">
<title>~/.bash_login</title>
<ellipse fill="none" stroke="#000000" cx="637.8414" cy="-105" rx="80.6858" ry="18"/>
<text text-anchor="middle" x="637.8414" y="-101.3" font-family="courier new" font-size="14.00" fill="#000000">~/.bash_login</text>
</g>
<!-- ~/.profile -->
<g id="node3" class="node">
<title>~/.profile</title>
<ellipse fill="none" stroke="#000000" cx="274.8414" cy="-105" rx="64.189" ry="18"/>
<text text-anchor="middle" x="274.8414" y="-101.3" font-family="courier new" font-size="14.00" fill="#000000">~/.profile</text>
</g>
<!-- ~/.bash_logout -->
<g id="node4" class="node">
<title>~/.bash_logout</title>
<ellipse fill="none" stroke="#000000" cx="425.8414" cy="-192" rx="85.5853" ry="18"/>
<text text-anchor="middle" x="425.8414" y="-188.3" font-family="courier new" font-size="14.00" fill="#000000">~/.bash_logout</text>
</g>
<!-- /etc/bash.bashrc -->
<g id="node5" class="node">
<title>/etc/bash.bashrc</title>
<ellipse fill="none" stroke="#000000" cx="96.8414" cy="-18" rx="96.6831" ry="18"/>
<text text-anchor="middle" x="96.8414" y="-14.3" font-family="courier new" font-size="14.00" fill="#000000">/etc/bash.bashrc</text>
</g>
<!-- /etc/profile -->
<g id="node7" class="node">
<title>/etc/profile</title>
<ellipse fill="none" stroke="#000000" cx="246.8414" cy="-192" rx="75.2868" ry="18"/>
<text text-anchor="middle" x="246.8414" y="-188.3" font-family="courier new" font-size="14.00" fill="#000000">/etc/profile</text>
</g>
<!-- BASH LOGIN -->
<g id="node8" class="node">
<title>BASH LOGIN</title>
<ellipse fill="none" stroke="#000000" cx="425.8414" cy="-279" rx="63.8893" ry="18"/>
<text text-anchor="middle" x="425.8414" y="-275.3" font-family="Times,serif" font-size="14.00" fill="#000000">BASH LOGIN</text>
</g>
<!-- BASH LOGIN&#45;&gt;~/.bash_logout -->
<g id="edge6" class="edge">
<title>BASH LOGIN&#45;&gt;~/.bash_logout</title>
<path fill="none" stroke="#000000" d="M425.8414,-260.9735C425.8414,-249.1918 425.8414,-233.5607 425.8414,-220.1581"/>
<polygon fill="#000000" stroke="#000000" points="429.3415,-220.0033 425.8414,-210.0034 422.3415,-220.0034 429.3415,-220.0033"/>
<text text-anchor="middle" x="436.3414" y="-231.8" font-family="Times,serif" font-size="14.00" fill="#000000">exit</text>
</g>
<!-- BASH LOGIN&#45;&gt;/etc/profile -->
<g id="edge1" class="edge">
<title>BASH LOGIN&#45;&gt;/etc/profile</title>
<path fill="none" stroke="#000000" d="M393.4259,-263.245C364.2664,-249.0725 321.2324,-228.1565 289.3281,-212.65"/>
<polygon fill="#000000" stroke="#000000" points="290.7535,-209.4513 280.2295,-208.2277 287.6935,-215.747 290.7535,-209.4513"/>
<text text-anchor="middle" x="353.8414" y="-231.8" font-family="Times,serif" font-size="14.00" fill="#000000">1º</text>
</g>
<!-- Primero de: -->
<g id="node9" class="node">
<title>Primero de:</title>
<ellipse fill="none" stroke="#000000" cx="581.8414" cy="-192" rx="52.7911" ry="18"/>
<text text-anchor="middle" x="581.8414" y="-188.3" font-family="Times,serif" font-size="14.00" fill="#000000">Primero de:</text>
</g>
<!-- BASH LOGIN&#45;&gt;Primero de: -->
<g id="edge2" class="edge">
<title>BASH LOGIN&#45;&gt;Primero de:</title>
<path fill="none" stroke="#000000" d="M454.8182,-262.8399C480.3091,-248.6238 517.5473,-227.8563 545.1193,-212.4796"/>
<polygon fill="#000000" stroke="#000000" points="547.0394,-215.4163 554.0683,-207.4888 543.6299,-209.3028 547.0394,-215.4163"/>
<text text-anchor="middle" x="518.8414" y="-231.8" font-family="Times,serif" font-size="14.00" fill="#000000">2º</text>
</g>
<!-- Primero de:&#45;&gt;~/.bash_profile -->
<g id="edge3" class="edge">
<title>Primero de:&#45;&gt;~/.bash_profile</title>
<path fill="none" stroke="#000000" d="M557.2637,-176.0429C536.4947,-162.5585 506.4867,-143.0757 483.1466,-127.922"/>
<polygon fill="#000000" stroke="#000000" points="484.8542,-124.8577 474.561,-122.3478 481.0423,-130.7289 484.8542,-124.8577"/>
<text text-anchor="middle" x="528.8414" y="-144.8" font-family="Times,serif" font-size="14.00" fill="#000000">1º</text>
</g>
<!-- Primero de:&#45;&gt;~/.bash_login -->
<g id="edge4" class="edge">
<title>Primero de:&#45;&gt;~/.bash_login</title>
<path fill="none" stroke="#000000" d="M593.1738,-174.3943C601.0914,-162.0938 611.8044,-145.4503 620.7541,-131.5463"/>
<polygon fill="#000000" stroke="#000000" points="623.8641,-133.1812 626.3336,-122.8782 617.9781,-129.3925 623.8641,-133.1812"/>
<text text-anchor="middle" x="618.8414" y="-144.8" font-family="Times,serif" font-size="14.00" fill="#000000">2º</text>
</g>
<!-- Primero de:&#45;&gt;~/.profile -->
<g id="edge5" class="edge">
<title>Primero de:&#45;&gt;~/.profile</title>
<path fill="none" stroke="#000000" d="M541.8326,-180.1103C534.8406,-178.0564 527.6325,-175.9543 520.8414,-174 455.6389,-155.2366 380.5286,-134.2617 330.6288,-120.4169"/>
<polygon fill="#000000" stroke="#000000" points="331.2576,-116.9592 320.6859,-117.66 329.3872,-123.7048 331.2576,-116.9592"/>
<text text-anchor="middle" x="459.8414" y="-144.8" font-family="Times,serif" font-size="14.00" fill="#000000">3º</text>
</g>
<!-- BASH INTERACTIVO -->
<g id="node10" class="node">
<title>BASH INTERACTIVO</title>
<ellipse fill="none" stroke="#000000" cx="96.8414" cy="-105" rx="95.5831" ry="18"/>
<text text-anchor="middle" x="96.8414" y="-101.3" font-family="Times,serif" font-size="14.00" fill="#000000">BASH INTERACTIVO</text>
</g>
<!-- BASH INTERACTIVO&#45;&gt;/etc/bash.bashrc -->
<g id="edge7" class="edge">
<title>BASH INTERACTIVO&#45;&gt;/etc/bash.bashrc</title>
<path fill="none" stroke="#000000" d="M96.8414,-86.9735C96.8414,-75.1918 96.8414,-59.5607 96.8414,-46.1581"/>
<polygon fill="#000000" stroke="#000000" points="100.3415,-46.0033 96.8414,-36.0034 93.3415,-46.0034 100.3415,-46.0033"/>
<text text-anchor="middle" x="102.8414" y="-57.8" font-family="Times,serif" font-size="14.00" fill="#000000">1º</text>
</g>
<!-- BASH INTERACTIVO&#45;&gt;~/.bashrc -->
<g id="edge8" class="edge">
<title>BASH INTERACTIVO&#45;&gt;~/.bashrc</title>
<path fill="none" stroke="#000000" d="M144.2876,-89.245C190.8204,-73.7932 261.4929,-50.3256 308.8744,-34.5921"/>
<polygon fill="#000000" stroke="#000000" points="310.227,-37.8309 318.6145,-31.3578 308.021,-31.1876 310.227,-37.8309"/>
<text text-anchor="middle" x="249.8414" y="-57.8" font-family="Times,serif" font-size="14.00" fill="#000000">2º</text>
</g>
<!-- SH INTERACTIVO -->
<g id="node11" class="node">
<title>SH INTERACTIVO</title>
<ellipse fill="none" stroke="#000000" cx="185.8414" cy="-279" rx="83.3857" ry="18"/>
<text text-anchor="middle" x="185.8414" y="-275.3" font-family="Times,serif" font-size="14.00" fill="#000000">SH INTERACTIVO</text>
</g>
<!-- SH INTERACTIVO&#45;&gt;~/.profile -->
<g id="edge10" class="edge">
<title>SH INTERACTIVO&#45;&gt;~/.profile</title>
<path fill="none" stroke="#000000" d="M171.0403,-260.9462C155.152,-239.2224 134.2853,-202.1594 150.8414,-174 165.6779,-148.7655 193.4549,-132.0912 218.9638,-121.4671"/>
<polygon fill="#000000" stroke="#000000" points="220.5675,-124.5977 228.5976,-117.6863 218.0101,-118.0816 220.5675,-124.5977"/>
<text text-anchor="middle" x="156.8414" y="-188.3" font-family="Times,serif" font-size="14.00" fill="#000000">2º</text>
</g>
<!-- SH INTERACTIVO&#45;&gt;/etc/profile -->
<g id="edge9" class="edge">
<title>SH INTERACTIVO&#45;&gt;/etc/profile</title>
<path fill="none" stroke="#000000" d="M198.4806,-260.9735C207.0686,-248.7252 218.5735,-232.3165 228.2073,-218.5766"/>
<polygon fill="#000000" stroke="#000000" points="231.3432,-220.2006 234.2184,-210.0034 225.6116,-216.1819 231.3432,-220.2006"/>
<text text-anchor="middle" x="226.8414" y="-231.8" font-family="Times,serif" font-size="14.00" fill="#000000">1º</text>
</g>
</g>
</svg>
