<?xml version="1.0" encoding="UTF-8" standalone="no"?>
<!DOCTYPE svg PUBLIC "-//W3C//DTD SVG 1.1//EN"
 "http://www.w3.org/Graphics/SVG/1.1/DTD/svg11.dtd">
<!-- Generated by graphviz version 2.43.0 (0)
 -->
<!-- Title: %3 Pages: 1 -->
<svg width="749pt" height="305pt"
 viewBox="0.00 0.00 749.48 305.00" xmlns="http://www.w3.org/2000/svg" xmlns:xlink="http://www.w3.org/1999/xlink">
<g id="graph0" class="graph" transform="scale(1 1) rotate(0) translate(4 301)">
<title>%3</title>
<polygon fill="white" stroke="transparent" points="-4,4 -4,-301 745.48,-301 745.48,4 -4,4"/>
<!-- ~/.bash_profile -->
<g id="node1" class="node">
<title>~/.bash_profile</title>
<ellipse fill="none" stroke="black" cx="470.89" cy="-105" rx="90.98" ry="18"/>
<text text-anchor="middle" x="470.89" y="-101.3" font-family="courier new" font-size="14.00">~/.bash_profile</text>
</g>
<!-- ~/.bashrc -->
<g id="node6" class="node">
<title>~/.bashrc</title>
<ellipse fill="none" stroke="black" cx="375.89" cy="-18" rx="59.29" ry="18"/>
<text text-anchor="middle" x="375.89" y="-14.3" font-family="courier new" font-size="14.00">~/.bashrc</text>
</g>
<!-- ~/.bash_profile&#45;&gt;~/.bashrc -->
<g id="edge11" class="edge">
<title>~/.bash_profile&#45;&gt;~/.bashrc</title>
<path fill="none" stroke="black" stroke-dasharray="1,5" d="M452.12,-87.21C437.62,-74.23 417.4,-56.14 401.43,-41.85"/>
<polygon fill="black" stroke="black" points="403.76,-39.24 393.98,-35.18 399.09,-44.46 403.76,-39.24"/>
</g>
<!-- ~/.bash_login -->
<g id="node2" class="node">
<title>~/.bash_login</title>
<ellipse fill="none" stroke="black" cx="660.89" cy="-105" rx="80.69" ry="18"/>
<text text-anchor="middle" x="660.89" y="-101.3" font-family="courier new" font-size="14.00">~/.bash_login</text>
</g>
<!-- ~/.profile -->
<g id="node3" class="node">
<title>~/.profile</title>
<ellipse fill="none" stroke="black" cx="297.89" cy="-105" rx="64.19" ry="18"/>
<text text-anchor="middle" x="297.89" y="-101.3" font-family="courier new" font-size="14.00">~/.profile</text>
</g>
<!-- ~/.bash_logout -->
<g id="node4" class="node">
<title>~/.bash_logout</title>
<ellipse fill="none" stroke="black" cx="434.89" cy="-192" rx="85.59" ry="18"/>
<text text-anchor="middle" x="434.89" y="-188.3" font-family="courier new" font-size="14.00">~/.bash_logout</text>
</g>
<!-- /etc/bash.bashrc -->
<g id="node5" class="node">
<title>/etc/bash.bashrc</title>
<ellipse fill="none" stroke="black" cx="107.89" cy="-18" rx="96.68" ry="18"/>
<text text-anchor="middle" x="107.89" y="-14.3" font-family="courier new" font-size="14.00">/etc/bash.bashrc</text>
</g>
<!-- /etc/profile -->
<g id="node7" class="node">
<title>/etc/profile</title>
<ellipse fill="none" stroke="black" cx="255.89" cy="-192" rx="75.29" ry="18"/>
<text text-anchor="middle" x="255.89" y="-188.3" font-family="courier new" font-size="14.00">/etc/profile</text>
</g>
<!-- BASH LOGIN -->
<g id="node8" class="node">
<title>BASH LOGIN</title>
<ellipse fill="none" stroke="black" cx="434.89" cy="-279" rx="72.59" ry="18"/>
<text text-anchor="middle" x="434.89" y="-275.3" font-family="Times,serif" font-size="14.00">BASH LOGIN</text>
</g>
<!-- BASH LOGIN&#45;&gt;~/.bash_logout -->
<g id="edge6" class="edge">
<title>BASH LOGIN&#45;&gt;~/.bash_logout</title>
<path fill="none" stroke="black" d="M434.89,-260.8C434.89,-249.16 434.89,-233.55 434.89,-220.24"/>
<polygon fill="black" stroke="black" points="438.39,-220.18 434.89,-210.18 431.39,-220.18 438.39,-220.18"/>
<text text-anchor="middle" x="448.89" y="-231.8" font-family="Times,serif" font-size="14.00">exit</text>
</g>
<!-- BASH LOGIN&#45;&gt;/etc/profile -->
<g id="edge1" class="edge">
<title>BASH LOGIN&#45;&gt;/etc/profile</title>
<path fill="none" stroke="black" d="M402.89,-262.8C373.42,-248.81 329.52,-227.96 297.37,-212.7"/>
<polygon fill="black" stroke="black" points="298.75,-209.48 288.22,-208.35 295.75,-215.8 298.75,-209.48"/>
<text text-anchor="middle" x="364.89" y="-231.8" font-family="Times,serif" font-size="14.00">1º</text>
</g>
<!-- Primero de: -->
<g id="node9" class="node">
<title>Primero de:</title>
<ellipse fill="none" stroke="black" cx="603.89" cy="-192" rx="65.79" ry="18"/>
<text text-anchor="middle" x="603.89" y="-188.3" font-family="Times,serif" font-size="14.00">Primero de:</text>
</g>
<!-- BASH LOGIN&#45;&gt;Primero de: -->
<g id="edge2" class="edge">
<title>BASH LOGIN&#45;&gt;Primero de:</title>
<path fill="none" stroke="black" d="M465.5,-262.61C493.34,-248.6 534.58,-227.86 564.8,-212.66"/>
<polygon fill="black" stroke="black" points="566.44,-215.76 573.8,-208.14 563.29,-209.5 566.44,-215.76"/>
<text text-anchor="middle" x="536.89" y="-231.8" font-family="Times,serif" font-size="14.00">2º</text>
</g>
<!-- Primero de:&#45;&gt;~/.bash_profile -->
<g id="edge3" class="edge">
<title>Primero de:&#45;&gt;~/.bash_profile</title>
<path fill="none" stroke="black" d="M579.19,-175.21C558.27,-161.84 528.08,-142.55 504.88,-127.72"/>
<polygon fill="black" stroke="black" points="506.68,-124.72 496.37,-122.28 502.91,-130.62 506.68,-124.72"/>
<text text-anchor="middle" x="552.89" y="-144.8" font-family="Times,serif" font-size="14.00">1º</text>
</g>
<!-- Primero de:&#45;&gt;~/.bash_login -->
<g id="edge4" class="edge">
<title>Primero de:&#45;&gt;~/.bash_login</title>
<path fill="none" stroke="black" d="M615.15,-174.21C623.3,-162.06 634.45,-145.43 643.7,-131.63"/>
<polygon fill="black" stroke="black" points="646.79,-133.3 649.46,-123.05 640.98,-129.41 646.79,-133.3"/>
<text text-anchor="middle" x="642.89" y="-144.8" font-family="Times,serif" font-size="14.00">2º</text>
</g>
<!-- Primero de:&#45;&gt;~/.profile -->
<g id="edge5" class="edge">
<title>Primero de:&#45;&gt;~/.profile</title>
<path fill="none" stroke="black" d="M559.4,-178.64C504.4,-163.36 410.86,-137.38 351.83,-120.98"/>
<polygon fill="black" stroke="black" points="352.51,-117.54 341.94,-118.24 350.64,-124.29 352.51,-117.54"/>
<text text-anchor="middle" x="477.89" y="-144.8" font-family="Times,serif" font-size="14.00">3º</text>
</g>
<!-- BASH INTERACTIVO -->
<g id="node10" class="node">
<title>BASH INTERACTIVO</title>
<ellipse fill="none" stroke="black" cx="107.89" cy="-105" rx="107.78" ry="18"/>
<text text-anchor="middle" x="107.89" y="-101.3" font-family="Times,serif" font-size="14.00">BASH INTERACTIVO</text>
</g>
<!-- BASH INTERACTIVO&#45;&gt;/etc/bash.bashrc -->
<g id="edge7" class="edge">
<title>BASH INTERACTIVO&#45;&gt;/etc/bash.bashrc</title>
<path fill="none" stroke="black" d="M107.89,-86.8C107.89,-75.16 107.89,-59.55 107.89,-46.24"/>
<polygon fill="black" stroke="black" points="111.39,-46.18 107.89,-36.18 104.39,-46.18 111.39,-46.18"/>
<text text-anchor="middle" x="115.89" y="-57.8" font-family="Times,serif" font-size="14.00">1º</text>
</g>
<!-- BASH INTERACTIVO&#45;&gt;~/.bashrc -->
<g id="edge8" class="edge">
<title>BASH INTERACTIVO&#45;&gt;~/.bashrc</title>
<path fill="none" stroke="black" d="M155.8,-88.8C203.98,-73.53 277.89,-50.08 326.56,-34.65"/>
<polygon fill="black" stroke="black" points="327.77,-37.93 336.24,-31.57 325.65,-31.26 327.77,-37.93"/>
<text text-anchor="middle" x="266.89" y="-57.8" font-family="Times,serif" font-size="14.00">2º</text>
</g>
<!-- SH INTERACTIVO -->
<g id="node11" class="node">
<title>SH INTERACTIVO</title>
<ellipse fill="none" stroke="black" cx="192.89" cy="-279" rx="94.78" ry="18"/>
<text text-anchor="middle" x="192.89" y="-275.3" font-family="Times,serif" font-size="14.00">SH INTERACTIVO</text>
</g>
<!-- SH INTERACTIVO&#45;&gt;~/.profile -->
<g id="edge10" class="edge">
<title>SH INTERACTIVO&#45;&gt;~/.profile</title>
<path fill="none" stroke="black" d="M178.17,-261.14C161.33,-239.69 138.22,-202.05 155.89,-174 173.77,-145.62 207.14,-128.82 237.04,-119.02"/>
<polygon fill="black" stroke="black" points="238.07,-122.37 246.6,-116.08 236.01,-115.68 238.07,-122.37"/>
<text text-anchor="middle" x="163.89" y="-188.3" font-family="Times,serif" font-size="14.00">2º</text>
</g>
<!-- SH INTERACTIVO&#45;&gt;/etc/profile -->
<g id="edge9" class="edge">
<title>SH INTERACTIVO&#45;&gt;/etc/profile</title>
<path fill="none" stroke="black" d="M205.64,-260.8C214.75,-248.51 227.15,-231.77 237.36,-218.01"/>
<polygon fill="black" stroke="black" points="240.23,-220 243.38,-209.89 234.61,-215.84 240.23,-220"/>
<text text-anchor="middle" x="236.89" y="-231.8" font-family="Times,serif" font-size="14.00">1º</text>
</g>
</g>
</svg>
