<?xml version="1.0" encoding="UTF-8" standalone="no"?>
<!DOCTYPE svg PUBLIC "-//W3C//DTD SVG 1.1//EN"
 "http://www.w3.org/Graphics/SVG/1.1/DTD/svg11.dtd">
<!-- Generated by graphviz version 2.43.0 (0)
 -->
<!-- Title: %3 Pages: 1 -->
<svg width="291pt" height="204pt"
 viewBox="0.00 0.00 290.80 204.00" xmlns="http://www.w3.org/2000/svg" xmlns:xlink="http://www.w3.org/1999/xlink">
<g id="graph0" class="graph" transform="scale(1 1) rotate(0) translate(4 200)">
<title>%3</title>
<polygon fill="white" stroke="transparent" points="-4,4 -4,-200 286.8,-200 286.8,4 -4,4"/>
<g id="clust1" class="cluster">
<title>cluster_dnifecha</title>
<path fill="none" stroke="black" d="M20,-136C20,-136 138,-136 138,-136 144,-136 150,-142 150,-148 150,-148 150,-176 150,-176 150,-182 144,-188 138,-188 138,-188 20,-188 20,-188 14,-188 8,-182 8,-176 8,-176 8,-148 8,-148 8,-142 14,-136 20,-136"/>
</g>
<!-- DNI -->
<g id="node1" class="node">
<title>DNI</title>
<ellipse fill="none" stroke="black" cx="115" cy="-162" rx="27" ry="18"/>
<text text-anchor="middle" x="115" y="-158.3" font-family="Times,serif" font-size="14.00">DNI</text>
</g>
<!-- Turno -->
<g id="node3" class="node">
<title>Turno</title>
<ellipse fill="none" stroke="black" cx="38" cy="-90" rx="27" ry="18"/>
<text text-anchor="middle" x="38" y="-86.3" font-family="Times,serif" font-size="14.00">Turno</text>
</g>
<!-- DNI&#45;&gt;Turno -->
<g id="edge1" class="edge">
<title>DNI&#45;&gt;Turno</title>
<path fill="none" stroke="black" d="M99.42,-146.83C88.39,-136.81 73.41,-123.19 61.01,-111.92"/>
<polygon fill="black" stroke="black" points="63.05,-109.04 53.3,-104.91 58.34,-114.22 63.05,-109.04"/>
</g>
<!-- Nombre -->
<g id="node4" class="node">
<title>Nombre</title>
<ellipse fill="none" stroke="black" cx="115" cy="-90" rx="31.8" ry="18"/>
<text text-anchor="middle" x="115" y="-86.3" font-family="Times,serif" font-size="14.00">Nombre</text>
</g>
<!-- DNI&#45;&gt;Nombre -->
<g id="edge2" class="edge">
<title>DNI&#45;&gt;Nombre</title>
<path fill="none" stroke="black" d="M115,-143.7C115,-135.98 115,-126.71 115,-118.11"/>
<polygon fill="black" stroke="black" points="118.5,-118.1 115,-108.1 111.5,-118.1 118.5,-118.1"/>
</g>
<!-- CodigoTienda -->
<g id="node5" class="node">
<title>CodigoTienda</title>
<ellipse fill="none" stroke="black" cx="219" cy="-90" rx="53.8" ry="18"/>
<text text-anchor="middle" x="219" y="-86.3" font-family="Times,serif" font-size="14.00">CodigoTienda</text>
</g>
<!-- DNI&#45;&gt;CodigoTienda -->
<g id="edge3" class="edge">
<title>DNI&#45;&gt;CodigoTienda</title>
<path fill="none" stroke="black" d="M150,-137.44C162.27,-129.19 175.96,-119.97 187.89,-111.94"/>
<polygon fill="black" stroke="black" points="189.87,-114.82 196.21,-106.34 185.96,-109.02 189.87,-114.82"/>
</g>
<!-- Fecha -->
<g id="node2" class="node">
<title>Fecha</title>
<ellipse fill="none" stroke="black" cx="43" cy="-162" rx="27" ry="18"/>
<text text-anchor="middle" x="43" y="-158.3" font-family="Times,serif" font-size="14.00">Fecha</text>
</g>
<!-- DireccionTienda -->
<g id="node6" class="node">
<title>DireccionTienda</title>
<ellipse fill="none" stroke="black" cx="219" cy="-18" rx="63.61" ry="18"/>
<text text-anchor="middle" x="219" y="-14.3" font-family="Times,serif" font-size="14.00">DireccionTienda</text>
</g>
<!-- CodigoTienda&#45;&gt;DireccionTienda -->
<g id="edge4" class="edge">
<title>CodigoTienda&#45;&gt;DireccionTienda</title>
<path fill="none" stroke="black" d="M213.12,-72.05C212.3,-64.35 212.06,-55.03 212.39,-46.36"/>
<polygon fill="black" stroke="black" points="215.89,-46.49 213.09,-36.28 208.91,-46.01 215.89,-46.49"/>
</g>
<!-- DireccionTienda&#45;&gt;CodigoTienda -->
<g id="edge5" class="edge">
<title>DireccionTienda&#45;&gt;CodigoTienda</title>
<path fill="none" stroke="black" d="M224.91,-36.28C225.71,-44.03 225.94,-53.36 225.59,-62.01"/>
<polygon fill="black" stroke="black" points="222.09,-61.83 224.88,-72.05 229.08,-62.33 222.09,-61.83"/>
</g>
</g>
</svg>
