<?xml version="1.0" encoding="UTF-8" standalone="no"?>
<!DOCTYPE svg PUBLIC "-//W3C//DTD SVG 1.1//EN"
 "http://www.w3.org/Graphics/SVG/1.1/DTD/svg11.dtd">
<!-- Generated by graphviz version 2.43.0 (0)
 -->
<!-- Title: %3 Pages: 1 -->
<svg width="261pt" height="204pt"
 viewBox="0.00 0.00 261.05 204.00" xmlns="http://www.w3.org/2000/svg" xmlns:xlink="http://www.w3.org/1999/xlink">
<g id="graph0" class="graph" transform="scale(1 1) rotate(0) translate(4 200)">
<title>%3</title>
<polygon fill="white" stroke="transparent" points="-4,4 -4,-200 257.05,-200 257.05,4 -4,4"/>
<g id="clust1" class="cluster">
<title>cluster_dnifecha</title>
<path fill="none" stroke="black" d="M20,-136C20,-136 138,-136 138,-136 144,-136 150,-142 150,-148 150,-148 150,-176 150,-176 150,-182 144,-188 138,-188 138,-188 20,-188 20,-188 14,-188 8,-182 8,-176 8,-176 8,-148 8,-148 8,-142 14,-136 20,-136"/>
</g>
<!-- DNI -->
<g id="node1" class="node">
<title>DNI</title>
<ellipse fill="none" stroke="black" cx="115" cy="-162" rx="27" ry="18"/>
<text text-anchor="middle" x="115" y="-158.3" font-family="Times,serif" font-size="14.00">DNI</text>
</g>
<!-- Turno -->
<g id="node3" class="node">
<title>Turno</title>
<ellipse fill="none" stroke="black" cx="43" cy="-90" rx="27" ry="18"/>
<text text-anchor="middle" x="43" y="-86.3" font-family="Times,serif" font-size="14.00">Turno</text>
</g>
<!-- DNI&#45;&gt;Turno -->
<g id="edge1" class="edge">
<title>DNI&#45;&gt;Turno</title>
<path fill="none" stroke="black" d="M100.43,-146.83C90.25,-136.94 76.48,-123.55 64.97,-112.36"/>
<polygon fill="black" stroke="black" points="67.41,-109.85 57.8,-105.38 62.53,-114.87 67.41,-109.85"/>
</g>
<!-- Nombre -->
<g id="node4" class="node">
<title>Nombre</title>
<ellipse fill="none" stroke="black" cx="115" cy="-90" rx="27" ry="18"/>
<text text-anchor="middle" x="115" y="-86.3" font-family="Times,serif" font-size="14.00">Nombre</text>
</g>
<!-- DNI&#45;&gt;Nombre -->
<g id="edge2" class="edge">
<title>DNI&#45;&gt;Nombre</title>
<path fill="none" stroke="black" d="M115,-143.7C115,-135.98 115,-126.71 115,-118.11"/>
<polygon fill="black" stroke="black" points="118.5,-118.1 115,-108.1 111.5,-118.1 118.5,-118.1"/>
</g>
<!-- CodigoTienda -->
<g id="node5" class="node">
<title>CodigoTienda</title>
<ellipse fill="none" stroke="black" cx="203" cy="-90" rx="42.8" ry="18"/>
<text text-anchor="middle" x="203" y="-86.3" font-family="Times,serif" font-size="14.00">CodigoTienda</text>
</g>
<!-- DNI&#45;&gt;CodigoTienda -->
<g id="edge3" class="edge">
<title>DNI&#45;&gt;CodigoTienda</title>
<path fill="none" stroke="black" d="M146.43,-136C156.06,-128.34 166.57,-119.98 175.89,-112.56"/>
<polygon fill="black" stroke="black" points="178.3,-115.12 183.95,-106.16 173.94,-109.64 178.3,-115.12"/>
</g>
<!-- Fecha -->
<g id="node2" class="node">
<title>Fecha</title>
<ellipse fill="none" stroke="black" cx="43" cy="-162" rx="27" ry="18"/>
<text text-anchor="middle" x="43" y="-158.3" font-family="Times,serif" font-size="14.00">Fecha</text>
</g>
<!-- DireccionTienda -->
<g id="node6" class="node">
<title>DireccionTienda</title>
<ellipse fill="none" stroke="black" cx="203" cy="-18" rx="50.1" ry="18"/>
<text text-anchor="middle" x="203" y="-14.3" font-family="Times,serif" font-size="14.00">DireccionTienda</text>
</g>
<!-- CodigoTienda&#45;&gt;DireccionTienda -->
<g id="edge4" class="edge">
<title>CodigoTienda&#45;&gt;DireccionTienda</title>
<path fill="none" stroke="black" d="M197.12,-72.05C196.3,-64.35 196.06,-55.03 196.39,-46.36"/>
<polygon fill="black" stroke="black" points="199.89,-46.49 197.09,-36.28 192.91,-46.01 199.89,-46.49"/>
</g>
<!-- DireccionTienda&#45;&gt;CodigoTienda -->
<g id="edge5" class="edge">
<title>DireccionTienda&#45;&gt;CodigoTienda</title>
<path fill="none" stroke="black" d="M208.91,-36.28C209.71,-44.03 209.94,-53.36 209.59,-62.01"/>
<polygon fill="black" stroke="black" points="206.09,-61.83 208.88,-72.05 213.08,-62.33 206.09,-61.83"/>
</g>
</g>
</svg>
