<?xml version="1.0" encoding="UTF-8" standalone="no"?>
<!DOCTYPE svg PUBLIC "-//W3C//DTD SVG 1.1//EN"
 "http://www.w3.org/Graphics/SVG/1.1/DTD/svg11.dtd">
<!-- Generated by graphviz version 2.36.0 (20140111.2315)
 -->
<!-- Title: %3 Pages: 1 -->
<svg width="262pt" height="204pt"
 viewBox="0.00 0.00 262.00 204.00" xmlns="http://www.w3.org/2000/svg" xmlns:xlink="http://www.w3.org/1999/xlink">
<g id="graph0" class="graph" transform="scale(1 1) rotate(0) translate(4 200)">
<title>%3</title>
<polygon fill="white" stroke="none" points="-4,4 -4,-200 258,-200 258,4 -4,4"/>
<g id="clust1" class="cluster"><title>cluster_dnifecha</title>
<path fill="none" stroke="black" d="M20,-136C20,-136 138,-136 138,-136 144,-136 150,-142 150,-148 150,-148 150,-176 150,-176 150,-182 144,-188 138,-188 138,-188 20,-188 20,-188 14,-188 8,-182 8,-176 8,-176 8,-148 8,-148 8,-142 14,-136 20,-136"/>
</g>
<!-- DNI -->
<g id="node1" class="node"><title>DNI</title>
<ellipse fill="none" stroke="black" cx="115" cy="-162" rx="27" ry="18"/>
<text text-anchor="middle" x="115" y="-158.3" font-family="Times,serif" font-size="14.00">DNI</text>
</g>
<!-- Turno -->
<g id="node3" class="node"><title>Turno</title>
<ellipse fill="none" stroke="black" cx="43" cy="-90" rx="27" ry="18"/>
<text text-anchor="middle" x="43" y="-86.3" font-family="Times,serif" font-size="14.00">Turno</text>
</g>
<!-- DNI&#45;&gt;Turno -->
<g id="edge1" class="edge"><title>DNI&#45;&gt;Turno</title>
<path fill="none" stroke="black" d="M100.43,-146.834C90.2501,-136.938 76.4761,-123.546 64.9694,-112.359"/>
<polygon fill="black" stroke="black" points="67.4055,-109.846 57.7957,-105.385 62.5259,-114.865 67.4055,-109.846"/>
</g>
<!-- Nombre -->
<g id="node4" class="node"><title>Nombre</title>
<ellipse fill="none" stroke="black" cx="115" cy="-90" rx="27" ry="18"/>
<text text-anchor="middle" x="115" y="-86.3" font-family="Times,serif" font-size="14.00">Nombre</text>
</g>
<!-- DNI&#45;&gt;Nombre -->
<g id="edge2" class="edge"><title>DNI&#45;&gt;Nombre</title>
<path fill="none" stroke="black" d="M115,-143.697C115,-135.983 115,-126.712 115,-118.112"/>
<polygon fill="black" stroke="black" points="118.5,-118.104 115,-108.104 111.5,-118.104 118.5,-118.104"/>
</g>
<!-- CodigoTienda -->
<g id="node5" class="node"><title>CodigoTienda</title>
<ellipse fill="none" stroke="black" cx="203" cy="-90" rx="42.3535" ry="18"/>
<text text-anchor="middle" x="203" y="-86.3" font-family="Times,serif" font-size="14.00">CodigoTienda</text>
</g>
<!-- DNI&#45;&gt;CodigoTienda -->
<g id="edge3" class="edge"><title>DNI&#45;&gt;CodigoTienda</title>
<path fill="none" stroke="black" d="M146.161,-136.213C155.867,-128.493 166.485,-120.046 175.89,-112.564"/>
<polygon fill="black" stroke="black" points="178.299,-115.121 183.946,-106.157 173.941,-109.643 178.299,-115.121"/>
</g>
<!-- Fecha -->
<g id="node2" class="node"><title>Fecha</title>
<ellipse fill="none" stroke="black" cx="43" cy="-162" rx="27" ry="18"/>
<text text-anchor="middle" x="43" y="-158.3" font-family="Times,serif" font-size="14.00">Fecha</text>
</g>
<!-- DireccionTienda -->
<g id="node6" class="node"><title>DireccionTienda</title>
<ellipse fill="none" stroke="black" cx="203" cy="-18" rx="50.0776" ry="18"/>
<text text-anchor="middle" x="203" y="-14.3" font-family="Times,serif" font-size="14.00">DireccionTienda</text>
</g>
<!-- CodigoTienda&#45;&gt;DireccionTienda -->
<g id="edge4" class="edge"><title>CodigoTienda&#45;&gt;DireccionTienda</title>
<path fill="none" stroke="black" d="M197.122,-72.055C196.304,-64.3456 196.061,-55.0269 196.395,-46.3642"/>
<polygon fill="black" stroke="black" points="199.894,-46.4915 197.087,-36.2753 192.911,-46.0122 199.894,-46.4915"/>
</g>
<!-- DireccionTienda&#45;&gt;CodigoTienda -->
<g id="edge5" class="edge"><title>DireccionTienda&#45;&gt;CodigoTienda</title>
<path fill="none" stroke="black" d="M208.913,-36.2753C209.715,-44.03 209.94,-53.3618 209.591,-62.0054"/>
<polygon fill="black" stroke="black" points="206.094,-61.8325 208.878,-72.055 213.077,-62.3275 206.094,-61.8325"/>
</g>
</g>
</svg>
