<?xml version="1.0" encoding="UTF-8" standalone="no"?>
<!DOCTYPE svg PUBLIC "-//W3C//DTD SVG 1.1//EN"
 "http://www.w3.org/Graphics/SVG/1.1/DTD/svg11.dtd">
<!-- Generated by graphviz version 2.40.1 (20161225.0304)
 -->
<!-- Title: %3 Pages: 1 -->
<svg width="261pt" height="204pt"
 viewBox="0.00 0.00 261.05 204.00" xmlns="http://www.w3.org/2000/svg" xmlns:xlink="http://www.w3.org/1999/xlink">
<g id="graph0" class="graph" transform="scale(1 1) rotate(0) translate(4 200)">
<title>%3</title>
<polygon fill="#ffffff" stroke="transparent" points="-4,4 -4,-200 257.0517,-200 257.0517,4 -4,4"/>
<g id="clust1" class="cluster">
<title>cluster_dnifecha</title>
<path fill="none" stroke="#000000" d="M20,-136C20,-136 138,-136 138,-136 144,-136 150,-142 150,-148 150,-148 150,-176 150,-176 150,-182 144,-188 138,-188 138,-188 20,-188 20,-188 14,-188 8,-182 8,-176 8,-176 8,-148 8,-148 8,-142 14,-136 20,-136"/>
</g>
<!-- DNI -->
<g id="node1" class="node">
<title>DNI</title>
<ellipse fill="none" stroke="#000000" cx="115" cy="-162" rx="27" ry="18"/>
<text text-anchor="middle" x="115" y="-158.3" font-family="Times,serif" font-size="14.00" fill="#000000">DNI</text>
</g>
<!-- Turno -->
<g id="node3" class="node">
<title>Turno</title>
<ellipse fill="none" stroke="#000000" cx="43" cy="-90" rx="27" ry="18"/>
<text text-anchor="middle" x="43" y="-86.3" font-family="Times,serif" font-size="14.00" fill="#000000">Turno</text>
</g>
<!-- DNI&#45;&gt;Turno -->
<g id="edge1" class="edge">
<title>DNI&#45;&gt;Turno</title>
<path fill="none" stroke="#000000" d="M99.7307,-146.7307C89.803,-136.803 76.6847,-123.6847 65.5637,-112.5637"/>
<polygon fill="#000000" stroke="#000000" points="67.7933,-109.8436 58.2473,-105.2473 62.8436,-114.7933 67.7933,-109.8436"/>
</g>
<!-- Nombre -->
<g id="node4" class="node">
<title>Nombre</title>
<ellipse fill="none" stroke="#000000" cx="115" cy="-90" rx="27" ry="18"/>
<text text-anchor="middle" x="115" y="-86.3" font-family="Times,serif" font-size="14.00" fill="#000000">Nombre</text>
</g>
<!-- DNI&#45;&gt;Nombre -->
<g id="edge2" class="edge">
<title>DNI&#45;&gt;Nombre</title>
<path fill="none" stroke="#000000" d="M115,-143.8314C115,-136.131 115,-126.9743 115,-118.4166"/>
<polygon fill="#000000" stroke="#000000" points="118.5001,-118.4132 115,-108.4133 111.5001,-118.4133 118.5001,-118.4132"/>
</g>
<!-- CodigoTienda -->
<g id="node5" class="node">
<title>CodigoTienda</title>
<ellipse fill="none" stroke="#000000" cx="203" cy="-90" rx="42.8032" ry="18"/>
<text text-anchor="middle" x="203" y="-86.3" font-family="Times,serif" font-size="14.00" fill="#000000">CodigoTienda</text>
</g>
<!-- DNI&#45;&gt;CodigoTienda -->
<g id="edge3" class="edge">
<title>DNI&#45;&gt;CodigoTienda</title>
<path fill="none" stroke="#000000" d="M146.7763,-136.0012C156.1017,-128.3713 166.2228,-120.0904 175.2744,-112.6846"/>
<polygon fill="#000000" stroke="#000000" points="177.6696,-115.2472 183.1928,-106.2059 173.2369,-109.8294 177.6696,-115.2472"/>
</g>
<!-- Fecha -->
<g id="node2" class="node">
<title>Fecha</title>
<ellipse fill="none" stroke="#000000" cx="43" cy="-162" rx="27" ry="18"/>
<text text-anchor="middle" x="43" y="-158.3" font-family="Times,serif" font-size="14.00" fill="#000000">Fecha</text>
</g>
<!-- DireccionTienda -->
<g id="node6" class="node">
<title>DireccionTienda</title>
<ellipse fill="none" stroke="#000000" cx="203" cy="-18" rx="50.1035" ry="18"/>
<text text-anchor="middle" x="203" y="-14.3" font-family="Times,serif" font-size="14.00" fill="#000000">DireccionTienda</text>
</g>
<!-- CodigoTienda&#45;&gt;DireccionTienda -->
<g id="edge4" class="edge">
<title>CodigoTienda&#45;&gt;DireccionTienda</title>
<path fill="none" stroke="#000000" d="M197.0476,-71.8314C196.2856,-64.0125 196.0696,-54.6923 196.3995,-46.0221"/>
<polygon fill="#000000" stroke="#000000" points="199.9004,-46.1239 197.0727,-35.9134 192.9159,-45.6587 199.9004,-46.1239"/>
</g>
<!-- DireccionTienda&#45;&gt;CodigoTienda -->
<g id="edge5" class="edge">
<title>DireccionTienda&#45;&gt;CodigoTienda</title>
<path fill="none" stroke="#000000" d="M208.9273,-35.9134C209.7012,-43.6993 209.9291,-53.01 209.6111,-61.6941"/>
<polygon fill="#000000" stroke="#000000" points="206.1082,-61.6254 208.9524,-71.8314 213.0935,-62.0794 206.1082,-61.6254"/>
</g>
</g>
</svg>
