<?xml version="1.0" encoding="UTF-8" standalone="no"?>
<!DOCTYPE svg PUBLIC "-//W3C//DTD SVG 1.1//EN"
 "http://www.w3.org/Graphics/SVG/1.1/DTD/svg11.dtd">
<!-- Generated by graphviz version 2.43.0 (0)
 -->
<!-- Title: %3 Pages: 1 -->
<svg width="350pt" height="260pt"
 viewBox="0.00 0.00 350.00 260.00" xmlns="http://www.w3.org/2000/svg" xmlns:xlink="http://www.w3.org/1999/xlink">
<g id="graph0" class="graph" transform="scale(1 1) rotate(0) translate(4 256)">
<title>%3</title>
<polygon fill="white" stroke="transparent" points="-4,4 -4,-256 346,-256 346,4 -4,4"/>
<!-- A -->
<g id="node1" class="node">
<title>A</title>
<ellipse fill="none" stroke="black" cx="99" cy="-234" rx="27" ry="18"/>
<text text-anchor="middle" x="99" y="-230.3" font-family="Times,serif" font-size="14.00">A</text>
</g>
<!-- I -->
<g id="node2" class="node">
<title>I</title>
<ellipse fill="none" stroke="black" cx="27" cy="-162" rx="27" ry="18"/>
<text text-anchor="middle" x="27" y="-158.3" font-family="Times,serif" font-size="14.00">I</text>
</g>
<!-- A&#45;&gt;I -->
<g id="edge1" class="edge">
<title>A&#45;&gt;I</title>
<path fill="none" stroke="black" d="M84.43,-218.83C74.25,-208.94 60.48,-195.55 48.97,-184.36"/>
<polygon fill="black" stroke="black" points="51.41,-181.85 41.8,-177.38 46.53,-186.87 51.41,-181.85"/>
</g>
<!-- AB -->
<g id="node5" class="node">
<title>AB</title>
<ellipse fill="none" stroke="black" cx="99" cy="-162" rx="27" ry="18"/>
<text text-anchor="middle" x="99" y="-158.3" font-family="Times,serif" font-size="14.00">AB</text>
</g>
<!-- A&#45;&gt;AB -->
<g id="edge9" class="edge">
<title>A&#45;&gt;AB</title>
<path fill="none" stroke="black" d="M99,-215.7C99,-207.98 99,-198.71 99,-190.11"/>
<polygon fill="black" stroke="black" points="102.5,-190.1 99,-180.1 95.5,-190.1 102.5,-190.1"/>
</g>
<!-- AD -->
<g id="node10" class="node">
<title>AD</title>
<ellipse fill="none" stroke="black" cx="171" cy="-162" rx="27" ry="18"/>
<text text-anchor="middle" x="171" y="-158.3" font-family="Times,serif" font-size="14.00">AD</text>
</g>
<!-- A&#45;&gt;AD -->
<g id="edge8" class="edge">
<title>A&#45;&gt;AD</title>
<path fill="none" stroke="black" d="M113.57,-218.83C123.75,-208.94 137.52,-195.55 149.03,-184.36"/>
<polygon fill="black" stroke="black" points="151.47,-186.87 156.2,-177.38 146.59,-181.85 151.47,-186.87"/>
</g>
<!-- H -->
<g id="node3" class="node">
<title>H</title>
<ellipse fill="none" stroke="black" cx="171" cy="-90" rx="27" ry="18"/>
<text text-anchor="middle" x="171" y="-86.3" font-family="Times,serif" font-size="14.00">H</text>
</g>
<!-- J -->
<g id="node4" class="node">
<title>J</title>
<ellipse fill="none" stroke="black" cx="171" cy="-18" rx="27" ry="18"/>
<text text-anchor="middle" x="171" y="-14.3" font-family="Times,serif" font-size="14.00">J</text>
</g>
<!-- H&#45;&gt;J -->
<g id="edge2" class="edge">
<title>H&#45;&gt;J</title>
<path fill="none" stroke="black" d="M171,-71.7C171,-63.98 171,-54.71 171,-46.11"/>
<polygon fill="black" stroke="black" points="174.5,-46.1 171,-36.1 167.5,-46.1 174.5,-46.1"/>
</g>
<!-- C -->
<g id="node6" class="node">
<title>C</title>
<ellipse fill="none" stroke="black" cx="27" cy="-90" rx="27" ry="18"/>
<text text-anchor="middle" x="27" y="-86.3" font-family="Times,serif" font-size="14.00">C</text>
</g>
<!-- AB&#45;&gt;C -->
<g id="edge3" class="edge">
<title>AB&#45;&gt;C</title>
<path fill="none" stroke="black" d="M84.43,-146.83C74.25,-136.94 60.48,-123.55 48.97,-112.36"/>
<polygon fill="black" stroke="black" points="51.41,-109.85 41.8,-105.38 46.53,-114.87 51.41,-109.85"/>
</g>
<!-- BD -->
<g id="node7" class="node">
<title>BD</title>
<ellipse fill="none" stroke="black" cx="243" cy="-162" rx="27" ry="18"/>
<text text-anchor="middle" x="243" y="-158.3" font-family="Times,serif" font-size="14.00">BD</text>
</g>
<!-- E -->
<g id="node8" class="node">
<title>E</title>
<ellipse fill="none" stroke="black" cx="315" cy="-90" rx="27" ry="18"/>
<text text-anchor="middle" x="315" y="-86.3" font-family="Times,serif" font-size="14.00">E</text>
</g>
<!-- BD&#45;&gt;E -->
<g id="edge4" class="edge">
<title>BD&#45;&gt;E</title>
<path fill="none" stroke="black" d="M257.57,-146.83C267.75,-136.94 281.52,-123.55 293.03,-112.36"/>
<polygon fill="black" stroke="black" points="295.47,-114.87 300.2,-105.38 290.59,-109.85 295.47,-114.87"/>
</g>
<!-- F -->
<g id="node9" class="node">
<title>F</title>
<ellipse fill="none" stroke="black" cx="243" cy="-90" rx="27" ry="18"/>
<text text-anchor="middle" x="243" y="-86.3" font-family="Times,serif" font-size="14.00">F</text>
</g>
<!-- BD&#45;&gt;F -->
<g id="edge5" class="edge">
<title>BD&#45;&gt;F</title>
<path fill="none" stroke="black" d="M243,-143.7C243,-135.98 243,-126.71 243,-118.11"/>
<polygon fill="black" stroke="black" points="246.5,-118.1 243,-108.1 239.5,-118.1 246.5,-118.1"/>
</g>
<!-- AD&#45;&gt;H -->
<g id="edge7" class="edge">
<title>AD&#45;&gt;H</title>
<path fill="none" stroke="black" d="M171,-143.7C171,-135.98 171,-126.71 171,-118.11"/>
<polygon fill="black" stroke="black" points="174.5,-118.1 171,-108.1 167.5,-118.1 174.5,-118.1"/>
</g>
<!-- G -->
<g id="node11" class="node">
<title>G</title>
<ellipse fill="none" stroke="black" cx="99" cy="-90" rx="27" ry="18"/>
<text text-anchor="middle" x="99" y="-86.3" font-family="Times,serif" font-size="14.00">G</text>
</g>
<!-- AD&#45;&gt;G -->
<g id="edge6" class="edge">
<title>AD&#45;&gt;G</title>
<path fill="none" stroke="black" d="M156.43,-146.83C146.25,-136.94 132.48,-123.55 120.97,-112.36"/>
<polygon fill="black" stroke="black" points="123.41,-109.85 113.8,-105.38 118.53,-114.87 123.41,-109.85"/>
</g>
<!-- B -->
<g id="node12" class="node">
<title>B</title>
<ellipse fill="none" stroke="black" cx="171" cy="-234" rx="27" ry="18"/>
<text text-anchor="middle" x="171" y="-230.3" font-family="Times,serif" font-size="14.00">B</text>
</g>
<!-- B&#45;&gt;AB -->
<g id="edge10" class="edge">
<title>B&#45;&gt;AB</title>
<path fill="none" stroke="black" d="M156.43,-218.83C146.25,-208.94 132.48,-195.55 120.97,-184.36"/>
<polygon fill="black" stroke="black" points="123.41,-181.85 113.8,-177.38 118.53,-186.87 123.41,-181.85"/>
</g>
<!-- B&#45;&gt;BD -->
<g id="edge11" class="edge">
<title>B&#45;&gt;BD</title>
<path fill="none" stroke="black" d="M185.57,-218.83C195.75,-208.94 209.52,-195.55 221.03,-184.36"/>
<polygon fill="black" stroke="black" points="223.47,-186.87 228.2,-177.38 218.59,-181.85 223.47,-186.87"/>
</g>
<!-- D -->
<g id="node13" class="node">
<title>D</title>
<ellipse fill="none" stroke="black" cx="243" cy="-234" rx="27" ry="18"/>
<text text-anchor="middle" x="243" y="-230.3" font-family="Times,serif" font-size="14.00">D</text>
</g>
<!-- D&#45;&gt;BD -->
<g id="edge13" class="edge">
<title>D&#45;&gt;BD</title>
<path fill="none" stroke="black" d="M243,-215.7C243,-207.98 243,-198.71 243,-190.11"/>
<polygon fill="black" stroke="black" points="246.5,-190.1 243,-180.1 239.5,-190.1 246.5,-190.1"/>
</g>
<!-- D&#45;&gt;AD -->
<g id="edge12" class="edge">
<title>D&#45;&gt;AD</title>
<path fill="none" stroke="black" d="M228.43,-218.83C218.25,-208.94 204.48,-195.55 192.97,-184.36"/>
<polygon fill="black" stroke="black" points="195.41,-181.85 185.8,-177.38 190.53,-186.87 195.41,-181.85"/>
</g>
</g>
</svg>
