<?xml version="1.0" encoding="UTF-8" standalone="no"?>
<!DOCTYPE svg PUBLIC "-//W3C//DTD SVG 1.1//EN"
 "http://www.w3.org/Graphics/SVG/1.1/DTD/svg11.dtd">
<!-- Generated by graphviz version 2.40.1 (20161225.0304)
 -->
<!-- Title: %3 Pages: 1 -->
<svg width="245pt" height="204pt"
 viewBox="0.00 0.00 245.05 204.00" xmlns="http://www.w3.org/2000/svg" xmlns:xlink="http://www.w3.org/1999/xlink">
<g id="graph0" class="graph" transform="scale(1 1) rotate(0) translate(4 200)">
<title>%3</title>
<polygon fill="#ffffff" stroke="transparent" points="-4,4 -4,-200 241.0517,-200 241.0517,4 -4,4"/>
<g id="clust1" class="cluster">
<title>cluster_dnifecha</title>
<path fill="none" stroke="#000000" d="M43.0517,-136C43.0517,-136 161.0517,-136 161.0517,-136 167.0517,-136 173.0517,-142 173.0517,-148 173.0517,-148 173.0517,-176 173.0517,-176 173.0517,-182 167.0517,-188 161.0517,-188 161.0517,-188 43.0517,-188 43.0517,-188 37.0517,-188 31.0517,-182 31.0517,-176 31.0517,-176 31.0517,-148 31.0517,-148 31.0517,-142 37.0517,-136 43.0517,-136"/>
</g>
<!-- DNI -->
<g id="node1" class="node">
<title>DNI</title>
<ellipse fill="none" stroke="#000000" cx="138.0517" cy="-162" rx="27" ry="18"/>
<text text-anchor="middle" x="138.0517" y="-158.3" font-family="Times,serif" font-size="14.00" fill="#000000">DNI</text>
</g>
<!-- CodigoTienda -->
<g id="node3" class="node">
<title>CodigoTienda</title>
<ellipse fill="none" stroke="#000000" cx="50.0517" cy="-90" rx="42.8032" ry="18"/>
<text text-anchor="middle" x="50.0517" y="-86.3" font-family="Times,serif" font-size="14.00" fill="#000000">CodigoTienda</text>
</g>
<!-- DNI&#45;&gt;CodigoTienda -->
<g id="edge1" class="edge">
<title>DNI&#45;&gt;CodigoTienda</title>
<path fill="none" stroke="#000000" d="M106.2754,-136.0012C96.95,-128.3713 86.8289,-120.0904 77.7774,-112.6846"/>
<polygon fill="#000000" stroke="#000000" points="79.8149,-109.8294 69.8589,-106.2059 75.3822,-115.2472 79.8149,-109.8294"/>
</g>
<!-- Turno -->
<g id="node4" class="node">
<title>Turno</title>
<ellipse fill="none" stroke="#000000" cx="138.0517" cy="-90" rx="27" ry="18"/>
<text text-anchor="middle" x="138.0517" y="-86.3" font-family="Times,serif" font-size="14.00" fill="#000000">Turno</text>
</g>
<!-- DNI&#45;&gt;Turno -->
<g id="edge2" class="edge">
<title>DNI&#45;&gt;Turno</title>
<path fill="none" stroke="#000000" d="M138.0517,-136.0017C138.0517,-130.2914 138.0517,-124.2165 138.0517,-118.4166"/>
<polygon fill="#000000" stroke="#000000" points="141.5518,-118.4132 138.0517,-108.4133 134.5518,-118.4133 141.5518,-118.4132"/>
</g>
<!-- Nombre -->
<g id="node5" class="node">
<title>Nombre</title>
<ellipse fill="none" stroke="#000000" cx="210.0517" cy="-90" rx="27" ry="18"/>
<text text-anchor="middle" x="210.0517" y="-86.3" font-family="Times,serif" font-size="14.00" fill="#000000">Nombre</text>
</g>
<!-- DNI&#45;&gt;Nombre -->
<g id="edge3" class="edge">
<title>DNI&#45;&gt;Nombre</title>
<path fill="none" stroke="#000000" d="M153.3211,-146.7307C163.2487,-136.803 176.367,-123.6847 187.4881,-112.5637"/>
<polygon fill="#000000" stroke="#000000" points="190.2082,-114.7933 194.8044,-105.2473 185.2584,-109.8436 190.2082,-114.7933"/>
</g>
<!-- Fecha -->
<g id="node2" class="node">
<title>Fecha</title>
<ellipse fill="none" stroke="#000000" cx="66.0517" cy="-162" rx="27" ry="18"/>
<text text-anchor="middle" x="66.0517" y="-158.3" font-family="Times,serif" font-size="14.00" fill="#000000">Fecha</text>
</g>
<!-- DireccionTienda -->
<g id="node6" class="node">
<title>DireccionTienda</title>
<ellipse fill="none" stroke="#000000" cx="50.0517" cy="-18" rx="50.1035" ry="18"/>
<text text-anchor="middle" x="50.0517" y="-14.3" font-family="Times,serif" font-size="14.00" fill="#000000">DireccionTienda</text>
</g>
<!-- CodigoTienda&#45;&gt;DireccionTienda -->
<g id="edge4" class="edge">
<title>CodigoTienda&#45;&gt;DireccionTienda</title>
<path fill="none" stroke="#000000" d="M50.0517,-71.8314C50.0517,-64.131 50.0517,-54.9743 50.0517,-46.4166"/>
<polygon fill="#000000" stroke="#000000" points="53.5518,-46.4132 50.0517,-36.4133 46.5518,-46.4133 53.5518,-46.4132"/>
</g>
</g>
</svg>
