<?xml version="1.0" encoding="UTF-8" standalone="no"?>
<!DOCTYPE svg PUBLIC "-//W3C//DTD SVG 1.1//EN"
 "http://www.w3.org/Graphics/SVG/1.1/DTD/svg11.dtd">
<!-- Generated by graphviz version 2.36.0 (20140111.2315)
 -->
<!-- Title: %3 Pages: 1 -->
<svg width="350pt" height="260pt"
 viewBox="0.00 0.00 350.00 260.00" xmlns="http://www.w3.org/2000/svg" xmlns:xlink="http://www.w3.org/1999/xlink">
<g id="graph0" class="graph" transform="scale(1 1) rotate(0) translate(4 256)">
<title>%3</title>
<polygon fill="white" stroke="none" points="-4,4 -4,-256 346,-256 346,4 -4,4"/>
<!-- A -->
<g id="node1" class="node"><title>A</title>
<ellipse fill="none" stroke="black" cx="99" cy="-234" rx="27" ry="18"/>
<text text-anchor="middle" x="99" y="-230.3" font-family="Times,serif" font-size="14.00">A</text>
</g>
<!-- I -->
<g id="node2" class="node"><title>I</title>
<ellipse fill="none" stroke="black" cx="27" cy="-162" rx="27" ry="18"/>
<text text-anchor="middle" x="27" y="-158.3" font-family="Times,serif" font-size="14.00">I</text>
</g>
<!-- A&#45;&gt;I -->
<g id="edge1" class="edge"><title>A&#45;&gt;I</title>
<path fill="none" stroke="black" d="M84.4297,-218.834C74.2501,-208.938 60.4761,-195.546 48.9694,-184.359"/>
<polygon fill="black" stroke="black" points="51.4055,-181.846 41.7957,-177.385 46.5259,-186.865 51.4055,-181.846"/>
</g>
<!-- AB -->
<g id="node5" class="node"><title>AB</title>
<ellipse fill="none" stroke="black" cx="99" cy="-162" rx="27" ry="18"/>
<text text-anchor="middle" x="99" y="-158.3" font-family="Times,serif" font-size="14.00">AB</text>
</g>
<!-- A&#45;&gt;AB -->
<g id="edge9" class="edge"><title>A&#45;&gt;AB</title>
<path fill="none" stroke="black" d="M99,-215.697C99,-207.983 99,-198.712 99,-190.112"/>
<polygon fill="black" stroke="black" points="102.5,-190.104 99,-180.104 95.5001,-190.104 102.5,-190.104"/>
</g>
<!-- AD -->
<g id="node10" class="node"><title>AD</title>
<ellipse fill="none" stroke="black" cx="171" cy="-162" rx="27" ry="18"/>
<text text-anchor="middle" x="171" y="-158.3" font-family="Times,serif" font-size="14.00">AD</text>
</g>
<!-- A&#45;&gt;AD -->
<g id="edge8" class="edge"><title>A&#45;&gt;AD</title>
<path fill="none" stroke="black" d="M113.57,-218.834C123.75,-208.938 137.524,-195.546 149.031,-184.359"/>
<polygon fill="black" stroke="black" points="151.474,-186.865 156.204,-177.385 146.595,-181.846 151.474,-186.865"/>
</g>
<!-- H -->
<g id="node3" class="node"><title>H</title>
<ellipse fill="none" stroke="black" cx="171" cy="-90" rx="27" ry="18"/>
<text text-anchor="middle" x="171" y="-86.3" font-family="Times,serif" font-size="14.00">H</text>
</g>
<!-- J -->
<g id="node4" class="node"><title>J</title>
<ellipse fill="none" stroke="black" cx="171" cy="-18" rx="27" ry="18"/>
<text text-anchor="middle" x="171" y="-14.3" font-family="Times,serif" font-size="14.00">J</text>
</g>
<!-- H&#45;&gt;J -->
<g id="edge2" class="edge"><title>H&#45;&gt;J</title>
<path fill="none" stroke="black" d="M171,-71.6966C171,-63.9827 171,-54.7125 171,-46.1124"/>
<polygon fill="black" stroke="black" points="174.5,-46.1043 171,-36.1043 167.5,-46.1044 174.5,-46.1043"/>
</g>
<!-- C -->
<g id="node6" class="node"><title>C</title>
<ellipse fill="none" stroke="black" cx="27" cy="-90" rx="27" ry="18"/>
<text text-anchor="middle" x="27" y="-86.3" font-family="Times,serif" font-size="14.00">C</text>
</g>
<!-- AB&#45;&gt;C -->
<g id="edge3" class="edge"><title>AB&#45;&gt;C</title>
<path fill="none" stroke="black" d="M84.4297,-146.834C74.2501,-136.938 60.4761,-123.546 48.9694,-112.359"/>
<polygon fill="black" stroke="black" points="51.4055,-109.846 41.7957,-105.385 46.5259,-114.865 51.4055,-109.846"/>
</g>
<!-- BD -->
<g id="node7" class="node"><title>BD</title>
<ellipse fill="none" stroke="black" cx="243" cy="-162" rx="27" ry="18"/>
<text text-anchor="middle" x="243" y="-158.3" font-family="Times,serif" font-size="14.00">BD</text>
</g>
<!-- E -->
<g id="node8" class="node"><title>E</title>
<ellipse fill="none" stroke="black" cx="315" cy="-90" rx="27" ry="18"/>
<text text-anchor="middle" x="315" y="-86.3" font-family="Times,serif" font-size="14.00">E</text>
</g>
<!-- BD&#45;&gt;E -->
<g id="edge4" class="edge"><title>BD&#45;&gt;E</title>
<path fill="none" stroke="black" d="M257.57,-146.834C267.75,-136.938 281.524,-123.546 293.031,-112.359"/>
<polygon fill="black" stroke="black" points="295.474,-114.865 300.204,-105.385 290.595,-109.846 295.474,-114.865"/>
</g>
<!-- F -->
<g id="node9" class="node"><title>F</title>
<ellipse fill="none" stroke="black" cx="243" cy="-90" rx="27" ry="18"/>
<text text-anchor="middle" x="243" y="-86.3" font-family="Times,serif" font-size="14.00">F</text>
</g>
<!-- BD&#45;&gt;F -->
<g id="edge5" class="edge"><title>BD&#45;&gt;F</title>
<path fill="none" stroke="black" d="M243,-143.697C243,-135.983 243,-126.712 243,-118.112"/>
<polygon fill="black" stroke="black" points="246.5,-118.104 243,-108.104 239.5,-118.104 246.5,-118.104"/>
</g>
<!-- AD&#45;&gt;H -->
<g id="edge7" class="edge"><title>AD&#45;&gt;H</title>
<path fill="none" stroke="black" d="M171,-143.697C171,-135.983 171,-126.712 171,-118.112"/>
<polygon fill="black" stroke="black" points="174.5,-118.104 171,-108.104 167.5,-118.104 174.5,-118.104"/>
</g>
<!-- G -->
<g id="node11" class="node"><title>G</title>
<ellipse fill="none" stroke="black" cx="99" cy="-90" rx="27" ry="18"/>
<text text-anchor="middle" x="99" y="-86.3" font-family="Times,serif" font-size="14.00">G</text>
</g>
<!-- AD&#45;&gt;G -->
<g id="edge6" class="edge"><title>AD&#45;&gt;G</title>
<path fill="none" stroke="black" d="M156.43,-146.834C146.25,-136.938 132.476,-123.546 120.969,-112.359"/>
<polygon fill="black" stroke="black" points="123.405,-109.846 113.796,-105.385 118.526,-114.865 123.405,-109.846"/>
</g>
<!-- B -->
<g id="node12" class="node"><title>B</title>
<ellipse fill="none" stroke="black" cx="171" cy="-234" rx="27" ry="18"/>
<text text-anchor="middle" x="171" y="-230.3" font-family="Times,serif" font-size="14.00">B</text>
</g>
<!-- B&#45;&gt;AB -->
<g id="edge10" class="edge"><title>B&#45;&gt;AB</title>
<path fill="none" stroke="black" d="M156.43,-218.834C146.25,-208.938 132.476,-195.546 120.969,-184.359"/>
<polygon fill="black" stroke="black" points="123.405,-181.846 113.796,-177.385 118.526,-186.865 123.405,-181.846"/>
</g>
<!-- B&#45;&gt;BD -->
<g id="edge11" class="edge"><title>B&#45;&gt;BD</title>
<path fill="none" stroke="black" d="M185.57,-218.834C195.75,-208.938 209.524,-195.546 221.031,-184.359"/>
<polygon fill="black" stroke="black" points="223.474,-186.865 228.204,-177.385 218.595,-181.846 223.474,-186.865"/>
</g>
<!-- D -->
<g id="node13" class="node"><title>D</title>
<ellipse fill="none" stroke="black" cx="243" cy="-234" rx="27" ry="18"/>
<text text-anchor="middle" x="243" y="-230.3" font-family="Times,serif" font-size="14.00">D</text>
</g>
<!-- D&#45;&gt;BD -->
<g id="edge13" class="edge"><title>D&#45;&gt;BD</title>
<path fill="none" stroke="black" d="M243,-215.697C243,-207.983 243,-198.712 243,-190.112"/>
<polygon fill="black" stroke="black" points="246.5,-190.104 243,-180.104 239.5,-190.104 246.5,-190.104"/>
</g>
<!-- D&#45;&gt;AD -->
<g id="edge12" class="edge"><title>D&#45;&gt;AD</title>
<path fill="none" stroke="black" d="M228.43,-218.834C218.25,-208.938 204.476,-195.546 192.969,-184.359"/>
<polygon fill="black" stroke="black" points="195.405,-181.846 185.796,-177.385 190.526,-186.865 195.405,-181.846"/>
</g>
</g>
</svg>
