<?xml version="1.0" encoding="UTF-8" standalone="no"?>
<!DOCTYPE svg PUBLIC "-//W3C//DTD SVG 1.1//EN"
 "http://www.w3.org/Graphics/SVG/1.1/DTD/svg11.dtd">
<!-- Generated by graphviz version 2.43.0 (0)
 -->
<!-- Title: %3 Pages: 1 -->
<svg width="280pt" height="204pt"
 viewBox="0.00 0.00 279.70 204.00" xmlns="http://www.w3.org/2000/svg" xmlns:xlink="http://www.w3.org/1999/xlink">
<g id="graph0" class="graph" transform="scale(1 1) rotate(0) translate(4 200)">
<title>%3</title>
<polygon fill="white" stroke="transparent" points="-4,4 -4,-200 275.7,-200 275.7,4 -4,4"/>
<g id="clust1" class="cluster">
<title>cluster_dnifecha</title>
<path fill="none" stroke="black" d="M67.8,-136C67.8,-136 185.8,-136 185.8,-136 191.8,-136 197.8,-142 197.8,-148 197.8,-148 197.8,-176 197.8,-176 197.8,-182 191.8,-188 185.8,-188 185.8,-188 67.8,-188 67.8,-188 61.8,-188 55.8,-182 55.8,-176 55.8,-176 55.8,-148 55.8,-148 55.8,-142 61.8,-136 67.8,-136"/>
</g>
<!-- DNI -->
<g id="node1" class="node">
<title>DNI</title>
<ellipse fill="none" stroke="black" cx="162.8" cy="-162" rx="27" ry="18"/>
<text text-anchor="middle" x="162.8" y="-158.3" font-family="Times,serif" font-size="14.00">DNI</text>
</g>
<!-- CodigoTienda -->
<g id="node3" class="node">
<title>CodigoTienda</title>
<ellipse fill="none" stroke="black" cx="63.8" cy="-90" rx="53.8" ry="18"/>
<text text-anchor="middle" x="63.8" y="-86.3" font-family="Times,serif" font-size="14.00">CodigoTienda</text>
</g>
<!-- DNI&#45;&gt;CodigoTienda -->
<g id="edge1" class="edge">
<title>DNI&#45;&gt;CodigoTienda</title>
<path fill="none" stroke="black" d="M127.45,-136C116.6,-128.33 104.77,-119.96 94.28,-112.55"/>
<polygon fill="black" stroke="black" points="96.19,-109.61 86,-106.7 92.15,-115.33 96.19,-109.61"/>
</g>
<!-- Turno -->
<g id="node4" class="node">
<title>Turno</title>
<ellipse fill="none" stroke="black" cx="162.8" cy="-90" rx="27" ry="18"/>
<text text-anchor="middle" x="162.8" y="-86.3" font-family="Times,serif" font-size="14.00">Turno</text>
</g>
<!-- DNI&#45;&gt;Turno -->
<g id="edge2" class="edge">
<title>DNI&#45;&gt;Turno</title>
<path fill="none" stroke="black" d="M162.8,-136C162.8,-130.2 162.8,-124 162.8,-118.11"/>
<polygon fill="black" stroke="black" points="166.3,-118.1 162.8,-108.1 159.3,-118.1 166.3,-118.1"/>
</g>
<!-- Nombre -->
<g id="node5" class="node">
<title>Nombre</title>
<ellipse fill="none" stroke="black" cx="239.8" cy="-90" rx="31.8" ry="18"/>
<text text-anchor="middle" x="239.8" y="-86.3" font-family="Times,serif" font-size="14.00">Nombre</text>
</g>
<!-- DNI&#45;&gt;Nombre -->
<g id="edge3" class="edge">
<title>DNI&#45;&gt;Nombre</title>
<path fill="none" stroke="black" d="M178.38,-146.83C189.2,-137 203.81,-123.72 216.06,-112.58"/>
<polygon fill="black" stroke="black" points="218.67,-114.94 223.71,-105.63 213.96,-109.76 218.67,-114.94"/>
</g>
<!-- Fecha -->
<g id="node2" class="node">
<title>Fecha</title>
<ellipse fill="none" stroke="black" cx="90.8" cy="-162" rx="27" ry="18"/>
<text text-anchor="middle" x="90.8" y="-158.3" font-family="Times,serif" font-size="14.00">Fecha</text>
</g>
<!-- DireccionTienda -->
<g id="node6" class="node">
<title>DireccionTienda</title>
<ellipse fill="none" stroke="black" cx="63.8" cy="-18" rx="63.61" ry="18"/>
<text text-anchor="middle" x="63.8" y="-14.3" font-family="Times,serif" font-size="14.00">DireccionTienda</text>
</g>
<!-- CodigoTienda&#45;&gt;DireccionTienda -->
<g id="edge4" class="edge">
<title>CodigoTienda&#45;&gt;DireccionTienda</title>
<path fill="none" stroke="black" d="M63.8,-71.7C63.8,-63.98 63.8,-54.71 63.8,-46.11"/>
<polygon fill="black" stroke="black" points="67.3,-46.1 63.8,-36.1 60.3,-46.1 67.3,-46.1"/>
</g>
</g>
</svg>
