<?xml version="1.0" encoding="UTF-8" standalone="no"?>
<!DOCTYPE svg PUBLIC "-//W3C//DTD SVG 1.1//EN"
 "http://www.w3.org/Graphics/SVG/1.1/DTD/svg11.dtd">
<!-- Generated by graphviz version 2.36.0 (20140111.2315)
 -->
<!-- Title: %3 Pages: 1 -->
<svg width="245pt" height="204pt"
 viewBox="0.00 0.00 245.00 204.00" xmlns="http://www.w3.org/2000/svg" xmlns:xlink="http://www.w3.org/1999/xlink">
<g id="graph0" class="graph" transform="scale(1 1) rotate(0) translate(4 200)">
<title>%3</title>
<polygon fill="white" stroke="none" points="-4,4 -4,-200 241,-200 241,4 -4,4"/>
<g id="clust1" class="cluster"><title>cluster_dnifecha</title>
<path fill="none" stroke="black" d="M43,-136C43,-136 161,-136 161,-136 167,-136 173,-142 173,-148 173,-148 173,-176 173,-176 173,-182 167,-188 161,-188 161,-188 43,-188 43,-188 37,-188 31,-182 31,-176 31,-176 31,-148 31,-148 31,-142 37,-136 43,-136"/>
</g>
<!-- DNI -->
<g id="node1" class="node"><title>DNI</title>
<ellipse fill="none" stroke="black" cx="138" cy="-162" rx="27" ry="18"/>
<text text-anchor="middle" x="138" y="-158.3" font-family="Times,serif" font-size="14.00">DNI</text>
</g>
<!-- CodigoTienda -->
<g id="node3" class="node"><title>CodigoTienda</title>
<ellipse fill="none" stroke="black" cx="50" cy="-90" rx="42.3535" ry="18"/>
<text text-anchor="middle" x="50" y="-86.3" font-family="Times,serif" font-size="14.00">CodigoTienda</text>
</g>
<!-- DNI&#45;&gt;CodigoTienda -->
<g id="edge1" class="edge"><title>DNI&#45;&gt;CodigoTienda</title>
<path fill="none" stroke="black" d="M106.839,-136.213C97.1334,-128.493 86.5146,-120.046 77.1096,-112.564"/>
<polygon fill="black" stroke="black" points="79.0589,-109.643 69.054,-106.157 74.7012,-115.121 79.0589,-109.643"/>
</g>
<!-- Turno -->
<g id="node4" class="node"><title>Turno</title>
<ellipse fill="none" stroke="black" cx="138" cy="-90" rx="27" ry="18"/>
<text text-anchor="middle" x="138" y="-86.3" font-family="Times,serif" font-size="14.00">Turno</text>
</g>
<!-- DNI&#45;&gt;Turno -->
<g id="edge2" class="edge"><title>DNI&#45;&gt;Turno</title>
<path fill="none" stroke="black" d="M138,-136.077C138,-130.254 138,-124.025 138,-118.112"/>
<polygon fill="black" stroke="black" points="141.5,-118.104 138,-108.104 134.5,-118.104 141.5,-118.104"/>
</g>
<!-- Nombre -->
<g id="node5" class="node"><title>Nombre</title>
<ellipse fill="none" stroke="black" cx="210" cy="-90" rx="27" ry="18"/>
<text text-anchor="middle" x="210" y="-86.3" font-family="Times,serif" font-size="14.00">Nombre</text>
</g>
<!-- DNI&#45;&gt;Nombre -->
<g id="edge3" class="edge"><title>DNI&#45;&gt;Nombre</title>
<path fill="none" stroke="black" d="M152.57,-146.834C162.75,-136.938 176.524,-123.546 188.031,-112.359"/>
<polygon fill="black" stroke="black" points="190.474,-114.865 195.204,-105.385 185.595,-109.846 190.474,-114.865"/>
</g>
<!-- Fecha -->
<g id="node2" class="node"><title>Fecha</title>
<ellipse fill="none" stroke="black" cx="66" cy="-162" rx="27" ry="18"/>
<text text-anchor="middle" x="66" y="-158.3" font-family="Times,serif" font-size="14.00">Fecha</text>
</g>
<!-- DireccionTienda -->
<g id="node6" class="node"><title>DireccionTienda</title>
<ellipse fill="none" stroke="black" cx="50" cy="-18" rx="50.0776" ry="18"/>
<text text-anchor="middle" x="50" y="-14.3" font-family="Times,serif" font-size="14.00">DireccionTienda</text>
</g>
<!-- CodigoTienda&#45;&gt;DireccionTienda -->
<g id="edge4" class="edge"><title>CodigoTienda&#45;&gt;DireccionTienda</title>
<path fill="none" stroke="black" d="M50,-71.6966C50,-63.9827 50,-54.7125 50,-46.1124"/>
<polygon fill="black" stroke="black" points="53.5001,-46.1043 50,-36.1043 46.5001,-46.1044 53.5001,-46.1043"/>
</g>
</g>
</svg>
