<?xml version="1.0" encoding="UTF-8" standalone="no"?>
<!DOCTYPE svg PUBLIC "-//W3C//DTD SVG 1.1//EN"
 "http://www.w3.org/Graphics/SVG/1.1/DTD/svg11.dtd">
<!-- Generated by graphviz version 2.43.0 (0)
 -->
<!-- Title: %3 Pages: 1 -->
<svg width="245pt" height="204pt"
 viewBox="0.00 0.00 245.05 204.00" xmlns="http://www.w3.org/2000/svg" xmlns:xlink="http://www.w3.org/1999/xlink">
<g id="graph0" class="graph" transform="scale(1 1) rotate(0) translate(4 200)">
<title>%3</title>
<polygon fill="white" stroke="transparent" points="-4,4 -4,-200 241.05,-200 241.05,4 -4,4"/>
<g id="clust1" class="cluster">
<title>cluster_dnifecha</title>
<path fill="none" stroke="black" d="M43.05,-136C43.05,-136 161.05,-136 161.05,-136 167.05,-136 173.05,-142 173.05,-148 173.05,-148 173.05,-176 173.05,-176 173.05,-182 167.05,-188 161.05,-188 161.05,-188 43.05,-188 43.05,-188 37.05,-188 31.05,-182 31.05,-176 31.05,-176 31.05,-148 31.05,-148 31.05,-142 37.05,-136 43.05,-136"/>
</g>
<!-- DNI -->
<g id="node1" class="node">
<title>DNI</title>
<ellipse fill="none" stroke="black" cx="138.05" cy="-162" rx="27" ry="18"/>
<text text-anchor="middle" x="138.05" y="-158.3" font-family="Times,serif" font-size="14.00">DNI</text>
</g>
<!-- CodigoTienda -->
<g id="node3" class="node">
<title>CodigoTienda</title>
<ellipse fill="none" stroke="black" cx="50.05" cy="-90" rx="42.8" ry="18"/>
<text text-anchor="middle" x="50.05" y="-86.3" font-family="Times,serif" font-size="14.00">CodigoTienda</text>
</g>
<!-- DNI&#45;&gt;CodigoTienda -->
<g id="edge1" class="edge">
<title>DNI&#45;&gt;CodigoTienda</title>
<path fill="none" stroke="black" d="M106.63,-136C96.99,-128.34 86.48,-119.98 77.16,-112.56"/>
<polygon fill="black" stroke="black" points="79.11,-109.64 69.11,-106.16 74.75,-115.12 79.11,-109.64"/>
</g>
<!-- Turno -->
<g id="node4" class="node">
<title>Turno</title>
<ellipse fill="none" stroke="black" cx="138.05" cy="-90" rx="27" ry="18"/>
<text text-anchor="middle" x="138.05" y="-86.3" font-family="Times,serif" font-size="14.00">Turno</text>
</g>
<!-- DNI&#45;&gt;Turno -->
<g id="edge2" class="edge">
<title>DNI&#45;&gt;Turno</title>
<path fill="none" stroke="black" d="M138.05,-136C138.05,-130.2 138.05,-124 138.05,-118.11"/>
<polygon fill="black" stroke="black" points="141.55,-118.1 138.05,-108.1 134.55,-118.1 141.55,-118.1"/>
</g>
<!-- Nombre -->
<g id="node5" class="node">
<title>Nombre</title>
<ellipse fill="none" stroke="black" cx="210.05" cy="-90" rx="27" ry="18"/>
<text text-anchor="middle" x="210.05" y="-86.3" font-family="Times,serif" font-size="14.00">Nombre</text>
</g>
<!-- DNI&#45;&gt;Nombre -->
<g id="edge3" class="edge">
<title>DNI&#45;&gt;Nombre</title>
<path fill="none" stroke="black" d="M152.62,-146.83C162.8,-136.94 176.58,-123.55 188.08,-112.36"/>
<polygon fill="black" stroke="black" points="190.53,-114.87 195.26,-105.38 185.65,-109.85 190.53,-114.87"/>
</g>
<!-- Fecha -->
<g id="node2" class="node">
<title>Fecha</title>
<ellipse fill="none" stroke="black" cx="66.05" cy="-162" rx="27" ry="18"/>
<text text-anchor="middle" x="66.05" y="-158.3" font-family="Times,serif" font-size="14.00">Fecha</text>
</g>
<!-- DireccionTienda -->
<g id="node6" class="node">
<title>DireccionTienda</title>
<ellipse fill="none" stroke="black" cx="50.05" cy="-18" rx="50.1" ry="18"/>
<text text-anchor="middle" x="50.05" y="-14.3" font-family="Times,serif" font-size="14.00">DireccionTienda</text>
</g>
<!-- CodigoTienda&#45;&gt;DireccionTienda -->
<g id="edge4" class="edge">
<title>CodigoTienda&#45;&gt;DireccionTienda</title>
<path fill="none" stroke="black" d="M50.05,-71.7C50.05,-63.98 50.05,-54.71 50.05,-46.11"/>
<polygon fill="black" stroke="black" points="53.55,-46.1 50.05,-36.1 46.55,-46.1 53.55,-46.1"/>
</g>
</g>
</svg>
