<?xml version="1.0" encoding="UTF-8" standalone="no"?>
<!DOCTYPE svg PUBLIC "-//W3C//DTD SVG 1.1//EN"
 "http://www.w3.org/Graphics/SVG/1.1/DTD/svg11.dtd">
<!-- Generated by graphviz version 2.40.1 (20161225.0304)
 -->
<!-- Title: %3 Pages: 1 -->
<svg width="562pt" height="260pt"
 viewBox="0.00 0.00 562.00 260.00" xmlns="http://www.w3.org/2000/svg" xmlns:xlink="http://www.w3.org/1999/xlink">
<g id="graph0" class="graph" transform="scale(1 1) rotate(0) translate(4 256)">
<title>%3</title>
<polygon fill="#ffffff" stroke="transparent" points="-4,4 -4,-256 558,-256 558,4 -4,4"/>
<!-- Registrar directorio -->
<g id="node1" class="node">
<title>Registrar directorio</title>
<polygon fill="none" stroke="#000000" points="122,-144 0,-144 0,-108 122,-108 122,-144"/>
<text text-anchor="middle" x="61" y="-122.3" font-family="Times,serif" font-size="14.00" fill="#000000">Registrar directorio</text>
</g>
<!-- Crear directorio -->
<g id="node2" class="node">
<title>Crear directorio</title>
<polygon fill="none" stroke="#000000" points="112.5,-36 9.5,-36 9.5,0 112.5,0 112.5,-36"/>
<text text-anchor="middle" x="61" y="-14.3" font-family="Times,serif" font-size="14.00" fill="#000000">Crear directorio</text>
</g>
<!-- Registrar directorio&#45;&gt;Crear directorio -->
<g id="edge1" class="edge">
<title>Registrar directorio&#45;&gt;Crear directorio</title>
<path fill="none" stroke="#000000" d="M61,-107.6793C61,-90.821 61,-65.5651 61,-46.147"/>
<polygon fill="#000000" stroke="#000000" points="64.5001,-46.0501 61,-36.0502 57.5001,-46.0502 64.5001,-46.0501"/>
</g>
<!-- expdp -->
<g id="node3" class="node">
<title>expdp</title>
<polygon fill="none" stroke="#000000" points="273,-252 219,-252 219,-216 273,-216 273,-252"/>
<text text-anchor="middle" x="246" y="-230.3" font-family="Times,serif" font-size="14.00" fill="#000000">expdp</text>
</g>
<!-- expdp&#45;&gt;Registrar directorio -->
<g id="edge2" class="edge">
<title>expdp&#45;&gt;Registrar directorio</title>
<path fill="none" stroke="#000000" d="M218.7026,-218.0642C187.5698,-199.8894 136.3871,-170.0098 100.8088,-149.2397"/>
<polygon fill="#000000" stroke="#000000" points="102.522,-146.1871 92.1213,-144.1681 98.9928,-152.2324 102.522,-146.1871"/>
</g>
<!-- Privilegios de usuario Oracle -->
<g id="node4" class="node">
<title>Privilegios de usuario Oracle</title>
<polygon fill="none" stroke="#000000" points="333.5,-144 158.5,-144 158.5,-108 333.5,-108 333.5,-144"/>
<text text-anchor="middle" x="246" y="-122.3" font-family="Times,serif" font-size="14.00" fill="#000000">Privilegios de usuario Oracle</text>
</g>
<!-- expdp&#45;&gt;Privilegios de usuario Oracle -->
<g id="edge3" class="edge">
<title>expdp&#45;&gt;Privilegios de usuario Oracle</title>
<path fill="none" stroke="#000000" d="M246,-215.6793C246,-198.821 246,-173.5651 246,-154.147"/>
<polygon fill="#000000" stroke="#000000" points="249.5001,-154.0501 246,-144.0502 242.5001,-154.0502 249.5001,-154.0501"/>
</g>
<!-- Permisos usuario S.O. -->
<g id="node5" class="node">
<title>Permisos usuario S.O.</title>
<polygon fill="none" stroke="#000000" points="508.5,-144 369.5,-144 369.5,-108 508.5,-108 508.5,-144"/>
<text text-anchor="middle" x="439" y="-122.3" font-family="Times,serif" font-size="14.00" fill="#000000">Permisos usuario S.O.</text>
</g>
<!-- expdp&#45;&gt;Permisos usuario S.O. -->
<g id="edge4" class="edge">
<title>expdp&#45;&gt;Permisos usuario S.O.</title>
<path fill="none" stroke="#000000" d="M273.2428,-218.7553C305.6197,-200.6377 359.9804,-170.2182 397.5755,-149.1805"/>
<polygon fill="#000000" stroke="#000000" points="399.7313,-151.985 406.7488,-144.0473 396.313,-145.8763 399.7313,-151.985"/>
</g>
<!-- ¿Qué usuario S.O. ejecuta la instancia? -->
<g id="node6" class="node">
<title>¿Qué usuario S.O. ejecuta la instancia?</title>
<polygon fill="none" stroke="#000000" points="554,-36 324,-36 324,0 554,0 554,-36"/>
<text text-anchor="middle" x="439" y="-14.3" font-family="Times,serif" font-size="14.00" fill="#000000">¿Qué usuario S.O. ejecuta la instancia?</text>
</g>
<!-- Permisos usuario S.O.&#45;&gt;¿Qué usuario S.O. ejecuta la instancia? -->
<g id="edge5" class="edge">
<title>Permisos usuario S.O.&#45;&gt;¿Qué usuario S.O. ejecuta la instancia?</title>
<path fill="none" stroke="#000000" d="M439,-107.6793C439,-90.821 439,-65.5651 439,-46.147"/>
<polygon fill="#000000" stroke="#000000" points="442.5001,-46.0501 439,-36.0502 435.5001,-46.0502 442.5001,-46.0501"/>
</g>
</g>
</svg>
