<?xml version="1.0" encoding="UTF-8" standalone="no"?>
<!DOCTYPE svg PUBLIC "-//W3C//DTD SVG 1.1//EN"
 "http://www.w3.org/Graphics/SVG/1.1/DTD/svg11.dtd">
<!-- Generated by graphviz version 2.40.1 (20161225.0304)
 -->
<!-- Title: %3 Pages: 1 -->
<svg width="432pt" height="260pt"
 viewBox="0.00 0.00 431.50 260.00" xmlns="http://www.w3.org/2000/svg" xmlns:xlink="http://www.w3.org/1999/xlink">
<g id="graph0" class="graph" transform="scale(1 1) rotate(0) translate(4 256)">
<title>%3</title>
<polygon fill="#ffffff" stroke="transparent" points="-4,4 -4,-256 427.5,-256 427.5,4 -4,4"/>
<!-- impdp -->
<g id="node1" class="node">
<title>impdp</title>
<polygon fill="none" stroke="#000000" points="299.5,-252 245.5,-252 245.5,-216 299.5,-216 299.5,-252"/>
<text text-anchor="middle" x="272.5" y="-230.3" font-family="Times,serif" font-size="14.00" fill="#000000">impdp</text>
</g>
<!-- Privilegios de usuario Oracle -->
<g id="node2" class="node">
<title>Privilegios de usuario Oracle</title>
<polygon fill="none" stroke="#000000" points="175,-144 0,-144 0,-108 175,-108 175,-144"/>
<text text-anchor="middle" x="87.5" y="-122.3" font-family="Times,serif" font-size="14.00" fill="#000000">Privilegios de usuario Oracle</text>
</g>
<!-- impdp&#45;&gt;Privilegios de usuario Oracle -->
<g id="edge1" class="edge">
<title>impdp&#45;&gt;Privilegios de usuario Oracle</title>
<path fill="none" stroke="#000000" d="M245.2026,-218.0642C214.0698,-199.8894 162.8871,-170.0098 127.3088,-149.2397"/>
<polygon fill="#000000" stroke="#000000" points="129.022,-146.1871 118.6213,-144.1681 125.4928,-152.2324 129.022,-146.1871"/>
</g>
<!-- Cambio de schema -->
<g id="node3" class="node">
<title>Cambio de schema</title>
<polygon fill="none" stroke="#000000" points="333.5,-144 211.5,-144 211.5,-108 333.5,-108 333.5,-144"/>
<text text-anchor="middle" x="272.5" y="-122.3" font-family="Times,serif" font-size="14.00" fill="#000000">Cambio de schema</text>
</g>
<!-- impdp&#45;&gt;Cambio de schema -->
<g id="edge2" class="edge">
<title>impdp&#45;&gt;Cambio de schema</title>
<path fill="none" stroke="#000000" d="M272.5,-215.6793C272.5,-198.821 272.5,-173.5651 272.5,-154.147"/>
<polygon fill="#000000" stroke="#000000" points="276.0001,-154.0501 272.5,-144.0502 269.0001,-154.0502 276.0001,-154.0501"/>
</g>
<!-- expdp -->
<g id="node5" class="node">
<title>expdp</title>
<polygon fill="none" stroke="#000000" points="423.5,-144 369.5,-144 369.5,-108 423.5,-108 423.5,-144"/>
<text text-anchor="middle" x="396.5" y="-122.3" font-family="Times,serif" font-size="14.00" fill="#000000">expdp</text>
</g>
<!-- impdp&#45;&gt;expdp -->
<g id="edge4" class="edge">
<title>impdp&#45;&gt;expdp</title>
<path fill="none" stroke="#000000" d="M293.2548,-215.9232C313.7304,-198.0897 345.1897,-170.6896 368.0015,-150.8213"/>
<polygon fill="#000000" stroke="#000000" points="370.4354,-153.3429 375.6775,-144.1357 365.8379,-148.0643 370.4354,-153.3429"/>
</g>
<!-- grant datapump_imp_full_database to ... -->
<g id="node4" class="node">
<title>grant datapump_imp_full_database to ...</title>
<polygon fill="none" stroke="#000000" points="392,-36 153,-36 153,0 392,0 392,-36"/>
<text text-anchor="middle" x="272.5" y="-14.3" font-family="Times,serif" font-size="14.00" fill="#000000">grant datapump_imp_full_database to ...</text>
</g>
<!-- Cambio de schema&#45;&gt;grant datapump_imp_full_database to ... -->
<g id="edge3" class="edge">
<title>Cambio de schema&#45;&gt;grant datapump_imp_full_database to ...</title>
<path fill="none" stroke="#000000" d="M272.5,-107.6793C272.5,-90.821 272.5,-65.5651 272.5,-46.147"/>
<polygon fill="#000000" stroke="#000000" points="276.0001,-46.0501 272.5,-36.0502 269.0001,-46.0502 276.0001,-46.0501"/>
</g>
</g>
</svg>
