<?xml version="1.0" encoding="UTF-8" standalone="no"?>
<!DOCTYPE svg PUBLIC "-//W3C//DTD SVG 1.1//EN"
 "http://www.w3.org/Graphics/SVG/1.1/DTD/svg11.dtd">
<!-- Generated by graphviz version 2.43.0 (0)
 -->
<!-- Title: %3 Pages: 1 -->
<svg width="736pt" height="260pt"
 viewBox="0.00 0.00 735.50 260.00" xmlns="http://www.w3.org/2000/svg" xmlns:xlink="http://www.w3.org/1999/xlink">
<g id="graph0" class="graph" transform="scale(1 1) rotate(0) translate(4 256)">
<title>%3</title>
<polygon fill="white" stroke="transparent" points="-4,4 -4,-256 731.5,-256 731.5,4 -4,4"/>
<!-- impdp -->
<g id="node1" class="node">
<title>impdp</title>
<polygon fill="none" stroke="black" points="467.5,-252 405.5,-252 405.5,-216 467.5,-216 467.5,-252"/>
<text text-anchor="middle" x="436.5" y="-230.3" font-family="Times,serif" font-size="14.00">impdp</text>
</g>
<!-- Privilegios de usuario Oracle -->
<g id="node2" class="node">
<title>Privilegios de usuario Oracle</title>
<polygon fill="none" stroke="black" points="223,-144 0,-144 0,-108 223,-108 223,-144"/>
<text text-anchor="middle" x="111.5" y="-122.3" font-family="Times,serif" font-size="14.00">Privilegios de usuario Oracle</text>
</g>
<!-- impdp&#45;&gt;Privilegios de usuario Oracle -->
<g id="edge1" class="edge">
<title>impdp&#45;&gt;Privilegios de usuario Oracle</title>
<path fill="none" stroke="black" d="M405.34,-222.84C352.19,-205.5 243.04,-169.9 173.77,-147.31"/>
<polygon fill="black" stroke="black" points="174.44,-143.85 163.85,-144.07 172.27,-150.5 174.44,-143.85"/>
</g>
<!-- Cambio de schema -->
<g id="node3" class="node">
<title>Cambio de schema</title>
<polygon fill="none" stroke="black" points="410,-144 259,-144 259,-108 410,-108 410,-144"/>
<text text-anchor="middle" x="334.5" y="-122.3" font-family="Times,serif" font-size="14.00">Cambio de schema</text>
</g>
<!-- impdp&#45;&gt;Cambio de schema -->
<g id="edge2" class="edge">
<title>impdp&#45;&gt;Cambio de schema</title>
<path fill="none" stroke="black" d="M420.11,-215.97C403.41,-198.61 377.32,-171.5 358.33,-151.77"/>
<polygon fill="black" stroke="black" points="360.64,-149.12 351.19,-144.34 355.6,-153.97 360.64,-149.12"/>
</g>
<!-- Cuota de nuevo usuario -->
<g id="node4" class="node">
<title>Cuota de nuevo usuario</title>
<polygon fill="none" stroke="black" points="631,-144 446,-144 446,-108 631,-108 631,-144"/>
<text text-anchor="middle" x="538.5" y="-122.3" font-family="Times,serif" font-size="14.00">Cuota de nuevo usuario</text>
</g>
<!-- impdp&#45;&gt;Cuota de nuevo usuario -->
<g id="edge3" class="edge">
<title>impdp&#45;&gt;Cuota de nuevo usuario</title>
<path fill="none" stroke="black" d="M452.89,-215.97C469.59,-198.61 495.68,-171.5 514.67,-151.77"/>
<polygon fill="black" stroke="black" points="517.4,-153.97 521.81,-144.34 512.36,-149.12 517.4,-153.97"/>
</g>
<!-- expdp -->
<g id="node7" class="node">
<title>expdp</title>
<polygon fill="none" stroke="black" points="727.5,-144 667.5,-144 667.5,-108 727.5,-108 727.5,-144"/>
<text text-anchor="middle" x="697.5" y="-122.3" font-family="Times,serif" font-size="14.00">expdp</text>
</g>
<!-- impdp&#45;&gt;expdp -->
<g id="edge6" class="edge">
<title>impdp&#45;&gt;expdp</title>
<path fill="none" stroke="black" d="M467.72,-220.32C515.26,-201.01 605.76,-164.26 657.87,-143.09"/>
<polygon fill="black" stroke="black" points="659.5,-146.21 667.45,-139.2 656.87,-139.72 659.5,-146.21"/>
</g>
<!-- grant datapump_imp_full_database to ... -->
<g id="node6" class="node">
<title>grant datapump_imp_full_database to ...</title>
<polygon fill="none" stroke="black" points="453.5,-36 149.5,-36 149.5,0 453.5,0 453.5,-36"/>
<text text-anchor="middle" x="301.5" y="-14.3" font-family="Times,serif" font-size="14.00">grant datapump_imp_full_database to ...</text>
</g>
<!-- Cambio de schema&#45;&gt;grant datapump_imp_full_database to ... -->
<g id="edge5" class="edge">
<title>Cambio de schema&#45;&gt;grant datapump_imp_full_database to ...</title>
<path fill="none" stroke="black" d="M329.2,-107.97C323.98,-91.22 315.95,-65.41 309.87,-45.89"/>
<polygon fill="black" stroke="black" points="313.21,-44.85 306.9,-36.34 306.53,-46.93 313.21,-44.85"/>
</g>
<!-- Crear nuevo usuario -->
<g id="node5" class="node">
<title>Crear nuevo usuario</title>
<polygon fill="none" stroke="black" points="651.5,-36 489.5,-36 489.5,0 651.5,0 651.5,-36"/>
<text text-anchor="middle" x="570.5" y="-14.3" font-family="Times,serif" font-size="14.00">Crear nuevo usuario</text>
</g>
<!-- Cuota de nuevo usuario&#45;&gt;Crear nuevo usuario -->
<g id="edge4" class="edge">
<title>Cuota de nuevo usuario&#45;&gt;Crear nuevo usuario</title>
<path fill="none" stroke="black" d="M543.64,-107.97C548.67,-91.3 556.42,-65.65 562.3,-46.16"/>
<polygon fill="black" stroke="black" points="565.73,-46.93 565.27,-36.34 559.02,-44.9 565.73,-46.93"/>
</g>
</g>
</svg>
