<?xml version="1.0" encoding="UTF-8" standalone="no"?>
<!DOCTYPE svg PUBLIC "-//W3C//DTD SVG 1.1//EN"
 "http://www.w3.org/Graphics/SVG/1.1/DTD/svg11.dtd">
<!-- Generated by graphviz version 2.40.1 (20161225.0304)
 -->
<!-- Title: %3 Pages: 1 -->
<svg width="614pt" height="260pt"
 viewBox="0.00 0.00 613.50 260.00" xmlns="http://www.w3.org/2000/svg" xmlns:xlink="http://www.w3.org/1999/xlink">
<g id="graph0" class="graph" transform="scale(1 1) rotate(0) translate(4 256)">
<title>%3</title>
<polygon fill="#ffffff" stroke="transparent" points="-4,4 -4,-256 609.5,-256 609.5,4 -4,4"/>
<!-- impdp -->
<g id="node1" class="node">
<title>impdp</title>
<polygon fill="none" stroke="#000000" points="384.5,-252 330.5,-252 330.5,-216 384.5,-216 384.5,-252"/>
<text text-anchor="middle" x="357.5" y="-230.3" font-family="Times,serif" font-size="14.00" fill="#000000">impdp</text>
</g>
<!-- Privilegios de usuario Oracle -->
<g id="node2" class="node">
<title>Privilegios de usuario Oracle</title>
<polygon fill="none" stroke="#000000" points="175,-144 0,-144 0,-108 175,-108 175,-144"/>
<text text-anchor="middle" x="87.5" y="-122.3" font-family="Times,serif" font-size="14.00" fill="#000000">Privilegios de usuario Oracle</text>
</g>
<!-- impdp&#45;&gt;Privilegios de usuario Oracle -->
<g id="edge1" class="edge">
<title>impdp&#45;&gt;Privilegios de usuario Oracle</title>
<path fill="none" stroke="#000000" d="M330.3752,-223.1501C286.6359,-205.6544 199.6635,-170.8654 142.5446,-148.0178"/>
<polygon fill="#000000" stroke="#000000" points="143.53,-144.6424 132.9453,-144.1781 140.9302,-151.1418 143.53,-144.6424"/>
</g>
<!-- Cambio de schema -->
<g id="node3" class="node">
<title>Cambio de schema</title>
<polygon fill="none" stroke="#000000" points="333.5,-144 211.5,-144 211.5,-108 333.5,-108 333.5,-144"/>
<text text-anchor="middle" x="272.5" y="-122.3" font-family="Times,serif" font-size="14.00" fill="#000000">Cambio de schema</text>
</g>
<!-- impdp&#45;&gt;Cambio de schema -->
<g id="edge2" class="edge">
<title>impdp&#45;&gt;Cambio de schema</title>
<path fill="none" stroke="#000000" d="M343.0809,-215.6793C329.3214,-198.1966 308.4541,-171.6828 292.9741,-152.0142"/>
<polygon fill="#000000" stroke="#000000" points="295.6412,-149.7437 286.7061,-144.0502 290.1405,-154.073 295.6412,-149.7437"/>
</g>
<!-- Cuota de nuevo usuario -->
<g id="node4" class="node">
<title>Cuota de nuevo usuario</title>
<polygon fill="none" stroke="#000000" points="515.5,-144 369.5,-144 369.5,-108 515.5,-108 515.5,-144"/>
<text text-anchor="middle" x="442.5" y="-122.3" font-family="Times,serif" font-size="14.00" fill="#000000">Cuota de nuevo usuario</text>
</g>
<!-- impdp&#45;&gt;Cuota de nuevo usuario -->
<g id="edge3" class="edge">
<title>impdp&#45;&gt;Cuota de nuevo usuario</title>
<path fill="none" stroke="#000000" d="M371.9191,-215.6793C385.6786,-198.1966 406.5459,-171.6828 422.0259,-152.0142"/>
<polygon fill="#000000" stroke="#000000" points="424.8595,-154.073 428.2939,-144.0502 419.3588,-149.7437 424.8595,-154.073"/>
</g>
<!-- expdp -->
<g id="node7" class="node">
<title>expdp</title>
<polygon fill="none" stroke="#000000" points="605.5,-144 551.5,-144 551.5,-108 605.5,-108 605.5,-144"/>
<text text-anchor="middle" x="578.5" y="-122.3" font-family="Times,serif" font-size="14.00" fill="#000000">expdp</text>
</g>
<!-- impdp&#45;&gt;expdp -->
<g id="edge6" class="edge">
<title>impdp&#45;&gt;expdp</title>
<path fill="none" stroke="#000000" d="M384.5989,-220.7571C424.1153,-201.4459 497.6526,-165.5091 541.9303,-143.8711"/>
<polygon fill="#000000" stroke="#000000" points="543.7316,-146.8865 551.1794,-139.3512 540.6581,-140.5973 543.7316,-146.8865"/>
</g>
<!-- grant datapump_imp_full_database to ... -->
<g id="node6" class="node">
<title>grant datapump_imp_full_database to ...</title>
<polygon fill="none" stroke="#000000" points="367,-36 128,-36 128,0 367,0 367,-36"/>
<text text-anchor="middle" x="247.5" y="-14.3" font-family="Times,serif" font-size="14.00" fill="#000000">grant datapump_imp_full_database to ...</text>
</g>
<!-- Cambio de schema&#45;&gt;grant datapump_imp_full_database to ... -->
<g id="edge5" class="edge">
<title>Cambio de schema&#45;&gt;grant datapump_imp_full_database to ...</title>
<path fill="none" stroke="#000000" d="M268.2591,-107.6793C264.3386,-90.7429 258.4563,-65.3311 253.9532,-45.8777"/>
<polygon fill="#000000" stroke="#000000" points="257.3434,-45.0032 251.6783,-36.0502 250.5237,-46.5819 257.3434,-45.0032"/>
</g>
<!-- Crear nuevo usuario -->
<g id="node5" class="node">
<title>Crear nuevo usuario</title>
<polygon fill="none" stroke="#000000" points="530,-36 403,-36 403,0 530,0 530,-36"/>
<text text-anchor="middle" x="466.5" y="-14.3" font-family="Times,serif" font-size="14.00" fill="#000000">Crear nuevo usuario</text>
</g>
<!-- Cuota de nuevo usuario&#45;&gt;Crear nuevo usuario -->
<g id="edge4" class="edge">
<title>Cuota de nuevo usuario&#45;&gt;Crear nuevo usuario</title>
<path fill="none" stroke="#000000" d="M446.5713,-107.6793C450.3349,-90.7429 455.982,-65.3311 460.305,-45.8777"/>
<polygon fill="#000000" stroke="#000000" points="463.7361,-46.5713 462.4889,-36.0502 456.9028,-45.0528 463.7361,-46.5713"/>
</g>
</g>
</svg>
