<?xml version="1.0" encoding="UTF-8" standalone="no"?>
<!DOCTYPE svg PUBLIC "-//W3C//DTD SVG 1.1//EN"
 "http://www.w3.org/Graphics/SVG/1.1/DTD/svg11.dtd">
<!-- Generated by graphviz version 2.43.0 (0)
 -->
<!-- Title: %3 Pages: 1 -->
<svg width="694pt" height="260pt"
 viewBox="0.00 0.00 693.50 260.00" xmlns="http://www.w3.org/2000/svg" xmlns:xlink="http://www.w3.org/1999/xlink">
<g id="graph0" class="graph" transform="scale(1 1) rotate(0) translate(4 256)">
<title>%3</title>
<polygon fill="white" stroke="transparent" points="-4,4 -4,-256 689.5,-256 689.5,4 -4,4"/>
<!-- Registrar directorio -->
<g id="node1" class="node">
<title>Registrar directorio</title>
<polygon fill="none" stroke="black" points="158,-144 0,-144 0,-108 158,-108 158,-144"/>
<text text-anchor="middle" x="79" y="-122.3" font-family="Times,serif" font-size="14.00">Registrar directorio</text>
</g>
<!-- Crear directorio -->
<g id="node2" class="node">
<title>Crear directorio</title>
<polygon fill="none" stroke="black" points="144.5,-36 13.5,-36 13.5,0 144.5,0 144.5,-36"/>
<text text-anchor="middle" x="79" y="-14.3" font-family="Times,serif" font-size="14.00">Crear directorio</text>
</g>
<!-- Registrar directorio&#45;&gt;Crear directorio -->
<g id="edge1" class="edge">
<title>Registrar directorio&#45;&gt;Crear directorio</title>
<path fill="none" stroke="black" d="M79,-107.97C79,-91.38 79,-65.88 79,-46.43"/>
<polygon fill="black" stroke="black" points="82.5,-46.34 79,-36.34 75.5,-46.34 82.5,-46.34"/>
</g>
<!-- expdp -->
<g id="node3" class="node">
<title>expdp</title>
<polygon fill="none" stroke="black" points="335,-252 275,-252 275,-216 335,-216 335,-252"/>
<text text-anchor="middle" x="305" y="-230.3" font-family="Times,serif" font-size="14.00">expdp</text>
</g>
<!-- expdp&#45;&gt;Registrar directorio -->
<g id="edge2" class="edge">
<title>expdp&#45;&gt;Registrar directorio</title>
<path fill="none" stroke="black" d="M274.99,-218.92C236.54,-200.89 169.52,-169.46 124.71,-148.44"/>
<polygon fill="black" stroke="black" points="126.04,-145.2 115.5,-144.12 123.07,-151.54 126.04,-145.2"/>
</g>
<!-- Privilegios de usuario Oracle -->
<g id="node4" class="node">
<title>Privilegios de usuario Oracle</title>
<polygon fill="none" stroke="black" points="416.5,-144 193.5,-144 193.5,-108 416.5,-108 416.5,-144"/>
<text text-anchor="middle" x="305" y="-122.3" font-family="Times,serif" font-size="14.00">Privilegios de usuario Oracle</text>
</g>
<!-- expdp&#45;&gt;Privilegios de usuario Oracle -->
<g id="edge3" class="edge">
<title>expdp&#45;&gt;Privilegios de usuario Oracle</title>
<path fill="none" stroke="black" d="M305,-215.97C305,-199.38 305,-173.88 305,-154.43"/>
<polygon fill="black" stroke="black" points="308.5,-154.34 305,-144.34 301.5,-154.34 308.5,-154.34"/>
</g>
<!-- Permisos usuario S.O. -->
<g id="node5" class="node">
<title>Permisos usuario S.O.</title>
<polygon fill="none" stroke="black" points="625.5,-144 452.5,-144 452.5,-108 625.5,-108 625.5,-144"/>
<text text-anchor="middle" x="539" y="-122.3" font-family="Times,serif" font-size="14.00">Permisos usuario S.O.</text>
</g>
<!-- expdp&#45;&gt;Permisos usuario S.O. -->
<g id="edge4" class="edge">
<title>expdp&#45;&gt;Permisos usuario S.O.</title>
<path fill="none" stroke="black" d="M335.11,-219.36C374.84,-201.36 445.18,-169.5 491.95,-148.31"/>
<polygon fill="black" stroke="black" points="493.6,-151.41 501.27,-144.09 490.71,-145.03 493.6,-151.41"/>
</g>
<!-- ¿Qué usuario S.O. ejecuta la instancia? -->
<g id="node6" class="node">
<title>¿Qué usuario S.O. ejecuta la instancia?</title>
<polygon fill="none" stroke="black" points="685.5,-36 392.5,-36 392.5,0 685.5,0 685.5,-36"/>
<text text-anchor="middle" x="539" y="-14.3" font-family="Times,serif" font-size="14.00">¿Qué usuario S.O. ejecuta la instancia?</text>
</g>
<!-- Permisos usuario S.O.&#45;&gt;¿Qué usuario S.O. ejecuta la instancia? -->
<g id="edge5" class="edge">
<title>Permisos usuario S.O.&#45;&gt;¿Qué usuario S.O. ejecuta la instancia?</title>
<path fill="none" stroke="black" d="M539,-107.97C539,-91.38 539,-65.88 539,-46.43"/>
<polygon fill="black" stroke="black" points="542.5,-46.34 539,-36.34 535.5,-46.34 542.5,-46.34"/>
</g>
</g>
</svg>
