<?xml version="1.0" encoding="UTF-8" standalone="no"?>
<!DOCTYPE svg PUBLIC "-//W3C//DTD SVG 1.1//EN"
 "http://www.w3.org/Graphics/SVG/1.1/DTD/svg11.dtd">
<!-- Generated by graphviz version 2.30.1 (20180420.1509)
 -->
<!-- Title: %3 Pages: 1 -->
<svg width="562pt" height="260pt"
 viewBox="0.00 0.00 562.00 260.00" xmlns="http://www.w3.org/2000/svg" xmlns:xlink="http://www.w3.org/1999/xlink">
<g id="graph0" class="graph" transform="scale(1 1) rotate(0) translate(4 256)">
<title>%3</title>
<polygon fill="white" stroke="white" points="-4,5 -4,-256 559,-256 559,5 -4,5"/>
<!-- Registrar directorio -->
<g id="node1" class="node"><title>Registrar directorio</title>
<polygon fill="none" stroke="black" points="122,-144 -7.10543e-15,-144 -7.10543e-15,-108 122,-108 122,-144"/>
<text text-anchor="middle" x="61" y="-122.3" font-family="Times,serif" font-size="14.00">Registrar directorio</text>
</g>
<!-- Crear directorio -->
<g id="node2" class="node"><title>Crear directorio</title>
<polygon fill="none" stroke="black" points="112.25,-36 9.75,-36 9.75,-0 112.25,-0 112.25,-36"/>
<text text-anchor="middle" x="61" y="-14.3" font-family="Times,serif" font-size="14.00">Crear directorio</text>
</g>
<!-- Registrar directorio&#45;&gt;Crear directorio -->
<g id="edge1" class="edge"><title>Registrar directorio&#45;&gt;Crear directorio</title>
<path fill="none" stroke="black" d="M61,-107.969C61,-91.378 61,-65.8827 61,-46.4306"/>
<polygon fill="black" stroke="black" points="64.5001,-46.3406 61,-36.3406 57.5001,-46.3406 64.5001,-46.3406"/>
</g>
<!-- expdp -->
<g id="node3" class="node"><title>expdp</title>
<polygon fill="none" stroke="black" points="273,-252 219,-252 219,-216 273,-216 273,-252"/>
<text text-anchor="middle" x="246" y="-230.3" font-family="Times,serif" font-size="14.00">expdp</text>
</g>
<!-- expdp&#45;&gt;Registrar directorio -->
<g id="edge2" class="edge"><title>expdp&#45;&gt;Registrar directorio</title>
<path fill="none" stroke="black" d="M218.703,-217.359C187.199,-199.309 135.166,-169.495 99.5448,-149.085"/>
<polygon fill="black" stroke="black" points="101.281,-146.046 90.8648,-144.112 97.8014,-152.12 101.281,-146.046"/>
</g>
<!-- Privilegios de usuario Oracle -->
<g id="node4" class="node"><title>Privilegios de usuario Oracle</title>
<polygon fill="none" stroke="black" points="333.25,-144 158.75,-144 158.75,-108 333.25,-108 333.25,-144"/>
<text text-anchor="middle" x="246" y="-122.3" font-family="Times,serif" font-size="14.00">Privilegios de usuario Oracle</text>
</g>
<!-- expdp&#45;&gt;Privilegios de usuario Oracle -->
<g id="edge3" class="edge"><title>expdp&#45;&gt;Privilegios de usuario Oracle</title>
<path fill="none" stroke="black" d="M246,-215.969C246,-199.378 246,-173.883 246,-154.431"/>
<polygon fill="black" stroke="black" points="249.5,-154.341 246,-144.341 242.5,-154.341 249.5,-154.341"/>
</g>
<!-- Permisos usuario S.O. -->
<g id="node5" class="node"><title>Permisos usuario S.O.</title>
<polygon fill="none" stroke="black" points="508.25,-144 369.75,-144 369.75,-108 508.25,-108 508.25,-144"/>
<text text-anchor="middle" x="439" y="-122.3" font-family="Times,serif" font-size="14.00">Permisos usuario S.O.</text>
</g>
<!-- expdp&#45;&gt;Permisos usuario S.O. -->
<g id="edge4" class="edge"><title>expdp&#45;&gt;Permisos usuario S.O.</title>
<path fill="none" stroke="black" d="M273.243,-218.038C305.907,-200.098 360.947,-169.868 398.573,-149.204"/>
<polygon fill="black" stroke="black" points="400.659,-152.051 407.739,-144.169 397.289,-145.916 400.659,-152.051"/>
</g>
<!-- ¿Qué usuario S.O. ejecuta la instancia? -->
<g id="node6" class="node"><title>¿Qué usuario S.O. ejecuta la instancia?</title>
<polygon fill="none" stroke="black" points="554,-36 324,-36 324,-0 554,-0 554,-36"/>
<text text-anchor="middle" x="439" y="-14.3" font-family="Times,serif" font-size="14.00">¿Qué usuario S.O. ejecuta la instancia?</text>
</g>
<!-- Permisos usuario S.O.&#45;&gt;¿Qué usuario S.O. ejecuta la instancia? -->
<g id="edge5" class="edge"><title>Permisos usuario S.O.&#45;&gt;¿Qué usuario S.O. ejecuta la instancia?</title>
<path fill="none" stroke="black" d="M439,-107.969C439,-91.378 439,-65.8827 439,-46.4306"/>
<polygon fill="black" stroke="black" points="442.5,-46.3406 439,-36.3406 435.5,-46.3406 442.5,-46.3406"/>
</g>
</g>
</svg>
