<?xml version="1.0" encoding="UTF-8" standalone="no"?>
<!DOCTYPE svg PUBLIC "-//W3C//DTD SVG 1.1//EN"
 "http://www.w3.org/Graphics/SVG/1.1/DTD/svg11.dtd">
<!-- Generated by graphviz version 2.30.1 (20180420.1509)
 -->
<!-- Title: %3 Pages: 1 -->
<svg width="431pt" height="260pt"
 viewBox="0.00 0.00 431.00 260.00" xmlns="http://www.w3.org/2000/svg" xmlns:xlink="http://www.w3.org/1999/xlink">
<g id="graph0" class="graph" transform="scale(1 1) rotate(0) translate(4 256)">
<title>%3</title>
<polygon fill="white" stroke="white" points="-4,5 -4,-256 428,-256 428,5 -4,5"/>
<!-- impdp -->
<g id="node1" class="node"><title>impdp</title>
<polygon fill="none" stroke="black" points="299,-252 245,-252 245,-216 299,-216 299,-252"/>
<text text-anchor="middle" x="272" y="-230.3" font-family="Times,serif" font-size="14.00">impdp</text>
</g>
<!-- Privilegios de usuario Oracle -->
<g id="node2" class="node"><title>Privilegios de usuario Oracle</title>
<polygon fill="none" stroke="black" points="174.25,-144 -0.25,-144 -0.25,-108 174.25,-108 174.25,-144"/>
<text text-anchor="middle" x="87" y="-122.3" font-family="Times,serif" font-size="14.00">Privilegios de usuario Oracle</text>
</g>
<!-- impdp&#45;&gt;Privilegios de usuario Oracle -->
<g id="edge1" class="edge"><title>impdp&#45;&gt;Privilegios de usuario Oracle</title>
<path fill="none" stroke="black" d="M244.703,-217.359C213.199,-199.309 161.166,-169.495 125.545,-149.085"/>
<polygon fill="black" stroke="black" points="127.281,-146.046 116.865,-144.112 123.801,-152.12 127.281,-146.046"/>
</g>
<!-- Cambio de schema -->
<g id="node3" class="node"><title>Cambio de schema</title>
<polygon fill="none" stroke="black" points="333,-144 211,-144 211,-108 333,-108 333,-144"/>
<text text-anchor="middle" x="272" y="-122.3" font-family="Times,serif" font-size="14.00">Cambio de schema</text>
</g>
<!-- impdp&#45;&gt;Cambio de schema -->
<g id="edge2" class="edge"><title>impdp&#45;&gt;Cambio de schema</title>
<path fill="none" stroke="black" d="M272,-215.969C272,-199.378 272,-173.883 272,-154.431"/>
<polygon fill="black" stroke="black" points="275.5,-154.341 272,-144.341 268.5,-154.341 275.5,-154.341"/>
</g>
<!-- expdp -->
<g id="node5" class="node"><title>expdp</title>
<polygon fill="none" stroke="black" points="423,-144 369,-144 369,-108 423,-108 423,-144"/>
<text text-anchor="middle" x="396" y="-122.3" font-family="Times,serif" font-size="14.00">expdp</text>
</g>
<!-- impdp&#45;&gt;expdp -->
<g id="edge4" class="edge"><title>impdp&#45;&gt;expdp</title>
<path fill="none" stroke="black" d="M291.923,-215.969C312.499,-198.379 344.784,-170.782 367.939,-150.987"/>
<polygon fill="black" stroke="black" points="370.388,-153.499 375.715,-144.341 365.839,-148.178 370.388,-153.499"/>
</g>
<!-- grant datapump_imp_full_database to ... -->
<g id="node4" class="node"><title>grant datapump_imp_full_database to ...</title>
<polygon fill="none" stroke="black" points="391.25,-36 152.75,-36 152.75,-0 391.25,-0 391.25,-36"/>
<text text-anchor="middle" x="272" y="-14.3" font-family="Times,serif" font-size="14.00">grant datapump_imp_full_database to ...</text>
</g>
<!-- Cambio de schema&#45;&gt;grant datapump_imp_full_database to ... -->
<g id="edge3" class="edge"><title>Cambio de schema&#45;&gt;grant datapump_imp_full_database to ...</title>
<path fill="none" stroke="black" d="M272,-107.969C272,-91.378 272,-65.8827 272,-46.4306"/>
<polygon fill="black" stroke="black" points="275.5,-46.3406 272,-36.3406 268.5,-46.3406 275.5,-46.3406"/>
</g>
</g>
</svg>
