<?xml version="1.0" encoding="UTF-8" standalone="no"?>
<!DOCTYPE svg PUBLIC "-//W3C//DTD SVG 1.1//EN"
 "http://www.w3.org/Graphics/SVG/1.1/DTD/svg11.dtd">
<!-- Generated by graphviz version 2.43.0 (0)
 -->
<!-- Title: %3 Pages: 1 -->
<svg width="1082pt" height="368pt"
 viewBox="0.00 0.00 1082.00 368.00" xmlns="http://www.w3.org/2000/svg" xmlns:xlink="http://www.w3.org/1999/xlink">
<g id="graph0" class="graph" transform="scale(1 1) rotate(0) translate(4 364)">
<title>%3</title>
<polygon fill="white" stroke="transparent" points="-4,4 -4,-364 1078,-364 1078,4 -4,4"/>
<!-- Registrar directorio -->
<g id="node1" class="node">
<title>Registrar directorio</title>
<polygon fill="none" stroke="black" points="158,-144 0,-144 0,-108 158,-108 158,-144"/>
<text text-anchor="middle" x="79" y="-122.3" font-family="Times,serif" font-size="14.00">Registrar directorio</text>
</g>
<!-- Crear directorio -->
<g id="node2" class="node">
<title>Crear directorio</title>
<polygon fill="none" stroke="black" points="144.5,-36 13.5,-36 13.5,0 144.5,0 144.5,-36"/>
<text text-anchor="middle" x="79" y="-14.3" font-family="Times,serif" font-size="14.00">Crear directorio</text>
</g>
<!-- Registrar directorio&#45;&gt;Crear directorio -->
<g id="edge1" class="edge">
<title>Registrar directorio&#45;&gt;Crear directorio</title>
<path fill="none" stroke="black" d="M79,-107.97C79,-91.38 79,-65.88 79,-46.43"/>
<polygon fill="black" stroke="black" points="82.5,-46.34 79,-36.34 75.5,-46.34 82.5,-46.34"/>
</g>
<!-- expdp -->
<g id="node3" class="node">
<title>expdp</title>
<polygon fill="none" stroke="black" points="335,-252 275,-252 275,-216 335,-216 335,-252"/>
<text text-anchor="middle" x="305" y="-230.3" font-family="Times,serif" font-size="14.00">expdp</text>
</g>
<!-- expdp&#45;&gt;Registrar directorio -->
<g id="edge2" class="edge">
<title>expdp&#45;&gt;Registrar directorio</title>
<path fill="none" stroke="black" d="M274.99,-218.92C236.54,-200.89 169.52,-169.46 124.71,-148.44"/>
<polygon fill="black" stroke="black" points="126.04,-145.2 115.5,-144.12 123.07,-151.54 126.04,-145.2"/>
</g>
<!-- Privilegios de usuario Oracle -->
<g id="node4" class="node">
<title>Privilegios de usuario Oracle</title>
<polygon fill="none" stroke="black" points="416.5,-144 193.5,-144 193.5,-108 416.5,-108 416.5,-144"/>
<text text-anchor="middle" x="305" y="-122.3" font-family="Times,serif" font-size="14.00">Privilegios de usuario Oracle</text>
</g>
<!-- expdp&#45;&gt;Privilegios de usuario Oracle -->
<g id="edge3" class="edge">
<title>expdp&#45;&gt;Privilegios de usuario Oracle</title>
<path fill="none" stroke="black" d="M305,-215.97C305,-199.38 305,-173.88 305,-154.43"/>
<polygon fill="black" stroke="black" points="308.5,-154.34 305,-144.34 301.5,-154.34 308.5,-154.34"/>
</g>
<!-- Permisos usuario S.O. -->
<g id="node5" class="node">
<title>Permisos usuario S.O.</title>
<polygon fill="none" stroke="black" points="625.5,-144 452.5,-144 452.5,-108 625.5,-108 625.5,-144"/>
<text text-anchor="middle" x="539" y="-122.3" font-family="Times,serif" font-size="14.00">Permisos usuario S.O.</text>
</g>
<!-- expdp&#45;&gt;Permisos usuario S.O. -->
<g id="edge4" class="edge">
<title>expdp&#45;&gt;Permisos usuario S.O.</title>
<path fill="none" stroke="black" d="M335.11,-219.36C374.84,-201.36 445.18,-169.5 491.95,-148.31"/>
<polygon fill="black" stroke="black" points="493.6,-151.41 501.27,-144.09 490.71,-145.03 493.6,-151.41"/>
</g>
<!-- ¿Qué usuario S.O. ejecuta la instancia? -->
<g id="node6" class="node">
<title>¿Qué usuario S.O. ejecuta la instancia?</title>
<polygon fill="none" stroke="black" points="685.5,-36 392.5,-36 392.5,0 685.5,0 685.5,-36"/>
<text text-anchor="middle" x="539" y="-14.3" font-family="Times,serif" font-size="14.00">¿Qué usuario S.O. ejecuta la instancia?</text>
</g>
<!-- Permisos usuario S.O.&#45;&gt;¿Qué usuario S.O. ejecuta la instancia? -->
<g id="edge5" class="edge">
<title>Permisos usuario S.O.&#45;&gt;¿Qué usuario S.O. ejecuta la instancia?</title>
<path fill="none" stroke="black" d="M539,-107.97C539,-91.38 539,-65.88 539,-46.43"/>
<polygon fill="black" stroke="black" points="542.5,-46.34 539,-36.34 535.5,-46.34 542.5,-46.34"/>
</g>
<!-- impdp -->
<g id="node7" class="node">
<title>impdp</title>
<polygon fill="none" stroke="black" points="606,-360 544,-360 544,-324 606,-324 606,-360"/>
<text text-anchor="middle" x="575" y="-338.3" font-family="Times,serif" font-size="14.00">impdp</text>
</g>
<!-- impdp&#45;&gt;expdp -->
<g id="edge6" class="edge">
<title>impdp&#45;&gt;expdp</title>
<path fill="none" stroke="black" d="M543.76,-328.74C494.5,-309.4 398.81,-271.83 344.72,-250.6"/>
<polygon fill="black" stroke="black" points="345.72,-247.23 335.13,-246.83 343.16,-253.74 345.72,-247.23"/>
</g>
<!-- Vaciar RESULTADOS -->
<g id="node8" class="node">
<title>Vaciar RESULTADOS</title>
<polygon fill="none" stroke="black" points="538.5,-252 371.5,-252 371.5,-216 538.5,-216 538.5,-252"/>
<text text-anchor="middle" x="455" y="-230.3" font-family="Times,serif" font-size="14.00">Vaciar RESULTADOS</text>
</g>
<!-- impdp&#45;&gt;Vaciar RESULTADOS -->
<g id="edge7" class="edge">
<title>impdp&#45;&gt;Vaciar RESULTADOS</title>
<path fill="none" stroke="black" d="M555.72,-323.97C535.81,-306.38 504.56,-278.78 482.16,-258.99"/>
<polygon fill="black" stroke="black" points="484.44,-256.34 474.63,-252.34 479.81,-261.58 484.44,-256.34"/>
</g>
<!-- Seleccionar importar solo datos -->
<g id="node9" class="node">
<title>Seleccionar importar solo datos</title>
<polygon fill="none" stroke="black" points="817.5,-252 574.5,-252 574.5,-216 817.5,-216 817.5,-252"/>
<text text-anchor="middle" x="696" y="-230.3" font-family="Times,serif" font-size="14.00">Seleccionar importar solo datos</text>
</g>
<!-- impdp&#45;&gt;Seleccionar importar solo datos -->
<g id="edge8" class="edge">
<title>impdp&#45;&gt;Seleccionar importar solo datos</title>
<path fill="none" stroke="black" d="M594.44,-323.97C614.52,-306.38 646.02,-278.78 668.62,-258.99"/>
<polygon fill="black" stroke="black" points="670.99,-261.56 676.21,-252.34 666.38,-256.3 670.99,-261.56"/>
</g>
<!-- Seleccionar tabla a importar -->
<g id="node10" class="node">
<title>Seleccionar tabla a importar</title>
<polygon fill="none" stroke="black" points="1074,-252 854,-252 854,-216 1074,-216 1074,-252"/>
<text text-anchor="middle" x="964" y="-230.3" font-family="Times,serif" font-size="14.00">Seleccionar tabla a importar</text>
</g>
<!-- impdp&#45;&gt;Seleccionar tabla a importar -->
<g id="edge9" class="edge">
<title>impdp&#45;&gt;Seleccionar tabla a importar</title>
<path fill="none" stroke="black" d="M606.18,-332.5C667.65,-315.75 805.96,-278.06 891.49,-254.76"/>
<polygon fill="black" stroke="black" points="892.67,-258.07 901.39,-252.06 890.83,-251.31 892.67,-258.07"/>
</g>
</g>
</svg>
