<?xml version="1.0" encoding="UTF-8" standalone="no"?>
<!DOCTYPE svg PUBLIC "-//W3C//DTD SVG 1.1//EN"
 "http://www.w3.org/Graphics/SVG/1.1/DTD/svg11.dtd">
<!-- Generated by graphviz version 2.40.1 (20161225.0304)
 -->
<!-- Title: %3 Pages: 1 -->
<svg width="893pt" height="368pt"
 viewBox="0.00 0.00 893.00 368.00" xmlns="http://www.w3.org/2000/svg" xmlns:xlink="http://www.w3.org/1999/xlink">
<g id="graph0" class="graph" transform="scale(1 1) rotate(0) translate(4 364)">
<title>%3</title>
<polygon fill="#ffffff" stroke="transparent" points="-4,4 -4,-364 889,-364 889,4 -4,4"/>
<!-- Registrar directorio -->
<g id="node1" class="node">
<title>Registrar directorio</title>
<polygon fill="none" stroke="#000000" points="122,-144 0,-144 0,-108 122,-108 122,-144"/>
<text text-anchor="middle" x="61" y="-122.3" font-family="Times,serif" font-size="14.00" fill="#000000">Registrar directorio</text>
</g>
<!-- Crear directorio -->
<g id="node2" class="node">
<title>Crear directorio</title>
<polygon fill="none" stroke="#000000" points="112.5,-36 9.5,-36 9.5,0 112.5,0 112.5,-36"/>
<text text-anchor="middle" x="61" y="-14.3" font-family="Times,serif" font-size="14.00" fill="#000000">Crear directorio</text>
</g>
<!-- Registrar directorio&#45;&gt;Crear directorio -->
<g id="edge1" class="edge">
<title>Registrar directorio&#45;&gt;Crear directorio</title>
<path fill="none" stroke="#000000" d="M61,-107.6793C61,-90.821 61,-65.5651 61,-46.147"/>
<polygon fill="#000000" stroke="#000000" points="64.5001,-46.0501 61,-36.0502 57.5001,-46.0502 64.5001,-46.0501"/>
</g>
<!-- expdp -->
<g id="node3" class="node">
<title>expdp</title>
<polygon fill="none" stroke="#000000" points="273,-252 219,-252 219,-216 273,-216 273,-252"/>
<text text-anchor="middle" x="246" y="-230.3" font-family="Times,serif" font-size="14.00" fill="#000000">expdp</text>
</g>
<!-- expdp&#45;&gt;Registrar directorio -->
<g id="edge2" class="edge">
<title>expdp&#45;&gt;Registrar directorio</title>
<path fill="none" stroke="#000000" d="M218.7026,-218.0642C187.5698,-199.8894 136.3871,-170.0098 100.8088,-149.2397"/>
<polygon fill="#000000" stroke="#000000" points="102.522,-146.1871 92.1213,-144.1681 98.9928,-152.2324 102.522,-146.1871"/>
</g>
<!-- Privilegios de usuario Oracle -->
<g id="node4" class="node">
<title>Privilegios de usuario Oracle</title>
<polygon fill="none" stroke="#000000" points="333.5,-144 158.5,-144 158.5,-108 333.5,-108 333.5,-144"/>
<text text-anchor="middle" x="246" y="-122.3" font-family="Times,serif" font-size="14.00" fill="#000000">Privilegios de usuario Oracle</text>
</g>
<!-- expdp&#45;&gt;Privilegios de usuario Oracle -->
<g id="edge3" class="edge">
<title>expdp&#45;&gt;Privilegios de usuario Oracle</title>
<path fill="none" stroke="#000000" d="M246,-215.6793C246,-198.821 246,-173.5651 246,-154.147"/>
<polygon fill="#000000" stroke="#000000" points="249.5001,-154.0501 246,-144.0502 242.5001,-154.0502 249.5001,-154.0501"/>
</g>
<!-- Permisos usuario S.O. -->
<g id="node5" class="node">
<title>Permisos usuario S.O.</title>
<polygon fill="none" stroke="#000000" points="508.5,-144 369.5,-144 369.5,-108 508.5,-108 508.5,-144"/>
<text text-anchor="middle" x="439" y="-122.3" font-family="Times,serif" font-size="14.00" fill="#000000">Permisos usuario S.O.</text>
</g>
<!-- expdp&#45;&gt;Permisos usuario S.O. -->
<g id="edge4" class="edge">
<title>expdp&#45;&gt;Permisos usuario S.O.</title>
<path fill="none" stroke="#000000" d="M273.2428,-218.7553C305.6197,-200.6377 359.9804,-170.2182 397.5755,-149.1805"/>
<polygon fill="#000000" stroke="#000000" points="399.7313,-151.985 406.7488,-144.0473 396.313,-145.8763 399.7313,-151.985"/>
</g>
<!-- ¿Qué usuario S.O. ejecuta la instancia? -->
<g id="node6" class="node">
<title>¿Qué usuario S.O. ejecuta la instancia?</title>
<polygon fill="none" stroke="#000000" points="554,-36 324,-36 324,0 554,0 554,-36"/>
<text text-anchor="middle" x="439" y="-14.3" font-family="Times,serif" font-size="14.00" fill="#000000">¿Qué usuario S.O. ejecuta la instancia?</text>
</g>
<!-- Permisos usuario S.O.&#45;&gt;¿Qué usuario S.O. ejecuta la instancia? -->
<g id="edge5" class="edge">
<title>Permisos usuario S.O.&#45;&gt;¿Qué usuario S.O. ejecuta la instancia?</title>
<path fill="none" stroke="#000000" d="M439,-107.6793C439,-90.821 439,-65.5651 439,-46.147"/>
<polygon fill="#000000" stroke="#000000" points="442.5001,-46.0501 439,-36.0502 435.5001,-46.0502 442.5001,-46.0501"/>
</g>
<!-- impdp -->
<g id="node7" class="node">
<title>impdp</title>
<polygon fill="none" stroke="#000000" points="509,-360 455,-360 455,-324 509,-324 509,-360"/>
<text text-anchor="middle" x="482" y="-338.3" font-family="Times,serif" font-size="14.00" fill="#000000">impdp</text>
</g>
<!-- impdp&#45;&gt;expdp -->
<g id="edge6" class="edge">
<title>impdp&#45;&gt;expdp</title>
<path fill="none" stroke="#000000" d="M454.9278,-329.611C412.4516,-310.1728 330.0904,-272.482 282.4472,-250.6792"/>
<polygon fill="#000000" stroke="#000000" points="283.6685,-247.3891 273.119,-246.4104 280.7556,-253.7543 283.6685,-247.3891"/>
</g>
<!-- Vaciar RESULTADOS -->
<g id="node8" class="node">
<title>Vaciar RESULTADOS</title>
<polygon fill="none" stroke="#000000" points="453,-252 309,-252 309,-216 453,-216 453,-252"/>
<text text-anchor="middle" x="381" y="-230.3" font-family="Times,serif" font-size="14.00" fill="#000000">Vaciar RESULTADOS</text>
</g>
<!-- impdp&#45;&gt;Vaciar RESULTADOS -->
<g id="edge7" class="edge">
<title>impdp&#45;&gt;Vaciar RESULTADOS</title>
<path fill="none" stroke="#000000" d="M464.8667,-323.6793C448.3712,-306.0405 423.2784,-279.2086 404.8369,-259.489"/>
<polygon fill="#000000" stroke="#000000" points="407.267,-256.9633 397.8802,-252.0502 402.1543,-261.7446 407.267,-256.9633"/>
</g>
<!-- Seleccionar importar solo datos -->
<g id="node9" class="node">
<title>Seleccionar importar solo datos</title>
<polygon fill="none" stroke="#000000" points="678.5,-252 489.5,-252 489.5,-216 678.5,-216 678.5,-252"/>
<text text-anchor="middle" x="584" y="-230.3" font-family="Times,serif" font-size="14.00" fill="#000000">Seleccionar importar solo datos</text>
</g>
<!-- impdp&#45;&gt;Seleccionar importar solo datos -->
<g id="edge8" class="edge">
<title>impdp&#45;&gt;Seleccionar importar solo datos</title>
<path fill="none" stroke="#000000" d="M499.3029,-323.6793C515.9618,-306.0405 541.303,-279.2086 559.9271,-259.489"/>
<polygon fill="#000000" stroke="#000000" points="562.6309,-261.7235 566.9526,-252.0502 557.5418,-256.9171 562.6309,-261.7235"/>
</g>
<!-- Seleccionar tabla a importar -->
<g id="node10" class="node">
<title>Seleccionar tabla a importar</title>
<polygon fill="none" stroke="#000000" points="885,-252 715,-252 715,-216 885,-216 885,-252"/>
<text text-anchor="middle" x="800" y="-230.3" font-family="Times,serif" font-size="14.00" fill="#000000">Seleccionar tabla a importar</text>
</g>
<!-- impdp&#45;&gt;Seleccionar tabla a importar -->
<g id="edge9" class="edge">
<title>impdp&#45;&gt;Seleccionar tabla a importar</title>
<path fill="none" stroke="#000000" d="M509.1125,-332.792C559.3202,-315.7403 667.9617,-278.8432 737.3343,-255.2827"/>
<polygon fill="#000000" stroke="#000000" points="738.509,-258.5801 746.8523,-252.0502 736.2579,-251.952 738.509,-258.5801"/>
</g>
</g>
</svg>
