<?xml version="1.0" encoding="UTF-8" standalone="no"?>
<!-- Created with Inkscape (http://www.inkscape.org/) -->

<svg
   xmlns:dc="http://purl.org/dc/elements/1.1/"
   xmlns:cc="http://creativecommons.org/ns#"
   xmlns:rdf="http://www.w3.org/1999/02/22-rdf-syntax-ns#"
   xmlns:svg="http://www.w3.org/2000/svg"
   xmlns="http://www.w3.org/2000/svg"
   xmlns:sodipodi="http://sodipodi.sourceforge.net/DTD/sodipodi-0.dtd"
   xmlns:inkscape="http://www.inkscape.org/namespaces/inkscape"
   id="svg5807"
   version="1.1"
   inkscape:version="0.91 r13725"
   xml:space="preserve"
   width="245.93098"
   height="132.38838"
   viewBox="0 0 245.93098 132.38838"
   sodipodi:docname="criptografia-asimetrica-1.svg"><metadata
     id="metadata5813"><rdf:RDF><cc:Work
         rdf:about=""><dc:format>image/svg+xml</dc:format><dc:type
           rdf:resource="http://purl.org/dc/dcmitype/StillImage" /><dc:title></dc:title></cc:Work></rdf:RDF></metadata><defs
     id="defs5811"><clipPath
       clipPathUnits="userSpaceOnUse"
       id="clipPath5823"><path
         d="m 0,147 0,3212 2479,0 0,-3212 -2479,0 z"
         id="path5825"
         inkscape:connector-curvature="0" /></clipPath><clipPath
       clipPathUnits="userSpaceOnUse"
       id="clipPath5833"><path
         d="m 0,147 2479,0 0,3212 L 0,3359 0,147 Z"
         id="path5835"
         inkscape:connector-curvature="0" /></clipPath><clipPath
       clipPathUnits="userSpaceOnUse"
       id="clipPath5843"><path
         d="m 0,147 0,3212 2479,0 0,-3212 -2479,0 z"
         id="path5845"
         inkscape:connector-curvature="0" /></clipPath><clipPath
       clipPathUnits="userSpaceOnUse"
       id="clipPath5853"><path
         d="m 290,431 583,0 0,118 -583,0 0,-118 z"
         id="path5855"
         inkscape:connector-curvature="0" /></clipPath><clipPath
       clipPathUnits="userSpaceOnUse"
       id="clipPath5871"><path
         d="m 873,431 182,0 0,118 -182,0 0,-118 z"
         id="path5873"
         inkscape:connector-curvature="0" /></clipPath><clipPath
       clipPathUnits="userSpaceOnUse"
       id="clipPath5887"><path
         d="m 0,147 0,3212 2479,0 0,-3212 -2479,0 z"
         id="path5889"
         inkscape:connector-curvature="0" /></clipPath><clipPath
       clipPathUnits="userSpaceOnUse"
       id="clipPath5997"><path
         d="m 292,886 1894,0 0,718 -1894,0 0,-718 z"
         id="path5999"
         inkscape:connector-curvature="0" /></clipPath><clipPath
       clipPathUnits="userSpaceOnUse"
       id="clipPath6123"><path
         d="m 0,147 0,3212 2479,0 0,-3212 -2479,0 z"
         id="path6125"
         inkscape:connector-curvature="0" /></clipPath><clipPath
       clipPathUnits="userSpaceOnUse"
       id="clipPath6133"><path
         d="m 295,1990 821,0 0,459 -821,0 0,-459 z"
         id="path6135"
         inkscape:connector-curvature="0"
         style="clip-rule:evenodd" /></clipPath><clipPath
       clipPathUnits="userSpaceOnUse"
       id="clipPath6151"><path
         d="m 295,1990 821,0 0,459 -821,0 0,-459 z"
         id="path6153"
         inkscape:connector-curvature="0"
         style="clip-rule:evenodd" /></clipPath><clipPath
       clipPathUnits="userSpaceOnUse"
       id="clipPath6181"><path
         d="m 295,1990 821,0 0,459 -821,0 0,-459 z"
         id="path6183"
         inkscape:connector-curvature="0"
         style="clip-rule:evenodd" /></clipPath><clipPath
       clipPathUnits="userSpaceOnUse"
       id="clipPath6209"><path
         d="m 295,1990 821,0 0,459 -821,0 0,-459 z"
         id="path6211"
         inkscape:connector-curvature="0"
         style="clip-rule:evenodd" /></clipPath><clipPath
       clipPathUnits="userSpaceOnUse"
       id="clipPath6237"><path
         d="m 1317,1990 871,0 0,487 -871,0 0,-487 z"
         id="path6239"
         inkscape:connector-curvature="0"
         style="clip-rule:evenodd" /></clipPath><clipPath
       clipPathUnits="userSpaceOnUse"
       id="clipPath6255"><path
         d="m 1317,1990 871,0 0,487 -871,0 0,-487 z"
         id="path6257"
         inkscape:connector-curvature="0"
         style="clip-rule:evenodd" /></clipPath><clipPath
       clipPathUnits="userSpaceOnUse"
       id="clipPath6285"><path
         d="m 1317,1990 871,0 0,487 -871,0 0,-487 z"
         id="path6287"
         inkscape:connector-curvature="0"
         style="clip-rule:evenodd" /></clipPath><clipPath
       clipPathUnits="userSpaceOnUse"
       id="clipPath6313"><path
         d="m 1317,1990 871,0 0,487 -871,0 0,-487 z"
         id="path6315"
         inkscape:connector-curvature="0"
         style="clip-rule:evenodd" /></clipPath></defs><sodipodi:namedview
     pagecolor="#ffffff"
     bordercolor="#666666"
     borderopacity="1"
     objecttolerance="10"
     gridtolerance="10"
     guidetolerance="10"
     inkscape:pageopacity="0"
     inkscape:pageshadow="2"
     inkscape:window-width="1600"
     inkscape:window-height="836"
     id="namedview5809"
     showgrid="false"
     fit-margin-top="0"
     fit-margin-left="0"
     fit-margin-right="0"
     fit-margin-bottom="0"
     inkscape:zoom="0.44845606"
     inkscape:cx="252.47147"
     inkscape:cy="139.97748"
     inkscape:window-x="0"
     inkscape:window-y="27"
     inkscape:window-maximized="1"
     inkscape:current-layer="g5815" /><g
     id="g5815"
     inkscape:groupmode="layer"
     inkscape:label="Microsoft_Word_-_SI-T-05-Privacidadconfidencialidad"
     transform="matrix(1.25,0,0,-1.25,-88.539783,733.39419)"><g
       id="g5819"
       transform="scale(0.24,0.24)"><g
         clip-path="url(#clipPath5823)"
         id="g5821"><g
           transform="scale(4.16667,4.16667)"
           id="g5827" /></g></g><g
       id="g5839"
       transform="scale(0.24,0.24)"><g
         clip-path="url(#clipPath5843)"
         id="g5841"><g
           transform="scale(4.16667,4.16667)"
           id="g5847" /></g></g><g
       id="g6119"
       transform="scale(0.24,0.24)"><g
         clip-path="url(#clipPath6123)"
         id="g6121"><g
           transform="scale(4.16667,4.16667)"
           id="g6127" /></g></g><g
       id="g7104"><g
         transform="scale(0.24,0.24)"
         id="g6129"><g
           id="g6131"
           clip-path="url(#clipPath6133)"><path
             d="m 571,2355 253,0 0,89 -253,0 0,-89 z"
             style="fill:none;stroke:#000000;stroke-width:1.29460001;stroke-linecap:butt;stroke-linejoin:miter;stroke-miterlimit:8;stroke-dasharray:none;stroke-opacity:1"
             id="path6137"
             inkscape:connector-curvature="0" /></g></g><g
         id="g6139"><text
           transform="matrix(1,0,0,-1,146.4,577.92)"
           style="font-variant:normal;font-weight:bold;font-size:7.67999983px;font-family:Arial;-inkscape-font-specification:Arial-BoldMT;writing-mode:lr-tb;fill:#000000;fill-opacity:1;fill-rule:nonzero;stroke:none"
           id="text6141"><tspan
             x="0 5.2800598 8.1588297 12.96006 17.278891 21.597719 25.91655 30.717781 32.87907 37.4403 41.759132"
             y="0"
             sodipodi:role="line"
             id="tspan6143">Proceso de </tspan><tspan
             x="1.2 5.5188298 10.320061 14.63889 17.51766 19.678949 24.480181 27.120121 31.43895 36.240181"
             y="9.3599997"
             sodipodi:role="line"
             id="tspan6145">encriptado</tspan></text>
</g><g
         transform="scale(0.24,0.24)"
         id="g6147"><g
           id="g6149"
           clip-path="url(#clipPath6151)"><path
             d="m 296,2148 38,128 154,0 -38,-128 -154,0 z"
             style="fill:none;stroke:#000000;stroke-width:1.29460001;stroke-linecap:butt;stroke-linejoin:miter;stroke-miterlimit:8;stroke-dasharray:none;stroke-opacity:1"
             id="path6155"
             inkscape:connector-curvature="0" /></g></g><g
         id="g6157"><text
           transform="matrix(1,0,0,-1,84,537.6)"
           style="font-variant:normal;font-weight:bold;font-size:7.67999983px;font-family:Arial;-inkscape-font-specification:Arial-BoldMT;writing-mode:lr-tb;fill:#000000;fill-opacity:1;fill-rule:nonzero;stroke:none"
           id="text6159"><tspan
             x="0 4.0812302 8.4000607 12.71889 15.35883 20.160061"
             y="0"
             sodipodi:role="line"
             id="tspan6161">Texto </tspan><tspan
             x="5.52 9.83883 14.64006"
             y="9.3599997"
             sodipodi:role="line"
             id="tspan6163">en </tspan><tspan
             x="0.95999998 5.2788301 7.4401202 11.75895 14.87772"
             y="18.719999"
             sodipodi:role="line"
             id="tspan6165">claro</tspan></text>
</g><path
         d="m 137.04,480.96 60.72,0 0,21.12 -60.72,0 0,-21.12 z"
         style="fill:none;stroke:#000000;stroke-width:0.31070399;stroke-linecap:butt;stroke-linejoin:miter;stroke-miterlimit:8;stroke-dasharray:none;stroke-opacity:1"
         id="path6167"
         inkscape:connector-curvature="0" /><g
         id="g6169"><text
           transform="matrix(1,0,0,-1,146.4,493.44)"
           style="font-variant:normal;font-weight:bold;font-size:7.67999983px;font-family:Arial;-inkscape-font-specification:Arial-BoldMT;writing-mode:lr-tb;fill:#000000;fill-opacity:1;fill-rule:nonzero;stroke:none"
           id="text6171"><tspan
             x="0 5.2800598 8.1588297 12.96006 17.278891 21.597719 25.91655 30.717781 32.87907 37.4403 41.759132"
             y="0"
             sodipodi:role="line"
             id="tspan6173">Proceso de </tspan><tspan
             x="-5.52 -0.71876967 3.6000605 7.9188905 12.23772 16.79895 21.117781 24.236551 26.39784 31.19907 33.839012 38.157841 42.71907"
             y="9.1199999"
             sodipodi:role="line"
             id="tspan6175">desencriptado</tspan></text>
</g><g
         transform="scale(0.24,0.24)"
         id="g6177"><g
           id="g6179"
           clip-path="url(#clipPath6181)"><path
             d="m 900,2133 43,127 171,0 -43,-127 -171,0 z"
             style="fill:none;stroke:#000000;stroke-width:1.29460001;stroke-linecap:butt;stroke-linejoin:miter;stroke-miterlimit:8;stroke-dasharray:none;stroke-opacity:1"
             id="path6185"
             inkscape:connector-curvature="0" /></g></g><g
         id="g6187"><text
           transform="matrix(1,0,0,-1,231.6,533.76)"
           style="font-variant:normal;font-weight:bold;font-size:7.67999983px;font-family:Arial;-inkscape-font-specification:Arial-BoldMT;writing-mode:lr-tb;fill:#000000;fill-opacity:1;fill-rule:nonzero;stroke:none"
           id="text6189"><tspan
             x="0 4.0812302 8.4000607 12.71889 15.35883 19.920061"
             y="0"
             sodipodi:role="line"
             id="tspan6191">Texto </tspan><tspan
             x="-2.8800001 1.1988304 3.6001205 6.0000606 9.1188307 13.43766 18.238892 22.800121"
             y="9.3599997"
             sodipodi:role="line"
             id="tspan6193">cifrado </tspan><tspan
             x="5.2800002 7.6799402 11.99877"
             y="18.48"
             sodipodi:role="line"
             id="tspan6195">(1)</tspan></text>
</g><path
         d="m 151.68,553.92 c 0,-0.72 3.6,-1.44 7.92,-1.44 4.32,0 7.68,0.72 7.68,1.44 0,0.72 3.6,1.44 7.92,1.44 4.32,0 7.68,-0.72 7.68,-1.44 l 0,-11.52 c 0,0.72 -3.36,1.44 -7.68,1.44 -4.32,0 -7.92,-0.72 -7.92,-1.44 0,-0.72 -3.36,-1.44 -7.68,-1.44 -4.32,0 -7.92,0.72 -7.92,1.44 l 0,11.52 z"
         style="fill:none;stroke:#000000;stroke-width:0.31070399;stroke-linecap:butt;stroke-linejoin:miter;stroke-miterlimit:8;stroke-dasharray:none;stroke-opacity:1"
         id="path6197"
         inkscape:connector-curvature="0" /><g
         id="g6199"><text
           transform="matrix(1,0,0,-1,157.2,545.76)"
           style="font-variant:normal;font-weight:bold;font-size:5.76000023px;font-family:Arial;-inkscape-font-specification:Arial-BoldMT;writing-mode:lr-tb;fill:#000000;fill-opacity:1;fill-rule:nonzero;stroke:none"
           id="text6201"><tspan
             x="0 4.3190322 5.7600002 9.1191225 12.238245 15.357368 17.278336"
             y="0"
             sodipodi:role="line"
             id="tspan6203">Clave 1</tspan></text>
</g><g
         transform="scale(0.24,0.24)"
         id="g6205"><g
           id="g6207"
           clip-path="url(#clipPath6209)"><path
             d="m 411,2276 0,5 1,6 1,6 1,6 2,6 3,5 2,6 4,5 7,11 8,10 10,10 11,9 12,9 12,7 13,7 14,5 15,5 14,3 15,2 8,1 1,-1 -9,-1 -14,-2 -15,-3 -14,-5 -14,-5 -13,-7 -13,-7 -11,-9 -11,-9 -10,-9 -8,-11 -7,-10 -3,-6 -3,-5 -2,-6 -2,-5 -2,-6 -1,-6 -1,-6 0,-5 -1,0 z m 152,130 8,-7 -8,-7"
             style="fill:#000000;fill-opacity:1;fill-rule:nonzero;stroke:none"
             id="path6213"
             inkscape:connector-curvature="0" /><path
             d="m 824,2400 9,0 10,-1 9,-1 10,-1 19,-4 18,-5 18,-6 17,-8 16,-8 15,-9 14,-11 6,-5 6,-6 6,-5 5,-6 5,-6 4,-6 5,-6 3,-7 3,-6 3,-6 2,-7 1,-6 1,-7 -1,0 -1,6 -2,7 -2,6 -2,6 -3,7 -4,6 -4,6 -4,6 -5,6 -5,6 -6,5 -6,6 -6,5 -14,10 -15,10 -16,8 -17,8 -17,6 -19,5 -18,4 -10,1 -9,1 -10,1 -9,0 0,1 z m 211,-131 -6,-9 -8,8"
             style="fill:#000000;fill-opacity:1;fill-rule:nonzero;stroke:none"
             id="path6215"
             inkscape:connector-curvature="0" /><path
             d="m 1008,2133 0,-4 -1,-4 -2,-4 -1,-4 -3,-4 -2,-4 -4,-4 -3,-4 -4,-3 -4,-4 -10,-7 -12,-7 -12,-6 -13,-6 -15,-5 -15,-4 -16,-4 -16,-3 -17,-3 -17,-1 -11,0 0,1 11,0 17,2 16,2 17,3 16,4 15,4 14,6 14,5 12,6 11,7 10,7 4,4 4,3 3,4 4,4 2,4 3,3 1,4 2,4 0,4 1,4 1,0 z m -176,-91 -8,6 7,7"
             style="fill:#000000;fill-opacity:1;fill-rule:nonzero;stroke:none"
             id="path6217"
             inkscape:connector-curvature="0" /><path
             d="m 571,2048 -16,0 -17,2 -17,2 -16,4 -15,5 -15,5 -14,6 -13,7 -12,7 -11,8 -10,8 -4,5 -4,4 -3,5 -3,4 -3,5 -2,4 -2,5 -1,5 0,0 -1,3 2,0 0,-3 1,-4 2,-5 2,-5 3,-4 3,-5 3,-4 4,-4 4,-5 10,-8 11,-8 12,-7 13,-7 14,-6 14,-5 16,-5 16,-3 16,-3 17,-2 16,0 0,-1 z m -185,92 6,8 8,-7"
             style="fill:#000000;fill-opacity:1;fill-rule:nonzero;stroke:none"
             id="path6219"
             inkscape:connector-curvature="0" /></g></g><path
         d="m 167.52,553.92 0,9.6 -0.24,0 0,-9.6 0.24,0 z m 1.44,9.36 -1.44,1.92 -1.68,-1.92"
         style="fill:#000000;fill-opacity:1;fill-rule:nonzero;stroke:none"
         id="path6221"
         inkscape:connector-curvature="0" /><path
         d="m 151.68,528.24 c 0,-0.72 3.6,-1.44 7.92,-1.44 4.32,0 7.68,0.72 7.68,1.44 0,0.72 3.6,1.44 7.92,1.44 4.32,0 7.68,-0.72 7.68,-1.44 l 0,-11.52 c 0,0.96 -3.36,1.44 -7.68,1.44 -4.32,0 -7.92,-0.48 -7.92,-1.44 0,-0.72 -3.36,-1.44 -7.68,-1.44 -4.32,0 -7.92,0.72 -7.92,1.44 l 0,11.52 z"
         style="fill:none;stroke:#000000;stroke-width:0.31070399;stroke-linecap:butt;stroke-linejoin:miter;stroke-miterlimit:8;stroke-dasharray:none;stroke-opacity:1"
         id="path6223"
         inkscape:connector-curvature="0" /><g
         id="g6225"><text
           transform="matrix(1,0,0,-1,157.2,520.08)"
           style="font-variant:normal;font-weight:bold;font-size:5.76000023px;font-family:Arial;-inkscape-font-specification:Arial-BoldMT;writing-mode:lr-tb;fill:#000000;fill-opacity:1;fill-rule:nonzero;stroke:none"
           id="text6227"><tspan
             x="0 4.3190322 5.7600002 9.1191225 12.238245 15.357368 17.278336"
             y="0"
             sodipodi:role="line"
             id="tspan6229">Clave 2</tspan></text>
</g><path
         d="m 167.52,516.72 0,-12.96 -0.24,0 0,12.96 0.24,0 z m 1.44,-12.48 -1.44,-2.16 -1.68,2.16"
         style="fill:#000000;fill-opacity:1;fill-rule:nonzero;stroke:none"
         id="path6231"
         inkscape:connector-curvature="0" /></g></g></svg>