<?xml version="1.0" encoding="UTF-8" standalone="no"?>
<!-- Created with Inkscape (http://www.inkscape.org/) -->

<svg
   xmlns:dc="http://purl.org/dc/elements/1.1/"
   xmlns:cc="http://creativecommons.org/ns#"
   xmlns:rdf="http://www.w3.org/1999/02/22-rdf-syntax-ns#"
   xmlns:svg="http://www.w3.org/2000/svg"
   xmlns="http://www.w3.org/2000/svg"
   xmlns:sodipodi="http://sodipodi.sourceforge.net/DTD/sodipodi-0.dtd"
   xmlns:inkscape="http://www.inkscape.org/namespaces/inkscape"
   id="svg2"
   version="1.1"
   inkscape:version="0.91 r13725"
   xml:space="preserve"
   width="698.11395"
   height="506.52383"
   viewBox="0 0 698.11395 506.52383"
   sodipodi:docname="criptografia-hibrida.svg"><metadata
     id="metadata8"><rdf:RDF><cc:Work
         rdf:about=""><dc:format>image/svg+xml</dc:format><dc:type
           rdf:resource="http://purl.org/dc/dcmitype/StillImage" /><dc:title></dc:title></cc:Work></rdf:RDF></metadata><defs
     id="defs6"><clipPath
       clipPathUnits="userSpaceOnUse"
       id="clipPath18"><path
         d="m 115,254 2250,0 0,3000 -2250,0 0,-3000 z"
         id="path20"
         inkscape:connector-curvature="0"
         style="clip-rule:evenodd" /></clipPath><clipPath
       clipPathUnits="userSpaceOnUse"
       id="clipPath28"><path
         d="m 115,254 0,94 175,0 0,-47 0,-47 -175,0 z"
         id="path30"
         inkscape:connector-curvature="0" /></clipPath><clipPath
       clipPathUnits="userSpaceOnUse"
       id="clipPath40"><path
         d="m 160,390 0,2864 90,0 0,-1432 0,-1432 -90,0 z"
         id="path42"
         inkscape:connector-curvature="0" /></clipPath><clipPath
       clipPathUnits="userSpaceOnUse"
       id="clipPath54"><path
         d="m 115,254 2250,0 0,3000 -2250,0 0,-3000 z"
         id="path56"
         inkscape:connector-curvature="0"
         style="clip-rule:evenodd" /></clipPath><clipPath
       clipPathUnits="userSpaceOnUse"
       id="clipPath78"><path
         d="m 115,254 2250,0 0,3000 -2250,0 0,-3000 z"
         id="path80"
         inkscape:connector-curvature="0" /></clipPath><clipPath
       clipPathUnits="userSpaceOnUse"
       id="clipPath94"><path
         d="m 115,254 2250,0 0,3000 -2250,0 0,-3000 z"
         id="path96"
         inkscape:connector-curvature="0" /></clipPath><clipPath
       clipPathUnits="userSpaceOnUse"
       id="clipPath110"><path
         d="m 115,254 2250,0 0,3000 -2250,0 0,-3000 z"
         id="path112"
         inkscape:connector-curvature="0" /></clipPath><clipPath
       clipPathUnits="userSpaceOnUse"
       id="clipPath126"><path
         d="m 115,254 2250,0 0,3000 -2250,0 0,-3000 z"
         id="path128"
         inkscape:connector-curvature="0" /></clipPath><clipPath
       clipPathUnits="userSpaceOnUse"
       id="clipPath144"><path
         d="m 115,254 2250,0 0,3000 -2250,0 0,-3000 z"
         id="path146"
         inkscape:connector-curvature="0" /></clipPath><clipPath
       clipPathUnits="userSpaceOnUse"
       id="clipPath162"><path
         d="m 115,254 2250,0 0,3000 -2250,0 0,-3000 z"
         id="path164"
         inkscape:connector-curvature="0" /></clipPath><clipPath
       clipPathUnits="userSpaceOnUse"
       id="clipPath186"><path
         d="m 115,254 2250,0 0,3000 -2250,0 0,-3000 z"
         id="path188"
         inkscape:connector-curvature="0" /></clipPath></defs><sodipodi:namedview
     pagecolor="#ffffff"
     bordercolor="#666666"
     borderopacity="1"
     objecttolerance="10"
     gridtolerance="10"
     guidetolerance="10"
     inkscape:pageopacity="0"
     inkscape:pageshadow="2"
     inkscape:window-width="1600"
     inkscape:window-height="836"
     id="namedview4"
     showgrid="false"
     fit-margin-top="0"
     fit-margin-left="0"
     fit-margin-right="0"
     fit-margin-bottom="0"
     inkscape:zoom="0.31731092"
     inkscape:cx="759.58568"
     inkscape:cy="-41.293925"
     inkscape:window-x="0"
     inkscape:window-y="27"
     inkscape:window-maximized="1"
     inkscape:current-layer="g10" /><g
     id="g10"
     inkscape:groupmode="layer"
     inkscape:label="351trica_ppt__Modo_de_compatibilidad_"
     transform="matrix(0,1.25,1.25,0,-101.08602,-106.67616)"><path
       inkscape:connector-curvature="0"
       id="path70"
       style="fill:#000000;fill-opacity:1;fill-rule:nonzero;stroke:none"
       d="m 110.64,636 379.92,-1.2 0,0.96 -379.92,1.2" /><path
       inkscape:connector-curvature="0"
       id="path72"
       style="fill:#000000;fill-opacity:1;fill-rule:nonzero;stroke:none"
       d="m 110.64,245.76 379.92,1.68 0,-0.96 -379.92,-1.68" /><g
       id="g74"
       transform="scale(0.24,0.24)"><g
         clip-path="url(#clipPath78)"
         id="g76"><g
           transform="scale(4.16667,4.16667)"
           id="g82"><text
             id="text84"
             style="font-variant:normal;font-weight:normal;font-size:19.92000008px;font-family:Arial;-inkscape-font-specification:ArialMT;writing-mode:lr-tb;fill:#000000;fill-opacity:1;fill-rule:nonzero;stroke:none"
             transform="matrix(0,1,1,0,99.6,235.68)"><tspan
               id="tspan86"
               y="0"
               x="0">A</tspan></text>
</g></g></g><path
       inkscape:connector-curvature="0"
       id="path88"
       style="fill:#000000;fill-opacity:1;fill-rule:nonzero;stroke:none"
       d="m 119.76,630.72 12.96,-380.4 0.96,0 -12.96,380.4 -0.96,0 z m 8.4,-379.68 5.28,-5.76 4.8,6.24" /><g
       id="g90"
       transform="scale(0.24,0.24)"><g
         clip-path="url(#clipPath94)"
         id="g92"><g
           transform="scale(4.16667,4.16667)"
           id="g98"><text
             id="text100"
             style="font-variant:normal;font-weight:normal;font-size:12px;font-family:Arial;-inkscape-font-specification:ArialMT;writing-mode:lr-tb;fill:#000000;fill-opacity:1;fill-rule:nonzero;stroke:none"
             transform="matrix(0,1,1,0,108.72,353.52)"><tspan
               id="tspan102"
               sodipodi:role="line"
               y="0"
               x="0 7.9200935 14.638266 20.638266 24.00028 30.718452 34.080467 40.080467 42.958454 49.676624 55.676624 62.394798 65.27681 71.994987 78.713158 85.431328 88.309311 91.187294 97.187294 103.66547 106.30749 110.38739 118.30749 125.02566">Envía clave pública (B1)</tspan></text>
</g></g></g><path
       inkscape:connector-curvature="0"
       id="path104"
       style="fill:#000000;fill-opacity:1;fill-rule:nonzero;stroke:none"
       d="m 250.8,245.28 16.56,386.4 0.96,-0.24 -16.56,-386.16 -0.96,0 z m 12,385.44 5.28,5.76 4.8,-6" /><g
       id="g106"
       transform="scale(0.24,0.24)"><g
         clip-path="url(#clipPath110)"
         id="g108"><g
           transform="scale(4.16667,4.16667)"
           id="g114"><text
             id="text116"
             style="font-variant:normal;font-weight:normal;font-size:12px;font-family:Arial;-inkscape-font-specification:ArialMT;writing-mode:lr-tb;fill:#000000;fill-opacity:1;fill-rule:nonzero;stroke:none"
             transform="matrix(0,1,1,0,244.8,402.48)"><tspan
               id="tspan118"
               sodipodi:role="line"
               y="0"
               x="0 7.9200935 11.282109 18.00028 24.718452 30.718452 34.798359 37.676342 44.394516 47.756531 54.474705 61.192875 67.911049 70.553062 76.553062 83.271233 89.98941 93.11142 101.03152">S encriptado con B1</tspan></text>
</g></g></g><path
       inkscape:connector-curvature="0"
       id="path120"
       style="fill:#000000;fill-opacity:1;fill-rule:nonzero;stroke:none"
       d="m 196.08,240.96 0,-51.12 -0.48,0.48 34.08,0 -0.48,-0.48 0,40.32 0.96,0 0,-40.32 c 0,-0.24 -0.24,-0.48 -0.48,-0.48 l -34.08,0 c -0.24,0 -0.48,0.24 -0.48,0.48 l 0,51.12 0.96,0 z m 28.56,-11.76 5.04,6 5.04,-6" /><g
       id="g122"
       transform="scale(0.24,0.24)"><g
         clip-path="url(#clipPath126)"
         id="g124"><g
           transform="scale(4.16667,4.16667)"
           id="g130"><text
             id="text132"
             style="font-variant:normal;font-weight:normal;font-size:12px;font-family:Arial;-inkscape-font-specification:ArialMT;writing-mode:lr-tb;fill:#000000;fill-opacity:1;fill-rule:nonzero;stroke:none"
             transform="matrix(0,1,1,0,210.48,91.68)"><tspan
               id="tspan134"
               sodipodi:role="line"
               y="0"
               x="0 7.9200935 14.638266 20.638266 24.718172 27.596155 34.314327 37.676342 44.394516 50.394516 53.272499 59.750671 66.468842 69.110863 75.829033 82.547203">Encriptación de </tspan><tspan
               id="tspan136"
               sodipodi:role="line"
               y="14.4"
               x="17.040001 24.960094 28.322109 34.322109 41.040279 47.758453 51.120468 59.040562">S con B1</tspan></text>
</g></g></g><path
       inkscape:connector-curvature="0"
       id="path138"
       style="fill:#000000;fill-opacity:1;fill-rule:nonzero;stroke:none"
       d="m 145.2,239.52 0,-50.88 -0.48,0.48 34.08,0 -0.48,-0.48 0,40.32 0.96,0 0,-40.32 c 0,-0.24 -0.24,-0.48 -0.48,-0.48 l -34.08,0 c -0.24,0 -0.48,0.24 -0.48,0.48 l 0,50.88 0.96,0 z m 28.56,-11.52 5.04,6 4.8,-6" /><g
       id="g140"
       transform="scale(0.24,0.24)"><g
         clip-path="url(#clipPath144)"
         id="g142"><g
           transform="scale(4.16667,4.16667)"
           id="g148"><text
             id="text150"
             style="font-variant:normal;font-weight:normal;font-size:12px;font-family:Arial;-inkscape-font-specification:ArialMT;writing-mode:lr-tb;fill:#000000;fill-opacity:1;fill-rule:nonzero;stroke:none"
             transform="matrix(0,1,1,0,158.64,93.36)"><tspan
               id="tspan152"
               sodipodi:role="line"
               y="0"
               x="0 8.6379843 12.717891 19.436062 26.154234 32.154236 35.032219 41.750389 48.468563 51.110577 57.828751 64.546921">Creación de </tspan><tspan
               id="tspan154"
               sodipodi:role="line"
               y="14.4"
               x="-12.96 -6.96 -4.082016 2.6361558 8.6361561 15.354328 18.236343 24.236343 27.114328 36.714233 43.432407 46.794422 50.874329 53.752312 59.752312 66.470482 69.592499">clave simétrica S</tspan></text>
</g></g></g><path
       inkscape:connector-curvature="0"
       id="path156"
       style="fill:#000000;fill-opacity:1;fill-rule:nonzero;stroke:none"
       d="m 288.48,630.72 0,-50.88 -0.48,0.48 34.08,0 -0.72,-0.48 0,40.32 1.2,0 0,-40.32 c 0,-0.24 -0.24,-0.48 -0.48,-0.48 l -34.08,0 c -0.24,0 -0.48,0.24 -0.48,0.48 l 0,50.88 0.96,0 z m 28.56,-11.52 5.04,6 4.8,-6" /><g
       id="g158"
       transform="scale(0.24,0.24)"><g
         clip-path="url(#clipPath162)"
         id="g160"><g
           transform="scale(4.16667,4.16667)"
           id="g166"><text
             id="text168"
             style="font-variant:normal;font-weight:normal;font-size:12px;font-family:Arial;-inkscape-font-specification:ArialMT;writing-mode:lr-tb;fill:#000000;fill-opacity:1;fill-rule:nonzero;stroke:none"
             transform="matrix(0,1,1,0,304.8,440.88)"><tspan
               id="tspan170"
               sodipodi:role="line"
               y="0"
               x="0 8.6379843 15.356156 21.356155 28.074327 34.7925 40.7925 44.872406 47.750389 54.468563 57.830578 67.188751 75.108849 78.470863 84.470863 91.189034 97.907204 101.02922 108.94932 115.66749">DesencriptaS con B2 </tspan><tspan
               id="tspan172"
               sodipodi:role="line"
               y="14.4"
               x="-6 -1.9200938 4.0799065 6.9578905 13.676063 19.676062 26.394234 29.276251 35.994423 40.074329 42.952312 48.952312 55.670483 62.388657 69.106827 71.74884 78.467018 85.185188 89.265091 95.983269 98.381248 105.09942 108.22144 114.93961 121.65778">(clave privada pareja de </tspan><tspan
               id="tspan174"
               sodipodi:role="line"
               y="28.799999"
               x="48.48 56.400093 63.118267">B1)</tspan></text>
<text
             id="text176"
             style="font-variant:normal;font-weight:normal;font-size:19.92000008px;font-family:Arial;-inkscape-font-specification:ArialMT;writing-mode:lr-tb;fill:#000000;fill-opacity:1;fill-rule:nonzero;stroke:none"
             transform="matrix(0,1,1,0,99.6,627.12)"><tspan
               id="tspan178"
               y="0"
               x="0">B</tspan></text>
</g></g></g><path
       inkscape:connector-curvature="0"
       id="path180"
       style="fill:#000000;fill-opacity:1;fill-rule:nonzero;stroke:none"
       d="m 373.2,632.4 11.04,-380.4 0.96,0 -11.04,380.4 -0.96,0 z m 6.48,-379.68 5.28,-5.76 4.8,6.24" /><g
       id="g182"
       transform="scale(0.24,0.24)"><g
         clip-path="url(#clipPath186)"
         id="g184"><g
           transform="scale(4.16667,4.16667)"
           id="g190"><text
             id="text192"
             style="font-variant:normal;font-weight:normal;font-size:12px;font-family:Arial;-inkscape-font-specification:ArialMT;writing-mode:lr-tb;fill:#000000;fill-opacity:1;fill-rule:nonzero;stroke:none"
             transform="matrix(0,1,1,0,414,114.96)"><tspan
               id="tspan194"
               sodipodi:role="line"
               y="0"
               x="0 8.6379843 15.356156 24.956062 31.674234 38.392406 41.27039 47.27039 53.988564 59.988564 62.866547 69.584717 76.302887">Comunicación </tspan><tspan
               id="tspan196"
               sodipodi:role="line"
               y="14.4"
               x="-6.7199998 -0.00182808 6.7163439 12.716344 16.796249 19.674234 26.392406 29.754421 36.472595 43.190765 52.308941 58.308941 65.027115 71.745285 75.1073">encriptadacon S</tspan></text>
</g></g></g><path
       inkscape:connector-curvature="0"
       id="path198"
       style="fill:#000000;fill-opacity:1;fill-rule:nonzero;stroke:none"
       d="m 401.76,248.16 16.56,386.4 0.96,-0.24 -16.56,-386.16 -0.96,0 z m 12,385.44 5.28,5.76 4.8,-6.24" /><path
       inkscape:connector-curvature="0"
       id="path200"
       style="fill:#000000;fill-opacity:1;fill-rule:nonzero;stroke:none"
       d="m 418.8,248.16 16.8,386.4 0.96,-0.24 -16.8,-386.16 -0.96,0 z m 12.24,385.44 5.28,5.76 4.8,-6.24" /><path
       inkscape:connector-curvature="0"
       id="path202"
       style="fill:#000000;fill-opacity:1;fill-rule:nonzero;stroke:none"
       d="m 445.2,635.28 11.04,-380.4 1.2,0 -11.28,380.4 -0.96,0 z m 6.72,-379.68 5.04,-5.76 4.8,6.24" /><path
       inkscape:connector-curvature="0"
       id="path204"
       style="fill:#000000;fill-opacity:1;fill-rule:nonzero;stroke:none"
       d="m 473.76,241.2 0,-3.36 -0.24,-3.36 0,-1.44 -0.24,-1.44 0,-1.2 -0.24,-1.2 -0.24,-1.2 -0.24,-0.96 -0.24,-0.96 -0.24,-0.72 -0.24,-0.48 -0.24,-0.48 c -0.24,-0.24 -0.24,-0.24 -0.24,-0.24 l -0.24,-0.24 c 0,0 0,0 -0.24,0 l -0.24,-0.24 c 0,0 0,0 -0.24,0 l -50.16,0 0.24,0 -0.24,0 0.24,0 -0.48,-0.24 0.24,0.24 -0.24,-0.48 0,0 -0.24,-0.48 -0.24,-0.72 -0.24,-0.72 -0.24,-0.96 -0.24,-1.2 -0.24,-1.2 0,-1.2 -0.24,-1.44 0,-1.44 -0.24,-3.12 0,-3.36 c 0,-0.48 -0.24,-0.48 -0.48,-0.48 -0.24,0 -0.48,0 -0.48,0.48 l -0.24,3.36 0,3.12 -0.24,1.44 0,1.44 -0.24,1.2 -0.24,1.2 -0.24,1.2 -0.24,0.96 -0.24,0.72 -0.24,0.72 -0.24,0.48 0.24,0 -0.48,0.48 0.24,-0.24 -0.24,0.24 -0.24,0 0.24,0 -50.16,0 -0.24,0 -0.24,0.24 -0.24,0 -0.24,0.24 c 0,0 0,0 0,0.24 l -0.24,0.24 -0.24,0.24 -0.24,0.48 -0.24,0.72 -0.24,0.96 -0.24,0.96 -0.24,1.2 0,1.2 -0.24,1.2 -0.24,1.44 0,1.44 -0.24,3.36 0,3.36 0.96,0 0,-3.36 0.24,-3.12 0.24,-1.44 0,-1.44 0.24,-1.44 0.24,-1.2 0,-0.96 0.24,-0.96 0.24,-0.72 0.24,-0.72 0.24,-0.72 0,0.24 0.24,-0.48 0,0 0.24,-0.24 -0.24,0.24 0.24,-0.24 50.16,0 0,0 0.48,0 0,0 0.48,-0.48 0,0 0.24,-0.48 0,0 0.24,-0.72 0.24,-0.72 0.48,-0.72 0,-0.96 0.24,-1.2 0.24,-1.2 0.24,-1.44 0,-1.44 0.24,-1.44 0,-3.12 0.24,-3.36 -0.96,0 0,3.36 0.24,3.12 0,1.44 0.24,1.44 0,1.44 0.24,1.2 0.24,1.2 0.24,0.96 0.24,0.72 0.24,0.96 0.24,0.48 0,0 0.24,0.48 0.24,0 0.24,0.48 c 0,0 0,0 0.24,0 l 0.24,0 0,0 50.16,0 0,0 0.24,0.24 -0.24,-0.24 0.24,0.24 0,0 0.24,0.24 0.24,0.72 0.24,0.48 0.24,0.96 0.24,0.96 0.24,0.96 0,1.2 0.24,1.44 0.24,1.44 0,1.44 0.24,3.12 0,3.36" /></g></svg>