<?xml version="1.0" encoding="UTF-8" standalone="no"?>
<!-- Created with Inkscape (http://www.inkscape.org/) -->

<svg
   xmlns:dc="http://purl.org/dc/elements/1.1/"
   xmlns:cc="http://creativecommons.org/ns#"
   xmlns:rdf="http://www.w3.org/1999/02/22-rdf-syntax-ns#"
   xmlns:svg="http://www.w3.org/2000/svg"
   xmlns="http://www.w3.org/2000/svg"
   xmlns:sodipodi="http://sodipodi.sourceforge.net/DTD/sodipodi-0.dtd"
   xmlns:inkscape="http://www.inkscape.org/namespaces/inkscape"
   id="svg4754"
   version="1.1"
   inkscape:version="0.91 r13725"
   xml:space="preserve"
   width="373.06873"
   height="200.98907"
   viewBox="0 0 373.06873 200.98907"
   sodipodi:docname="criptografia-simetrica.svg"><metadata
     id="metadata4760"><rdf:RDF><cc:Work
         rdf:about=""><dc:format>image/svg+xml</dc:format><dc:type
           rdf:resource="http://purl.org/dc/dcmitype/StillImage" /><dc:title></dc:title></cc:Work></rdf:RDF></metadata><defs
     id="defs4758"><clipPath
       clipPathUnits="userSpaceOnUse"
       id="clipPath4770"><path
         d="m 0,147 0,3212 2479,0 0,-3212 -2479,0 z"
         id="path4772"
         inkscape:connector-curvature="0" /></clipPath><clipPath
       clipPathUnits="userSpaceOnUse"
       id="clipPath4780"><path
         d="m 0,147 2479,0 0,3212 L 0,3359 0,147 Z"
         id="path4782"
         inkscape:connector-curvature="0" /></clipPath><clipPath
       clipPathUnits="userSpaceOnUse"
       id="clipPath4790"><path
         d="m 0,147 0,3212 2479,0 0,-3212 -2479,0 z"
         id="path4792"
         inkscape:connector-curvature="0" /></clipPath><clipPath
       clipPathUnits="userSpaceOnUse"
       id="clipPath4800"><path
         d="m 290,431 583,0 0,118 -583,0 0,-118 z"
         id="path4802"
         inkscape:connector-curvature="0" /></clipPath><clipPath
       clipPathUnits="userSpaceOnUse"
       id="clipPath4818"><path
         d="m 873,431 182,0 0,118 -182,0 0,-118 z"
         id="path4820"
         inkscape:connector-curvature="0" /></clipPath><clipPath
       clipPathUnits="userSpaceOnUse"
       id="clipPath4834"><path
         d="m 0,147 0,3212 2479,0 0,-3212 -2479,0 z"
         id="path4836"
         inkscape:connector-curvature="0" /></clipPath><clipPath
       clipPathUnits="userSpaceOnUse"
       id="clipPath4962"><path
         d="m 618,1026 1245,0 0,696 -1245,0 0,-696 z"
         id="path4964"
         inkscape:connector-curvature="0"
         style="clip-rule:evenodd" /></clipPath><clipPath
       clipPathUnits="userSpaceOnUse"
       id="clipPath4980"><path
         d="m 618,1026 1245,0 0,696 -1245,0 0,-696 z"
         id="path4982"
         inkscape:connector-curvature="0"
         style="clip-rule:evenodd" /></clipPath><clipPath
       clipPathUnits="userSpaceOnUse"
       id="clipPath5000"><path
         d="m 618,1026 1245,0 0,696 -1245,0 0,-696 z"
         id="path5002"
         inkscape:connector-curvature="0"
         style="clip-rule:evenodd" /></clipPath><clipPath
       clipPathUnits="userSpaceOnUse"
       id="clipPath5018"><path
         d="m 618,1026 1245,0 0,696 -1245,0 0,-696 z"
         id="path5020"
         inkscape:connector-curvature="0"
         style="clip-rule:evenodd" /></clipPath></defs><sodipodi:namedview
     pagecolor="#ffffff"
     bordercolor="#666666"
     borderopacity="1"
     objecttolerance="10"
     gridtolerance="10"
     guidetolerance="10"
     inkscape:pageopacity="0"
     inkscape:pageshadow="2"
     inkscape:window-width="1600"
     inkscape:window-height="836"
     id="namedview4756"
     showgrid="false"
     fit-margin-top="0"
     fit-margin-left="0"
     fit-margin-right="0"
     fit-margin-bottom="0"
     inkscape:zoom="0.63421264"
     inkscape:cx="-107.66409"
     inkscape:cy="382.43486"
     inkscape:window-x="0"
     inkscape:window-y="27"
     inkscape:window-maximized="1"
     inkscape:current-layer="g4762" /><g
     id="g4762"
     inkscape:groupmode="layer"
     inkscape:label="Microsoft_Word_-_SI-T-05-Privacidadconfidencialidad"
     transform="matrix(1.25,0,0,-1.25,-185.4,514.79454)"><g
       id="g4766"
       transform="scale(0.24,0.24)"><g
         clip-path="url(#clipPath4770)"
         id="g4768"><g
           transform="scale(4.16667,4.16667)"
           id="g4774" /></g></g><g
       id="g4786"
       transform="scale(0.24,0.24)"><g
         clip-path="url(#clipPath4790)"
         id="g4788"><g
           transform="scale(4.16667,4.16667)"
           id="g4794" /></g></g><g
       id="g5715"><g
         transform="scale(0.24,0.24)"
         id="g4958"><g
           id="g4960"
           clip-path="url(#clipPath4962)"><path
             d="m 1037,1580 382,0 0,135 -382,0 0,-135 z"
             style="fill:none;stroke:#000000;stroke-width:1.96360004;stroke-linecap:butt;stroke-linejoin:miter;stroke-miterlimit:8;stroke-dasharray:none;stroke-opacity:1"
             id="path4966"
             inkscape:connector-curvature="0" /></g></g><g
         id="g4968"><text
           transform="matrix(1,0,0,-1,263.04,398.16)"
           style="font-variant:normal;font-weight:bold;font-size:11.76000023px;font-family:Arial;-inkscape-font-specification:Arial-BoldMT;writing-mode:lr-tb;fill:#000000;fill-opacity:1;fill-rule:nonzero;stroke:none"
           id="text4970"><tspan
             x="0 7.6800914 12.478208 19.680092 26.1583 32.636509 39.114716 46.316601 49.678574 56.880459 63.358665"
             y="0"
             sodipodi:role="line"
             id="tspan4972">Proceso de </tspan><tspan
             x="1.6799999 8.1582088 15.360092 21.838301 26.396418 29.758392 36.960274 41.040184 47.518391 54.720276"
             y="14.16"
             sodipodi:role="line"
             id="tspan4974">encriptado</tspan></text>
</g><g
         transform="scale(0.24,0.24)"
         id="g4976"><g
           id="g4978"
           clip-path="url(#clipPath4980)"><path
             d="m 619,1266 59,194 233,0 -58,-194 -234,0 z"
             style="fill:none;stroke:#000000;stroke-width:1.96360004;stroke-linecap:butt;stroke-linejoin:miter;stroke-miterlimit:8;stroke-dasharray:none;stroke-opacity:1"
             id="path4984"
             inkscape:connector-curvature="0" /></g></g><g
         id="g4986"><text
           transform="matrix(1,0,0,-1,168.48,336.96)"
           style="font-variant:normal;font-weight:bold;font-size:11.76000023px;font-family:Arial;-inkscape-font-specification:Arial-BoldMT;writing-mode:lr-tb;fill:#000000;fill-opacity:1;fill-rule:nonzero;stroke:none"
           id="text4988"><tspan
             x="0 6.2418833 12.720092 19.198299 23.27821 30.480093"
             y="0"
             sodipodi:role="line"
             id="tspan4990">Texto </tspan><tspan
             x="8.3999996 14.878208 22.080091"
             y="14.16"
             sodipodi:role="line"
             id="tspan4992">en </tspan><tspan
             x="1.2 7.6782084 11.040184 17.518393 22.076509"
             y="28.32"
             sodipodi:role="line"
             id="tspan4994">claro</tspan></text>
</g><g
         transform="scale(0.24,0.24)"
         id="g4996"><g
           id="g4998"
           clip-path="url(#clipPath5000)"><path
             d="m 1037,1047 382,0 0,135 -382,0 0,-135 z"
             style="fill:none;stroke:#000000;stroke-width:1.96360004;stroke-linecap:butt;stroke-linejoin:miter;stroke-miterlimit:8;stroke-dasharray:none;stroke-opacity:1"
             id="path5004"
             inkscape:connector-curvature="0" /></g></g><g
         id="g5006"><text
           transform="matrix(1,0,0,-1,263.04,270.24)"
           style="font-variant:normal;font-weight:bold;font-size:11.76000023px;font-family:Arial;-inkscape-font-specification:Arial-BoldMT;writing-mode:lr-tb;fill:#000000;fill-opacity:1;fill-rule:nonzero;stroke:none"
           id="text5008"><tspan
             x="0 7.6800914 12.478208 19.680092 26.1583 32.636509 39.114716 46.316601 49.678574 56.880459 63.358665"
             y="0"
             sodipodi:role="line"
             id="tspan5010">Proceso de </tspan><tspan
             x="-8.3999996 -1.1981167 5.2800918 11.7583 18.236509 25.438393 32.156601 36.714718 40.076691 47.038574 51.118484 57.596691 64.798576"
             y="14.16"
             sodipodi:role="line"
             id="tspan5012">desencriptado</tspan></text>
</g><g
         transform="scale(0.24,0.24)"
         id="g5014"><g
           id="g5016"
           clip-path="url(#clipPath5018)"><path
             d="m 1535,1302 65,135 260,0 -65,-135 -260,0 z"
             style="fill:none;stroke:#000000;stroke-width:1.96360004;stroke-linecap:butt;stroke-linejoin:miter;stroke-miterlimit:8;stroke-dasharray:none;stroke-opacity:1"
             id="path5022"
             inkscape:connector-curvature="0" /></g></g><g
         id="g5024"><text
           transform="matrix(1,0,0,-1,392.16,331.44)"
           style="font-variant:normal;font-weight:bold;font-size:11.76000023px;font-family:Arial;-inkscape-font-specification:Arial-BoldMT;writing-mode:lr-tb;fill:#000000;fill-opacity:1;fill-rule:nonzero;stroke:none"
           id="text5026"><tspan
             x="0 6.481884 12.960093 19.438301 23.518209 30.480093"
             y="0"
             sodipodi:role="line"
             id="tspan5028">Texto </tspan><tspan
             x="-4.3200002 2.3982081 5.5201836 9.6000919 14.158209 20.636417 27.838301"
             y="14.16"
             sodipodi:role="line"
             id="tspan5030">cifrado</tspan></text>
</g><path
         d="m 271.2,342.48 c 0,-1.2 5.28,-2.16 11.76,-2.16 6.48,0 11.76,0.96 11.76,2.16 0,1.2 5.28,2.4 11.76,2.4 6.72,0 12,-1.2 12,-2.4 l 0,-17.28 c 0,1.2 -5.28,2.16 -12,2.16 -6.48,0 -11.76,-0.96 -11.76,-2.16 0,-1.2 -5.28,-2.16 -11.76,-2.16 -6.48,0 -11.76,0.96 -11.76,2.16 l 0,17.28 z"
         style="fill:none;stroke:#000000;stroke-width:0.471264;stroke-linecap:butt;stroke-linejoin:miter;stroke-miterlimit:8;stroke-dasharray:none;stroke-opacity:1"
         id="path5032"
         inkscape:connector-curvature="0" /><g
         id="g5034"><text
           transform="matrix(1,0,0,-1,283.2,330)"
           style="font-variant:normal;font-weight:bold;font-size:8.88000011px;font-family:Arial;-inkscape-font-specification:Arial-BoldMT;writing-mode:lr-tb;fill:#000000;fill-opacity:1;fill-rule:nonzero;stroke:none"
           id="text5036"><tspan
             x="0 6.2385082 8.6399994 13.678647 18.237293"
             y="0"
             sodipodi:role="line"
             id="tspan5038">Clave</tspan></text>
</g><path
         d="m 190.32,350.4 0.24,2.16 0.24,1.92 0.48,2.16 0.48,2.16 0.72,2.16 0.72,1.92 1.2,2.16 0.96,1.92 1.44,1.92 1.2,1.92 1.68,1.92 1.44,1.92 1.92,1.92 1.68,1.68 1.92,1.68 1.92,1.68 4.32,2.88 4.56,2.88 2.4,1.2 2.4,1.2 2.64,0.96 2.4,0.96 2.64,0.96 2.64,0.72 2.64,0.72 2.64,0.48 2.88,0.48 2.64,0.24 2.88,0.24 0.24,-0.48 -3.12,-0.24 -2.64,-0.24 -2.64,-0.48 -2.64,-0.48 -2.64,-0.72 -2.64,-0.72 -2.64,-0.96 -2.4,-0.96 -2.64,-0.96 -2.4,-1.2 -2.4,-1.2 -4.56,-2.64 -4.08,-3.12 -2.16,-1.68 -1.92,-1.68 -1.68,-1.68 -1.68,-1.68 -1.68,-1.92 -1.44,-1.92 -1.44,-1.92 -1.2,-1.92 -1.2,-1.92 -0.96,-1.92 -0.72,-2.16 -0.72,-2.16 -0.72,-1.92 -0.24,-2.16 -0.24,-2.16 -0.24,-1.92 -0.48,0 z m 55.44,47.28 3.12,-2.16 -2.88,-2.64"
         style="fill:#000000;fill-opacity:1;fill-rule:nonzero;stroke:none"
         id="path5040"
         inkscape:connector-curvature="0" /><path
         d="m 340.8,395.76 3.36,-0.24 3.6,-0.24 3.36,-0.24 3.6,-0.48 3.36,-0.72 3.36,-0.72 3.36,-0.96 3.36,-0.96 3.36,-0.96 3.12,-1.2 3.12,-1.44 3.12,-1.44 2.88,-1.44 2.88,-1.44 2.88,-1.68 2.64,-1.92 2.64,-1.68 2.4,-1.92 2.16,-1.92 2.4,-2.16 1.92,-1.92 1.92,-2.16 1.92,-2.16 1.44,-2.16 1.68,-2.4 1.2,-2.16 0.96,-2.4 0.96,-2.4 0.72,-2.4 0.72,-2.4 0.24,-2.16 -0.48,-0.24 -0.24,2.4 -0.72,2.4 -0.72,2.16 -0.72,2.4 -1.2,2.4 -1.2,2.16 -1.44,2.16 -1.68,2.4 -1.68,1.92 -1.92,2.16 -2.16,2.16 -2.16,1.92 -2.16,1.92 -2.64,1.92 -2.4,1.92 -2.64,1.68 -2.88,1.68 -2.88,1.44 -2.88,1.68 -3.12,1.44 -3.12,1.2 -3.12,1.2 -3.36,0.96 -3.12,1.2 -3.36,0.72 -3.36,0.72 -3.6,0.72 -3.36,0.48 -3.36,0.24 -3.6,0.24 -3.36,0.24 0,0.48 z m 76.8,-48 -2.4,-3.12 -2.64,2.88"
         style="fill:#000000;fill-opacity:1;fill-rule:nonzero;stroke:none"
         id="path5042"
         inkscape:connector-curvature="0" /><path
         d="m 407.76,312.48 0,-2.16 -0.48,-2.16 -0.48,-1.92 -0.48,-2.16 -0.96,-2.16 -0.96,-2.16 -1.2,-1.92 -1.2,-1.92 -1.44,-2.16 -1.68,-1.92 -1.68,-1.92 -1.92,-1.68 -1.92,-1.92 -2.16,-1.68 -2.16,-1.68 -2.16,-1.68 -2.4,-1.44 -2.64,-1.44 -5.28,-2.88 -2.64,-1.2 -2.88,-1.2 -2.88,-0.96 -2.88,-0.96 -2.88,-0.96 -3.12,-0.72 -3.12,-0.72 -2.88,-0.48 -3.12,-0.48 -3.12,-0.24 -3.12,-0.24 -0.72,0 0,0.48 0.48,0 3.12,0.24 3.12,0.24 3.12,0.48 3.12,0.48 3.12,0.72 2.88,0.72 2.88,0.72 3.12,1.2 2.64,0.96 2.88,1.2 2.64,1.2 5.28,2.64 2.4,1.44 2.4,1.68 2.4,1.68 2.16,1.68 2.16,1.68 1.92,1.68 1.92,1.92 1.68,1.92 1.44,1.92 1.44,1.92 1.44,1.92 0.96,1.92 0.96,2.16 0.96,1.92 0.48,2.16 0.48,2.16 0.48,1.92 0,2.16 0.48,0 z m -64.08,-47.52 -2.88,2.4 2.88,2.64"
         style="fill:#000000;fill-opacity:1;fill-rule:nonzero;stroke:none"
         id="path5044"
         inkscape:connector-curvature="0" /><path
         d="m 248.88,267.12 -3.12,0.24 -3.12,0 -2.88,0.24 -3.12,0.48 -2.88,0.48 -3.12,0.48 -5.76,1.2 -5.52,1.68 -5.52,1.92 -5.04,2.4 -2.4,1.2 -2.4,1.2 -2.4,1.2 -2.16,1.44 -1.92,1.44 -1.92,1.44 -1.92,1.44 -1.68,1.68 -1.44,1.44 -1.44,1.68 -1.2,1.68 -1.2,1.68 -0.96,1.68 -0.72,1.68 -0.72,1.68 -0.48,1.68 -0.24,0.96 0.48,0 0.24,-0.96 0.48,-1.68 0.48,-1.68 0.96,-1.44 0.96,-1.68 0.96,-1.68 1.2,-1.68 1.44,-1.44 1.68,-1.68 1.68,-1.44 1.68,-1.44 1.92,-1.44 1.92,-1.44 2.16,-1.44 2.4,-1.2 2.16,-1.2 2.4,-1.2 5.28,-2.4 5.28,-1.92 5.52,-1.68 6,-1.2 2.88,-0.48 2.88,-0.48 3.12,-0.48 3.12,-0.24 2.88,0 3.12,-0.24 0,-0.48 z m -67.44,33.6 2.16,3.12 2.88,-2.64"
         style="fill:#000000;fill-opacity:1;fill-rule:nonzero;stroke:none"
         id="path5046"
         inkscape:connector-curvature="0" /><path
         d="m 294.96,342.48 0,34.32 -0.48,0 0,-34.32 0.48,0 z m 2.4,33.84 -2.64,2.88 -2.4,-2.88"
         style="fill:#000000;fill-opacity:1;fill-rule:nonzero;stroke:none"
         id="path5048"
         inkscape:connector-curvature="0" /><path
         d="m 294.96,325.2 0,-39.12 -0.48,0 0,39.12 0.48,0 z m 2.4,-38.64 -2.64,-2.88 -2.4,2.88"
         style="fill:#000000;fill-opacity:1;fill-rule:nonzero;stroke:none"
         id="path5050"
         inkscape:connector-curvature="0" /></g></g></svg>