<?xml version="1.0" encoding="UTF-8" standalone="no"?>
<!-- Created with Inkscape (http://www.inkscape.org/) -->

<svg
   xmlns:dc="http://purl.org/dc/elements/1.1/"
   xmlns:cc="http://creativecommons.org/ns#"
   xmlns:rdf="http://www.w3.org/1999/02/22-rdf-syntax-ns#"
   xmlns:svg="http://www.w3.org/2000/svg"
   xmlns="http://www.w3.org/2000/svg"
   xmlns:sodipodi="http://sodipodi.sourceforge.net/DTD/sodipodi-0.dtd"
   xmlns:inkscape="http://www.inkscape.org/namespaces/inkscape"
   width="73.650284mm"
   height="39.570923mm"
   viewBox="0 0 260.96557 140.21193"
   id="svg4141"
   version="1.1"
   inkscape:version="0.91 r13725"
   sodipodi:docname="criptografia-asimetrica-2.svg">
  <defs
     id="defs4143">
    <clipPath
       clipPathUnits="userSpaceOnUse"
       id="clipPath6237">
      <path
         d="m 1317,1990 871,0 0,487 -871,0 0,-487 z"
         id="path6239"
         inkscape:connector-curvature="0"
         style="clip-rule:evenodd" />
    </clipPath>
    <clipPath
       clipPathUnits="userSpaceOnUse"
       id="clipPath6255">
      <path
         d="m 1317,1990 871,0 0,487 -871,0 0,-487 z"
         id="path6257"
         inkscape:connector-curvature="0"
         style="clip-rule:evenodd" />
    </clipPath>
    <clipPath
       clipPathUnits="userSpaceOnUse"
       id="clipPath6285">
      <path
         d="m 1317,1990 871,0 0,487 -871,0 0,-487 z"
         id="path6287"
         inkscape:connector-curvature="0"
         style="clip-rule:evenodd" />
    </clipPath>
    <clipPath
       clipPathUnits="userSpaceOnUse"
       id="clipPath6313">
      <path
         d="m 1317,1990 871,0 0,487 -871,0 0,-487 z"
         id="path6315"
         inkscape:connector-curvature="0"
         style="clip-rule:evenodd" />
    </clipPath>
  </defs>
  <sodipodi:namedview
     id="base"
     pagecolor="#ffffff"
     bordercolor="#666666"
     borderopacity="1.0"
     inkscape:pageopacity="0.0"
     inkscape:pageshadow="2"
     inkscape:zoom="0.7"
     inkscape:cx="316.71368"
     inkscape:cy="325.28515"
     inkscape:document-units="px"
     inkscape:current-layer="layer1"
     showgrid="false"
     fit-margin-top="0"
     fit-margin-left="0"
     fit-margin-right="0"
     fit-margin-bottom="0"
     inkscape:window-width="1600"
     inkscape:window-height="836"
     inkscape:window-x="0"
     inkscape:window-y="27"
     inkscape:window-maximized="1" />
  <metadata
     id="metadata4146">
    <rdf:RDF>
      <cc:Work
         rdf:about="">
        <dc:format>image/svg+xml</dc:format>
        <dc:type
           rdf:resource="http://purl.org/dc/dcmitype/StillImage" />
        <dc:title></dc:title>
      </cc:Work>
    </rdf:RDF>
  </metadata>
  <g
     inkscape:label="Layer 1"
     inkscape:groupmode="layer"
     id="layer1"
     transform="translate(199.05422,-475.11333)">
    <g
       transform="matrix(1.25,0,0,-1.25,-594.17641,1216.6193)"
       id="g7150">
      <g
         transform="scale(0.24,0.24)"
         id="g6233">
        <g
           id="g6235"
           clip-path="url(#clipPath6237)">
          <path
             d="m 1610,2377 268,0 0,94 -268,0 0,-94 z"
             style="fill:none;stroke:#000000;stroke-width:1.37310004;stroke-linecap:butt;stroke-linejoin:miter;stroke-miterlimit:8;stroke-dasharray:none;stroke-opacity:1"
             id="path6241"
             inkscape:connector-curvature="0" />
        </g>
      </g>
      <g
         id="g6243">
        <text
           transform="matrix(1,0,0,-1,396.24,583.92)"
           style="font-variant:normal;font-weight:bold;font-size:8.15999985px;font-family:Arial;-inkscape-font-specification:Arial-BoldMT;writing-mode:lr-tb;fill:#000000;fill-opacity:1;fill-rule:nonzero;stroke:none"
           id="text6245">
          <tspan
             x="0 5.5200639 8.8787575 13.920064 18.478821 23.037579 27.596334 32.637642 35.039013 39.840321 44.639076"
             y="0"
             sodipodi:role="line"
             id="tspan6247">Proceso de</tspan>
          <tspan
             x="1.2 5.7587571 10.800064 15.358821 18.717514 20.878885 25.920191 28.800127 33.358887 38.400192"
             y="9.8400002"
             sodipodi:role="line"
             id="tspan6249">encriptado</tspan>
        </text>
      </g>
      <g
         transform="scale(0.24,0.24)"
         id="g6251">
        <g
           id="g6253"
           clip-path="url(#clipPath6255)">
          <path
             d="m 1318,2158 41,135 163,0 -41,-135 -163,0 z"
             style="fill:none;stroke:#000000;stroke-width:1.37310004;stroke-linecap:butt;stroke-linejoin:miter;stroke-miterlimit:8;stroke-dasharray:none;stroke-opacity:1"
             id="path6259"
             inkscape:connector-curvature="0" />
        </g>
      </g>
      <g
         id="g6261">
        <text
           transform="matrix(1,0,0,-1,330.24,541.2)"
           style="font-variant:normal;font-weight:bold;font-size:8.15999985px;font-family:Arial;-inkscape-font-specification:Arial-BoldMT;writing-mode:lr-tb;fill:#000000;fill-opacity:1;fill-rule:nonzero;stroke:none"
           id="text6263">
          <tspan
             x="0 4.561307 9.1200638 13.678821 16.318758 21.360064"
             y="0"
             sodipodi:role="line"
             id="tspan6265">Texto</tspan>
          <tspan
             x="5.7600002 10.318757 15.360064"
             y="9.8400002"
             sodipodi:role="line"
             id="tspan6267">en</tspan>
          <tspan
             x="0.72000003 5.2787571 7.6801276 12.238884 15.357577"
             y="19.92"
             sodipodi:role="line"
             id="tspan6269">claro</tspan>
        </text>
      </g>
      <path
         d="m 386.4,481.2 64.32,0 0,22.56 -64.32,0 0,-22.56 z"
         style="fill:none;stroke:#000000;stroke-width:0.32954401;stroke-linecap:butt;stroke-linejoin:miter;stroke-miterlimit:8;stroke-dasharray:none;stroke-opacity:1"
         id="path6271"
         inkscape:connector-curvature="0" />
      <g
         id="g6273">
        <text
           transform="matrix(1,0,0,-1,396.24,494.4)"
           style="font-variant:normal;font-weight:bold;font-size:8.15999985px;font-family:Arial;-inkscape-font-specification:Arial-BoldMT;writing-mode:lr-tb;fill:#000000;fill-opacity:1;fill-rule:nonzero;stroke:none"
           id="text6275">
          <tspan
             x="0 5.5200639 8.8787575 13.920064 18.478821 23.037579 27.596334 32.637642 35.039013 39.840321 44.639076"
             y="0"
             sodipodi:role="line"
             id="tspan6277">Proceso de</tspan>
          <tspan
             x="-5.7600002 -0.71869308 3.8400638 8.3988209 13.197578 17.998884 22.797642 25.916334 28.317705 33.359013 35.998947 40.557705 45.59901"
             y="9.8400002"
             sodipodi:role="line"
             id="tspan6279">desencriptado</tspan>
        </text>
      </g>
      <g
         transform="scale(0.24,0.24)"
         id="g6281">
        <g
           id="g6283"
           clip-path="url(#clipPath6285)">
          <path
             d="m 1959,2142 45,135 182,0 -46,-135 -181,0 z"
             style="fill:none;stroke:#000000;stroke-width:1.37310004;stroke-linecap:butt;stroke-linejoin:miter;stroke-miterlimit:8;stroke-dasharray:none;stroke-opacity:1"
             id="path6289"
             inkscape:connector-curvature="0" />
        </g>
      </g>
      <g
         id="g6291">
        <text
           transform="matrix(1,0,0,-1,486.72,537.36)"
           style="font-variant:normal;font-weight:bold;font-size:8.15999985px;font-family:Arial;-inkscape-font-specification:Arial-BoldMT;writing-mode:lr-tb;fill:#000000;fill-opacity:1;fill-rule:nonzero;stroke:none"
           id="text6293">
          <tspan
             x="0 4.3213067 8.880064 13.438821 16.318758 21.360064"
             y="0"
             sodipodi:role="line"
             id="tspan6295">Texto</tspan>
          <tspan
             x="-3.1199999 1.4387569 3.6001272 6.4800634 9.5987568 14.157514 19.19882 24.240128"
             y="10.08"
             sodipodi:role="line"
             id="tspan6297">cifrado</tspan>
          <tspan
             x="5.52 8.159936 12.718693"
             y="19.92"
             sodipodi:role="line"
             id="tspan6299">(2)</tspan>
        </text>
      </g>
      <path
         d="m 402,558.48 c 0,-0.72 3.6,-1.44 8.16,-1.44 4.56,0 8.4,0.72 8.4,1.44 0,0.96 3.6,1.68 8.16,1.68 4.56,0 8.4,-0.72 8.4,-1.68 l 0,-12.24 c 0,0.96 -3.84,1.68 -8.4,1.68 -4.56,0 -8.16,-0.72 -8.16,-1.68 0,-0.72 -3.84,-1.44 -8.4,-1.44 -4.56,0 -8.16,0.72 -8.16,1.44 l 0,12.24 z"
         style="fill:none;stroke:#000000;stroke-width:0.32954401;stroke-linecap:butt;stroke-linejoin:miter;stroke-miterlimit:8;stroke-dasharray:none;stroke-opacity:1"
         id="path6301"
         inkscape:connector-curvature="0" />
      <g
         id="g6303">
        <text
           transform="matrix(1,0,0,-1,407.76,549.84)"
           style="font-variant:normal;font-weight:bold;font-size:6.23999977px;font-family:Arial;-inkscape-font-specification:Arial-BoldMT;writing-mode:lr-tb;fill:#000000;fill-opacity:1;fill-rule:nonzero;stroke:none"
           id="text6305">
          <tspan
             x="0 4.5589519 6.2399998 9.5990496 12.958098 16.317148 18.238197"
             y="0"
             sodipodi:role="line"
             id="tspan6307">Clave 2</tspan>
        </text>
      </g>
      <g
         transform="scale(0.24,0.24)"
         id="g6309">
        <g
           id="g6311"
           clip-path="url(#clipPath6313)">
          <path
             d="m 1440,2293 0,6 1,6 1,7 2,6 2,6 2,6 3,6 3,6 8,11 9,11 11,10 11,10 13,9 13,8 14,7 15,6 15,4 15,4 16,2 9,1 0,-2 -9,0 -15,-2 -16,-4 -15,-5 -15,-6 -13,-7 -14,-7 -12,-9 -11,-10 -11,-10 -9,-11 -7,-11 -4,-6 -2,-6 -3,-6 -2,-6 -2,-6 -1,-6 -1,-6 0,-6 -1,0 z m 161,138 9,-7 -8,-7"
             style="fill:#000000;fill-opacity:1;fill-rule:nonzero;stroke:none"
             id="path6317"
             inkscape:connector-curvature="0" />
          <path
             d="m 1878,2425 10,0 10,-1 10,-1 10,-1 10,-2 10,-2 20,-6 19,-6 18,-8 17,-9 16,-10 14,-11 7,-6 6,-6 6,-6 6,-6 5,-6 5,-7 4,-6 4,-7 3,-7 3,-6 2,-7 2,-7 0,-7 -1,0 -1,6 -1,7 -2,7 -3,7 -3,6 -4,7 -4,7 -5,6 -5,6 -6,6 -5,6 -7,6 -7,6 -14,11 -16,9 -17,9 -18,8 -19,7 -19,5 -10,2 -10,2 -10,2 -10,1 -10,0 -10,1 0,1 z m 224,-139 -7,-9 -8,8"
             style="fill:#000000;fill-opacity:1;fill-rule:nonzero;stroke:none"
             id="path6319"
             inkscape:connector-curvature="0" />
          <path
             d="m 2073,2142 0,-5 -1,-4 -1,-4 -2,-4 -3,-5 -3,-4 -3,-4 -4,-4 -4,-4 -5,-4 -5,-4 -5,-3 -12,-7 -13,-7 -14,-6 -16,-5 -16,-5 -17,-4 -17,-4 -18,-2 -18,-2 -11,0 0,2 11,0 18,1 18,3 17,3 17,4 16,5 15,5 14,6 13,7 12,7 5,4 5,3 5,4 4,4 4,4 3,4 3,4 2,4 2,4 2,4 0,4 1,5 1,0 z m -186,-97 -9,7 8,7"
             style="fill:#000000;fill-opacity:1;fill-rule:nonzero;stroke:none"
             id="path6321"
             inkscape:connector-curvature="0" />
        </g>
      </g>
      <path
         d="m 386.4,492.24 -4.32,0.24 -4.08,0.24 -4.32,0.72 -4.08,0.96 -3.84,1.2 -3.84,1.44 -3.6,1.44 -3.36,1.68 -3.12,1.92 -2.64,1.92 -1.2,1.2 -1.2,0.96 -1.2,1.2 -0.96,0.96 -0.96,1.2 -0.72,1.2 -0.72,1.2 -0.48,1.2 -0.48,1.2 -0.24,1.2 -0.24,0.72 0.48,0 0,-0.72 0.24,-1.2 0.48,-1.2 0.48,-0.96 0.72,-1.2 0.72,-1.2 0.96,-1.2 0.96,-0.96 1.2,-1.2 1.2,-0.96 1.2,-1.2 2.64,-1.92 3.12,-1.92 3.36,-1.68 3.6,-1.44 3.6,-1.44 4.08,-1.2 4.08,-0.72 4.08,-0.72 4.08,-0.48 4.32,-0.24 0,-0.24 z m -47.04,23.52 1.44,2.16 1.92,-1.92"
         style="fill:#000000;fill-opacity:1;fill-rule:nonzero;stroke:none"
         id="path6323"
         inkscape:connector-curvature="0" />
      <path
         d="m 418.8,558.48 0,10.32 -0.48,0 0,-10.32 0.48,0 z m 1.44,10.08 -1.68,1.92 -1.68,-1.92"
         style="fill:#000000;fill-opacity:1;fill-rule:nonzero;stroke:none"
         id="path6325"
         inkscape:connector-curvature="0" />
      <path
         d="m 402,531.36 c 0,-0.96 3.6,-1.44 8.16,-1.44 4.56,0 8.4,0.48 8.4,1.44 0,0.72 3.6,1.44 8.16,1.44 4.56,0 8.4,-0.72 8.4,-1.44 l 0,-12.24 c 0,0.96 -3.84,1.44 -8.4,1.44 -4.56,0 -8.16,-0.48 -8.16,-1.44 0,-0.72 -3.84,-1.44 -8.4,-1.44 -4.56,0 -8.16,0.72 -8.16,1.44 l 0,12.24 z"
         style="fill:none;stroke:#000000;stroke-width:0.32954401;stroke-linecap:butt;stroke-linejoin:miter;stroke-miterlimit:8;stroke-dasharray:none;stroke-opacity:1"
         id="path6327"
         inkscape:connector-curvature="0" />
      <g
         id="g6329">
        <text
           transform="matrix(1,0,0,-1,407.76,522.72)"
           style="font-variant:normal;font-weight:bold;font-size:6.23999977px;font-family:Arial;-inkscape-font-specification:Arial-BoldMT;writing-mode:lr-tb;fill:#000000;fill-opacity:1;fill-rule:nonzero;stroke:none"
           id="text6331">
          <tspan
             x="0 4.5589519 6.2399998 9.5990496 12.958098 16.317148 18.238197"
             y="0"
             sodipodi:role="line"
             id="tspan6333">Clave 1</tspan>
        </text>
      </g>
      <path
         d="m 418.8,519.12 0,-13.68 -0.48,0 0,13.68 0.48,0 z m 1.44,-13.44 -1.68,-1.92 -1.68,1.92"
         style="fill:#000000;fill-opacity:1;fill-rule:nonzero;stroke:none"
         id="path6335"
         inkscape:connector-curvature="0" />
    </g>
  </g>
</svg>
