<?xml version="1.0" encoding="UTF-8" standalone="no"?>
<!-- Created with Inkscape (http://www.inkscape.org/) -->

<svg
   xmlns:dc="http://purl.org/dc/elements/1.1/"
   xmlns:cc="http://creativecommons.org/ns#"
   xmlns:rdf="http://www.w3.org/1999/02/22-rdf-syntax-ns#"
   xmlns:svg="http://www.w3.org/2000/svg"
   xmlns="http://www.w3.org/2000/svg"
   xmlns:sodipodi="http://sodipodi.sourceforge.net/DTD/sodipodi-0.dtd"
   xmlns:inkscape="http://www.inkscape.org/namespaces/inkscape"
   id="svg7450"
   version="1.1"
   inkscape:version="0.91 r13725"
   xml:space="preserve"
   width="743.75"
   height="1052.5"
   viewBox="0 0 743.75 1052.5"
   sodipodi:docname="firma-digital-generacion.svg"><metadata
     id="metadata7456"><rdf:RDF><cc:Work
         rdf:about=""><dc:format>image/svg+xml</dc:format><dc:type
           rdf:resource="http://purl.org/dc/dcmitype/StillImage" /><dc:title></dc:title></cc:Work></rdf:RDF></metadata><defs
     id="defs7454"><clipPath
       clipPathUnits="userSpaceOnUse"
       id="clipPath7466"><path
         d="m 0,147 0,3212 2479,0 0,-3212 -2479,0 z"
         id="path7468"
         inkscape:connector-curvature="0" /></clipPath><clipPath
       clipPathUnits="userSpaceOnUse"
       id="clipPath7476"><path
         d="m 0,147 2479,0 0,3212 L 0,3359 0,147 Z"
         id="path7478"
         inkscape:connector-curvature="0" /></clipPath><clipPath
       clipPathUnits="userSpaceOnUse"
       id="clipPath7486"><path
         d="m 0,147 0,3212 2479,0 0,-3212 -2479,0 z"
         id="path7488"
         inkscape:connector-curvature="0" /></clipPath><clipPath
       clipPathUnits="userSpaceOnUse"
       id="clipPath7496"><path
         d="m 290,431 583,0 0,118 -583,0 0,-118 z"
         id="path7498"
         inkscape:connector-curvature="0" /></clipPath><clipPath
       clipPathUnits="userSpaceOnUse"
       id="clipPath7514"><path
         d="m 873,431 182,0 0,118 -182,0 0,-118 z"
         id="path7516"
         inkscape:connector-curvature="0" /></clipPath><clipPath
       clipPathUnits="userSpaceOnUse"
       id="clipPath7530"><path
         d="m 0,147 0,3212 2479,0 0,-3212 -2479,0 z"
         id="path7532"
         inkscape:connector-curvature="0" /></clipPath><clipPath
       clipPathUnits="userSpaceOnUse"
       id="clipPath7606"><path
         d="m 638,851 1207,0 0,753 -1207,0 0,-753 z"
         id="path7608"
         inkscape:connector-curvature="0"
         style="clip-rule:evenodd" /></clipPath><clipPath
       clipPathUnits="userSpaceOnUse"
       id="clipPath7624"><path
         d="m 638,851 1207,0 0,753 -1207,0 0,-753 z"
         id="path7626"
         inkscape:connector-curvature="0"
         style="clip-rule:evenodd" /></clipPath><clipPath
       clipPathUnits="userSpaceOnUse"
       id="clipPath7654"><path
         d="m 638,851 1207,0 0,753 -1207,0 0,-753 z"
         id="path7656"
         inkscape:connector-curvature="0"
         style="clip-rule:evenodd" /></clipPath><clipPath
       clipPathUnits="userSpaceOnUse"
       id="clipPath7670"><path
         d="m 638,851 1207,0 0,753 -1207,0 0,-753 z"
         id="path7672"
         inkscape:connector-curvature="0"
         style="clip-rule:evenodd" /></clipPath><clipPath
       clipPathUnits="userSpaceOnUse"
       id="clipPath7694"><path
         d="m 638,851 1207,0 0,753 -1207,0 0,-753 z"
         id="path7696"
         inkscape:connector-curvature="0"
         style="clip-rule:evenodd" /></clipPath></defs><sodipodi:namedview
     pagecolor="#ffffff"
     bordercolor="#666666"
     borderopacity="1"
     objecttolerance="10"
     gridtolerance="10"
     guidetolerance="10"
     inkscape:pageopacity="0"
     inkscape:pageshadow="2"
     inkscape:window-width="1600"
     inkscape:window-height="836"
     id="namedview7452"
     showgrid="false"
     inkscape:zoom="0.63421264"
     inkscape:cx="-117.18666"
     inkscape:cy="448.34096"
     inkscape:window-x="0"
     inkscape:window-y="27"
     inkscape:window-maximized="1"
     inkscape:current-layer="g7458" /><g
     id="g7458"
     inkscape:groupmode="layer"
     inkscape:label="Microsoft_Word_-_SI-T-05-Privacidadconfidencialidad"
     transform="matrix(1.25,0,0,-1.25,0,1052.5)"><g
       id="g7462"
       transform="scale(0.24,0.24)"><g
         clip-path="url(#clipPath7466)"
         id="g7464"><g
           transform="scale(4.16667,4.16667)"
           id="g7470" /></g></g><g
       id="g7482"
       transform="scale(0.24,0.24)"><g
         clip-path="url(#clipPath7486)"
         id="g7484"><g
           transform="scale(4.16667,4.16667)"
           id="g7490" /></g></g><g
       id="g8373"><g
         transform="scale(0.24,0.24)"
         id="g7602"><g
           id="g7604"
           clip-path="url(#clipPath7606)"><path
             d="m 1068,1476 345,0 0,122 -345,0 0,-122 z"
             style="fill:none;stroke:#000000;stroke-width:1.76909995;stroke-linecap:butt;stroke-linejoin:miter;stroke-miterlimit:8;stroke-dasharray:none;stroke-opacity:1"
             id="path7610"
             inkscape:connector-curvature="0" /></g></g><g
         id="g7612"><text
           transform="matrix(1,0,0,-1,277.2,371.28)"
           style="font-variant:normal;font-weight:bold;font-size:10.56000042px;font-family:Arial;-inkscape-font-specification:Arial-BoldMT;writing-mode:lr-tb;fill:#000000;fill-opacity:1;fill-rule:nonzero;stroke:none"
           id="text7614"><tspan
             x="0 6.4816914 12.963383 19.445074 25.443466 28.325239 34.806931 41.28862"
             y="0"
             sodipodi:role="line"
             id="tspan7616">Función </tspan><tspan
             x="-1.6799999 2.6383092 8.3967009 14.395092 20.876783 30.235092 36.233482"
             y="12.72"
             sodipodi:role="line"
             id="tspan7618">resumen</tspan></text>
</g><g
         transform="scale(0.24,0.24)"
         id="g7620"><g
           id="g7622"
           clip-path="url(#clipPath7624)"><path
             d="m 639,1403 53,174 211,0 -53,-174 -211,0 z"
             style="fill:none;stroke:#000000;stroke-width:1.76909995;stroke-linecap:butt;stroke-linejoin:miter;stroke-miterlimit:8;stroke-dasharray:none;stroke-opacity:1"
             id="path7628"
             inkscape:connector-curvature="0" /></g></g><g
         id="g7630"><text
           transform="matrix(1,0,0,-1,171.36,366.48)"
           style="font-variant:normal;font-weight:bold;font-size:10.56000042px;font-family:Arial;-inkscape-font-specification:Arial-BoldMT;writing-mode:lr-tb;fill:#000000;fill-opacity:1;fill-rule:nonzero;stroke:none"
           id="text7632"><tspan
             x="0 5.7616911 11.760083 17.518475 21.118391 27.600082"
             y="0"
             sodipodi:role="line"
             id="tspan7634">Texto </tspan><tspan
             x="7.4400001 13.438392 19.920082"
             y="12.72"
             sodipodi:role="line"
             id="tspan7636">en </tspan><tspan
             x="0.95999998 6.9583917 9.8401651 15.838557 19.916866"
             y="25.440001"
             sodipodi:role="line"
             id="tspan7638">claro</tspan></text>
</g><path
         d="m 334.08,299.28 82.8,0 0,29.04 -82.8,0 0,-29.04 z"
         style="fill:none;stroke:#000000;stroke-width:0.424584;stroke-linecap:butt;stroke-linejoin:miter;stroke-miterlimit:8;stroke-dasharray:none;stroke-opacity:1"
         id="path7640"
         inkscape:connector-curvature="0" /><g
         id="g7642"><text
           transform="matrix(1,0,0,-1,346.8,316.32)"
           style="font-variant:normal;font-weight:bold;font-size:10.56000042px;font-family:Arial;-inkscape-font-specification:Arial-BoldMT;writing-mode:lr-tb;fill:#000000;fill-opacity:1;fill-rule:nonzero;stroke:none"
           id="text7644"><tspan
             x="0 7.2000828 11.278391 17.760082 23.758474 29.516865 35.515255 41.996948 44.878723 51.360413 57.358803"
             y="0"
             sodipodi:role="line"
             id="tspan7646">Proceso de </tspan><tspan
             x="1.4400001 7.4383917 13.920083 19.918474 23.996782 26.878557 33.360249 36.960167 42.958557 49.440247"
             y="12.72"
             sodipodi:role="line"
             id="tspan7648">encriptado</tspan></text>
</g><g
         transform="scale(0.24,0.24)"
         id="g7650"><g
           id="g7652"
           clip-path="url(#clipPath7654)"><path
             d="m 1444,1498 80,68 317,0 -79,-68 -318,0 z"
             style="fill:none;stroke:#000000;stroke-width:1.76909995;stroke-linecap:butt;stroke-linejoin:miter;stroke-miterlimit:8;stroke-dasharray:none;stroke-opacity:1"
             id="path7658"
             inkscape:connector-curvature="0" /></g></g><g
         id="g7660"><text
           transform="matrix(1,0,0,-1,370.56,363.84)"
           style="font-variant:normal;font-weight:bold;font-size:10.56000042px;font-family:Arial;-inkscape-font-specification:Arial-BoldMT;writing-mode:lr-tb;fill:#000000;fill-opacity:1;fill-rule:nonzero;stroke:none"
           id="text7662"><tspan
             x="0 7.6782265 13.676618 19.435009 25.9167 35.515011 41.273399"
             y="0"
             sodipodi:role="line"
             id="tspan7664">Resumen</tspan></text>
</g><g
         transform="scale(0.24,0.24)"
         id="g7666"><g
           id="g7668"
           clip-path="url(#clipPath7670)"><path
             d="m 876,1489 20,0 20,2 10,1 9,1 8,1 8,2 8,2 6,2 6,2 5,2 4,2 0,0 3,2 1,0 1,2 c 0,1 1,1 1,1 l 0,2 1,2 0,0 1,2 0,0 2,2 0,0 3,2 4,2 4,2 5,2 5,2 6,1 7,2 14,2 15,2 6,0 0,1 -6,0 -15,-1 -15,-3 -6,-1 -6,-2 -6,-1 -5,-2 -4,-2 -4,-2 -3,-2 c 0,0 0,0 0,-1 l -2,-2 c 0,0 0,0 -1,0 l -1,-2 0,0 -1,-3 0,-2 0,1 -2,-3 0,0 -3,-2 1,0 -4,-2 -5,-2 -6,-2 -7,-1 -7,-2 -8,-2 -9,-1 -9,-1 -9,-2 -20,-1 -20,-1 0,-1 z m 181,38 11,10 -11,9"
             style="fill:#000000;fill-opacity:1;fill-rule:nonzero;stroke:none"
             id="path7674"
             inkscape:connector-curvature="0" /></g></g><path
         d="m 339.12,369.12 1.2,0 1.44,-0.24 0.48,0 0.24,-0.24 0,0 0.24,0 c 0,0 0,0 0.24,0 l 0,-0.24 0.48,0 0.48,-0.24 3.12,0 1.92,-0.24 5.04,0 0,-0.48 -2.88,0 -2.16,0.24 -3.84,0 -0.48,0.24 -1.92,0 0,0.24 0,0 0,0 -0.24,0 0.24,0 -0.24,0.24 -0.96,0 -1.2,0.24 -1.2,0 0,0.48 z m 14.4,0.72 2.64,-2.16 -2.64,-2.16"
         style="fill:#000000;fill-opacity:1;fill-rule:nonzero;stroke:none"
         id="path7676"
         inkscape:connector-curvature="0" /><path
         d="m 394.56,359.52 -0.24,-1.44 0,-1.44 -0.24,-1.44 -0.48,-1.44 -0.96,-2.64 -0.48,-1.2 -0.72,-1.2 -0.48,-1.2 -0.96,-0.96 -0.72,-0.72 -0.72,-0.72 -0.96,-0.72 -0.96,-0.24 c 0,0 0,0 0,-0.24 l -0.72,-0.24 c 0,0 0,0 -0.24,0 l -1.68,0 0,0 -0.72,-0.24 0,0 -0.96,-0.48 -0.72,-0.48 -0.72,-0.72 -0.96,-0.96 -0.72,-0.96 -0.48,-0.96 -0.72,-1.2 -0.48,-1.2 -0.96,-2.64 -0.48,-1.2 -0.24,-1.44 0,-0.72 -0.48,0 0.24,0.72 0.24,1.44 0.24,1.44 0.96,2.64 0.48,1.2 0.72,1.2 0.72,0.96 0.72,0.96 0.72,0.96 0.96,0.72 0.72,0.48 0.96,0.48 0,0 0.96,0.24 0,0 0.96,0.24 0.72,0 0,0 0.96,0.24 0,0 0.72,0.48 0.96,0.48 0.72,0.72 0.72,0.72 0.72,0.96 0.72,1.2 0.48,0.96 0.72,1.2 0.96,2.64 0.24,1.44 0.24,1.44 0.24,1.44 0,1.44 0.48,0 z m -16.8,-28.8 -2.16,-2.4 -2.16,2.64"
         style="fill:#000000;fill-opacity:1;fill-rule:nonzero;stroke:none"
         id="path7678"
         inkscape:connector-curvature="0" /><path
         d="m 263.76,323.76 c 0,-0.96 4.8,-1.92 10.8,-1.92 5.76,0 10.56,0.96 10.56,1.92 0,1.2 4.8,1.92 10.8,1.92 5.76,0 10.56,-0.72 10.56,-1.92 l 0,-15.6 c 0,0.96 -4.8,1.92 -10.56,1.92 -6,0 -10.8,-0.96 -10.8,-1.92 0,-1.2 -4.8,-2.16 -10.56,-2.16 -6,0 -10.8,0.96 -10.8,2.16 l 0,15.6 z"
         style="fill:none;stroke:#000000;stroke-width:0.424584;stroke-linecap:butt;stroke-linejoin:miter;stroke-miterlimit:8;stroke-dasharray:none;stroke-opacity:1"
         id="path7680"
         inkscape:connector-curvature="0" /><g
         id="g7682"><text
           transform="matrix(1,0,0,-1,271.2,312.48)"
           style="font-variant:normal;font-weight:bold;font-size:7.92000008px;font-family:Arial;-inkscape-font-specification:Arial-BoldMT;writing-mode:lr-tb;fill:#000000;fill-opacity:1;fill-rule:nonzero;stroke:none"
           id="text7684"><tspan
             x="0 5.7586699 7.9200001 12.238793 16.557587 20.876381 23.51771"
             y="0"
             sodipodi:role="line"
             id="tspan7686">Clave 1</tspan></text>
</g><path
         d="m 306.48,316.08 25.44,-1.92 0,-0.48 -25.44,1.92 0,0.48 z m 25.2,0 2.4,-2.4 -2.88,-1.92"
         style="fill:#000000;fill-opacity:1;fill-rule:nonzero;stroke:none"
         id="path7688"
         inkscape:connector-curvature="0" /><g
         transform="scale(0.24,0.24)"
         id="g7690"><g
           id="g7692"
           clip-path="url(#clipPath7694)"><path
             d="m 660,870 149,174 593,0 -148,-174 -594,0 z"
             style="fill:none;stroke:#000000;stroke-width:1.76909995;stroke-linecap:butt;stroke-linejoin:miter;stroke-miterlimit:8;stroke-dasharray:none;stroke-opacity:1"
             id="path7698"
             inkscape:connector-curvature="0" /></g></g><g
         id="g7700"><text
           transform="matrix(1,0,0,-1,205.68,238.56)"
           style="font-variant:normal;font-weight:bold;font-size:10.56000042px;font-family:Arial;-inkscape-font-specification:Arial-BoldMT;writing-mode:lr-tb;fill:#000000;fill-opacity:1;fill-rule:nonzero;stroke:none"
           id="text7702"><tspan
             x="0 8.8799171 14.878309 21.360001 27.118391 33.116783 35.998558 41.996948 44.878723 48.478638 51.360413 55.678722 65.037033 71.035423 77.517113 83.758804"
             y="0"
             sodipodi:role="line"
             id="tspan7704">Mensaje firmado </tspan><tspan
             x="0.95999998 4.5599174 8.1598349 13.918226 19.916618 23.516535 29.998226 32.880001 38.638393 45.120083 48.241856 54.000248 57.122021 62.880413 67.198723 73.680412 76.562187 82.802353"
             y="12.72"
             sodipodi:role="line"
             id="tspan7706">(texto en claro + </tspan><tspan
             x="27.120001 30.719917 33.601692 37.920002 47.278309 53.276699"
             y="25.440001"
             sodipodi:role="line"
             id="tspan7708">firma)</tspan></text>
</g><path
         d="m 324,269.28 12,16.32 48.24,0 -12,-16.32 -48.24,0 z"
         style="fill:none;stroke:#000000;stroke-width:0.424584;stroke-linecap:butt;stroke-linejoin:miter;stroke-miterlimit:8;stroke-dasharray:none;stroke-opacity:1"
         id="path7710"
         inkscape:connector-curvature="0" /><g
         id="g7712"><text
           transform="matrix(1,0,0,-1,339.6,273.84)"
           style="font-variant:normal;font-weight:bold;font-size:10.56000042px;font-family:Arial;-inkscape-font-specification:Arial-BoldMT;writing-mode:lr-tb;fill:#000000;fill-opacity:1;fill-rule:nonzero;stroke:none"
           id="text7714"><tspan
             x="0 6.4816914 9.3634653 13.681774 23.040083"
             y="0"
             sodipodi:role="line"
             id="tspan7716">Firma</tspan></text>
</g><path
         d="m 375.6,299.28 0,-1.44 0,0 -0.48,-1.2 -0.24,0 -0.72,-1.2 0,0 -0.96,-0.96 0,0 -1.2,-0.96 0,0 -1.2,-0.72 c 0,0 0,0 -0.24,0 l -1.2,-0.48 0,0 -1.44,0 -1.44,-0.24 0,0 -1.44,-0.48 0,0 -1.2,-0.48 0,0 -1.2,-0.96 0,0 -0.96,-0.96 0,0 -0.72,-1.44 -0.48,0.24 0.96,1.44 0,0 0.96,0.96 0,0 1.2,0.96 0,0 1.2,0.72 0.24,0 1.2,0.48 c 0,0 0,0 0.24,0 l 1.2,0.24 1.44,0 0,0 1.44,0.48 0,0 1.2,0.72 0,0 1.2,0.72 0,0 0.96,0.96 0,0 0.72,1.2 0,0 0.48,1.2 0,0 0.24,1.2 0.24,0 z m -12.72,-11.52 -2.64,-2.16 -1.44,3.12"
         style="fill:#000000;fill-opacity:1;fill-rule:nonzero;stroke:none"
         id="path7718"
         inkscape:connector-curvature="0" /><path
         d="m 184.8,336.72 0,-2.16 0.24,-1.92 0.48,-4.08 0.96,-3.84 0.96,-3.84 1.44,-3.84 1.68,-3.6 1.92,-3.36 2.16,-3.12 2.4,-2.88 2.4,-2.64 2.64,-2.4 1.2,-0.96 1.44,-0.96 1.44,-0.72 1.44,-0.96 1.44,-0.48 1.44,-0.48 1.44,-0.48 1.44,-0.24 1.44,-0.24 1.44,0 1.44,-0.24 1.44,0 1.44,-0.48 1.44,-0.24 1.44,-0.72 1.44,-0.48 1.44,-0.72 1.44,-0.96 1.2,-0.96 1.44,-0.96 2.64,-2.16 2.4,-2.64 2.16,-2.88 2.16,-3.12 1.92,-3.36 1.68,-3.6 1.44,-3.6 0.96,-3.84 0.96,-4.08 0.48,-3.84 0,-1.92 0.48,0 0,1.92 -0.48,4.08 -0.96,3.84 -1.2,3.84 -1.44,3.84 -1.68,3.6 -1.92,3.36 -1.92,3.12 -2.4,2.88 -2.4,2.64 -2.64,2.4 -1.44,0.96 -1.2,0.96 -1.44,0.72 -1.44,0.72 -1.44,0.72 -1.44,0.48 -1.44,0.48 -1.44,0.24 -1.44,0.24 -1.68,0 -1.44,0.24 -1.44,0 -1.44,0.48 -1.44,0.24 -1.44,0.48 -1.2,0.72 -1.44,0.72 -1.44,0.96 -1.44,0.72 -1.2,1.2 -2.64,2.16 -2.4,2.64 -2.16,2.88 -2.16,3.12 -1.92,3.36 -1.68,3.6 -1.44,3.6 -1.2,3.84 -0.72,3.84 -0.48,4.08 -0.24,1.92 0,2.16 -0.48,0 z m 60.48,-83.52 2.4,-2.64 1.92,2.64"
         style="fill:#000000;fill-opacity:1;fill-rule:nonzero;stroke:none"
         id="path7720"
         inkscape:connector-curvature="0" /><path
         d="m 348.24,269.28 0,-0.48 0,0 -0.24,-0.48 0,0 -0.24,-0.48 c 0,0 0,0 -0.24,0 l -0.24,-0.48 -0.48,-0.48 -0.72,-0.24 -0.72,-0.48 -0.72,-0.48 -0.96,-0.48 -0.96,-0.24 -2.16,-0.96 -2.64,-0.72 -2.88,-0.72 -2.88,-0.48 -3.36,-0.72 -3.36,-0.48 -3.6,-0.24 -3.6,-0.48 -3.84,-0.24 -3.84,0 -3.84,-0.24 -3.84,0 -3.84,-0.24 -3.84,-0.24 -3.6,-0.24 -3.6,-0.48 -3.36,-0.48 -3.36,-0.48 -2.88,-0.72 -2.88,-0.72 -2.4,-0.72 -2.16,-0.72 -0.96,-0.48 -0.96,-0.24 -0.72,-0.48 -0.72,-0.48 0,0 -0.72,-0.72 -0.48,0.24 0.96,0.96 0,0 0.72,0.24 0.72,0.48 0.96,0.48 0.96,0.48 2.16,0.72 2.64,0.72 2.64,0.72 3.12,0.48 3.36,0.72 3.36,0.48 3.6,0.48 3.6,0.24 3.84,0.24 3.84,0.24 7.68,0 3.84,0.24 3.84,0.24 3.6,0.24 3.6,0.48 3.36,0.48 3.36,0.72 2.88,0.48 2.88,0.72 2.4,0.72 2.16,0.72 0.96,0.48 0.96,0.48 0.72,0.24 0.72,0.48 0.48,0.48 0.72,0.24 0.24,0.48 0,0 0.24,0.48 0,0 0.24,0.48 0,-0.24 0,0.48 0.48,0 z m -79.44,-17.76 -3.36,-0.96 -0.48,3.36"
         style="fill:#000000;fill-opacity:1;fill-rule:nonzero;stroke:none"
         id="path7722"
         inkscape:connector-curvature="0" /></g></g></svg>