<?xml version="1.0" encoding="UTF-8" standalone="no"?>
<!-- Created with Inkscape (http://www.inkscape.org/) -->

<svg
   xmlns:dc="http://purl.org/dc/elements/1.1/"
   xmlns:cc="http://creativecommons.org/ns#"
   xmlns:rdf="http://www.w3.org/1999/02/22-rdf-syntax-ns#"
   xmlns:svg="http://www.w3.org/2000/svg"
   xmlns="http://www.w3.org/2000/svg"
   xmlns:sodipodi="http://sodipodi.sourceforge.net/DTD/sodipodi-0.dtd"
   xmlns:inkscape="http://www.inkscape.org/namespaces/inkscape"
   id="svg8477"
   version="1.1"
   inkscape:version="0.91 r13725"
   xml:space="preserve"
   width="407.23685"
   height="234.86157"
   viewBox="0 0 407.23685 234.86157"
   sodipodi:docname="firma-digital-comprobacion.svg"><metadata
     id="metadata8483"><rdf:RDF><cc:Work
         rdf:about=""><dc:format>image/svg+xml</dc:format><dc:type
           rdf:resource="http://purl.org/dc/dcmitype/StillImage" /><dc:title></dc:title></cc:Work></rdf:RDF></metadata><defs
     id="defs8481"><clipPath
       clipPathUnits="userSpaceOnUse"
       id="clipPath8493"><path
         d="m 0,147 0,3212 2479,0 0,-3212 -2479,0 z"
         id="path8495"
         inkscape:connector-curvature="0" /></clipPath><clipPath
       clipPathUnits="userSpaceOnUse"
       id="clipPath8503"><path
         d="m 0,147 2479,0 0,3212 L 0,3359 0,147 Z"
         id="path8505"
         inkscape:connector-curvature="0" /></clipPath><clipPath
       clipPathUnits="userSpaceOnUse"
       id="clipPath8513"><path
         d="m 0,147 0,3212 2479,0 0,-3212 -2479,0 z"
         id="path8515"
         inkscape:connector-curvature="0" /></clipPath><clipPath
       clipPathUnits="userSpaceOnUse"
       id="clipPath8523"><path
         d="m 290,431 583,0 0,118 -583,0 0,-118 z"
         id="path8525"
         inkscape:connector-curvature="0" /></clipPath><clipPath
       clipPathUnits="userSpaceOnUse"
       id="clipPath8541"><path
         d="m 873,431 182,0 0,118 -182,0 0,-118 z"
         id="path8543"
         inkscape:connector-curvature="0" /></clipPath><clipPath
       clipPathUnits="userSpaceOnUse"
       id="clipPath8557"><path
         d="m 0,147 0,3212 2479,0 0,-3212 -2479,0 z"
         id="path8559"
         inkscape:connector-curvature="0" /></clipPath><clipPath
       clipPathUnits="userSpaceOnUse"
       id="clipPath8655"><path
         d="m 562,2258 1359,0 0,809 -1359,0 0,-809 z"
         id="path8657"
         inkscape:connector-curvature="0"
         style="clip-rule:evenodd" /></clipPath><clipPath
       clipPathUnits="userSpaceOnUse"
       id="clipPath8685"><path
         d="m 562,2258 1359,0 0,809 -1359,0 0,-809 z"
         id="path8687"
         inkscape:connector-curvature="0"
         style="clip-rule:evenodd" /></clipPath><clipPath
       clipPathUnits="userSpaceOnUse"
       id="clipPath8719"><path
         d="m 562,2258 1359,0 0,809 -1359,0 0,-809 z"
         id="path8721"
         inkscape:connector-curvature="0"
         style="clip-rule:evenodd" /></clipPath><clipPath
       clipPathUnits="userSpaceOnUse"
       id="clipPath8753"><path
         d="m 562,2258 1359,0 0,809 -1359,0 0,-809 z"
         id="path8755"
         inkscape:connector-curvature="0"
         style="clip-rule:evenodd" /></clipPath></defs><sodipodi:namedview
     pagecolor="#ffffff"
     bordercolor="#666666"
     borderopacity="1"
     objecttolerance="10"
     gridtolerance="10"
     guidetolerance="10"
     inkscape:pageopacity="0"
     inkscape:pageshadow="2"
     inkscape:window-width="1600"
     inkscape:window-height="836"
     id="namedview8479"
     showgrid="false"
     fit-margin-top="0"
     fit-margin-left="0"
     fit-margin-right="0"
     fit-margin-bottom="0"
     inkscape:zoom="0.31710632"
     inkscape:cx="-1102.2907"
     inkscape:cy="-266.63038"
     inkscape:window-x="0"
     inkscape:window-y="27"
     inkscape:window-maximized="1"
     inkscape:current-layer="g8485" /><g
     id="g8485"
     inkscape:groupmode="layer"
     inkscape:label="Microsoft_Word_-_SI-T-05-Privacidadconfidencialidad"
     transform="matrix(1.25,0,0,-1.25,-168.6,918.28078)"><g
       id="g8489"
       transform="scale(0.24,0.24)"><g
         clip-path="url(#clipPath8493)"
         id="g8491"><g
           transform="scale(4.16667,4.16667)"
           id="g8497" /></g></g><g
       id="g8509"
       transform="scale(0.24,0.24)"><g
         clip-path="url(#clipPath8513)"
         id="g8511"><g
           transform="scale(4.16667,4.16667)"
           id="g8517" /></g></g><path
       inkscape:connector-curvature="0"
       id="path8641"
       style="fill:none;stroke:#000000;stroke-width:0.449256;stroke-linecap:butt;stroke-linejoin:miter;stroke-miterlimit:8;stroke-dasharray:none;stroke-opacity:1"
       d="m 153.84,695.52 87.6,0 0,30.72 -87.6,0 0,-30.72 z" /><g
       id="g8643"><text
         id="text8645"
         style="font-variant:normal;font-weight:bold;font-size:11.27999973px;font-family:Arial;-inkscape-font-specification:Arial-BoldMT;writing-mode:lr-tb;fill:#000000;fill-opacity:1;fill-rule:nonzero;stroke:none"
         transform="matrix(1,0,0,-1,175.92,713.76)"><tspan
           id="tspan8647"
           sodipodi:role="line"
           y="0"
           x="0 6.9618063 13.923613 20.64542 26.883701 30.005596 36.967403 43.689209">Función </tspan><tspan
           id="tspan8649"
           sodipodi:role="line"
           y="13.44"
           x="-1.6799999 2.8781939 9.1164751 15.354757 22.076563 32.154758 38.39304">resumen</tspan></text>
</g><g
       id="g8651"
       transform="scale(0.24,0.24)"><g
         clip-path="url(#clipPath8655)"
         id="g8653"><path
           inkscape:connector-curvature="0"
           id="path8659"
           style="fill:none;stroke:#000000;stroke-width:1.87189996;stroke-linecap:butt;stroke-linejoin:miter;stroke-miterlimit:8;stroke-dasharray:none;stroke-opacity:1"
           d="m 575,2577 56,184 222,0 -55,-184 -223,0 z" /></g></g><g
       id="g8661"><text
         id="text8663"
         style="font-variant:normal;font-weight:bold;font-size:11.27999973px;font-family:Arial;-inkscape-font-specification:Arial-BoldMT;writing-mode:lr-tb;fill:#000000;fill-opacity:1;fill-rule:nonzero;stroke:none"
         transform="matrix(1,0,0,-1,156.96,650.16)"><tspan
           id="tspan8665"
           sodipodi:role="line"
           y="0"
           x="0 6.0018072 12.240088 18.478371 22.078281 29.040089">Texto </tspan><tspan
           id="tspan8667"
           sodipodi:role="line"
           y="13.68"
           x="7.9200001 14.158281 20.880087">en </tspan><tspan
           id="tspan8669"
           sodipodi:role="line"
           y="27.120001"
           x="0.95999998 7.1982818 10.320176 16.558458 20.876652">claro</tspan></text>
</g><path
       inkscape:connector-curvature="0"
       id="path8671"
       style="fill:none;stroke:#000000;stroke-width:0.449256;stroke-linecap:butt;stroke-linejoin:miter;stroke-miterlimit:8;stroke-dasharray:none;stroke-opacity:1"
       d="m 350.4,624 87.36,0 0,30.72 -87.36,0 0,-30.72 z" /><g
       id="g8673"><text
         id="text8675"
         style="font-variant:normal;font-weight:bold;font-size:11.27999973px;font-family:Arial;-inkscape-font-specification:Arial-BoldMT;writing-mode:lr-tb;fill:#000000;fill-opacity:1;fill-rule:nonzero;stroke:none"
         transform="matrix(1,0,0,-1,363.84,642)"><tspan
           id="tspan8677"
           sodipodi:role="line"
           y="0"
           x="0 7.4400883 11.758282 18.720089 24.95837 31.196651 37.434933 44.156738 47.518635 54.24044 60.478722">Proceso de </tspan><tspan
           id="tspan8679"
           sodipodi:role="line"
           y="13.44"
           x="-8.1599998 -1.4381939 4.8000879 11.038369 17.276651 24.238457 30.47674 34.794933 37.916828 44.878635 48.478546 54.716827 61.678635">desencriptado</tspan></text>
</g><g
       id="g8681"
       transform="scale(0.24,0.24)"><g
         clip-path="url(#clipPath8685)"
         id="g8683"><path
           inkscape:connector-curvature="0"
           id="path8689"
           style="fill:none;stroke:#000000;stroke-width:1.87189996;stroke-linecap:butt;stroke-linejoin:miter;stroke-miterlimit:8;stroke-dasharray:none;stroke-opacity:1"
           d="m 1498,2787 84,184 336,0 -84,-184 -336,0 z" /></g></g><g
       id="g8691"><text
         id="text8693"
         style="font-variant:normal;font-weight:bold;font-size:11.27999973px;font-family:Arial;-inkscape-font-specification:Arial-BoldMT;writing-mode:lr-tb;fill:#000000;fill-opacity:1;fill-rule:nonzero;stroke:none"
         transform="matrix(1,0,0,-1,384.72,700.56)"><tspan
           id="tspan8695"
           sodipodi:role="line"
           y="0"
           x="0 8.1581049 14.396387 20.634668 27.596476 37.434669 43.672951 50.634758">Resumen </tspan><tspan
           id="tspan8697"
           sodipodi:role="line"
           y="13.44"
           x="12.48 19.441807 25.680088 28.801983 31.923878 38.162159">de la </tspan><tspan
           id="tspan8699"
           sodipodi:role="line"
           y="27.120001"
           x="11.52 15.359912 18.481806 22.799999 32.878193">firma</tspan></text>
</g><path
       inkscape:connector-curvature="0"
       id="path8701"
       style="fill:#000000;fill-opacity:1;fill-rule:nonzero;stroke:none"
       d="m 177.84,662.64 0,1.68 0.24,1.44 0.24,1.44 0.48,1.44 0.96,2.88 0.48,1.2 0.72,1.44 0.72,0.96 0.72,0.96 0.96,0.96 0.72,0.72 0.96,0.72 0,0 0.96,0.48 0,0 0.96,0.24 0,0 0.96,0 0.96,0.24 0,0 0.72,0.24 0,0 0.96,0.48 0,0 0.96,0.48 0.72,0.72 0.72,0.96 0.72,0.96 0.72,0.96 0.72,1.2 0.72,1.44 0.96,2.64 0.24,1.44 0.24,1.68 0,0.72 0.48,-0.24 0,-0.72 -0.24,-1.44 -0.48,-1.44 -0.96,-2.88 -0.48,-1.2 -0.72,-1.44 -0.72,-0.96 -0.72,-0.96 -0.96,-0.96 -0.72,-0.72 -0.96,-0.72 0,0 -0.96,-0.48 0,0 -0.96,-0.24 0,0 -0.96,0 -0.96,-0.24 0,0 -0.72,-0.24 0,0 -0.96,-0.48 0,0 -0.72,-0.48 -0.96,-0.72 -0.72,-0.96 -0.72,-0.96 -0.72,-0.96 -0.72,-1.2 -0.72,-1.44 -0.96,-2.64 -0.24,-1.44 -0.24,-1.44 -0.24,-1.68 0,-1.44 -0.48,0 z m 17.28,30.24 2.64,2.64 2.16,-2.88" /><path
       inkscape:connector-curvature="0"
       id="path8703"
       style="fill:#000000;fill-opacity:1;fill-rule:nonzero;stroke:none"
       d="m 393.84,654.72 0,0.72 0.24,0.72 0,0 0.48,1.2 0,0 0.72,1.2 c 0.24,0 0.24,0 0.24,0 l 0.96,1.2 0,0 1.2,0.96 0,0 1.44,0.72 0,0 1.44,0.48 0,0 1.44,0 1.44,0.24 0,0 1.44,0.48 0,0 1.2,0.72 0,0 1.2,0.72 0,0 0.96,1.2 0,0 0.96,1.44 0.24,-0.24 -0.72,-1.44 c 0,0 0,0 0,-0.24 l -0.96,-0.96 c 0,0 0,0 -0.24,0 l -1.2,-0.96 0,0 -1.2,-0.72 0,0 -1.44,-0.48 c 0,0 0,0 -0.24,0 l -1.44,-0.24 -1.44,0 0,0 -1.44,-0.48 0.24,0 -1.44,-0.72 0,0 -1.2,-0.96 0,0.24 -0.96,-1.2 0,0 -0.72,-1.2 0,0 -0.48,-1.2 0,0 -0.24,-0.48 0,-0.72 -0.48,0 z m 13.2,12 2.88,2.16 1.68,-3.36" /><path
       inkscape:connector-curvature="0"
       id="path8705"
       style="fill:none;stroke:#000000;stroke-width:0.449256;stroke-linecap:butt;stroke-linejoin:miter;stroke-miterlimit:8;stroke-dasharray:none;stroke-opacity:1"
       d="m 270.72,642 c 0,-0.96 5.04,-1.92 11.28,-1.92 6.24,0 11.28,0.96 11.28,1.92 0,1.2 5.04,2.16 11.28,2.16 6.24,0 11.28,-0.96 11.28,-2.16 l 0,-16.56 c 0,1.2 -5.04,2.16 -11.28,2.16 -6.24,0 -11.28,-0.96 -11.28,-2.16 0,-1.2 -5.04,-2.16 -11.28,-2.16 -6.24,0 -11.28,0.96 -11.28,2.16 l 0,16.56 z" /><g
       id="g8707"><text
         id="text8709"
         style="font-variant:normal;font-weight:bold;font-size:8.39999962px;font-family:Arial;-inkscape-font-specification:Arial-BoldMT;writing-mode:lr-tb;fill:#000000;fill-opacity:1;fill-rule:nonzero;stroke:none"
         transform="matrix(1,0,0,-1,278.64,630)"><tspan
           id="tspan8711"
           sodipodi:role="line"
           y="0"
           x="0 5.998589 8.3999996 13.19872 17.517441 22.31616 24.717571">Clave 2</tspan></text>
</g><path
       inkscape:connector-curvature="0"
       id="path8713"
       style="fill:#000000;fill-opacity:1;fill-rule:nonzero;stroke:none"
       d="m 315.84,633.6 32.16,5.04 0,0.48 -32.16,-5.28 0,-0.24 z m 32.16,2.88 2.4,2.88 -3.36,1.92" /><g
       id="g8715"
       transform="scale(0.24,0.24)"><g
         clip-path="url(#clipPath8719)"
         id="g8717"><path
           inkscape:connector-curvature="0"
           id="path8723"
           style="fill:none;stroke:#000000;stroke-width:1.87189996;stroke-linecap:butt;stroke-linejoin:miter;stroke-miterlimit:8;stroke-dasharray:none;stroke-opacity:1"
           d="m 564,2279 157,184 628,0 -157,-184 -628,0 z" /></g></g><g
       id="g8725"><text
         id="text8727"
         style="font-variant:normal;font-weight:bold;font-size:11.27999973px;font-family:Arial;-inkscape-font-specification:Arial-BoldMT;writing-mode:lr-tb;fill:#000000;fill-opacity:1;fill-rule:nonzero;stroke:none"
         transform="matrix(1,0,0,-1,185.28,578.4)"><tspan
           id="tspan8729"
           sodipodi:role="line"
           y="0"
           x="0 9.3599119 15.598193 22.559999 28.798281 35.036564 38.158459 44.39674 47.518635 51.358547 54.480442 58.798634 68.876831 75.115112 81.836914 88.798721">Mensaje firmado </tspan><tspan
           id="tspan8731"
           sodipodi:role="line"
           y="13.44"
           x="1.2 5.0399117 8.6398239 14.878105 21.116386 24.956299 31.918106 35.040001 41.278282 48.000088 51.121983 57.360264 60.482159 66.720444 71.278633 78.000443 81.122337 87.602509">(texto en claro + </tspan><tspan
           id="tspan8733"
           sodipodi:role="line"
           y="26.879999"
           x="28.559999 32.39991 35.521805 39.84 49.918194 56.156475">firma)</tspan></text>
</g><path
       inkscape:connector-curvature="0"
       id="path8735"
       style="fill:none;stroke:#000000;stroke-width:0.449256;stroke-linecap:butt;stroke-linejoin:miter;stroke-miterlimit:8;stroke-dasharray:none;stroke-opacity:1"
       d="m 363.6,579.12 12.72,17.28 50.88,0 -12.72,-17.28 -50.88,0 z" /><g
       id="g8737"><text
         id="text8739"
         style="font-variant:normal;font-weight:bold;font-size:11.27999973px;font-family:Arial;-inkscape-font-specification:Arial-BoldMT;writing-mode:lr-tb;fill:#000000;fill-opacity:1;fill-rule:nonzero;stroke:none"
         transform="matrix(1,0,0,-1,380.16,583.68)"><tspan
           id="tspan8741"
           sodipodi:role="line"
           y="0"
           x="0 6.9618063 10.083701 14.401895 24.480087">Firma</tspan></text>
</g><path
       inkscape:connector-curvature="0"
       id="path8743"
       style="fill:#000000;fill-opacity:1;fill-rule:nonzero;stroke:none"
       d="m 395.52,596.4 0,9.36 -0.24,0.96 0,2.88 -0.24,0.24 0,0.24 c 0,0 0,0 0,0.24 l -0.24,0 0.24,0 -0.24,0.24 0,1.44 -0.24,0.72 0,3.84 -0.24,2.4 0,2.64 -0.48,0 0.24,-2.64 0,-6.24 0.24,-0.72 0,-1.68 0.24,-0.24 0,0 0,-0.24 0,0.24 0,-0.24 0.24,-0.48 0,-1.68 0.24,-0.96 0,-5.28 0.24,-2.4 0,-2.64 0.24,0 z m 0.96,24.72 -2.4,2.88 -2.16,-2.88" /><path
       inkscape:connector-curvature="0"
       id="path8745"
       style="fill:#000000;fill-opacity:1;fill-rule:nonzero;stroke:none"
       d="m 229.92,591.12 -0.24,1.2 0,0 -0.48,1.44 0,0 -0.72,1.2 c -0.24,0 -0.24,0 -0.24,0 l -0.96,1.2 -1.44,1.2 -1.44,1.2 -1.92,1.2 -1.92,0.96 -2.16,0.96 -2.16,0.72 -2.4,0.72 -2.64,0.72 -2.64,0.48 -2.64,0.48 -2.64,0 -2.88,0.24 -2.64,0 -2.64,0.24 -2.64,0.48 -2.64,0.48 -2.4,0.48 -2.4,0.72 -2.4,0.96 -2.16,0.96 -1.92,0.96 -1.68,0.96 -1.44,1.2 -1.44,1.2 -0.96,1.2 0,-0.24 -0.72,1.68 -0.48,-0.24 0.72,-1.44 c 0,0 0,-0.24 0.24,-0.24 l 0.96,-1.2 1.44,-1.2 1.44,-1.2 1.92,-0.96 1.92,-0.96 2.16,-0.96 2.16,-0.96 2.4,-0.72 2.64,-0.48 2.64,-0.48 2.64,-0.48 2.64,-0.24 5.52,0 2.64,-0.24 2.64,-0.48 2.64,-0.48 2.4,-0.72 2.4,-0.72 2.4,-0.72 1.92,-0.96 1.92,-0.96 1.92,-0.96 1.44,-1.2 1.44,-1.2 0.96,-1.2 0,0 0.72,-1.2 0,0 0.48,-1.2 0,0 0.24,-1.2 0.48,0 z m -55.44,25.2 -3.12,2.16 -1.44,-3.36" /><path
       inkscape:connector-curvature="0"
       id="path8747"
       style="fill:#000000;fill-opacity:1;fill-rule:nonzero;stroke:none"
       d="m 304.56,568.8 7.92,0 7.92,0.24 7.68,0.24 7.44,0.24 7.44,0.48 3.36,0.24 3.6,0.48 3.36,0.24 3.12,0.24 3.12,0.24 3.12,0.48 2.88,0.24 2.64,0.48 2.64,0.48 2.64,0.24 2.4,0.48 2.16,0.48 1.92,0.48 1.68,0.24 1.68,0.48 1.44,0.48 1.44,0.48 0,0 1.2,0.72 -0.24,0.48 -1.2,-0.72 0,0 -1.2,-0.48 -1.44,-0.48 -1.68,-0.48 -1.68,-0.48 -2.16,-0.24 -2.16,-0.48 -2.16,-0.48 -2.64,-0.48 -2.64,-0.24 -2.64,-0.48 -2.88,-0.24 -3.12,-0.48 -3.12,-0.24 -3.36,-0.24 -3.36,-0.48 -3.36,-0.24 -3.6,-0.24 -7.2,-0.48 -7.44,-0.24 -7.68,-0.24 -7.92,-0.24 -7.92,0 0,-0.48 z m 84,6.72 0.24,3.6 -3.6,-0.24" /><g
       id="g8749"
       transform="scale(0.24,0.24)"><g
         clip-path="url(#clipPath8753)"
         id="g8751"><path
           inkscape:connector-curvature="0"
           id="path8757"
           style="fill:none;stroke:#000000;stroke-width:1.87189996;stroke-linecap:butt;stroke-linejoin:miter;stroke-miterlimit:8;stroke-dasharray:none;stroke-opacity:1"
           d="m 1051,2875 84,185 336,0 -84,-185 -336,0 z" /></g></g><g
       id="g8759"><text
         id="text8761"
         style="font-variant:normal;font-weight:bold;font-size:11.27999973px;font-family:Arial;-inkscape-font-specification:Arial-BoldMT;writing-mode:lr-tb;fill:#000000;fill-opacity:1;fill-rule:nonzero;stroke:none"
         transform="matrix(1,0,0,-1,277.44,721.68)"><tspan
           id="tspan8763"
           sodipodi:role="line"
           y="0"
           x="0 7.9181056 14.156387 20.394669 27.356476 37.434669 43.672951 50.394756">Resumen </tspan><tspan
           id="tspan8765"
           sodipodi:role="line"
           y="13.44"
           x="17.040001 23.761806 30.000088 33.121983">del </tspan><tspan
           id="tspan8767"
           sodipodi:role="line"
           y="26.879999"
           x="2.6400001 12.478194 18.716475 25.678282 31.916563 38.154846 41.276741">mensaje</tspan></text>
</g><path
       inkscape:connector-curvature="0"
       id="path8769"
       style="fill:#000000;fill-opacity:1;fill-rule:nonzero;stroke:none"
       d="m 241.44,710.64 1.92,0.24 1.68,0 0.72,0.24 0.48,0 0.48,0.24 0,0 0.24,0 0.24,0 0.24,0.24 2.16,0 0.96,0.24 9.36,0 0,0.48 -8.4,0 -0.96,-0.24 -3.12,0 -0.48,-0.24 -0.24,0 0,0 0,0 c 0,0 0,0 -0.24,0 l 0,-0.24 -0.24,0 -0.48,-0.24 -1.44,0 -0.96,-0.24 -1.92,0 0,-0.48 z m 18,-0.72 2.64,2.16 -2.64,2.4" /><g
       id="g8771"><text
         id="text8773"
         style="font-variant:normal;font-weight:bold;font-size:18.71999931px;font-family:Arial;-inkscape-font-specification:Arial-BoldMT;writing-mode:lr-tb;fill:#000000;fill-opacity:1;fill-rule:nonzero;stroke:none"
         transform="matrix(1,0,0,-1,356.64,709.2)"><tspan
           id="tspan8775"
           y="0"
           x="0">?</tspan></text>
</g><path
       inkscape:connector-curvature="0"
       id="path8777"
       style="fill:#000000;fill-opacity:1;fill-rule:nonzero;stroke:none"
       d="m 346.08,709.68 20.4,-15.84 -0.24,-0.48 -20.4,16.08 0.24,0.24 z m -1.2,-2.16 -2.16,4.56 5.04,-0.96 -2.88,-3.6 z m 22.56,-11.76 2.16,-4.8 -5.04,0.96" /></g></svg>