<?xml version="1.0" encoding="iso-8859-1"?>
<!-- Generator: Adobe Illustrator 17.1.0, SVG Export Plug-In . SVG Version: 6.00 Build 0)  -->
<!DOCTYPE svg PUBLIC "-//W3C//DTD SVG 1.1//EN" "http://www.w3.org/Graphics/SVG/1.1/DTD/svg11.dtd">
<svg version="1.1" id="Capa_1" xmlns="http://www.w3.org/2000/svg" xmlns:xlink="http://www.w3.org/1999/xlink" x="0px" y="0px"
	 viewBox="0 0 426.593 426.593" style="enable-background:new 0 0 426.593 426.593;" xml:space="preserve">
<g>
	<path d="M322.23,111.743c-6.903,0-12.5,5.596-12.5,12.5v57.685c0,53.174-43.26,96.434-96.434,96.434s-96.434-43.26-96.434-96.434
		v-57.685c0-6.904-5.597-12.5-12.5-12.5s-12.5,5.596-12.5,12.5v57.685c0,62.739,47.825,114.517,108.934,120.794v98.871h-53.562
		c-6.903,0-12.5,5.597-12.5,12.5s5.597,12.5,12.5,12.5h132.123c6.903,0,12.5-5.597,12.5-12.5s-5.597-12.5-12.5-12.5h-53.562v-98.871
		c61.108-6.277,108.934-58.055,108.934-120.794v-57.685C334.73,117.339,329.133,111.743,322.23,111.743z"/>
	<path d="M213.296,263.71c46.762,0,84.806-38.043,84.806-84.805v-94.1C298.102,38.043,260.058,0,213.296,0
		s-84.806,38.043-84.806,84.805v94.1C128.491,225.667,166.535,263.71,213.296,263.71z"/>
</g>
<g>
</g>
<g>
</g>
<g>
</g>
<g>
</g>
<g>
</g>
<g>
</g>
<g>
</g>
<g>
</g>
<g>
</g>
<g>
</g>
<g>
</g>
<g>
</g>
<g>
</g>
<g>
</g>
<g>
</g>
</svg>
