<?xml version="1.0" encoding="iso-8859-1"?>
<!-- Generator: Adobe Illustrator 19.0.0, SVG Export Plug-In . SVG Version: 6.00 Build 0)  -->
<svg version="1.1" id="Layer_1" xmlns="http://www.w3.org/2000/svg" xmlns:xlink="http://www.w3.org/1999/xlink" x="0px" y="0px"
	 viewBox="0 0 458 458" style="enable-background:new 0 0 458 458;" xml:space="preserve">
<g id="XMLID_215_">
	<g>
		<path d="M427,12.891H31c-17.093,0-31,13.907-31,31v277c0,17.093,13.907,31,31,31h141.243v38.805h-14.161
			c-15.002,0-27.206,12.205-27.206,27.207c0,15.001,12.205,27.206,27.206,27.206H299.92c15.001,0,27.206-12.205,27.206-27.206
			c0-15.002-12.205-27.207-27.206-27.207h-14.161v-38.805H427c17.093,0,31-13.907,31-31v-277C458,26.798,444.093,12.891,427,12.891z
			 M228.7,333.891c-9.389,0-17-7.611-17-17c0-9.389,7.611-17,17-17s17,7.611,17,17C245.7,326.28,238.089,333.891,228.7,333.891z
			 M422.5,274.891c0,5.523-4.477,10-10,10h-367c-5.523,0-10-4.477-10-10v-217c0-5.523,4.477-10,10-10h367c5.523,0,10,4.477,10,10
			V274.891z"/>
	</g>
</g>
<g>
</g>
<g>
</g>
<g>
</g>
<g>
</g>
<g>
</g>
<g>
</g>
<g>
</g>
<g>
</g>
<g>
</g>
<g>
</g>
<g>
</g>
<g>
</g>
<g>
</g>
<g>
</g>
<g>
</g>
</svg>
