<?xml version="1.0" encoding="iso-8859-1"?>
<!-- Generator: Adobe Illustrator 19.0.0, SVG Export Plug-In . SVG Version: 6.00 Build 0)  -->
<svg version="1.1" id="Layer_1" xmlns="http://www.w3.org/2000/svg" xmlns:xlink="http://www.w3.org/1999/xlink" x="0px" y="0px"
	 viewBox="0 0 458 458" style="enable-background:new 0 0 458 458;" xml:space="preserve">
<g id="XMLID_728_">
	<g>
		<g>
			<path d="M74.997,187.592c6.893,0,12.5-5.608,12.5-12.5c0-6.893-5.607-12.5-12.5-12.5s-12.5,5.607-12.5,12.5
				S68.104,187.592,74.997,187.592z"/>
			<path d="M427,106.149H181.623V79.934c0-13.831-11.252-25.083-25.083-25.083H78.711c-13.831,0-25.083,11.252-25.083,25.083v26.215
				H31c-17.093,0-31,13.907-31,31v235c0,17.093,13.907,31,31,31h396c17.093,0,31-13.907,31-31v-235
				C458,120.056,444.093,106.149,427,106.149z M74.997,142.592c17.92,0,32.5,14.58,32.5,32.5s-14.58,32.5-32.5,32.5
				s-32.5-14.58-32.5-32.5S57.076,142.592,74.997,142.592z M171.623,351.836H52.497c-5.523,0-10-4.477-10-10s4.477-10,10-10h119.126
				c5.523,0,10,4.477,10,10S177.145,351.836,171.623,351.836z M383.407,339.373c-22.63,22.63-52.719,35.094-84.724,35.094
				c-32.004,0-62.093-12.463-84.723-35.094c-22.631-22.63-35.094-52.719-35.094-84.723c0-32.004,12.463-62.093,35.094-84.724
				c22.63-22.63,52.719-35.094,84.723-35.094c32.004,0,62.093,12.463,84.724,35.094c22.631,22.63,35.094,52.719,35.094,84.724
				S406.037,316.742,383.407,339.373z"/>
			<path d="M298.683,154.832c-55.127,0-99.817,44.689-99.817,99.817c0,55.127,44.69,99.817,99.817,99.817
				c55.127,0,99.817-44.69,99.817-99.817S353.811,154.832,298.683,154.832z M298.683,330.686c-41.927,0-76.037-34.11-76.037-76.037
				s34.11-76.037,76.037-76.037s76.037,34.11,76.037,76.037S340.61,330.686,298.683,330.686z"/>
			<path d="M298.683,198.613c-30.899,0-56.037,25.138-56.037,56.037c0,30.899,25.138,56.037,56.037,56.037
				c30.899,0,56.037-25.138,56.037-56.037C354.72,223.751,329.582,198.613,298.683,198.613z"/>
		</g>
	</g>
</g>
<g>
</g>
<g>
</g>
<g>
</g>
<g>
</g>
<g>
</g>
<g>
</g>
<g>
</g>
<g>
</g>
<g>
</g>
<g>
</g>
<g>
</g>
<g>
</g>
<g>
</g>
<g>
</g>
<g>
</g>
</svg>
