<?xml version="1.0" encoding="iso-8859-1"?>
<!-- Generator: Adobe Illustrator 19.0.0, SVG Export Plug-In . SVG Version: 6.00 Build 0)  -->
<svg version="1.1" id="Layer_1" xmlns="http://www.w3.org/2000/svg" xmlns:xlink="http://www.w3.org/1999/xlink" x="0px" y="0px"
	 viewBox="0 0 454.859 454.859" style="enable-background:new 0 0 454.859 454.859;" xml:space="preserve">
<g id="XMLID_730_">
	<g>
		<g>
			<path d="M375.358,118.742c-3.904,3.904-3.904,10.237,0.001,14.142c1.953,1.952,4.512,2.929,7.071,2.929
				c2.559,0,5.118-0.977,7.071-2.929c24.245-24.245,24.245-63.695,0-87.94c-3.906-3.904-10.236-3.904-14.143,0
				c-3.905,3.905-3.905,10.237,0,14.143C391.805,75.534,391.805,102.294,375.358,118.742z"/>
			<path d="M429.507,89.544c0,22.159-8.629,42.992-24.298,58.661c-3.905,3.905-3.905,10.237,0,14.143
				c1.953,1.952,4.512,2.929,7.071,2.929c2.56,0,5.118-0.977,7.071-2.929c19.446-19.446,30.155-45.302,30.155-72.804
				s-10.709-53.357-30.155-72.804c-3.906-3.904-10.236-3.904-14.143,0c-3.905,3.905-3.905,10.237,0,14.142
				C420.878,46.552,429.507,67.385,429.507,89.544z"/>
			<path d="M256.339,132.883c1.953,1.952,4.512,2.929,7.071,2.929s5.118-0.977,7.071-2.929c3.905-3.905,3.905-10.237,0-14.143
				c-16.447-16.447-16.447-43.208,0-59.655c3.905-3.905,3.905-10.237,0-14.143c-3.906-3.904-10.236-3.904-14.143,0
				C232.094,69.187,232.094,108.638,256.339,132.883z"/>
			<path d="M233.56,165.276c2.56,0,5.118-0.977,7.071-2.929c3.905-3.905,3.905-10.237,0-14.143
				c-15.669-15.669-24.299-36.502-24.299-58.661s8.629-42.992,24.299-58.661c3.905-3.905,3.905-10.237,0-14.142
				c-3.905-3.903-10.236-3.904-14.142,0c-19.447,19.446-30.157,45.302-30.157,72.804s10.71,53.357,30.157,72.804
				C228.442,164.3,231.001,165.276,233.56,165.276z"/>
			<path d="M423.429,265.053H332.92V122.086c13.756-4.273,23.773-17.119,23.773-32.262c0-18.623-15.15-33.774-33.773-33.774
				s-33.774,15.151-33.774,33.774c0,15.143,10.018,27.989,23.774,32.262v142.967H31.43c-17.331,0-31.43,14.1-31.43,31.43v113.133
				c0,17.33,14.1,31.43,31.43,31.43h391.999c17.33,0,31.43-14.1,31.43-31.43V296.482
				C454.859,279.153,440.759,265.053,423.429,265.053z M172.899,368.015h-101c-18.748,0-34-15.252-34-34s15.252-34,34-34h101
				c18.748,0,34,15.252,34,34S191.646,368.015,172.899,368.015z M390.073,403.049H278.257c-5.522,0-10-4.478-10-10
				c0-5.522,4.478-10,10-10h111.815c5.523,0,10,4.478,10,10C400.073,398.571,395.595,403.049,390.073,403.049z M390.073,363.049
				H278.257c-5.522,0-10-4.478-10-10c0-5.522,4.478-10,10-10h111.815c5.523,0,10,4.478,10,10
				C400.073,358.571,395.595,363.049,390.073,363.049z M390.073,323.049H278.257c-5.522,0-10-4.478-10-10c0-5.522,4.478-10,10-10
				h111.815c5.523,0,10,4.478,10,10C400.073,318.571,395.595,323.049,390.073,323.049z"/>
			<path d="M172.899,320.015h-101c-7.72,0-14,6.28-14,14c0,7.72,6.28,14,14,14h101c7.72,0,14-6.28,14-14
				C186.899,326.294,180.619,320.015,172.899,320.015z"/>
		</g>
	</g>
</g>
<g>
</g>
<g>
</g>
<g>
</g>
<g>
</g>
<g>
</g>
<g>
</g>
<g>
</g>
<g>
</g>
<g>
</g>
<g>
</g>
<g>
</g>
<g>
</g>
<g>
</g>
<g>
</g>
<g>
</g>
</svg>
