<?xml version="1.0" encoding="UTF-8" standalone="no"?><svg xmlns="http://www.w3.org/2000/svg" xmlns:xlink="http://www.w3.org/1999/xlink" contentScriptType="application/ecmascript" contentStyleType="text/css" height="283px" preserveAspectRatio="none" style="width:237px;height:283px;" version="1.1" viewBox="0 0 237 283" width="237px" zoomAndPan="magnify"><defs><filter height="300%" id="fi4xuaw2at9co" width="300%" x="-1" y="-1"><feGaussianBlur result="blurOut" stdDeviation="2.0"/><feColorMatrix in="blurOut" result="blurOut2" type="matrix" values="0 0 0 0 0 0 0 0 0 0 0 0 0 0 0 0 0 0 .4 0"/><feOffset dx="4.0" dy="4.0" in="blurOut2" result="blurOut3"/><feBlend in="SourceGraphic" in2="blurOut3" mode="normal"/></filter></defs><g><!--class Alumnos--><rect fill="#FEFECE" filter="url(#fi4xuaw2at9co)" height="48" id="Alumnos" style="stroke: #A80036; stroke-width: 1.5;" width="85" x="6" y="8"/><ellipse cx="21" cy="24" fill="#ADD1B2" rx="11" ry="11" style="stroke: #A80036; stroke-width: 1.0;"/><path d="M23.9688,29.6406 Q23.3906,29.9375 22.75,30.0859 Q22.1094,30.2344 21.4063,30.2344 Q18.9063,30.2344 17.5859,28.5859 Q16.2656,26.9375 16.2656,23.8125 Q16.2656,20.6875 17.5859,19.0313 Q18.9063,17.375 21.4063,17.375 Q22.1094,17.375 22.7578,17.5313 Q23.4063,17.6875 23.9688,17.9844 L23.9688,20.7031 Q23.3438,20.125 22.75,19.8516 Q22.1563,19.5781 21.5313,19.5781 Q20.1875,19.5781 19.5,20.6484 Q18.8125,21.7188 18.8125,23.8125 Q18.8125,25.9063 19.5,26.9766 Q20.1875,28.0469 21.5313,28.0469 Q22.1563,28.0469 22.75,27.7734 Q23.3438,27.5 23.9688,26.9219 L23.9688,29.6406 Z "/><text fill="#000000" font-family="sans-serif" font-size="12" lengthAdjust="spacingAndGlyphs" textLength="53" x="35" y="28.1543">Alumnos</text><line style="stroke: #A80036; stroke-width: 1.5;" x1="7" x2="90" y1="40" y2="40"/><line style="stroke: #A80036; stroke-width: 1.5;" x1="7" x2="90" y1="48" y2="48"/><!--class Cursos--><rect fill="#FEFECE" filter="url(#fi4xuaw2at9co)" height="48" id="Cursos" style="stroke: #A80036; stroke-width: 1.5;" width="75" x="75" y="116"/><ellipse cx="90" cy="132" fill="#ADD1B2" rx="11" ry="11" style="stroke: #A80036; stroke-width: 1.0;"/><path d="M92.9688,137.6406 Q92.3906,137.9375 91.75,138.0859 Q91.1094,138.2344 90.4063,138.2344 Q87.9063,138.2344 86.5859,136.5859 Q85.2656,134.9375 85.2656,131.8125 Q85.2656,128.6875 86.5859,127.0313 Q87.9063,125.375 90.4063,125.375 Q91.1094,125.375 91.7578,125.5313 Q92.4063,125.6875 92.9688,125.9844 L92.9688,128.7031 Q92.3438,128.125 91.75,127.8516 Q91.1563,127.5781 90.5313,127.5781 Q89.1875,127.5781 88.5,128.6484 Q87.8125,129.7188 87.8125,131.8125 Q87.8125,133.9063 88.5,134.9766 Q89.1875,136.0469 90.5313,136.0469 Q91.1563,136.0469 91.75,135.7734 Q92.3438,135.5 92.9688,134.9219 L92.9688,137.6406 Z "/><text fill="#000000" font-family="sans-serif" font-size="12" lengthAdjust="spacingAndGlyphs" textLength="43" x="104" y="136.1543">Cursos</text><line style="stroke: #A80036; stroke-width: 1.5;" x1="76" x2="149" y1="148" y2="148"/><line style="stroke: #A80036; stroke-width: 1.5;" x1="76" x2="149" y1="156" y2="156"/><!--class Profesores--><rect fill="#FEFECE" filter="url(#fi4xuaw2at9co)" height="48" id="Profesores" style="stroke: #A80036; stroke-width: 1.5;" width="100" x="126.5" y="8"/><ellipse cx="141.5" cy="24" fill="#ADD1B2" rx="11" ry="11" style="stroke: #A80036; stroke-width: 1.0;"/><path d="M144.4688,29.6406 Q143.8906,29.9375 143.25,30.0859 Q142.6094,30.2344 141.9063,30.2344 Q139.4063,30.2344 138.0859,28.5859 Q136.7656,26.9375 136.7656,23.8125 Q136.7656,20.6875 138.0859,19.0313 Q139.4063,17.375 141.9063,17.375 Q142.6094,17.375 143.2578,17.5313 Q143.9063,17.6875 144.4688,17.9844 L144.4688,20.7031 Q143.8438,20.125 143.25,19.8516 Q142.6563,19.5781 142.0313,19.5781 Q140.6875,19.5781 140,20.6484 Q139.3125,21.7188 139.3125,23.8125 Q139.3125,25.9063 140,26.9766 Q140.6875,28.0469 142.0313,28.0469 Q142.6563,28.0469 143.25,27.7734 Q143.8438,27.5 144.4688,26.9219 L144.4688,29.6406 Z "/><text fill="#000000" font-family="sans-serif" font-size="12" lengthAdjust="spacingAndGlyphs" textLength="68" x="155.5" y="28.1543">Profesores</text><line style="stroke: #A80036; stroke-width: 1.5;" x1="127.5" x2="225.5" y1="40" y2="40"/><line style="stroke: #A80036; stroke-width: 1.5;" x1="127.5" x2="225.5" y1="48" y2="48"/><!--class Materias--><rect fill="#FEFECE" filter="url(#fi4xuaw2at9co)" height="48" id="Materias" style="stroke: #A80036; stroke-width: 1.5;" width="86" x="69.5" y="224"/><ellipse cx="84.5" cy="240" fill="#ADD1B2" rx="11" ry="11" style="stroke: #A80036; stroke-width: 1.0;"/><path d="M87.4688,245.6406 Q86.8906,245.9375 86.25,246.0859 Q85.6094,246.2344 84.9063,246.2344 Q82.4063,246.2344 81.0859,244.5859 Q79.7656,242.9375 79.7656,239.8125 Q79.7656,236.6875 81.0859,235.0313 Q82.4063,233.375 84.9063,233.375 Q85.6094,233.375 86.2578,233.5313 Q86.9063,233.6875 87.4688,233.9844 L87.4688,236.7031 Q86.8438,236.125 86.25,235.8516 Q85.6563,235.5781 85.0313,235.5781 Q83.6875,235.5781 83,236.6484 Q82.3125,237.7188 82.3125,239.8125 Q82.3125,241.9063 83,242.9766 Q83.6875,244.0469 85.0313,244.0469 Q85.6563,244.0469 86.25,243.7734 Q86.8438,243.5 87.4688,242.9219 L87.4688,245.6406 Z "/><text fill="#000000" font-family="sans-serif" font-size="12" lengthAdjust="spacingAndGlyphs" textLength="54" x="98.5" y="244.1543">Materias</text><line style="stroke: #A80036; stroke-width: 1.5;" x1="70.5" x2="154.5" y1="256" y2="256"/><line style="stroke: #A80036; stroke-width: 1.5;" x1="70.5" x2="154.5" y1="264" y2="264"/><!--link Alumnos to Cursos--><path d="M66.975,63.1765 C75.4337,77.4507 85.4376,94.3323 93.9103,108.6299 " fill="none" id="Alumnos-Cursos" style="stroke: #A80036; stroke-width: 1.0;"/><line style="stroke: #A80036; stroke-width: 1.0;" x1="94.1067" x2="105.0674" y1="108.9613" y2="115.8436"/><line style="stroke: #A80036; stroke-width: 1.0;" x1="94.1067" x2="91.3028" y1="108.9613" y2="115.8436"/><line style="stroke: #A80036; stroke-width: 1.0;" x1="94.1067" x2="98.1851" y1="108.9613" y2="115.8436"/><line style="stroke: #A80036; stroke-width: 1.0;" x1="66.9412" x2="55.9805" y1="63.1196" y2="56.2373"/><line style="stroke: #A80036; stroke-width: 1.0;" x1="66.9412" x2="69.7451" y1="63.1196" y2="56.2373"/><line style="stroke: #A80036; stroke-width: 1.0;" x1="66.9412" x2="62.8628" y1="63.1196" y2="56.2373"/><!--link Profesores to Cursos--><path d="M162.1372,56.2373 C152.9144,71.8007 140.8491,92.1608 130.9233,108.9106 " fill="none" id="Profesores-Cursos" style="stroke: #A80036; stroke-width: 1.0;"/><line style="stroke: #A80036; stroke-width: 1.0;" x1="130.8933" x2="133.6972" y1="108.9613" y2="115.8436"/><line style="stroke: #A80036; stroke-width: 1.0;" x1="130.8933" x2="119.9326" y1="108.9613" y2="115.8436"/><line style="stroke: #A80036; stroke-width: 1.0;" x1="130.8933" x2="126.8149" y1="108.9613" y2="115.8436"/><!--link Cursos to Materias--><path d="M112.5,172.5311 C112.5,189.026 112.5,208.7133 112.5,223.8436 " fill="none" id="Cursos-Materias" style="stroke: #A80036; stroke-width: 1.0;"/><line style="stroke: #A80036; stroke-width: 1.0;" x1="112.5" x2="104.5" y1="172.2373" y2="164.2373"/><line style="stroke: #A80036; stroke-width: 1.0;" x1="112.5" x2="120.5" y1="172.2373" y2="164.2373"/><line style="stroke: #A80036; stroke-width: 1.0;" x1="112.5" x2="112.5" y1="172.2373" y2="164.2373"/><!--
@startuml
Alumnos }- -{ Cursos
Profesores - -{ Cursos
Cursos }- - Materias

@enduml

PlantUML version 1.2017.15(Mon Jul 03 18:45:34 CEST 2017)
(GPL source distribution)
Java Runtime: Java(TM) SE Runtime Environment
JVM: Java HotSpot(TM) 64-Bit Server VM
Java Version: 1.8.0_111-b14
Operating System: Linux
OS Version: 4.15.0-74-generic
Default Encoding: UTF-8
Language: en
Country: US
--></g></svg>