<?xml version="1.0" encoding="UTF-8" standalone="no"?><svg xmlns="http://www.w3.org/2000/svg" xmlns:xlink="http://www.w3.org/1999/xlink" contentScriptType="application/ecmascript" contentStyleType="text/css" height="283px" preserveAspectRatio="none" style="width:226px;height:283px;" version="1.1" viewBox="0 0 226 283" width="226px" zoomAndPan="magnify"><defs><filter height="300%" id="fi4xuaw2at9co" width="300%" x="-1" y="-1"><feGaussianBlur result="blurOut" stdDeviation="2.0"/><feColorMatrix in="blurOut" result="blurOut2" type="matrix" values="0 0 0 0 0 0 0 0 0 0 0 0 0 0 0 0 0 0 .4 0"/><feOffset dx="4.0" dy="4.0" in="blurOut2" result="blurOut3"/><feBlend in="SourceGraphic" in2="blurOut3" mode="normal"/></filter></defs><g><!--class Alumnos--><rect fill="#FEFECE" filter="url(#fi4xuaw2at9co)" height="48" id="Alumnos" style="stroke: #A80036; stroke-width: 1.5;" width="81" x="6" y="8"/><ellipse cx="21" cy="24" fill="#ADD1B2" rx="11" ry="11" style="stroke: #A80036; stroke-width: 1.0;"/><path d="M18.9063,23.8438 Q18.9063,25.7188 19.4844,26.7344 Q20.0625,27.7344 21.2188,27.7344 Q22.5625,27.7344 23.2188,25.7188 L25.4844,26.1406 Q24.375,29.6719 21.2031,29.6719 Q18.8594,29.6719 17.6406,28.1875 Q16.4219,26.7031 16.4219,23.8438 Q16.4219,18.125 21.125,18.125 Q22.6719,18.125 23.7031,18.9375 Q24.75,19.75 25.25,21.3594 L22.9844,21.9063 Q22.75,21.0313 22.2656,20.5469 Q21.7813,20.0469 21.1563,20.0469 Q18.9063,20.0469 18.9063,23.8438 Z "/><text fill="#000000" font-family="sans-serif" font-size="12" lengthAdjust="spacingAndGlyphs" textLength="49" x="35" y="28.3564">Alumnos</text><line style="stroke: #A80036; stroke-width: 1.5;" x1="7" x2="86" y1="40" y2="40"/><line style="stroke: #A80036; stroke-width: 1.5;" x1="7" x2="86" y1="48" y2="48"/><!--class Cursos--><rect fill="#FEFECE" filter="url(#fi4xuaw2at9co)" height="48" id="Cursos" style="stroke: #A80036; stroke-width: 1.5;" width="73" x="71" y="116"/><ellipse cx="86" cy="132" fill="#ADD1B2" rx="11" ry="11" style="stroke: #A80036; stroke-width: 1.0;"/><path d="M83.9063,131.8438 Q83.9063,133.7188 84.4844,134.7344 Q85.0625,135.7344 86.2188,135.7344 Q87.5625,135.7344 88.2188,133.7188 L90.4844,134.1406 Q89.375,137.6719 86.2031,137.6719 Q83.8594,137.6719 82.6406,136.1875 Q81.4219,134.7031 81.4219,131.8438 Q81.4219,126.125 86.125,126.125 Q87.6719,126.125 88.7031,126.9375 Q89.75,127.75 90.25,129.3594 L87.9844,129.9063 Q87.75,129.0313 87.2656,128.5469 Q86.7813,128.0469 86.1563,128.0469 Q83.9063,128.0469 83.9063,131.8438 Z "/><text fill="#000000" font-family="sans-serif" font-size="12" lengthAdjust="spacingAndGlyphs" textLength="41" x="100" y="136.3564">Cursos</text><line style="stroke: #A80036; stroke-width: 1.5;" x1="72" x2="143" y1="148" y2="148"/><line style="stroke: #A80036; stroke-width: 1.5;" x1="72" x2="143" y1="156" y2="156"/><!--class Profesores--><rect fill="#FEFECE" filter="url(#fi4xuaw2at9co)" height="48" id="Profesores" style="stroke: #A80036; stroke-width: 1.5;" width="93" x="122" y="8"/><ellipse cx="137" cy="24" fill="#ADD1B2" rx="11" ry="11" style="stroke: #A80036; stroke-width: 1.0;"/><path d="M134.9063,23.8438 Q134.9063,25.7188 135.4844,26.7344 Q136.0625,27.7344 137.2188,27.7344 Q138.5625,27.7344 139.2188,25.7188 L141.4844,26.1406 Q140.375,29.6719 137.2031,29.6719 Q134.8594,29.6719 133.6406,28.1875 Q132.4219,26.7031 132.4219,23.8438 Q132.4219,18.125 137.125,18.125 Q138.6719,18.125 139.7031,18.9375 Q140.75,19.75 141.25,21.3594 L138.9844,21.9063 Q138.75,21.0313 138.2656,20.5469 Q137.7813,20.0469 137.1563,20.0469 Q134.9063,20.0469 134.9063,23.8438 Z "/><text fill="#000000" font-family="sans-serif" font-size="12" lengthAdjust="spacingAndGlyphs" textLength="61" x="151" y="28.3564">Profesores</text><line style="stroke: #A80036; stroke-width: 1.5;" x1="123" x2="214" y1="40" y2="40"/><line style="stroke: #A80036; stroke-width: 1.5;" x1="123" x2="214" y1="48" y2="48"/><!--class Materias--><rect fill="#FEFECE" filter="url(#fi4xuaw2at9co)" height="48" id="Materias" style="stroke: #A80036; stroke-width: 1.5;" width="79" x="68" y="224"/><ellipse cx="83" cy="240" fill="#ADD1B2" rx="11" ry="11" style="stroke: #A80036; stroke-width: 1.0;"/><path d="M80.9063,239.8438 Q80.9063,241.7188 81.4844,242.7344 Q82.0625,243.7344 83.2188,243.7344 Q84.5625,243.7344 85.2188,241.7188 L87.4844,242.1406 Q86.375,245.6719 83.2031,245.6719 Q80.8594,245.6719 79.6406,244.1875 Q78.4219,242.7031 78.4219,239.8438 Q78.4219,234.125 83.125,234.125 Q84.6719,234.125 85.7031,234.9375 Q86.75,235.75 87.25,237.3594 L84.9844,237.9063 Q84.75,237.0313 84.2656,236.5469 Q83.7813,236.0469 83.1563,236.0469 Q80.9063,236.0469 80.9063,239.8438 Z "/><text fill="#000000" font-family="sans-serif" font-size="12" lengthAdjust="spacingAndGlyphs" textLength="47" x="97" y="244.3564">Materias</text><line style="stroke: #A80036; stroke-width: 1.5;" x1="69" x2="146" y1="256" y2="256"/><line style="stroke: #A80036; stroke-width: 1.5;" x1="69" x2="146" y1="264" y2="264"/><!--link Alumnos to Cursos--><path d="M63.97,63.36 C72.12,77.52 81.81,94.35 89.97,108.53 " fill="none" id="Alumnos-Cursos" style="stroke: #A80036; stroke-width: 1.0;"/><line style="stroke: #A80036; stroke-width: 1.0;" x1="90.0971" x2="101.018" y1="108.742" y2="115.68"/><line style="stroke: #A80036; stroke-width: 1.0;" x1="90.0971" x2="87.142" y1="108.742" y2="115.68"/><line style="stroke: #A80036; stroke-width: 1.0;" x1="90.0971" x2="94.08" y1="108.742" y2="115.68"/><line style="stroke: #A80036; stroke-width: 1.0;" x1="63.7291" x2="52.8055" y1="62.9345" y2="56"/><line style="stroke: #A80036; stroke-width: 1.0;" x1="63.7291" x2="66.6745" y1="62.9345" y2="56"/><line style="stroke: #A80036; stroke-width: 1.0;" x1="63.7291" x2="59.74" y1="62.9345" y2="56"/><!--link Profesores to Cursos--><path d="M155.26,56 C146.45,71.31 134.77,91.61 125.17,108.3 " fill="none" id="Profesores-Cursos" style="stroke: #A80036; stroke-width: 1.0;"/><line style="stroke: #A80036; stroke-width: 1.0;" x1="124.9029" x2="127.858" y1="108.742" y2="115.68"/><line style="stroke: #A80036; stroke-width: 1.0;" x1="124.9029" x2="113.982" y1="108.742" y2="115.68"/><line style="stroke: #A80036; stroke-width: 1.0;" x1="124.9029" x2="120.92" y1="108.742" y2="115.68"/><!--link Cursos to Materias--><path d="M107.5,172.26 C107.5,188.72 107.5,208.57 107.5,223.68 " fill="none" id="Cursos-Materias" style="stroke: #A80036; stroke-width: 1.0;"/><line style="stroke: #A80036; stroke-width: 1.0;" x1="107.5" x2="99.5" y1="172" y2="164"/><line style="stroke: #A80036; stroke-width: 1.0;" x1="107.5" x2="115.5" y1="172" y2="164"/><line style="stroke: #A80036; stroke-width: 1.0;" x1="107.5" x2="107.5" y1="172" y2="164"/><!--
@startuml
Alumnos }- -{ Cursos
Profesores - -{ Cursos
Cursos }- - Materias

@enduml

PlantUML version 1.2018.11(Sat Sep 22 18:43:53 CEST 2018)
(GPL source distribution)
Java Runtime: OpenJDK Runtime Environment
JVM: OpenJDK 64-Bit Server VM
Java Version: 11.0.13+8-Ubuntu-0ubuntu1.20.04
Operating System: Linux
OS Version: 5.11.0-46-generic
Default Encoding: UTF-8
Language: en
Country: US
--></g></svg>