<?xml version="1.0" encoding="UTF-8" standalone="no"?><svg xmlns="http://www.w3.org/2000/svg" xmlns:xlink="http://www.w3.org/1999/xlink" contentScriptType="application/ecmascript" contentStyleType="text/css" height="545px" preserveAspectRatio="none" style="width:166px;height:545px;" version="1.1" viewBox="0 0 166 545" width="166px" zoomAndPan="magnify"><defs><filter height="300%" id="f1e51ikebb5m6x" width="300%" x="-1" y="-1"><feGaussianBlur result="blurOut" stdDeviation="2.0"/><feColorMatrix in="blurOut" result="blurOut2" type="matrix" values="0 0 0 0 0 0 0 0 0 0 0 0 0 0 0 0 0 0 .4 0"/><feOffset dx="4.0" dy="4.0" in="blurOut2" result="blurOut3"/><feBlend in="SourceGraphic" in2="blurOut3" mode="normal"/></filter></defs><g><ellipse cx="82" cy="20" fill="#000000" filter="url(#f1e51ikebb5m6x)" rx="10" ry="10" style="stroke: none; stroke-width: 1.0;"/><polygon fill="#FEFECE" filter="url(#f1e51ikebb5m6x)" points="64,50,100,50,112,62,100,74,64,74,52,62,64,50" style="stroke: #A80036; stroke-width: 1.5;"/><text fill="#000000" font-family="sans-serif" font-size="11" lengthAdjust="spacingAndGlyphs" textLength="36" x="64" y="65.9934">n1 &gt; n2</text><text fill="#000000" font-family="sans-serif" font-size="11" lengthAdjust="spacingAndGlyphs" textLength="18" x="34" y="59.6689">yes</text><text fill="#000000" font-family="sans-serif" font-size="11" lengthAdjust="spacingAndGlyphs" textLength="12" x="112" y="59.6689">no</text><rect fill="#FEFECE" filter="url(#f1e51ikebb5m6x)" height="33.7988" rx="12.5" ry="12.5" style="stroke: #A80036; stroke-width: 1.5;" width="59" x="12.5" y="84"/><text fill="#000000" font-family="sans-serif" font-size="12" lengthAdjust="spacingAndGlyphs" textLength="39" x="22.5" y="105.2559">a ← n1</text><rect fill="#FEFECE" filter="url(#f1e51ikebb5m6x)" height="33.7988" rx="12.5" ry="12.5" style="stroke: #A80036; stroke-width: 1.5;" width="59" x="12.5" y="137.7988"/><text fill="#000000" font-family="sans-serif" font-size="12" lengthAdjust="spacingAndGlyphs" textLength="39" x="22.5" y="159.0547">b ← n2</text><rect fill="#FEFECE" filter="url(#f1e51ikebb5m6x)" height="33.7988" rx="12.5" ry="12.5" style="stroke: #A80036; stroke-width: 1.5;" width="59" x="92.5" y="84"/><text fill="#000000" font-family="sans-serif" font-size="12" lengthAdjust="spacingAndGlyphs" textLength="39" x="102.5" y="105.2559">a ← n2</text><rect fill="#FEFECE" filter="url(#f1e51ikebb5m6x)" height="33.7988" rx="12.5" ry="12.5" style="stroke: #A80036; stroke-width: 1.5;" width="59" x="92.5" y="137.7988"/><text fill="#000000" font-family="sans-serif" font-size="12" lengthAdjust="spacingAndGlyphs" textLength="39" x="102.5" y="159.0547">b ← n1</text><polygon fill="#FEFECE" filter="url(#f1e51ikebb5m6x)" points="82,177.5977,94,189.5977,82,201.5977,70,189.5977,82,177.5977" style="stroke: #A80036; stroke-width: 1.5;"/><rect fill="#FEFECE" filter="url(#f1e51ikebb5m6x)" height="33.7988" rx="12.5" ry="12.5" style="stroke: #A80036; stroke-width: 1.5;" width="63" x="50.5" y="277.4155"/><text fill="#000000" font-family="sans-serif" font-size="12" lengthAdjust="spacingAndGlyphs" textLength="43" x="60.5" y="298.6714">res ← b</text><rect fill="#FEFECE" filter="url(#f1e51ikebb5m6x)" height="33.7988" rx="12.5" ry="12.5" style="stroke: #A80036; stroke-width: 1.5;" width="92" x="36" y="331.2144"/><text fill="#000000" font-family="sans-serif" font-size="12" lengthAdjust="spacingAndGlyphs" textLength="72" x="46" y="352.4702">b ← a MOD b</text><rect fill="#FEFECE" filter="url(#f1e51ikebb5m6x)" height="33.7988" rx="12.5" ry="12.5" style="stroke: #A80036; stroke-width: 1.5;" width="63" x="50.5" y="385.0132"/><text fill="#000000" font-family="sans-serif" font-size="12" lengthAdjust="spacingAndGlyphs" textLength="43" x="60.5" y="406.269">a ← res</text><polygon fill="#FEFECE" filter="url(#f1e51ikebb5m6x)" points="69,221.5977,95,221.5977,107,233.5977,95,245.5977,69,245.5977,57,233.5977,69,221.5977" style="stroke: #A80036; stroke-width: 1.5;"/><text fill="#000000" font-family="sans-serif" font-size="11" lengthAdjust="spacingAndGlyphs" textLength="19" x="86" y="255.9155">true</text><text fill="#000000" font-family="sans-serif" font-size="11" lengthAdjust="spacingAndGlyphs" textLength="26" x="69" y="237.5911">b != 0</text><text fill="#000000" font-family="sans-serif" font-size="11" lengthAdjust="spacingAndGlyphs" textLength="24" x="33" y="231.2666">false</text><rect fill="#FEFECE" filter="url(#f1e51ikebb5m6x)" height="33.7988" rx="12.5" ry="12.5" style="stroke: #A80036; stroke-width: 1.5;" width="62" x="51" y="460.812"/><text fill="#000000" font-family="sans-serif" font-size="12" lengthAdjust="spacingAndGlyphs" textLength="42" x="61" y="482.0679">return a</text><ellipse cx="82" cy="524.6108" fill="none" filter="url(#f1e51ikebb5m6x)" rx="10" ry="10" style="stroke: #000000; stroke-width: 1.0;"/><ellipse cx="82.5" cy="525.1108" fill="#000000" filter="url(#f1e51ikebb5m6x)" rx="6" ry="6" style="stroke: none; stroke-width: 1.0;"/><line style="stroke: #A80036; stroke-width: 1.5;" x1="42" x2="42" y1="117.7988" y2="137.7988"/><polygon fill="#A80036" points="38,127.7988,42,137.7988,46,127.7988,42,131.7988" style="stroke: #A80036; stroke-width: 1.0;"/><line style="stroke: #A80036; stroke-width: 1.5;" x1="122" x2="122" y1="117.7988" y2="137.7988"/><polygon fill="#A80036" points="118,127.7988,122,137.7988,126,127.7988,122,131.7988" style="stroke: #A80036; stroke-width: 1.0;"/><line style="stroke: #A80036; stroke-width: 1.5;" x1="52" x2="42" y1="62" y2="62"/><line style="stroke: #A80036; stroke-width: 1.5;" x1="42" x2="42" y1="62" y2="84"/><polygon fill="#A80036" points="38,74,42,84,46,74,42,78" style="stroke: #A80036; stroke-width: 1.0;"/><line style="stroke: #A80036; stroke-width: 1.5;" x1="112" x2="122" y1="62" y2="62"/><line style="stroke: #A80036; stroke-width: 1.5;" x1="122" x2="122" y1="62" y2="84"/><polygon fill="#A80036" points="118,74,122,84,126,74,122,78" style="stroke: #A80036; stroke-width: 1.0;"/><line style="stroke: #A80036; stroke-width: 1.5;" x1="42" x2="42" y1="171.5977" y2="189.5977"/><line style="stroke: #A80036; stroke-width: 1.5;" x1="42" x2="70" y1="189.5977" y2="189.5977"/><polygon fill="#A80036" points="60,185.5977,70,189.5977,60,193.5977,64,189.5977" style="stroke: #A80036; stroke-width: 1.0;"/><line style="stroke: #A80036; stroke-width: 1.5;" x1="122" x2="122" y1="171.5977" y2="189.5977"/><line style="stroke: #A80036; stroke-width: 1.5;" x1="122" x2="94" y1="189.5977" y2="189.5977"/><polygon fill="#A80036" points="104,185.5977,94,189.5977,104,193.5977,100,189.5977" style="stroke: #A80036; stroke-width: 1.0;"/><line style="stroke: #A80036; stroke-width: 1.5;" x1="82" x2="82" y1="30" y2="50"/><polygon fill="#A80036" points="78,40,82,50,86,40,82,44" style="stroke: #A80036; stroke-width: 1.0;"/><line style="stroke: #A80036; stroke-width: 1.5;" x1="82" x2="82" y1="311.2144" y2="331.2144"/><polygon fill="#A80036" points="78,321.2144,82,331.2144,86,321.2144,82,325.2144" style="stroke: #A80036; stroke-width: 1.0;"/><line style="stroke: #A80036; stroke-width: 1.5;" x1="82" x2="82" y1="365.0132" y2="385.0132"/><polygon fill="#A80036" points="78,375.0132,82,385.0132,86,375.0132,82,379.0132" style="stroke: #A80036; stroke-width: 1.0;"/><line style="stroke: #A80036; stroke-width: 1.5;" x1="82" x2="82" y1="245.5977" y2="277.4155"/><polygon fill="#A80036" points="78,267.4155,82,277.4155,86,267.4155,82,271.4155" style="stroke: #A80036; stroke-width: 1.0;"/><line style="stroke: #A80036; stroke-width: 1.5;" x1="82" x2="82" y1="418.812" y2="428.812"/><line style="stroke: #A80036; stroke-width: 1.5;" x1="82" x2="140" y1="428.812" y2="428.812"/><polygon fill="#A80036" points="136,339.7893,140,329.7893,144,339.7893,140,335.7893" style="stroke: #A80036; stroke-width: 1.5;"/><line style="stroke: #A80036; stroke-width: 1.5;" x1="140" x2="140" y1="233.5977" y2="428.812"/><line style="stroke: #A80036; stroke-width: 1.5;" x1="140" x2="107" y1="233.5977" y2="233.5977"/><polygon fill="#A80036" points="117,229.5977,107,233.5977,117,237.5977,113,233.5977" style="stroke: #A80036; stroke-width: 1.0;"/><line style="stroke: #A80036; stroke-width: 1.5;" x1="57" x2="24" y1="233.5977" y2="233.5977"/><polygon fill="#A80036" points="20,325.7893,24,335.7893,28,325.7893,24,329.7893" style="stroke: #A80036; stroke-width: 1.5;"/><line style="stroke: #A80036; stroke-width: 1.5;" x1="24" x2="24" y1="233.5977" y2="440.812"/><line style="stroke: #A80036; stroke-width: 1.5;" x1="24" x2="82" y1="440.812" y2="440.812"/><line style="stroke: #A80036; stroke-width: 1.5;" x1="82" x2="82" y1="440.812" y2="460.812"/><polygon fill="#A80036" points="78,450.812,82,460.812,86,450.812,82,454.812" style="stroke: #A80036; stroke-width: 1.0;"/><line style="stroke: #A80036; stroke-width: 1.5;" x1="82" x2="82" y1="201.5977" y2="221.5977"/><polygon fill="#A80036" points="78,211.5977,82,221.5977,86,211.5977,82,215.5977" style="stroke: #A80036; stroke-width: 1.0;"/><line style="stroke: #A80036; stroke-width: 1.5;" x1="82" x2="82" y1="494.6108" y2="514.6108"/><polygon fill="#A80036" points="78,504.6108,82,514.6108,86,504.6108,82,508.6108" style="stroke: #A80036; stroke-width: 1.0;"/><!--
@startuml
start

if (n1 > n2) then (yes)
  :a ← n1;
  :b ← n2;
else (no)
  :a ← n2;
  :b ← n1;
endif

while (b != 0) is (true)
  :res ← b;
  :b ← a MOD b;
  :a ← res;
endwhile (false)

:return a;
stop
@enduml

PlantUML version 1.2018.11(Sat Sep 22 18:43:53 CEST 2018)
(GPL source distribution)
Java Runtime: OpenJDK Runtime Environment
JVM: OpenJDK 64-Bit Server VM
Java Version: 11.0.13+8-Ubuntu-0ubuntu1.20.04
Operating System: Linux
OS Version: 5.11.0-46-generic
Default Encoding: UTF-8
Language: en
Country: US
--></g></svg>