<?xml version="1.0" encoding="UTF-8" standalone="no"?><svg xmlns="http://www.w3.org/2000/svg" xmlns:xlink="http://www.w3.org/1999/xlink" contentScriptType="application/ecmascript" contentStyleType="text/css" height="546px" preserveAspectRatio="none" style="width:172px;height:546px;" version="1.1" viewBox="0 0 172 546" width="172px" zoomAndPan="magnify"><defs><filter height="300%" id="f1e51ikebb5m6x" width="300%" x="-1" y="-1"><feGaussianBlur result="blurOut" stdDeviation="2.0"/><feColorMatrix in="blurOut" result="blurOut2" type="matrix" values="0 0 0 0 0 0 0 0 0 0 0 0 0 0 0 0 0 0 .4 0"/><feOffset dx="4.0" dy="4.0" in="blurOut2" result="blurOut3"/><feBlend in="SourceGraphic" in2="blurOut3" mode="normal"/></filter></defs><g><ellipse cx="85.5" cy="20" fill="#000000" filter="url(#f1e51ikebb5m6x)" rx="10" ry="10" style="stroke: none; stroke-width: 1.0;"/><polygon fill="#FEFECE" filter="url(#f1e51ikebb5m6x)" points="63,50,108,50,120,62,108,74,63,74,51,62,63,50" style="stroke: #A80036; stroke-width: 1.5;"/><text fill="#000000" font-family="sans-serif" font-size="11" lengthAdjust="spacingAndGlyphs" textLength="45" x="63" y="65.8081">n1 &gt; n2</text><text fill="#000000" font-family="sans-serif" font-size="11" lengthAdjust="spacingAndGlyphs" textLength="20" x="31" y="59.4058">yes</text><text fill="#000000" font-family="sans-serif" font-size="11" lengthAdjust="spacingAndGlyphs" textLength="14" x="120" y="59.4058">no</text><rect fill="#FEFECE" filter="url(#f1e51ikebb5m6x)" height="33.9688" rx="12.5" ry="12.5" style="stroke: #A80036; stroke-width: 1.5;" width="62" x="10" y="84"/><text fill="#000000" font-family="sans-serif" font-size="12" lengthAdjust="spacingAndGlyphs" textLength="42" x="20" y="105.1387">a ← n1</text><rect fill="#FEFECE" filter="url(#f1e51ikebb5m6x)" height="33.9688" rx="12.5" ry="12.5" style="stroke: #A80036; stroke-width: 1.5;" width="62" x="10" y="137.9688"/><text fill="#000000" font-family="sans-serif" font-size="12" lengthAdjust="spacingAndGlyphs" textLength="42" x="20" y="159.1074">b ← n2</text><rect fill="#FEFECE" filter="url(#f1e51ikebb5m6x)" height="33.9688" rx="12.5" ry="12.5" style="stroke: #A80036; stroke-width: 1.5;" width="62" x="99" y="84"/><text fill="#000000" font-family="sans-serif" font-size="12" lengthAdjust="spacingAndGlyphs" textLength="42" x="109" y="105.1387">a ← n2</text><rect fill="#FEFECE" filter="url(#f1e51ikebb5m6x)" height="33.9688" rx="12.5" ry="12.5" style="stroke: #A80036; stroke-width: 1.5;" width="62" x="99" y="137.9688"/><text fill="#000000" font-family="sans-serif" font-size="12" lengthAdjust="spacingAndGlyphs" textLength="42" x="109" y="159.1074">b ← n1</text><polygon fill="#FEFECE" filter="url(#f1e51ikebb5m6x)" points="85.5,177.9375,97.5,189.9375,85.5,201.9375,73.5,189.9375,85.5,177.9375" style="stroke: #A80036; stroke-width: 1.5;"/><rect fill="#FEFECE" filter="url(#f1e51ikebb5m6x)" height="33.9688" rx="12.5" ry="12.5" style="stroke: #A80036; stroke-width: 1.5;" width="66" x="52.5" y="277.6479"/><text fill="#000000" font-family="sans-serif" font-size="12" lengthAdjust="spacingAndGlyphs" textLength="46" x="62.5" y="298.7866">res ← b</text><rect fill="#FEFECE" filter="url(#f1e51ikebb5m6x)" height="33.9688" rx="12.5" ry="12.5" style="stroke: #A80036; stroke-width: 1.5;" width="98" x="36.5" y="331.6167"/><text fill="#000000" font-family="sans-serif" font-size="12" lengthAdjust="spacingAndGlyphs" textLength="78" x="46.5" y="352.7554">b ← a MOD b</text><rect fill="#FEFECE" filter="url(#f1e51ikebb5m6x)" height="33.9688" rx="12.5" ry="12.5" style="stroke: #A80036; stroke-width: 1.5;" width="66" x="52.5" y="385.5854"/><text fill="#000000" font-family="sans-serif" font-size="12" lengthAdjust="spacingAndGlyphs" textLength="46" x="62.5" y="406.7241">a ← res</text><polygon fill="#FEFECE" filter="url(#f1e51ikebb5m6x)" points="68.5,221.9375,102.5,221.9375,114.5,233.9375,102.5,245.9375,68.5,245.9375,56.5,233.9375,68.5,221.9375" style="stroke: #A80036; stroke-width: 1.5;"/><text fill="#000000" font-family="sans-serif" font-size="11" lengthAdjust="spacingAndGlyphs" textLength="23" x="89.5" y="256.1479">true</text><text fill="#000000" font-family="sans-serif" font-size="11" lengthAdjust="spacingAndGlyphs" textLength="34" x="68.5" y="237.7456">b != 0</text><text fill="#000000" font-family="sans-serif" font-size="11" lengthAdjust="spacingAndGlyphs" textLength="28" x="28.5" y="231.3433">false</text><rect fill="#FEFECE" filter="url(#f1e51ikebb5m6x)" height="33.9688" rx="12.5" ry="12.5" style="stroke: #A80036; stroke-width: 1.5;" width="71" x="50" y="461.5542"/><text fill="#000000" font-family="sans-serif" font-size="12" lengthAdjust="spacingAndGlyphs" textLength="51" x="60" y="482.6929">return a</text><ellipse cx="85.5" cy="525.5229" fill="none" filter="url(#f1e51ikebb5m6x)" rx="10" ry="10" style="stroke: #000000; stroke-width: 1.0;"/><ellipse cx="86" cy="526.0229" fill="#000000" filter="url(#f1e51ikebb5m6x)" rx="6" ry="6" style="stroke: none; stroke-width: 1.0;"/><line style="stroke: #A80036; stroke-width: 1.5;" x1="41" x2="41" y1="117.9688" y2="137.9688"/><polygon fill="#A80036" points="37,127.9688,41,137.9688,45,127.9688,41,131.9688" style="stroke: #A80036; stroke-width: 1.0;"/><line style="stroke: #A80036; stroke-width: 1.5;" x1="130" x2="130" y1="117.9688" y2="137.9688"/><polygon fill="#A80036" points="126,127.9688,130,137.9688,134,127.9688,130,131.9688" style="stroke: #A80036; stroke-width: 1.0;"/><line style="stroke: #A80036; stroke-width: 1.5;" x1="51" x2="41" y1="62" y2="62"/><line style="stroke: #A80036; stroke-width: 1.5;" x1="41" x2="41" y1="62" y2="84"/><polygon fill="#A80036" points="37,74,41,84,45,74,41,78" style="stroke: #A80036; stroke-width: 1.0;"/><line style="stroke: #A80036; stroke-width: 1.5;" x1="120" x2="130" y1="62" y2="62"/><line style="stroke: #A80036; stroke-width: 1.5;" x1="130" x2="130" y1="62" y2="84"/><polygon fill="#A80036" points="126,74,130,84,134,74,130,78" style="stroke: #A80036; stroke-width: 1.0;"/><line style="stroke: #A80036; stroke-width: 1.5;" x1="41" x2="41" y1="171.9375" y2="189.9375"/><line style="stroke: #A80036; stroke-width: 1.5;" x1="41" x2="73.5" y1="189.9375" y2="189.9375"/><polygon fill="#A80036" points="63.5,185.9375,73.5,189.9375,63.5,193.9375,67.5,189.9375" style="stroke: #A80036; stroke-width: 1.0;"/><line style="stroke: #A80036; stroke-width: 1.5;" x1="130" x2="130" y1="171.9375" y2="189.9375"/><line style="stroke: #A80036; stroke-width: 1.5;" x1="130" x2="97.5" y1="189.9375" y2="189.9375"/><polygon fill="#A80036" points="107.5,185.9375,97.5,189.9375,107.5,193.9375,103.5,189.9375" style="stroke: #A80036; stroke-width: 1.0;"/><line style="stroke: #A80036; stroke-width: 1.5;" x1="85.5" x2="85.5" y1="30" y2="50"/><polygon fill="#A80036" points="81.5,40,85.5,50,89.5,40,85.5,44" style="stroke: #A80036; stroke-width: 1.0;"/><line style="stroke: #A80036; stroke-width: 1.5;" x1="85.5" x2="85.5" y1="311.6167" y2="331.6167"/><polygon fill="#A80036" points="81.5,321.6167,85.5,331.6167,89.5,321.6167,85.5,325.6167" style="stroke: #A80036; stroke-width: 1.0;"/><line style="stroke: #A80036; stroke-width: 1.5;" x1="85.5" x2="85.5" y1="365.5854" y2="385.5854"/><polygon fill="#A80036" points="81.5,375.5854,85.5,385.5854,89.5,375.5854,85.5,379.5854" style="stroke: #A80036; stroke-width: 1.0;"/><line style="stroke: #A80036; stroke-width: 1.5;" x1="85.5" x2="85.5" y1="245.9375" y2="277.6479"/><polygon fill="#A80036" points="81.5,267.6479,85.5,277.6479,89.5,267.6479,85.5,271.6479" style="stroke: #A80036; stroke-width: 1.0;"/><line style="stroke: #A80036; stroke-width: 1.5;" x1="85.5" x2="85.5" y1="419.5542" y2="429.5542"/><line style="stroke: #A80036; stroke-width: 1.5;" x1="85.5" x2="146.5" y1="429.5542" y2="429.5542"/><polygon fill="#A80036" points="142.5,340.1987,146.5,330.1987,150.5,340.1987,146.5,336.1987" style="stroke: #A80036; stroke-width: 1.5;"/><line style="stroke: #A80036; stroke-width: 1.5;" x1="146.5" x2="146.5" y1="233.9375" y2="429.5542"/><line style="stroke: #A80036; stroke-width: 1.5;" x1="146.5" x2="114.5" y1="233.9375" y2="233.9375"/><polygon fill="#A80036" points="124.5,229.9375,114.5,233.9375,124.5,237.9375,120.5,233.9375" style="stroke: #A80036; stroke-width: 1.0;"/><line style="stroke: #A80036; stroke-width: 1.5;" x1="56.5" x2="24.5" y1="233.9375" y2="233.9375"/><polygon fill="#A80036" points="20.5,326.1987,24.5,336.1987,28.5,326.1987,24.5,330.1987" style="stroke: #A80036; stroke-width: 1.5;"/><line style="stroke: #A80036; stroke-width: 1.5;" x1="24.5" x2="24.5" y1="233.9375" y2="441.5542"/><line style="stroke: #A80036; stroke-width: 1.5;" x1="24.5" x2="85.5" y1="441.5542" y2="441.5542"/><line style="stroke: #A80036; stroke-width: 1.5;" x1="85.5" x2="85.5" y1="441.5542" y2="461.5542"/><polygon fill="#A80036" points="81.5,451.5542,85.5,461.5542,89.5,451.5542,85.5,455.5542" style="stroke: #A80036; stroke-width: 1.0;"/><line style="stroke: #A80036; stroke-width: 1.5;" x1="85.5" x2="85.5" y1="201.9375" y2="221.9375"/><polygon fill="#A80036" points="81.5,211.9375,85.5,221.9375,89.5,211.9375,85.5,215.9375" style="stroke: #A80036; stroke-width: 1.0;"/><line style="stroke: #A80036; stroke-width: 1.5;" x1="85.5" x2="85.5" y1="495.5229" y2="515.5229"/><polygon fill="#A80036" points="81.5,505.5229,85.5,515.5229,89.5,505.5229,85.5,509.5229" style="stroke: #A80036; stroke-width: 1.0;"/><!--
@startuml
start

if (n1 > n2) then (yes)
  :a ← n1;
  :b ← n2;
else (no)
  :a ← n2;
  :b ← n1;
endif

while (b != 0) is (true)
  :res ← b;
  :b ← a MOD b;
  :a ← res;
endwhile (false)

:return a;
stop
@enduml

PlantUML version 1.2017.15(Mon Jul 03 18:45:34 CEST 2017)
(GPL source distribution)
Java Runtime: Java(TM) SE Runtime Environment
JVM: Java HotSpot(TM) 64-Bit Server VM
Java Version: 1.8.0_111-b14
Operating System: Linux
OS Version: 4.15.0-91-generic
Default Encoding: UTF-8
Language: en
Country: US
--></g></svg>