<?xml version="1.0" encoding="UTF-8" standalone="no"?>
<!-- Created with Inkscape (http://www.inkscape.org/) -->

<svg
   xmlns:dc="http://purl.org/dc/elements/1.1/"
   xmlns:cc="http://creativecommons.org/ns#"
   xmlns:rdf="http://www.w3.org/1999/02/22-rdf-syntax-ns#"
   xmlns:svg="http://www.w3.org/2000/svg"
   xmlns="http://www.w3.org/2000/svg"
   xmlns:sodipodi="http://sodipodi.sourceforge.net/DTD/sodipodi-0.dtd"
   xmlns:inkscape="http://www.inkscape.org/namespaces/inkscape"
   width="210.30347mm"
   height="53.993717mm"
   viewBox="0 0 745.16976 191.31632"
   id="svg5439"
   version="1.1"
   inkscape:version="0.91 r13725"
   sodipodi:docname="esquema-vpn.svg">
  <defs
     id="defs5441" />
  <sodipodi:namedview
     id="base"
     pagecolor="#ffffff"
     bordercolor="#666666"
     borderopacity="1.0"
     inkscape:pageopacity="0.0"
     inkscape:pageshadow="2"
     inkscape:zoom="0.35"
     inkscape:cx="986.15629"
     inkscape:cy="-490.05612"
     inkscape:document-units="px"
     inkscape:current-layer="layer1"
     showgrid="false"
     fit-margin-top="0"
     fit-margin-left="0"
     fit-margin-right="0"
     fit-margin-bottom="0"
     inkscape:window-width="1600"
     inkscape:window-height="836"
     inkscape:window-x="0"
     inkscape:window-y="27"
     inkscape:window-maximized="1" />
  <metadata
     id="metadata5444">
    <rdf:RDF>
      <cc:Work
         rdf:about="">
        <dc:format>image/svg+xml</dc:format>
        <dc:type
           rdf:resource="http://purl.org/dc/dcmitype/StillImage" />
        <dc:title></dc:title>
      </cc:Work>
    </rdf:RDF>
  </metadata>
  <g
     inkscape:label="Layer 1"
     inkscape:groupmode="layer"
     id="layer1"
     transform="translate(1046.8706,149.01024)">
    <path
       d="m -914.66071,-7.5747323 -5,-3.9999997 -87.62499,0 -5,3.9999997 97.62499,0 0,0 z m -131.74999,-93.2499977 0,0 z m 155.87499,113.499998 0,0 z"
       style="fill:#ffffcc;fill-opacity:1;fill-rule:evenodd;stroke:none"
       id="path168"
       inkscape:connector-curvature="0" />
    <path
       d="m -906.41071,-0.32473233 -5,-3.99999997 -104.12499,0 -5.125,3.99999997 114.24999,0 0,0 z M -1046.4107,-100.82473 l 0,0 z m 155.87499,113.499998 0,0 z"
       style="fill:#ffffcc;fill-opacity:1;fill-rule:evenodd;stroke:none"
       id="path182"
       inkscape:connector-curvature="0" />
    <path
       d="m -898.03571,7.0502677 -5,-4.125 -120.87499,0 -5,4.125 130.87499,0 0,0 z m -148.37499,-107.8749977 0,0 z m 155.87499,113.499998 0,0 z"
       style="fill:#ffffcc;fill-opacity:1;fill-rule:evenodd;stroke:none"
       id="path196"
       inkscape:connector-curvature="0" />
    <path
       d="m -1013.1607,-11.574732 5,-4.125 16.74998,0 0,-10.5 -12.49998,0 0,-74.624998 44.24998,0 44.12501,0 0,56.749998 0,17.875 -12.5,0 0,10.5 10,0 9.25,8.1249997 14.125,11.375 1.625,0.75 0.875,1.625 1.625,1.625 0,0.875 0,0.75 0,0.8750003 0,0.75 0,0 -0.75,0.875 -0.875,0 -1.625,0.75 -0.875,0 -72.62501,0 -64.12498,0 -1.75,0 -0.75,-0.75 -0.875,0 -0.875,-0.875 -0.75,0 0,-0.75 0,-0.8750003 0,-0.75 0.75,-0.875 0.875,-1.625 0.875,-1.625 1.625,-0.75 -14.125,0 0,-47.8749997 0,-42.125002 33.25,0 0,74.625002 z m 0,0 -3.25,2.3749997 -11.75,9.74999997 -4.125,3.25000003 19.125,-15.3749997 0,0 z m -33.25,-89.249998 0,0 z m 155.87499,113.499998 0,0 z"
       style="fill:#ffffcc;fill-opacity:1;fill-rule:evenodd;stroke:none"
       id="path210"
       inkscape:connector-curvature="0" />
    <path
       inkscape:connector-curvature="0"
       id="path214"
       style="fill:none;stroke:#000000;stroke-width:0.91975003;stroke-linecap:square;stroke-linejoin:miter;stroke-miterlimit:7.66129017;stroke-dasharray:none;stroke-opacity:1"
       d="m -1013.1607,-11.574732 5,-4.125 16.74998,0 0,-10.5 -12.49998,0 0,-74.624998 44.24998,0 44.12501,0 0,56.749998 0,17.875 -12.5,0 0,10.5 10,0 9.25,8.1249997 14.125,11.375 1.625,0.75 0.875,1.625 1.625,1.625 0,0.875 0,0.75 0,0.8750003 0,0.75 0,0 -0.75,0.875 -0.875,0 -1.625,0.75 -0.875,0 -72.62501,0 -64.12498,0 -1.75,0 -0.75,-0.75 -0.875,0 -0.875,-0.875 -0.75,0 0,-0.75 0,-0.8750003 0,-0.75 0.75,-0.875 0.875,-1.625 0.875,-1.625 1.625,-0.75 -14.125,0 0,-47.8749997 0,-42.125002 33.25,0 0,74.625002 z" />
    <path
       d="m -928.03571,-88.574734 0,50.250002 -63.37501,0 0,-50.250002 63.37501,0 z m -118.37499,-12.249996 0,0 z m 155.87499,113.499998 0,0 z"
       style="fill:#ffffcc;fill-opacity:1;fill-rule:evenodd;stroke:none"
       id="path228"
       inkscape:connector-curvature="0" />
    <path
       d="m -1017.2857,-79.699734 0,1.625 -25,0 0,-1.625 25,0 z m 25.87498,53.500002 63.37501,0 0,10.5 -63.37501,0 0,-10.5 z m -54.99998,-74.624998 0,0 z m 155.87499,113.499998 0,0 z"
       style="fill:#ffffcc;fill-opacity:1;fill-rule:evenodd;stroke:none"
       id="path242"
       inkscape:connector-curvature="0" />
    <g
       id="g6219">
      <text
         y="-135.57474"
         x="-955.53571"
         style="font-variant:normal;font-weight:normal;font-size:19.5px;font-family:OpenSymbol;-inkscape-font-specification:OpenSymbol;writing-mode:lr-tb;fill:#00007d;fill-opacity:1;fill-rule:nonzero;stroke:none"
         id="text158">
        <tspan
           x="-955.53571"
           y="-135.57474"
           id="tspan160"></tspan>
      </text>
      <path
         d="m -914.66071,-7.5747323 -5,-3.9999997 -87.62499,0 -5,3.9999997 97.62499,0 0,0 z"
         style="fill:none;stroke:#000000;stroke-width:0.91975003;stroke-linecap:square;stroke-linejoin:miter;stroke-miterlimit:7.66129017;stroke-dasharray:none;stroke-opacity:1"
         id="path172"
         inkscape:connector-curvature="0" />
      <path
         d="m -1046.4107,-100.82473 0,0 z"
         style="fill:none;stroke:#000000;stroke-width:0.91975003;stroke-linecap:square;stroke-linejoin:miter;stroke-miterlimit:7.66129017;stroke-dasharray:none;stroke-opacity:1"
         id="path176"
         inkscape:connector-curvature="0" />
      <path
         d="m -906.41071,-0.32473233 -5,-3.99999997 -104.12499,0 -5.125,3.99999997 114.24999,0 0,0 z"
         style="fill:none;stroke:#000000;stroke-width:0.91975003;stroke-linecap:square;stroke-linejoin:miter;stroke-miterlimit:7.66129017;stroke-dasharray:none;stroke-opacity:1"
         id="path186"
         inkscape:connector-curvature="0" />
      <path
         d="m -1046.4107,-100.82473 0,0 z"
         style="fill:none;stroke:#000000;stroke-width:0.91975003;stroke-linecap:square;stroke-linejoin:miter;stroke-miterlimit:7.66129017;stroke-dasharray:none;stroke-opacity:1"
         id="path190"
         inkscape:connector-curvature="0" />
      <path
         d="m -898.03571,7.0502677 -5,-4.125 -120.87499,0 -5,4.125 130.87499,0 0,0 z"
         style="fill:none;stroke:#000000;stroke-width:0.91975003;stroke-linecap:square;stroke-linejoin:miter;stroke-miterlimit:7.66129017;stroke-dasharray:none;stroke-opacity:1"
         id="path200"
         inkscape:connector-curvature="0" />
      <path
         d="m -1046.4107,-100.82473 0,0 z"
         style="fill:none;stroke:#000000;stroke-width:0.91975003;stroke-linecap:square;stroke-linejoin:miter;stroke-miterlimit:7.66129017;stroke-dasharray:none;stroke-opacity:1"
         id="path204"
         inkscape:connector-curvature="0" />
      <path
         d="m -1013.1607,-11.574732 -3.25,2.3749997 -11.75,9.74999997 -4.125,3.25000003 19.125,-15.3749997 0,0 z"
         style="fill:none;stroke:#000000;stroke-width:0.91975003;stroke-linecap:square;stroke-linejoin:miter;stroke-miterlimit:7.66129017;stroke-dasharray:none;stroke-opacity:1"
         id="path218"
         inkscape:connector-curvature="0" />
      <path
         d="m -1046.4107,-100.82473 0,0 z"
         style="fill:none;stroke:#000000;stroke-width:0.91975003;stroke-linecap:square;stroke-linejoin:miter;stroke-miterlimit:7.66129017;stroke-dasharray:none;stroke-opacity:1"
         id="path222"
         inkscape:connector-curvature="0" />
      <path
         d="m -928.03571,-88.574734 0,50.250002 -63.37501,0 0,-50.250002 63.37501,0 z"
         style="fill:none;stroke:#000000;stroke-width:0.91975003;stroke-linecap:square;stroke-linejoin:miter;stroke-miterlimit:7.66129017;stroke-dasharray:none;stroke-opacity:1"
         id="path232"
         inkscape:connector-curvature="0" />
      <path
         d="m -1046.4107,-100.82473 0,0 z"
         style="fill:none;stroke:#000000;stroke-width:0.91975003;stroke-linecap:square;stroke-linejoin:miter;stroke-miterlimit:7.66129017;stroke-dasharray:none;stroke-opacity:1"
         id="path236"
         inkscape:connector-curvature="0" />
      <path
         d="m -1017.2857,-79.699734 0,1.625 -25,0 0,-1.625 25,0 z"
         style="fill:none;stroke:#000000;stroke-width:0.91975003;stroke-linecap:square;stroke-linejoin:miter;stroke-miterlimit:7.66129017;stroke-dasharray:none;stroke-opacity:1"
         id="path246"
         inkscape:connector-curvature="0" />
      <path
         d="m -991.41072,-26.199732 63.37501,0 0,10.5 -63.37501,0"
         style="fill:none;stroke:#000000;stroke-width:0.91975003;stroke-linecap:square;stroke-linejoin:miter;stroke-miterlimit:7.66129017;stroke-dasharray:none;stroke-opacity:1"
         id="path250"
         inkscape:connector-curvature="0" />
      <path
         d="m -1046.4107,-100.82473 0,0 z"
         style="fill:none;stroke:#000000;stroke-width:0.91975003;stroke-linecap:square;stroke-linejoin:miter;stroke-miterlimit:7.66129017;stroke-dasharray:none;stroke-opacity:1"
         id="path254"
         inkscape:connector-curvature="0" />
    </g>
    <g
       id="g6236">
      <path
         inkscape:connector-curvature="0"
         id="path272"
         style="fill:#ffffcc;fill-opacity:1;fill-rule:evenodd;stroke:none"
         d="m -326.41071,-7.5747323 -5,-3.9999997 -87.5,0 -5,3.9999997 97.5,0 0,0 z m -131.75,-93.2499977 0,0 z m 156,113.499998 0,0 z" />
      <path
         d="m -326.41071,-7.5747323 -5,-3.9999997 -87.5,0 -5,3.9999997 97.5,0 0,0 z"
         style="fill:none;stroke:#000000;stroke-width:0.91975003;stroke-linecap:square;stroke-linejoin:miter;stroke-miterlimit:7.66129017;stroke-dasharray:none;stroke-opacity:1"
         id="path276"
         inkscape:connector-curvature="0" />
      <path
         d="m -458.16071,-100.82473 0,0 z"
         style="fill:none;stroke:#000000;stroke-width:0.91975003;stroke-linecap:square;stroke-linejoin:miter;stroke-miterlimit:7.66129017;stroke-dasharray:none;stroke-opacity:1"
         id="path280"
         inkscape:connector-curvature="0" />
      <path
         d="m -302.16071,12.675268 0,0 z"
         style="fill:none;stroke:#000000;stroke-width:0.91975003;stroke-linecap:square;stroke-linejoin:miter;stroke-miterlimit:7.66129017;stroke-dasharray:none;stroke-opacity:1"
         id="path284"
         inkscape:connector-curvature="0" />
      <path
         inkscape:connector-curvature="0"
         id="path286"
         style="fill:#ffffcc;fill-opacity:1;fill-rule:evenodd;stroke:none"
         d="m -318.03571,-0.32473233 -5,-3.99999997 -104.25,0 -5,3.99999997 114.25,0 0,0 z m -140.125,-100.49999767 0,0 z m 156,113.499998 0,0 z" />
      <path
         d="m -318.03571,-0.32473233 -5,-3.99999997 -104.25,0 -5,3.99999997 114.25,0 0,0 z"
         style="fill:none;stroke:#000000;stroke-width:0.91975003;stroke-linecap:square;stroke-linejoin:miter;stroke-miterlimit:7.66129017;stroke-dasharray:none;stroke-opacity:1"
         id="path290"
         inkscape:connector-curvature="0" />
      <path
         d="m -458.16071,-100.82473 0,0 z"
         style="fill:none;stroke:#000000;stroke-width:0.91975003;stroke-linecap:square;stroke-linejoin:miter;stroke-miterlimit:7.66129017;stroke-dasharray:none;stroke-opacity:1"
         id="path294"
         inkscape:connector-curvature="0" />
      <path
         d="m -302.16071,12.675268 0,0 z"
         style="fill:none;stroke:#000000;stroke-width:0.91975003;stroke-linecap:square;stroke-linejoin:miter;stroke-miterlimit:7.66129017;stroke-dasharray:none;stroke-opacity:1"
         id="path298"
         inkscape:connector-curvature="0" />
      <path
         inkscape:connector-curvature="0"
         id="path300"
         style="fill:#ffffcc;fill-opacity:1;fill-rule:evenodd;stroke:none"
         d="m -309.66071,7.0502677 -5.125,-4.125 -120.875,0 -5,4.125 131,0 0,0 z m -148.5,-107.8749977 0,0 z m 156,113.499998 0,0 z" />
      <path
         d="m -309.66071,7.0502677 -5.125,-4.125 -120.875,0 -5,4.125 131,0 0,0 z"
         style="fill:none;stroke:#000000;stroke-width:0.91975003;stroke-linecap:square;stroke-linejoin:miter;stroke-miterlimit:7.66129017;stroke-dasharray:none;stroke-opacity:1"
         id="path304"
         inkscape:connector-curvature="0" />
      <path
         d="m -458.16071,-100.82473 0,0 z"
         style="fill:none;stroke:#000000;stroke-width:0.91975003;stroke-linecap:square;stroke-linejoin:miter;stroke-miterlimit:7.66129017;stroke-dasharray:none;stroke-opacity:1"
         id="path308"
         inkscape:connector-curvature="0" />
      <path
         d="m -302.16071,12.675268 0,0 z"
         style="fill:none;stroke:#000000;stroke-width:0.91975003;stroke-linecap:square;stroke-linejoin:miter;stroke-miterlimit:7.66129017;stroke-dasharray:none;stroke-opacity:1"
         id="path312"
         inkscape:connector-curvature="0" />
      <path
         inkscape:connector-curvature="0"
         id="path314"
         style="fill:#ffffcc;fill-opacity:1;fill-rule:evenodd;stroke:none"
         d="m -424.78571,-11.574732 5,-4.125 16.625,0 0,-10.5 -12.5,0 0,-74.624998 44.25,0 44.125,0 0,56.749998 0,17.875 -12.5,0 0,10.5 10.125,0 9.125,8.1249997 14.125,11.375 1.75,0.75 0.75,1.625 1.75,1.625 0,0.875 0,0.75 0,0.8750003 0,0.75 0,0 -0.875,0.875 -0.875,0 -1.625,0.75 -0.875,0 -72.5,0 -64.25,0 -1.625,0 -0.875,-0.75 -0.875,0 -0.75,-0.875 -0.875,0 0,-0.75 0,-0.8750003 0,-0.75 0.875,-0.875 0.75,-1.625 0.875,-1.625 1.625,-0.75 -14.125,0 0,-47.8749997 0,-42.125002 33.375,0 0,74.625002 z m 0,0 -3.375,2.3749997 -11.625,9.74999997 -4.25,3.25000003 19.25,-15.3749997 0,0 z m -33.375,-89.249998 0,0 z m 156,113.499998 0,0 z" />
      <path
         d="m -424.78571,-11.574732 5,-4.125 16.625,0 0,-10.5 -12.5,0 0,-74.624998 44.25,0 44.125,0 0,56.749998 0,17.875 -12.5,0 0,10.5 10.125,0 9.125,8.1249997 14.125,11.375 1.75,0.75 0.75,1.625 1.75,1.625 0,0.875 0,0.75 0,0.8750003 0,0.75 0,0 -0.875,0.875 -0.875,0 -1.625,0.75 -0.875,0 -72.5,0 -64.25,0 -1.625,0 -0.875,-0.75 -0.875,0 -0.75,-0.875 -0.875,0 0,-0.75 0,-0.8750003 0,-0.75 0.875,-0.875 0.75,-1.625 0.875,-1.625 1.625,-0.75 -14.125,0 0,-47.8749997 0,-42.125002 33.375,0 0,74.625002 z"
         style="fill:none;stroke:#000000;stroke-width:0.91975003;stroke-linecap:square;stroke-linejoin:miter;stroke-miterlimit:7.66129017;stroke-dasharray:none;stroke-opacity:1"
         id="path318"
         inkscape:connector-curvature="0" />
      <path
         d="m -424.78571,-11.574732 -3.375,2.3749997 -11.625,9.74999997 -4.25,3.25000003 19.25,-15.3749997 0,0 z"
         style="fill:none;stroke:#000000;stroke-width:0.91975003;stroke-linecap:square;stroke-linejoin:miter;stroke-miterlimit:7.66129017;stroke-dasharray:none;stroke-opacity:1"
         id="path322"
         inkscape:connector-curvature="0" />
      <path
         d="m -458.16071,-100.82473 0,0 z"
         style="fill:none;stroke:#000000;stroke-width:0.91975003;stroke-linecap:square;stroke-linejoin:miter;stroke-miterlimit:7.66129017;stroke-dasharray:none;stroke-opacity:1"
         id="path326"
         inkscape:connector-curvature="0" />
      <path
         d="m -302.16071,12.675268 0,0 z"
         style="fill:none;stroke:#000000;stroke-width:0.91975003;stroke-linecap:square;stroke-linejoin:miter;stroke-miterlimit:7.66129017;stroke-dasharray:none;stroke-opacity:1"
         id="path330"
         inkscape:connector-curvature="0" />
      <path
         inkscape:connector-curvature="0"
         id="path332"
         style="fill:#ffffcc;fill-opacity:1;fill-rule:evenodd;stroke:none"
         d="m -339.78571,-88.574734 0,50.250002 -63.375,0 0,-50.250002 63.375,0 z m -118.375,-12.249996 0,0 z m 156,113.499998 0,0 z" />
      <path
         d="m -339.78571,-88.574734 0,50.250002 -63.375,0 0,-50.250002 63.375,0 z"
         style="fill:none;stroke:#000000;stroke-width:0.91975003;stroke-linecap:square;stroke-linejoin:miter;stroke-miterlimit:7.66129017;stroke-dasharray:none;stroke-opacity:1"
         id="path336"
         inkscape:connector-curvature="0" />
      <path
         d="m -458.16071,-100.82473 0,0 z"
         style="fill:none;stroke:#000000;stroke-width:0.91975003;stroke-linecap:square;stroke-linejoin:miter;stroke-miterlimit:7.66129017;stroke-dasharray:none;stroke-opacity:1"
         id="path340"
         inkscape:connector-curvature="0" />
      <path
         d="m -302.16071,12.675268 0,0 z"
         style="fill:none;stroke:#000000;stroke-width:0.91975003;stroke-linecap:square;stroke-linejoin:miter;stroke-miterlimit:7.66129017;stroke-dasharray:none;stroke-opacity:1"
         id="path344"
         inkscape:connector-curvature="0" />
      <path
         inkscape:connector-curvature="0"
         id="path346"
         style="fill:#ffffcc;fill-opacity:1;fill-rule:evenodd;stroke:none"
         d="m -429.03571,-79.699734 0,1.625 -25,0 0,-1.625 25,0 z m 25.875,53.500002 63.375,0 0,10.5 -63.375,0 0,-10.5 z m -55,-74.624998 0,0 z m 156,113.499998 0,0 z" />
      <path
         d="m -429.03571,-79.699734 0,1.625 -25,0 0,-1.625 25,0 z"
         style="fill:none;stroke:#000000;stroke-width:0.91975003;stroke-linecap:square;stroke-linejoin:miter;stroke-miterlimit:7.66129017;stroke-dasharray:none;stroke-opacity:1"
         id="path350"
         inkscape:connector-curvature="0" />
      <path
         d="m -403.16071,-26.199732 63.375,0 0,10.5 -63.375,0"
         style="fill:none;stroke:#000000;stroke-width:0.91975003;stroke-linecap:square;stroke-linejoin:miter;stroke-miterlimit:7.66129017;stroke-dasharray:none;stroke-opacity:1"
         id="path354"
         inkscape:connector-curvature="0" />
      <path
         d="m -458.16071,-100.82473 0,0 z"
         style="fill:none;stroke:#000000;stroke-width:0.91975003;stroke-linecap:square;stroke-linejoin:miter;stroke-miterlimit:7.66129017;stroke-dasharray:none;stroke-opacity:1"
         id="path358"
         inkscape:connector-curvature="0" />
      <path
         d="m -302.16071,12.675268 0,0 z"
         style="fill:none;stroke:#000000;stroke-width:0.91975003;stroke-linecap:square;stroke-linejoin:miter;stroke-miterlimit:7.66129017;stroke-dasharray:none;stroke-opacity:1"
         id="path362"
         inkscape:connector-curvature="0" />
    </g>
    <g
       id="g6264">
      <path
         d="m -890.53571,12.675268 0,0 z"
         style="fill:none;stroke:#000000;stroke-width:0.91975003;stroke-linecap:square;stroke-linejoin:miter;stroke-miterlimit:7.66129017;stroke-dasharray:none;stroke-opacity:1"
         id="path180"
         inkscape:connector-curvature="0" />
      <path
         d="m -890.53571,12.675268 0,0 z"
         style="fill:none;stroke:#000000;stroke-width:0.91975003;stroke-linecap:square;stroke-linejoin:miter;stroke-miterlimit:7.66129017;stroke-dasharray:none;stroke-opacity:1"
         id="path194"
         inkscape:connector-curvature="0" />
      <path
         d="m -890.53571,12.675268 0,0 z"
         style="fill:none;stroke:#000000;stroke-width:0.91975003;stroke-linecap:square;stroke-linejoin:miter;stroke-miterlimit:7.66129017;stroke-dasharray:none;stroke-opacity:1"
         id="path208"
         inkscape:connector-curvature="0" />
      <path
         d="m -890.53571,12.675268 0,0 z"
         style="fill:none;stroke:#000000;stroke-width:0.91975003;stroke-linecap:square;stroke-linejoin:miter;stroke-miterlimit:7.66129017;stroke-dasharray:none;stroke-opacity:1"
         id="path226"
         inkscape:connector-curvature="0" />
      <path
         d="m -890.53571,12.675268 0,0 z"
         style="fill:none;stroke:#000000;stroke-width:0.91975003;stroke-linecap:square;stroke-linejoin:miter;stroke-miterlimit:7.66129017;stroke-dasharray:none;stroke-opacity:1"
         id="path240"
         inkscape:connector-curvature="0" />
      <path
         d="m -890.53571,12.675268 0,0 z"
         style="fill:none;stroke:#000000;stroke-width:0.91975003;stroke-linecap:square;stroke-linejoin:miter;stroke-miterlimit:7.66129017;stroke-dasharray:none;stroke-opacity:1"
         id="path258"
         inkscape:connector-curvature="0" />
      <path
         d="m -876.28571,-58.199734 32.875,-21.375 0,10.625 317,0 0,-10.625 32.875,21.375 -32.875,21.250002 0,-10.625 -317,0 0,10.625 -32.875,-21.250002 z"
         style="fill:none;stroke:#000000;stroke-width:2.51162505;stroke-linecap:square;stroke-linejoin:miter;stroke-miterlimit:7.66129017;stroke-dasharray:none;stroke-opacity:1"
         id="path262"
         inkscape:connector-curvature="0" />
      <path
         d="m -876.28571,-79.574734 0,0 z"
         style="fill:none;stroke:#000000;stroke-width:2.51162505;stroke-linecap:square;stroke-linejoin:miter;stroke-miterlimit:7.66129017;stroke-dasharray:none;stroke-opacity:1"
         id="path266"
         inkscape:connector-curvature="0" />
      <path
         d="m -493.53571,-36.949732 0,0 z"
         style="fill:none;stroke:#000000;stroke-width:2.51162505;stroke-linecap:square;stroke-linejoin:miter;stroke-miterlimit:7.66129017;stroke-dasharray:none;stroke-opacity:1"
         id="path270"
         inkscape:connector-curvature="0" />
      <path
         inkscape:connector-curvature="0"
         id="path364"
         style="fill:#ffffff;fill-opacity:1;fill-rule:evenodd;stroke:none"
         d="m -795.03571,-72.824734 c -5.125,-21 18.875,-40.874996 42.75,-40.874996 7.5,-0.125 15.375,1.875 21.75,5 6.125,-9.5 17.5,-15.375 30.375,-15.375 8.5,0.25 17.5,3.125 23.875,8.25 4.625,-8.375 14.375,-13.375 24.875,-13.375 8.875,0 16.875,3.625 22,9.125 5.875,-5.625 14.75,-9.125 23.875,-9.125 15,0 27.625,8.875 30.375,21.375 14.5,3.375 25,14.749996 25,27.624996 0,4 -0.75,7.75 -3,11.375 6.125,6.25 9.875,14.125 9.875,22.000002 0,18.125 -16.5,33.25 -37.75,35.875 0,17.2499997 -16.375,30.875 -36.875,30.875 -7,0 -13.75,-1.75 -19.625,-4.875 -5.375,15.25 -22.375,26 -41.375,26 -14.25,0 -27.625,-6.5 -35.75,-16.5 -7.5,3.875 -3.625,6.125 -25.25,6.125 -17.75,0 -34.125,-8 -42.75,-20.8750003 -20.5,-0.375 -30.875,-10.62500003 -30.875,-23.4999997 0,-6 2.625,-11.375 7.5,-15.875 -8.875,-3.875 -13.625,-11.375 -13.625,-19.875002 0,-12.125 10.625,-22 24.625,-23.375 l 0,0 z m -24.625,-56.374996 0,0 z m 276.375,170.249998 0,0 z" />
      <path
         d="m -795.03571,-72.824734 c -5.125,-21 18.875,-40.874996 42.75,-40.874996 7.5,-0.125 15.375,1.875 21.75,5 6.125,-9.5 17.5,-15.375 30.375,-15.375 8.5,0.25 17.5,3.125 23.875,8.25 4.625,-8.375 14.375,-13.375 24.875,-13.375 8.875,0 16.875,3.625 22,9.125 5.875,-5.625 14.75,-9.125 23.875,-9.125 15,0 27.625,8.875 30.375,21.375 14.5,3.375 25,14.749996 25,27.624996 0,4 -0.75,7.75 -3,11.375 6.125,6.25 9.875,14.125 9.875,22.000002 0,18.125 -16.5,33.25 -37.75,35.875 0,17.2499997 -16.375,30.875 -36.875,30.875 -7,0 -13.75,-1.75 -19.625,-4.875 -5.375,15.25 -22.375,26 -41.375,26 -14.25,0 -27.625,-6.5 -35.75,-16.5 -7.5,3.875 -3.625,6.125 -25.25,6.125 -17.75,0 -34.125,-8 -42.75,-20.8750003 -20.5,-0.375 -30.875,-10.62500003 -30.875,-23.4999997 0,-6 2.625,-11.375 7.5,-15.875 -8.875,-3.875 -13.625,-11.375 -13.625,-19.875002 0,-12.125 10.625,-22 24.625,-23.375 l 0,0 z"
         style="fill:none;stroke:#000000;stroke-width:2.51162505;stroke-linecap:square;stroke-linejoin:miter;stroke-miterlimit:7.66129017;stroke-dasharray:none;stroke-opacity:1"
         id="path368"
         inkscape:connector-curvature="0" />
      <path
         d="m -819.66071,-129.19973 0,0 z"
         style="fill:none;stroke:#000000;stroke-width:2.51162505;stroke-linecap:square;stroke-linejoin:miter;stroke-miterlimit:7.66129017;stroke-dasharray:none;stroke-opacity:1"
         id="path372"
         inkscape:connector-curvature="0" />
      <path
         d="m -543.28571,41.050268 0,0 z"
         style="fill:none;stroke:#000000;stroke-width:2.51162505;stroke-linecap:square;stroke-linejoin:miter;stroke-miterlimit:7.66129017;stroke-dasharray:none;stroke-opacity:1"
         id="path376"
         inkscape:connector-curvature="0" />
      <path
         d="m -795.03571,-72.824734 c 0.25,2 1.375,4.125 2,6"
         style="fill:none;stroke:#000000;stroke-width:2.51162505;stroke-linecap:square;stroke-linejoin:miter;stroke-miterlimit:7.66129017;stroke-dasharray:none;stroke-opacity:1"
         id="path380"
         inkscape:connector-curvature="0" />
      <path
         d="m -819.66071,-129.19973 0,0 z"
         style="fill:none;stroke:#000000;stroke-width:2.51162505;stroke-linecap:square;stroke-linejoin:miter;stroke-miterlimit:7.66129017;stroke-dasharray:none;stroke-opacity:1"
         id="path384"
         inkscape:connector-curvature="0" />
      <path
         d="m -543.28571,41.050268 0,0 z"
         style="fill:none;stroke:#000000;stroke-width:2.51162505;stroke-linecap:square;stroke-linejoin:miter;stroke-miterlimit:7.66129017;stroke-dasharray:none;stroke-opacity:1"
         id="path388"
         inkscape:connector-curvature="0" />
      <path
         d="m -730.53571,-108.69973 c 3,1.5 6.5,3.5 9,5.625"
         style="fill:none;stroke:#000000;stroke-width:2.51162505;stroke-linecap:square;stroke-linejoin:miter;stroke-miterlimit:7.66129017;stroke-dasharray:none;stroke-opacity:1"
         id="path392"
         inkscape:connector-curvature="0" />
      <path
         d="m -819.66071,-129.19973 0,0 z"
         style="fill:none;stroke:#000000;stroke-width:2.51162505;stroke-linecap:square;stroke-linejoin:miter;stroke-miterlimit:7.66129017;stroke-dasharray:none;stroke-opacity:1"
         id="path396"
         inkscape:connector-curvature="0" />
      <path
         d="m -543.28571,41.050268 0,0 z"
         style="fill:none;stroke:#000000;stroke-width:2.51162505;stroke-linecap:square;stroke-linejoin:miter;stroke-miterlimit:7.66129017;stroke-dasharray:none;stroke-opacity:1"
         id="path400"
         inkscape:connector-curvature="0" />
      <path
         d="m -676.28571,-115.82473 c -1,1.625 -1.625,3.625 -2.25,5.5"
         style="fill:none;stroke:#000000;stroke-width:2.51162505;stroke-linecap:square;stroke-linejoin:miter;stroke-miterlimit:7.66129017;stroke-dasharray:none;stroke-opacity:1"
         id="path404"
         inkscape:connector-curvature="0" />
      <path
         d="m -819.66071,-129.19973 0,0 z"
         style="fill:none;stroke:#000000;stroke-width:2.51162505;stroke-linecap:square;stroke-linejoin:miter;stroke-miterlimit:7.66129017;stroke-dasharray:none;stroke-opacity:1"
         id="path408"
         inkscape:connector-curvature="0" />
      <path
         d="m -543.28571,41.050268 0,0 z"
         style="fill:none;stroke:#000000;stroke-width:2.51162505;stroke-linecap:square;stroke-linejoin:miter;stroke-miterlimit:7.66129017;stroke-dasharray:none;stroke-opacity:1"
         id="path412"
         inkscape:connector-curvature="0" />
      <path
         d="m -629.41071,-120.07473 c -2,1.875 -3,4.375 -4.25,6.625"
         style="fill:none;stroke:#000000;stroke-width:2.51162505;stroke-linecap:square;stroke-linejoin:miter;stroke-miterlimit:7.66129017;stroke-dasharray:none;stroke-opacity:1"
         id="path416"
         inkscape:connector-curvature="0" />
      <path
         d="m -819.66071,-129.19973 0,0 z"
         style="fill:none;stroke:#000000;stroke-width:2.51162505;stroke-linecap:square;stroke-linejoin:miter;stroke-miterlimit:7.66129017;stroke-dasharray:none;stroke-opacity:1"
         id="path420"
         inkscape:connector-curvature="0" />
      <path
         d="m -543.28571,41.050268 0,0 z"
         style="fill:none;stroke:#000000;stroke-width:2.51162505;stroke-linecap:square;stroke-linejoin:miter;stroke-miterlimit:7.66129017;stroke-dasharray:none;stroke-opacity:1"
         id="path424"
         inkscape:connector-curvature="0" />
      <path
         d="m -575.16071,-107.82473 c 0.25,1.375 1.5,4.5 1,5.25"
         style="fill:none;stroke:#000000;stroke-width:2.51162505;stroke-linecap:square;stroke-linejoin:miter;stroke-miterlimit:7.66129017;stroke-dasharray:none;stroke-opacity:1"
         id="path428"
         inkscape:connector-curvature="0" />
      <path
         d="m -819.66071,-129.19973 0,0 z"
         style="fill:none;stroke:#000000;stroke-width:2.51162505;stroke-linecap:square;stroke-linejoin:miter;stroke-miterlimit:7.66129017;stroke-dasharray:none;stroke-opacity:1"
         id="path432"
         inkscape:connector-curvature="0" />
      <path
         d="m -543.28571,41.050268 0,0 z"
         style="fill:none;stroke:#000000;stroke-width:2.51162505;stroke-linecap:square;stroke-linejoin:miter;stroke-miterlimit:7.66129017;stroke-dasharray:none;stroke-opacity:1"
         id="path436"
         inkscape:connector-curvature="0" />
      <path
         d="m -553.16071,-68.824734 c -2.125,4 -5.125,7.5 -9.25,10.5"
         style="fill:none;stroke:#000000;stroke-width:2.51162505;stroke-linecap:square;stroke-linejoin:miter;stroke-miterlimit:7.66129017;stroke-dasharray:none;stroke-opacity:1"
         id="path440"
         inkscape:connector-curvature="0" />
      <path
         d="m -819.66071,-129.19973 0,0 z"
         style="fill:none;stroke:#000000;stroke-width:2.51162505;stroke-linecap:square;stroke-linejoin:miter;stroke-miterlimit:7.66129017;stroke-dasharray:none;stroke-opacity:1"
         id="path444"
         inkscape:connector-curvature="0" />
      <path
         d="m -543.28571,41.050268 0,0 z"
         style="fill:none;stroke:#000000;stroke-width:2.51162505;stroke-linecap:square;stroke-linejoin:miter;stroke-miterlimit:7.66129017;stroke-dasharray:none;stroke-opacity:1"
         id="path448"
         inkscape:connector-curvature="0" />
      <path
         d="m -580.91071,-10.949732 c 1,-6.375 -4.875,-22.125 -21.25,-28"
         style="fill:none;stroke:#000000;stroke-width:2.51162505;stroke-linecap:square;stroke-linejoin:miter;stroke-miterlimit:7.66129017;stroke-dasharray:none;stroke-opacity:1"
         id="path452"
         inkscape:connector-curvature="0" />
      <path
         d="m -819.66071,-129.19973 0,0 z"
         style="fill:none;stroke:#000000;stroke-width:2.51162505;stroke-linecap:square;stroke-linejoin:miter;stroke-miterlimit:7.66129017;stroke-dasharray:none;stroke-opacity:1"
         id="path456"
         inkscape:connector-curvature="0" />
      <path
         d="m -543.28571,41.050268 0,0 z"
         style="fill:none;stroke:#000000;stroke-width:2.51162505;stroke-linecap:square;stroke-linejoin:miter;stroke-miterlimit:7.66129017;stroke-dasharray:none;stroke-opacity:1"
         id="path460"
         inkscape:connector-curvature="0" />
      <path
         d="m -637.53571,15.050268 c 1.125,-2.625 1.5,-5 1.75,-7.5000003"
         style="fill:none;stroke:#000000;stroke-width:2.51162505;stroke-linecap:square;stroke-linejoin:miter;stroke-miterlimit:7.66129017;stroke-dasharray:none;stroke-opacity:1"
         id="path464"
         inkscape:connector-curvature="0" />
      <path
         d="m -819.66071,-129.19973 0,0 z"
         style="fill:none;stroke:#000000;stroke-width:2.51162505;stroke-linecap:square;stroke-linejoin:miter;stroke-miterlimit:7.66129017;stroke-dasharray:none;stroke-opacity:1"
         id="path468"
         inkscape:connector-curvature="0" />
      <path
         d="m -543.28571,41.050268 0,0 z"
         style="fill:none;stroke:#000000;stroke-width:2.51162505;stroke-linecap:square;stroke-linejoin:miter;stroke-miterlimit:7.66129017;stroke-dasharray:none;stroke-opacity:1"
         id="path472"
         inkscape:connector-curvature="0" />
      <path
         d="m -714.53571,24.550268 c -2,-2.125 -3.375,-4.5 -4.625,-6.875"
         style="fill:none;stroke:#000000;stroke-width:2.51162505;stroke-linecap:square;stroke-linejoin:miter;stroke-miterlimit:7.66129017;stroke-dasharray:none;stroke-opacity:1"
         id="path476"
         inkscape:connector-curvature="0" />
      <path
         d="m -819.66071,-129.19973 0,0 z"
         style="fill:none;stroke:#000000;stroke-width:2.51162505;stroke-linecap:square;stroke-linejoin:miter;stroke-miterlimit:7.66129017;stroke-dasharray:none;stroke-opacity:1"
         id="path480"
         inkscape:connector-curvature="0" />
      <path
         d="m -543.28571,41.050268 0,0 z"
         style="fill:none;stroke:#000000;stroke-width:2.51162505;stroke-linecap:square;stroke-linejoin:miter;stroke-miterlimit:7.66129017;stroke-dasharray:none;stroke-opacity:1"
         id="path484"
         inkscape:connector-curvature="0" />
      <path
         d="m -782.66071,9.8002677 c 2.5,-0.375 4.875,-0.75 7.25,-1.5"
         style="fill:none;stroke:#000000;stroke-width:2.51162505;stroke-linecap:square;stroke-linejoin:miter;stroke-miterlimit:7.66129017;stroke-dasharray:none;stroke-opacity:1"
         id="path488"
         inkscape:connector-curvature="0" />
      <path
         d="m -819.66071,-129.19973 0,0 z"
         style="fill:none;stroke:#000000;stroke-width:2.51162505;stroke-linecap:square;stroke-linejoin:miter;stroke-miterlimit:7.66129017;stroke-dasharray:none;stroke-opacity:1"
         id="path492"
         inkscape:connector-curvature="0" />
      <path
         d="m -543.28571,41.050268 0,0 z"
         style="fill:none;stroke:#000000;stroke-width:2.51162505;stroke-linecap:square;stroke-linejoin:miter;stroke-miterlimit:7.66129017;stroke-dasharray:none;stroke-opacity:1"
         id="path496"
         inkscape:connector-curvature="0" />
      <path
         d="m -806.03571,-29.574732 c 4.25,2 9.125,3.75 16.125,3.125"
         style="fill:none;stroke:#000000;stroke-width:2.51162505;stroke-linecap:square;stroke-linejoin:miter;stroke-miterlimit:7.66129017;stroke-dasharray:none;stroke-opacity:1"
         id="path500"
         inkscape:connector-curvature="0" />
      <path
         d="m -819.66071,-129.19973 0,0 z"
         style="fill:none;stroke:#000000;stroke-width:2.51162505;stroke-linecap:square;stroke-linejoin:miter;stroke-miterlimit:7.66129017;stroke-dasharray:none;stroke-opacity:1"
         id="path504"
         inkscape:connector-curvature="0" />
      <path
         d="m -543.28571,41.050268 0,0 z"
         style="fill:none;stroke:#000000;stroke-width:2.51162505;stroke-linecap:square;stroke-linejoin:miter;stroke-miterlimit:7.66129017;stroke-dasharray:none;stroke-opacity:1"
         id="path508"
         inkscape:connector-curvature="0" />
      <path
         inkscape:connector-curvature="0"
         id="path510"
         style="fill:#ffffff;fill-opacity:1;fill-rule:evenodd;stroke:none"
         d="m -750.28571,8.0502677 c 13,0 23,6.1250003 23,14.1250003 0,8 -10,14.125 -23,14.125 -13.125,0 -23,-6.125 -23,-14.125 0,-8 9.875,-14.1250003 23,-14.1250003 z m -69.375,-137.2499977 0,0 z m 276.375,170.249998 0,0 z" />
      <path
         d="m -750.28571,8.0502677 c 13,0 23,6.1250003 23,14.1250003 0,8 -10,14.125 -23,14.125 -13.125,0 -23,-6.125 -23,-14.125 0,-8 9.875,-14.1250003 23,-14.1250003 z"
         style="fill:none;stroke:#000000;stroke-width:2.51162505;stroke-linecap:square;stroke-linejoin:miter;stroke-miterlimit:7.66129017;stroke-dasharray:none;stroke-opacity:1"
         id="path514"
         inkscape:connector-curvature="0" />
      <path
         d="m -819.66071,-129.19973 0,0 z"
         style="fill:none;stroke:#000000;stroke-width:2.51162505;stroke-linecap:square;stroke-linejoin:miter;stroke-miterlimit:7.66129017;stroke-dasharray:none;stroke-opacity:1"
         id="path518"
         inkscape:connector-curvature="0" />
      <path
         d="m -543.28571,41.050268 0,0 z"
         style="fill:none;stroke:#000000;stroke-width:2.51162505;stroke-linecap:square;stroke-linejoin:miter;stroke-miterlimit:7.66129017;stroke-dasharray:none;stroke-opacity:1"
         id="path522"
         inkscape:connector-curvature="0" />
      <path
         inkscape:connector-curvature="0"
         id="path524"
         style="fill:#ffffff;fill-opacity:1;fill-rule:evenodd;stroke:none"
         d="m -757.16071,19.300268 c 8.75,0 15.375,4.125 15.375,9.5 0,5.375 -6.625,9.375 -15.375,9.375 -8.625,0 -15.25,-4 -15.25,-9.375 0,-5.375 6.625,-9.5 15.25,-9.5 z m -62.5,-148.499998 0,0 z m 276.375,170.249998 0,0 z" />
      <path
         d="m -757.16071,19.300268 c 8.75,0 15.375,4.125 15.375,9.5 0,5.375 -6.625,9.375 -15.375,9.375 -8.625,0 -15.25,-4 -15.25,-9.375 0,-5.375 6.625,-9.5 15.25,-9.5 z"
         style="fill:none;stroke:#000000;stroke-width:2.51162505;stroke-linecap:square;stroke-linejoin:miter;stroke-miterlimit:7.66129017;stroke-dasharray:none;stroke-opacity:1"
         id="path528"
         inkscape:connector-curvature="0" />
      <path
         d="m -819.66071,-129.19973 0,0 z"
         style="fill:none;stroke:#000000;stroke-width:2.51162505;stroke-linecap:square;stroke-linejoin:miter;stroke-miterlimit:7.66129017;stroke-dasharray:none;stroke-opacity:1"
         id="path532"
         inkscape:connector-curvature="0" />
      <path
         d="m -543.28571,41.050268 0,0 z"
         style="fill:none;stroke:#000000;stroke-width:2.51162505;stroke-linecap:square;stroke-linejoin:miter;stroke-miterlimit:7.66129017;stroke-dasharray:none;stroke-opacity:1"
         id="path536"
         inkscape:connector-curvature="0" />
      <path
         inkscape:connector-curvature="0"
         id="path538"
         style="fill:#ffffff;fill-opacity:1;fill-rule:evenodd;stroke:none"
         d="m -757.78571,23.925268 c 5.125,0 9,2.375 9,5.5 0,3 -3.875,5.375 -9,5.375 -5,0 -8.875,-2.375 -8.875,-5.375 0,-3.125 3.875,-5.5 8.875,-5.5 z m -61.875,-153.124998 0,0 z m 276.375,170.249998 0,0 z" />
      <path
         d="m -757.78571,23.925268 c 5.125,0 9,2.375 9,5.5 0,3 -3.875,5.375 -9,5.375 -5,0 -8.875,-2.375 -8.875,-5.375 0,-3.125 3.875,-5.5 8.875,-5.5 z"
         style="fill:none;stroke:#000000;stroke-width:2.51162505;stroke-linecap:square;stroke-linejoin:miter;stroke-miterlimit:7.66129017;stroke-dasharray:none;stroke-opacity:1"
         id="path542"
         inkscape:connector-curvature="0" />
      <path
         d="m -819.66071,-129.19973 0,0 z"
         style="fill:none;stroke:#000000;stroke-width:2.51162505;stroke-linecap:square;stroke-linejoin:miter;stroke-miterlimit:7.66129017;stroke-dasharray:none;stroke-opacity:1"
         id="path546"
         inkscape:connector-curvature="0" />
      <path
         d="m -543.28571,41.050268 0,0 z"
         style="fill:none;stroke:#000000;stroke-width:2.51162505;stroke-linecap:square;stroke-linejoin:miter;stroke-miterlimit:7.66129017;stroke-dasharray:none;stroke-opacity:1"
         id="path550"
         inkscape:connector-curvature="0" />
      <text
         y="-75.949722"
         x="-735.66071"
         style="font-variant:normal;font-weight:normal;font-size:22.5px;font-family:'DejaVu Sans';-inkscape-font-specification:DejaVuSans;writing-mode:lr-tb;fill:#000000;fill-opacity:1;fill-rule:nonzero;stroke:none"
         id="text554">
        <tspan
           x="-735.66071 -729.04572 -714.80322 -706.05072 -692.19073 -683.32574 -669.08319 -655.33569"
           y="-75.949722"
           sodipodi:role="line"
           id="tspan556">Internet</tspan>
      </text>
      <text
         y="-48.949741"
         x="-712.16071"
         style="font-variant:normal;font-weight:normal;font-size:22.5px;font-family:'DejaVu Sans';-inkscape-font-specification:DejaVuSans;writing-mode:lr-tb;fill:#000000;fill-opacity:1;fill-rule:nonzero;stroke:none"
         id="text560">
        <tspan
           x="-712.16071 -690.53821 -684.30573 -676.31824"
           y="-48.949741"
           sodipodi:role="line"
           id="tspan562">Wifi</tspan>
      </text>
      <text
         y="-21.949734"
         x="-756.41071"
         style="font-variant:normal;font-weight:normal;font-size:22.5px;font-family:'DejaVu Sans';-inkscape-font-specification:DejaVuSans;writing-mode:lr-tb;fill:#000000;fill-opacity:1;fill-rule:nonzero;stroke:none"
         id="text566">
        <tspan
           x="-756.41071 -741.92072 -728.06073 -713.81824 -706.68573 -692.44318 -678.58325 -671.45068 -657.5907 -648.74823 -639.50067 -625.75323"
           y="-21.949734"
           sodipodi:role="line"
           id="tspan568">Red de otra</tspan>
      </text>
      <text
         y="5.0502739"
         x="-740.03571"
         style="font-variant:normal;font-weight:normal;font-size:22.5px;font-family:'DejaVu Sans';-inkscape-font-specification:DejaVuSans;writing-mode:lr-tb;fill:#000000;fill-opacity:1;fill-rule:nonzero;stroke:none"
         id="text572">
        <tspan
           x="-740.03571 -726.17572 -704.30573 -690.06323 -681.44568 -667.58569 -655.86322"
           y="5.0502739"
           sodipodi:role="line"
           id="tspan574">empresa</tspan>
      </text>
    </g>
  </g>
</svg>
