<?xml version="1.0" encoding="UTF-8" standalone="no"?>
<!-- Created with Inkscape (http://www.inkscape.org/) -->

<svg
   xmlns:dc="http://purl.org/dc/elements/1.1/"
   xmlns:cc="http://creativecommons.org/ns#"
   xmlns:rdf="http://www.w3.org/1999/02/22-rdf-syntax-ns#"
   xmlns:svg="http://www.w3.org/2000/svg"
   xmlns="http://www.w3.org/2000/svg"
   xmlns:sodipodi="http://sodipodi.sourceforge.net/DTD/sodipodi-0.dtd"
   xmlns:inkscape="http://www.inkscape.org/namespaces/inkscape"
   width="257.6301mm"
   height="144.91887mm"
   viewBox="0 0 912.86255 513.49205"
   id="svg7085"
   version="1.1"
   inkscape:version="0.91 r13725"
   sodipodi:docname="interfaces-virtuales.svg">
  <defs
     id="defs7087">
    <marker
       inkscape:stockid="Arrow1Lend"
       orient="auto"
       refY="0"
       refX="0"
       id="Arrow1Lend"
       style="overflow:visible"
       inkscape:isstock="true">
      <path
         id="path4414"
         d="M 0,0 5,-5 -12.5,0 5,5 0,0 Z"
         style="fill:#000000;fill-opacity:1;fill-rule:evenodd;stroke:#000000;stroke-width:1pt;stroke-opacity:1"
         transform="matrix(-0.8,0,0,-0.8,-10,0)"
         inkscape:connector-curvature="0" />
    </marker>
    <marker
       inkscape:stockid="Arrow1Lend"
       orient="auto"
       refY="0"
       refX="0"
       id="Arrow1Lend-8"
       style="overflow:visible"
       inkscape:isstock="true">
      <path
         inkscape:connector-curvature="0"
         id="path4414-9"
         d="M 0,0 5,-5 -12.5,0 5,5 0,0 Z"
         style="fill:#000000;fill-opacity:1;fill-rule:evenodd;stroke:#000000;stroke-width:1pt;stroke-opacity:1"
         transform="matrix(-0.8,0,0,-0.8,-10,0)" />
    </marker>
    <marker
       inkscape:stockid="Arrow1Lend"
       orient="auto"
       refY="0"
       refX="0"
       id="Arrow1Lend-8-5"
       style="overflow:visible"
       inkscape:isstock="true">
      <path
         inkscape:connector-curvature="0"
         id="path4414-9-6"
         d="M 0,0 5,-5 -12.5,0 5,5 0,0 Z"
         style="fill:#000000;fill-opacity:1;fill-rule:evenodd;stroke:#000000;stroke-width:1pt;stroke-opacity:1"
         transform="matrix(-0.8,0,0,-0.8,-10,0)" />
    </marker>
    <marker
       inkscape:stockid="Arrow1Lend"
       orient="auto"
       refY="0"
       refX="0"
       id="Arrow1Lend-8-5-7"
       style="overflow:visible"
       inkscape:isstock="true">
      <path
         inkscape:connector-curvature="0"
         id="path4414-9-6-8"
         d="M 0,0 5,-5 -12.5,0 5,5 0,0 Z"
         style="fill:#000000;fill-opacity:1;fill-rule:evenodd;stroke:#000000;stroke-width:1pt;stroke-opacity:1"
         transform="matrix(-0.8,0,0,-0.8,-10,0)" />
    </marker>
    <marker
       inkscape:stockid="Arrow1Lend"
       orient="auto"
       refY="0"
       refX="0"
       id="Arrow1Lend-8-8"
       style="overflow:visible"
       inkscape:isstock="true">
      <path
         inkscape:connector-curvature="0"
         id="path4414-9-8"
         d="M 0,0 5,-5 -12.5,0 5,5 0,0 Z"
         style="fill:#000000;fill-opacity:1;fill-rule:evenodd;stroke:#000000;stroke-width:1pt;stroke-opacity:1"
         transform="matrix(-0.8,0,0,-0.8,-10,0)" />
    </marker>
    <marker
       inkscape:stockid="Arrow1Lend"
       orient="auto"
       refY="0"
       refX="0"
       id="Arrow1Lend-8-8-9"
       style="overflow:visible"
       inkscape:isstock="true">
      <path
         inkscape:connector-curvature="0"
         id="path4414-9-8-0"
         d="M 0,0 5,-5 -12.5,0 5,5 0,0 Z"
         style="fill:#000000;fill-opacity:1;fill-rule:evenodd;stroke:#000000;stroke-width:1pt;stroke-opacity:1"
         transform="matrix(-0.8,0,0,-0.8,-10,0)" />
    </marker>
  </defs>
  <sodipodi:namedview
     id="base"
     pagecolor="#ffffff"
     bordercolor="#666666"
     borderopacity="1.0"
     inkscape:pageopacity="0.0"
     inkscape:pageshadow="2"
     inkscape:zoom="0.49497475"
     inkscape:cx="609.8074"
     inkscape:cy="107.67442"
     inkscape:document-units="px"
     inkscape:current-layer="layer1"
     showgrid="false"
     fit-margin-top="0"
     fit-margin-left="0"
     fit-margin-right="0"
     fit-margin-bottom="0"
     inkscape:window-width="1600"
     inkscape:window-height="836"
     inkscape:window-x="0"
     inkscape:window-y="27"
     inkscape:window-maximized="1" />
  <metadata
     id="metadata7090">
    <rdf:RDF>
      <cc:Work
         rdf:about="">
        <dc:format>image/svg+xml</dc:format>
        <dc:type
           rdf:resource="http://purl.org/dc/dcmitype/StillImage" />
        <dc:title></dc:title>
      </cc:Work>
    </rdf:RDF>
  </metadata>
  <g
     inkscape:label="Layer 1"
     inkscape:groupmode="layer"
     id="layer1"
     transform="translate(1047.6409,624.2888)">
    <rect
       style="color:#000000;clip-rule:nonzero;display:inline;overflow:visible;visibility:visible;opacity:1;isolation:auto;mix-blend-mode:normal;color-interpolation:sRGB;color-interpolation-filters:linearRGB;solid-color:#000000;solid-opacity:1;fill:#ffffff;fill-opacity:1;fill-rule:nonzero;stroke:#000000;stroke-width:2;stroke-linecap:butt;stroke-linejoin:miter;stroke-miterlimit:4;stroke-dasharray:none;stroke-dashoffset:0;stroke-opacity:1;marker:none;color-rendering:auto;image-rendering:auto;shape-rendering:auto;text-rendering:auto;enable-background:accumulate"
       id="rect4216"
       width="383.54059"
       height="60.957787"
       x="-953.15527"
       y="-216.47388"
       rx="0.252538"
       ry="0.252538" />
    <rect
       style="color:#000000;clip-rule:nonzero;display:inline;overflow:visible;visibility:visible;opacity:1;isolation:auto;mix-blend-mode:normal;color-interpolation:sRGB;color-interpolation-filters:linearRGB;solid-color:#000000;solid-opacity:1;fill:#000000;fill-opacity:1;fill-rule:nonzero;stroke:#000000;stroke-width:2;stroke-linecap:butt;stroke-linejoin:miter;stroke-miterlimit:4;stroke-dasharray:none;stroke-dashoffset:0;stroke-opacity:1;marker:none;color-rendering:auto;image-rendering:auto;shape-rendering:auto;text-rendering:auto;enable-background:accumulate"
       id="rect4216-3"
       width="520.20404"
       height="6.7976384"
       x="-1009.6856"
       y="-118.59447"
       rx="0.252538"
       ry="0.252538" />
    <rect
       style="color:#000000;clip-rule:nonzero;display:inline;overflow:visible;visibility:visible;opacity:1;isolation:auto;mix-blend-mode:normal;color-interpolation:sRGB;color-interpolation-filters:linearRGB;solid-color:#000000;solid-opacity:1;fill:#000000;fill-opacity:1;fill-rule:nonzero;stroke:#000000;stroke-width:2.00000024;stroke-linecap:butt;stroke-linejoin:miter;stroke-miterlimit:4;stroke-dasharray:none;stroke-dashoffset:0;stroke-opacity:1;marker:none;color-rendering:auto;image-rendering:auto;shape-rendering:auto;text-rendering:auto;enable-background:accumulate"
       id="rect4216-3-6"
       width="8.3222551"
       height="43.173866"
       x="-773.96118"
       y="-154.97069"
       rx="0.25253806"
       ry="0.252538" />
    <path
       inkscape:connector-curvature="0"
       id="path5982-7"
       style="fill:none;stroke:#000000;stroke-width:1.23812497;stroke-linecap:square;stroke-linejoin:miter;stroke-miterlimit:7.66129017;stroke-dasharray:none;stroke-opacity:1"
       d="m -935.90386,-197.67368 72.24369,0 0,18.81459 -72.24369,0 0,-18.81459 0,0 z" />
    <path
       inkscape:connector-curvature="0"
       id="path5986-5"
       style="fill:none;stroke:#000000;stroke-width:1.23812497;stroke-linecap:square;stroke-linejoin:miter;stroke-miterlimit:7.66129017;stroke-dasharray:none;stroke-opacity:1"
       d="m -935.90386,-197.67368 0,0 z" />
    <path
       inkscape:connector-curvature="0"
       id="path5990-3"
       style="fill:none;stroke:#000000;stroke-width:1.23812497;stroke-linecap:square;stroke-linejoin:miter;stroke-miterlimit:7.66129017;stroke-dasharray:none;stroke-opacity:1"
       d="m -863.66017,-178.85909 0,0 z" />
    <text
       id="text5994-5"
       style="font-variant:normal;font-weight:normal;font-size:11.31914425px;font-family:Arial;-inkscape-font-specification:ArialMT;writing-mode:lr-tb;fill:#000000;fill-opacity:1;fill-rule:nonzero;stroke:none"
       x="-926.25079"
       y="-183.84435"
       transform="scale(1.0001852,0.99981483)">
      <tspan
         id="tspan5996-6"
         sodipodi:role="line"
         y="-183.84435"
         x="-926.25079 -918.11237 -911.81885 -905.59332 -902.42401 -894.93073 -891.76135 -885.4679 -879.17444 -875.77869">Cab Ether.</tspan>
    </text>
    <path
       inkscape:connector-curvature="0"
       id="path6000-2"
       style="fill:none;stroke:#000000;stroke-width:1.23812497;stroke-linecap:square;stroke-linejoin:miter;stroke-miterlimit:7.66129017;stroke-dasharray:none;stroke-opacity:1"
       d="m -863.66017,-197.67368 276.94584,0 0,19.45118 -276.94584,0 0,-19.45118 0,0 z" />
    <path
       inkscape:connector-curvature="0"
       id="path6004-9"
       style="fill:none;stroke:#000000;stroke-width:1.23812497;stroke-linecap:square;stroke-linejoin:miter;stroke-miterlimit:7.66129017;stroke-dasharray:none;stroke-opacity:1"
       d="m -863.66017,-197.67368 0,0 z" />
    <path
       inkscape:connector-curvature="0"
       id="path6008-1"
       style="fill:none;stroke:#000000;stroke-width:1.23812497;stroke-linecap:square;stroke-linejoin:miter;stroke-miterlimit:7.66129017;stroke-dasharray:none;stroke-opacity:1"
       d="m -586.71433,-178.2225 0,0 z" />
    <path
       inkscape:connector-curvature="0"
       id="path6012-2"
       style="fill:none;stroke:#000000;stroke-width:1.23812497;stroke-linecap:square;stroke-linejoin:miter;stroke-miterlimit:7.66129017;stroke-dasharray:none;stroke-opacity:1"
       d="m -851.5606,-195.12735 64.24804,0 0,13.72193 -64.24804,0 0,-13.72193 0,0 z" />
    <path
       inkscape:connector-curvature="0"
       id="path6016-7"
       style="fill:none;stroke:#000000;stroke-width:1.23812497;stroke-linecap:square;stroke-linejoin:miter;stroke-miterlimit:7.66129017;stroke-dasharray:none;stroke-opacity:1"
       d="m -851.5606,-195.12735 0,0 z" />
    <path
       inkscape:connector-curvature="0"
       id="path6020-0"
       style="fill:none;stroke:#000000;stroke-width:1.23812497;stroke-linecap:square;stroke-linejoin:miter;stroke-miterlimit:7.66129017;stroke-dasharray:none;stroke-opacity:1"
       d="m -787.31256,-181.40542 0,0 z" />
    <text
       id="text6024-9"
       style="font-variant:normal;font-weight:normal;font-size:7.0744648px;font-family:Arial;-inkscape-font-specification:ArialMT;writing-mode:lr-tb;fill:#000000;fill-opacity:1;fill-rule:nonzero;stroke:none"
       x="-830.03802"
       y="-185.47147"
       transform="scale(1.0001852,0.99981483)">
      <tspan
         id="tspan6026-3"
         sodipodi:role="line"
         y="-185.47147"
         x="-830.03802 -824.94446 -821.05347 -817.16254 -815.18872 -813.27863">Cab IP</tspan>
    </text>
    <path
       inkscape:connector-curvature="0"
       id="path6030-6"
       style="fill:none;stroke:#000000;stroke-width:1.23812497;stroke-linecap:square;stroke-linejoin:miter;stroke-miterlimit:7.66129017;stroke-dasharray:none;stroke-opacity:1"
       d="m -787.31256,-195.12735 196.56503,0 0,13.72193 -196.56503,0 0,-13.72193 0,0 z" />
    <path
       inkscape:connector-curvature="0"
       id="path6034-0"
       style="fill:none;stroke:#000000;stroke-width:1.23812497;stroke-linecap:square;stroke-linejoin:miter;stroke-miterlimit:7.66129017;stroke-dasharray:none;stroke-opacity:1"
       d="m -787.31256,-195.12735 0,0 z" />
    <path
       inkscape:connector-curvature="0"
       id="path6038-6"
       style="fill:none;stroke:#000000;stroke-width:1.23812497;stroke-linecap:square;stroke-linejoin:miter;stroke-miterlimit:7.66129017;stroke-dasharray:none;stroke-opacity:1"
       d="m -590.74753,-181.40542 0,0 z" />
    <text
       id="text6042-2"
       style="font-variant:normal;font-weight:normal;font-size:7.0744648px;font-family:Arial;-inkscape-font-specification:ArialMT;writing-mode:lr-tb;fill:#000000;fill-opacity:1;fill-rule:nonzero;stroke:none"
       x="-739.48486"
       y="-185.47147"
       transform="scale(1.0001852,0.99981483)">
      <tspan
         id="tspan6044-6"
         sodipodi:role="line"
         y="-185.47147"
         x="-739.48486 -735.53027 -731.63928 -724.49408 -721.87653 -719.25897 -715.36804 -712.61609 -709.9278 -707.2395 -702.86041 -697.76672 -695.43219 -693.03394 -690.69934 -686.59619 -684.19794 -680.30695 -674.01776 -667.79224 -663.12311 -655.97791 -654.00415 -652.17188 -648.28088 -644.67999">$#@ªª1***¿Ç¨{{+-?%%&amp;@!|as%</tspan>
    </text>
    <text
       xml:space="preserve"
       style="font-style:normal;font-weight:normal;font-size:5.65957212px;line-height:125%;font-family:Sans;letter-spacing:0px;word-spacing:0px;fill:#000000;fill-opacity:1;stroke:none;stroke-width:1px;stroke-linecap:butt;stroke-linejoin:miter;stroke-opacity:1"
       x="-603.47327"
       y="-141.48166"
       id="text4314"
       sodipodi:linespacing="125%"
       transform="scale(1.0001852,0.99981483)"><tspan
         sodipodi:role="line"
         id="tspan4316"
         x="-603.47327"
         y="-141.48166"
         style="font-size:14.1489296px">eth0</tspan></text>
    <rect
       style="color:#000000;clip-rule:nonzero;display:inline;overflow:visible;visibility:visible;opacity:1;isolation:auto;mix-blend-mode:normal;color-interpolation:sRGB;color-interpolation-filters:linearRGB;solid-color:#000000;solid-opacity:1;fill:#ffffff;fill-opacity:1;fill-rule:nonzero;stroke:#000000;stroke-width:2;stroke-linecap:butt;stroke-linejoin:miter;stroke-miterlimit:4;stroke-dasharray:none;stroke-dashoffset:0;stroke-opacity:1;marker:none;color-rendering:auto;image-rendering:auto;shape-rendering:auto;text-rendering:auto;enable-background:accumulate"
       id="rect4216-2"
       width="383.54059"
       height="60.957787"
       x="-952.75024"
       y="-368.75754"
       rx="0.252538"
       ry="0.252538" />
    <path
       inkscape:connector-curvature="0"
       id="path5932-8"
       style="fill:none;stroke:#000000;stroke-width:1.23812497;stroke-linecap:square;stroke-linejoin:miter;stroke-miterlimit:7.66129017;stroke-dasharray:none;stroke-opacity:1"
       d="m -885.69402,-339.6836 68.21047,0 0,18.81459 -68.21047,0 0,-18.81459 0,0 z" />
    <path
       inkscape:connector-curvature="0"
       id="path5936-7"
       style="fill:none;stroke:#000000;stroke-width:1.23812497;stroke-linecap:square;stroke-linejoin:miter;stroke-miterlimit:7.66129017;stroke-dasharray:none;stroke-opacity:1"
       d="m -885.69402,-339.6836 0,0 z" />
    <path
       inkscape:connector-curvature="0"
       id="path5940-9"
       style="fill:none;stroke:#000000;stroke-width:1.23812497;stroke-linecap:square;stroke-linejoin:miter;stroke-miterlimit:7.66129017;stroke-dasharray:none;stroke-opacity:1"
       d="m -817.48355,-320.86901 0,0 z" />
    <text
       id="text5944-2"
       style="font-variant:normal;font-weight:normal;font-size:11.31914425px;font-family:Arial;-inkscape-font-specification:ArialMT;writing-mode:lr-tb;fill:#000000;fill-opacity:1;fill-rule:nonzero;stroke:none"
       x="-868.69281"
       y="-325.80984"
       transform="scale(1.0001852,0.99981483)">
      <tspan
         id="tspan5946-0"
         sodipodi:role="line"
         y="-325.80984"
         x="-868.69281 -860.55432 -854.26093 -847.96747 -844.85468 -841.74194">Cab IP</tspan>
    </text>
    <path
       inkscape:connector-curvature="0"
       id="path5950-2"
       style="fill:none;stroke:#000000;stroke-width:1.23812497;stroke-linecap:square;stroke-linejoin:miter;stroke-miterlimit:7.66129017;stroke-dasharray:none;stroke-opacity:1"
       d="m -817.55431,-339.6836 208.73537,0 0,18.81459 -208.73537,0 0,-18.81459 0,0 z" />
    <path
       inkscape:connector-curvature="0"
       id="path5954-3"
       style="fill:none;stroke:#000000;stroke-width:1.23812497;stroke-linecap:square;stroke-linejoin:miter;stroke-miterlimit:7.66129017;stroke-dasharray:none;stroke-opacity:1"
       d="m -817.55431,-339.6836 0,0 z" />
    <path
       inkscape:connector-curvature="0"
       id="path5958-7"
       style="fill:none;stroke:#000000;stroke-width:1.23812497;stroke-linecap:square;stroke-linejoin:miter;stroke-miterlimit:7.66129017;stroke-dasharray:none;stroke-opacity:1"
       d="m -608.81894,-320.86901 0,0 z" />
    <text
       id="text5962-5"
       style="font-variant:normal;font-weight:normal;font-size:11.31914425px;font-family:Arial;-inkscape-font-specification:ArialMT;writing-mode:lr-tb;fill:#000000;fill-opacity:1;fill-rule:nonzero;stroke:none"
       x="-793.98645"
       y="-325.80984"
       transform="scale(1.0001852,0.99981483)">
      <tspan
         id="tspan5964-9"
         sodipodi:role="line"
         y="-325.80984"
         x="-793.98645 -787.76093 -781.46747 -770.01251 -765.83575 -761.659 -755.36554 -750.98499 -746.60455 -742.15607 -735.29669 -727.1582 -723.41156 -719.66498 -715.91833 -709.34192 -705.59528 -699.30182 -689.32965 -679.28955 -671.72839 -660.27344 -657.16064 -654.19501 -647.90155 -642.242">$#@ªª1***¿Ç¨{{+-?%%&amp;@!|as%</tspan>
    </text>
    <rect
       style="color:#000000;clip-rule:nonzero;display:inline;overflow:visible;visibility:visible;opacity:1;isolation:auto;mix-blend-mode:normal;color-interpolation:sRGB;color-interpolation-filters:linearRGB;solid-color:#000000;solid-opacity:1;fill:#ffffff;fill-opacity:1;fill-rule:nonzero;stroke:#000000;stroke-width:2;stroke-linecap:butt;stroke-linejoin:miter;stroke-miterlimit:4;stroke-dasharray:none;stroke-dashoffset:0;stroke-opacity:1;marker:none;color-rendering:auto;image-rendering:auto;shape-rendering:auto;text-rendering:auto;enable-background:accumulate"
       id="rect4216-2-3"
       width="383.54059"
       height="60.957787"
       x="-519.31897"
       y="-367.61435"
       rx="0.252538"
       ry="0.252538" />
    <rect
       style="color:#000000;clip-rule:nonzero;display:inline;overflow:visible;visibility:visible;opacity:1;isolation:auto;mix-blend-mode:normal;color-interpolation:sRGB;color-interpolation-filters:linearRGB;solid-color:#000000;solid-opacity:1;fill:#ffffff;fill-opacity:1;fill-rule:nonzero;stroke:#000000;stroke-width:2;stroke-linecap:butt;stroke-linejoin:miter;stroke-miterlimit:4;stroke-dasharray:none;stroke-dashoffset:0;stroke-opacity:1;marker:none;color-rendering:auto;image-rendering:auto;shape-rendering:auto;text-rendering:auto;enable-background:accumulate"
       id="rect4216-2-3-6"
       width="383.54059"
       height="60.957787"
       x="-960.75549"
       y="-592.82367"
       rx="0.252538"
       ry="0.252538" />
    <path
       inkscape:connector-curvature="0"
       id="path5878-1"
       style="fill:none;stroke:#000000;stroke-width:1.23812497;stroke-linecap:square;stroke-linejoin:miter;stroke-miterlimit:7.66129017;stroke-dasharray:none;stroke-opacity:1"
       d="m -883.64548,-569.46569 208.73537,0 0,18.81459 -208.73537,0 0,-18.81459 0,0 z" />
    <path
       inkscape:connector-curvature="0"
       id="path5882-2"
       style="fill:none;stroke:#000000;stroke-width:1.23812497;stroke-linecap:square;stroke-linejoin:miter;stroke-miterlimit:7.66129017;stroke-dasharray:none;stroke-opacity:1"
       d="m -883.64548,-569.46569 0,0 z" />
    <path
       inkscape:connector-curvature="0"
       id="path5886-9"
       style="fill:none;stroke:#000000;stroke-width:1.23812497;stroke-linecap:square;stroke-linejoin:miter;stroke-miterlimit:7.66129017;stroke-dasharray:none;stroke-opacity:1"
       d="m -674.91011,-550.6511 0,0 z" />
    <text
       id="text5890-3"
       style="font-variant:normal;font-weight:normal;font-size:11.31914425px;font-family:Arial;-inkscape-font-specification:ArialMT;writing-mode:lr-tb;fill:#000000;fill-opacity:1;fill-rule:nonzero;stroke:none"
       x="-860.06537"
       y="-555.63446"
       transform="scale(1.0001852,0.99981483)">
      <tspan
         id="tspan5892-1"
         sodipodi:role="line"
         y="-555.63446"
         x="-860.06537 -853.83984 -847.54639 -836.09143 -831.91467 -827.73785 -821.44446 -817.0639 -812.68341 -808.23499 -801.37561 -793.23712 -789.49054 -785.7439 -781.99719 -775.42084 -771.67419 -765.38074 -755.40857 -745.36847 -737.80731 -726.35236 -723.23956 -720.27393 -713.98053 -708.32092">$#@ªª1***¿Ç¨{{+-?%%&amp;@!|as%</tspan>
    </text>
    <text
       xml:space="preserve"
       style="font-style:normal;font-weight:normal;font-size:5.65957212px;line-height:125%;font-family:Sans;letter-spacing:0px;word-spacing:0px;fill:#000000;fill-opacity:1;stroke:none;stroke-width:1px;stroke-linecap:butt;stroke-linejoin:miter;stroke-opacity:1"
       x="-240.62338"
       y="-291.90393"
       id="text4314-9"
       sodipodi:linespacing="125%"
       transform="scale(1.0001852,0.99981483)"><tspan
         sodipodi:role="line"
         id="tspan4316-4"
         x="-240.62338"
         y="-291.90393"
         style="font-size:14.1489296px">Interfaz virtual</tspan></text>
    <path
       inkscape:connector-curvature="0"
       id="path5794-7"
       style="fill:none;stroke:#000000;stroke-width:1.23812497;stroke-linecap:square;stroke-linejoin:miter;stroke-miterlimit:7.66129017;stroke-dasharray:none;stroke-opacity:1"
       d="m -436.42009,-346.89642 68.21047,0 0,18.81459 -68.21047,0 0,-18.81459 0,0 z" />
    <path
       inkscape:connector-curvature="0"
       id="path5798-8"
       style="fill:none;stroke:#000000;stroke-width:1.23812497;stroke-linecap:square;stroke-linejoin:miter;stroke-miterlimit:7.66129017;stroke-dasharray:none;stroke-opacity:1"
       d="m -436.42009,-346.89642 0,0 z" />
    <path
       inkscape:connector-curvature="0"
       id="path5802-4"
       style="fill:none;stroke:#000000;stroke-width:1.23812497;stroke-linecap:square;stroke-linejoin:miter;stroke-miterlimit:7.66129017;stroke-dasharray:none;stroke-opacity:1"
       d="m -368.20962,-328.08183 0,0 z" />
    <text
       id="text5806-5"
       style="font-variant:normal;font-weight:normal;font-size:11.31914425px;font-family:Arial;-inkscape-font-specification:ArialMT;writing-mode:lr-tb;fill:#000000;fill-opacity:1;fill-rule:nonzero;stroke:none"
       x="-419.57281"
       y="-333.02399"
       transform="scale(1.0001852,0.99981483)">
      <tspan
         id="tspan5808-0"
         sodipodi:role="line"
         y="-333.02399"
         x="-419.57281 -411.43436 -405.14087 -398.84741 -395.67807 -392.56534">Cab IP</tspan>
    </text>
    <path
       inkscape:connector-curvature="0"
       id="path5812-3"
       style="fill:none;stroke:#000000;stroke-width:1.23812497;stroke-linecap:square;stroke-linejoin:miter;stroke-miterlimit:7.66129017;stroke-dasharray:none;stroke-opacity:1"
       d="m -368.28038,-346.82569 140.45414,0 0,19.45117 -140.45414,0 0,-19.45117 0,0 z" />
    <path
       inkscape:connector-curvature="0"
       id="path5816-6"
       style="fill:none;stroke:#000000;stroke-width:1.23812497;stroke-linecap:square;stroke-linejoin:miter;stroke-miterlimit:7.66129017;stroke-dasharray:none;stroke-opacity:1"
       d="m -368.28038,-346.82569 0,0 z" />
    <path
       inkscape:connector-curvature="0"
       id="path5820-1"
       style="fill:none;stroke:#000000;stroke-width:1.23812497;stroke-linecap:square;stroke-linejoin:miter;stroke-miterlimit:7.66129017;stroke-dasharray:none;stroke-opacity:1"
       d="m -227.82624,-327.37452 0,0 z" />
    <path
       inkscape:connector-curvature="0"
       id="path5842-0"
       style="fill:none;stroke:#000000;stroke-width:1.23812497;stroke-linecap:square;stroke-linejoin:miter;stroke-miterlimit:7.66129017;stroke-dasharray:none;stroke-opacity:1"
       d="m -295.96595,-342.79399 60.14409,0 0,12.94387 -60.14409,0 0,-12.94387 0,0 z" />
    <path
       inkscape:connector-curvature="0"
       id="path5846-6"
       style="fill:none;stroke:#000000;stroke-width:1.23812497;stroke-linecap:square;stroke-linejoin:miter;stroke-miterlimit:7.66129017;stroke-dasharray:none;stroke-opacity:1"
       d="m -295.96595,-342.79399 0,0 z" />
    <path
       inkscape:connector-curvature="0"
       id="path5850-3"
       style="fill:none;stroke:#000000;stroke-width:1.23812497;stroke-linecap:square;stroke-linejoin:miter;stroke-miterlimit:7.66129017;stroke-dasharray:none;stroke-opacity:1"
       d="m -235.82186,-329.85012 0,0 z" />
    <text
       id="text5854-2"
       style="font-variant:normal;font-weight:normal;font-size:6.3670187px;font-family:Arial;-inkscape-font-specification:ArialMT;writing-mode:lr-tb;fill:#000000;fill-opacity:1;fill-rule:nonzero;stroke:none"
       x="-274.19254"
       y="-333.87292"
       transform="scale(1.0001852,0.99981483)">
      <tspan
         id="tspan5856-0"
         sodipodi:role="line"
         y="-333.87292"
         x="-274.19254 -269.59555 -266.05554 -264.29184 -260.68811">Datos</tspan>
    </text>
    <path
       inkscape:connector-curvature="0"
       id="path5860-6"
       style="fill:none;stroke:#000000;stroke-width:1.23812497;stroke-linecap:square;stroke-linejoin:miter;stroke-miterlimit:7.66129017;stroke-dasharray:none;stroke-opacity:1"
       d="m -356.25156,-342.79399 60.35637,0 0,12.94387 -60.35637,0 0,-12.94387 0,0 z" />
    <path
       inkscape:connector-curvature="0"
       id="path5864-1"
       style="fill:none;stroke:#000000;stroke-width:1.23812497;stroke-linecap:square;stroke-linejoin:miter;stroke-miterlimit:7.66129017;stroke-dasharray:none;stroke-opacity:1"
       d="m -356.25156,-342.79399 0,0 z" />
    <path
       inkscape:connector-curvature="0"
       id="path5868-5"
       style="fill:none;stroke:#000000;stroke-width:1.23812497;stroke-linecap:square;stroke-linejoin:miter;stroke-miterlimit:7.66129017;stroke-dasharray:none;stroke-opacity:1"
       d="m -295.89519,-329.85012 0,0 z" />
    <text
       id="text5872-5"
       style="font-variant:normal;font-weight:normal;font-size:6.3670187px;font-family:Arial;-inkscape-font-specification:ArialMT;writing-mode:lr-tb;fill:#000000;fill-opacity:1;fill-rule:nonzero;stroke:none"
       x="-339.0654"
       y="-333.87292"
       transform="scale(1.0001852,0.99981483)">
      <tspan
         id="tspan5874-4"
         sodipodi:role="line"
         y="-333.87292"
         x="-339.0654 -334.46841 -330.92834 -327.32462 -325.6246 -321.80438 -317.20743">Cab TCP</tspan>
    </text>
    <text
       xml:space="preserve"
       style="font-style:normal;font-weight:normal;font-size:5.65957212px;line-height:125%;font-family:Sans;letter-spacing:0px;word-spacing:0px;fill:#000000;fill-opacity:1;stroke:none;stroke-width:1px;stroke-linecap:butt;stroke-linejoin:miter;stroke-opacity:1"
       x="-681.43164"
       y="-517.15497"
       id="text4314-9-4"
       sodipodi:linespacing="125%"
       transform="scale(1.0001852,0.99981483)"><tspan
         sodipodi:role="line"
         id="tspan4316-4-5"
         x="-681.43164"
         y="-517.15497"
         style="font-size:14.1489296px">Aplicación VPN</tspan></text>
    <g
       transform="matrix(0,-0.5658524,0.56606201,0,-925.32068,-554.31055)"
       inkscape:transform-center-x="-18.297886"
       inkscape:transform-center-y="10.288748"
       style="font-style:normal;font-weight:normal;font-size:10px;line-height:125%;font-family:Sans;letter-spacing:0px;word-spacing:0px;fill:#000000;fill-opacity:1;stroke:none;stroke-width:1px;stroke-linecap:butt;stroke-linejoin:miter;stroke-opacity:1"
       id="flowRoot6200">
      <path
         d="m -751.66797,-205.83511 5.3125,0 12.92969,24.39453 0,-24.39453 3.82812,0 0,29.16015 -5.3125,0 -12.92968,-24.39453 0,24.39453 -3.82813,0 0,-29.16015 z"
         style="font-size:40px"
         id="path5979" />
      <path
         d="m -721.90234,-198.54996 3.59375,0 0,21.875 -3.59375,0 0,-21.875 z m 0,-8.51562 3.59375,0 0,4.55078 -3.59375,0 0,-4.55078 z"
         style="font-size:40px"
         id="path5981" />
      <path
         d="m -713.38672,-198.54996 3.8086,0 6.83593,18.35938 6.83594,-18.35938 3.80859,0 -8.20312,21.875 -4.88281,0 -8.20313,-21.875 z"
         style="font-size:40px"
         id="path5983" />
      <path
         d="m -668.42578,-188.51089 0,1.75781 -16.52344,0 q 0.23438,3.71094 2.22656,5.66406 2.01172,1.9336 5.58594,1.9336 2.07031,0 4.00391,-0.50782 1.95312,-0.50781 3.86719,-1.52343 l 0,3.39843 q -1.9336,0.82032 -3.96485,1.25 -2.03125,0.42969 -4.12109,0.42969 -5.23438,0 -8.30078,-3.04687 -3.04688,-3.04688 -3.04688,-8.24219 0,-5.3711 2.89063,-8.51563 2.91015,-3.16406 7.83203,-3.16406 4.41406,0 6.97265,2.85156 2.57813,2.83203 2.57813,7.71485 z m -3.59375,-1.05469 q -0.0391,-2.94922 -1.66016,-4.70703 -1.60156,-1.75781 -4.25781,-1.75781 -3.00781,0 -4.82422,1.69921 -1.79687,1.69922 -2.07031,4.78516 l 12.8125,-0.0195 z"
         style="font-size:40px"
         id="path5985" />
      <path
         d="m -662.52734,-207.06558 3.59375,0 0,30.39062 -3.59375,0 0,-30.39062 z"
         style="font-size:40px"
         id="path5987" />
      <path
         d="m -637.50781,-179.99527 6.44531,0 0,-22.24609 -7.01172,1.40625 0,-3.59375 6.97266,-1.40625 3.94531,0 0,25.83984 6.44531,0 0,3.32031 -16.79687,0 0,-3.32031 z"
         style="font-size:40px"
         id="path5989" />
      <path
         d="m -615.04687,-189.23355 10.52734,0 0,3.20313 -10.52734,0 0,-3.20313 z"
         style="font-size:40px"
         id="path5991" />
      <path
         d="m -594.87109,-179.99527 13.76953,0 0,3.32031 -18.51563,0 0,-3.32031 q 2.2461,-2.32422 6.11328,-6.23047 3.88672,-3.92578 4.88282,-5.05859 1.89453,-2.12891 2.63672,-3.59375 0.76171,-1.48438 0.76171,-2.91016 0,-2.32422 -1.64062,-3.78906 -1.62109,-1.46484 -4.23828,-1.46484 -1.85547,0 -3.92578,0.64453 -2.05078,0.64453 -4.39453,1.95312 l 0,-3.98437 q 2.38281,-0.95703 4.45312,-1.44531 2.07031,-0.48829 3.78906,-0.48829 4.53125,0 7.22657,2.26563 2.69531,2.26562 2.69531,6.05469 0,1.79687 -0.6836,3.41797 -0.66406,1.60156 -2.4414,3.78906 -0.48828,0.5664 -3.10547,3.28125 -2.61719,2.69531 -7.38281,7.55859 z"
         style="font-size:40px"
         id="path5993" />
    </g>
    <g
       transform="matrix(0,-0.5658524,0.56606201,0,-924.25753,-716.59559)"
       inkscape:transform-center-x="-18.297887"
       inkscape:transform-center-y="10.288752"
       style="font-style:normal;font-weight:normal;font-size:10px;line-height:125%;font-family:Sans;letter-spacing:0px;word-spacing:0px;fill:#000000;fill-opacity:1;stroke:none;stroke-width:1px;stroke-linecap:butt;stroke-linejoin:miter;stroke-opacity:1"
       id="flowRoot6200-2">
      <path
         d="m -751.66797,-205.83511 5.3125,0 12.92969,24.39453 0,-24.39453 3.82812,0 0,29.16015 -5.3125,0 -12.92968,-24.39453 0,24.39453 -3.82813,0 0,-29.16015 z"
         style="font-size:40px"
         id="path5966" />
      <path
         d="m -721.90234,-198.54996 3.59375,0 0,21.875 -3.59375,0 0,-21.875 z m 0,-8.51562 3.59375,0 0,4.55078 -3.59375,0 0,-4.55078 z"
         style="font-size:40px"
         id="path5968" />
      <path
         d="m -713.38672,-198.54996 3.8086,0 6.83593,18.35938 6.83594,-18.35938 3.80859,0 -8.20312,21.875 -4.88281,0 -8.20313,-21.875 z"
         style="font-size:40px"
         id="path5970" />
      <path
         d="m -668.42578,-188.51089 0,1.75781 -16.52344,0 q 0.23438,3.71094 2.22656,5.66406 2.01172,1.9336 5.58594,1.9336 2.07031,0 4.00391,-0.50782 1.95312,-0.50781 3.86719,-1.52343 l 0,3.39843 q -1.9336,0.82032 -3.96485,1.25 -2.03125,0.42969 -4.12109,0.42969 -5.23438,0 -8.30078,-3.04687 -3.04688,-3.04688 -3.04688,-8.24219 0,-5.3711 2.89063,-8.51563 2.91015,-3.16406 7.83203,-3.16406 4.41406,0 6.97265,2.85156 2.57813,2.83203 2.57813,7.71485 z m -3.59375,-1.05469 q -0.0391,-2.94922 -1.66016,-4.70703 -1.60156,-1.75781 -4.25781,-1.75781 -3.00781,0 -4.82422,1.69921 -1.79687,1.69922 -2.07031,4.78516 l 12.8125,-0.0195 z"
         style="font-size:40px"
         id="path5972" />
      <path
         d="m -662.52734,-207.06558 3.59375,0 0,30.39062 -3.59375,0 0,-30.39062 z"
         style="font-size:40px"
         id="path5974" />
      <path
         d="m -626.23828,-192.39761 q 2.83203,0.60547 4.41406,2.51953 1.60156,1.91406 1.60156,4.72656 0,4.31641 -2.96875,6.67969 -2.96875,2.36328 -8.4375,2.36328 -1.83593,0 -3.78906,-0.37109 -1.93359,-0.35157 -4.0039,-1.07422 l 0,-3.8086 q 1.64062,0.95704 3.59375,1.44532 1.95312,0.48828 4.08203,0.48828 3.71093,0 5.64453,-1.46485 1.95312,-1.46484 1.95312,-4.25781 0,-2.57812 -1.8164,-4.02344 -1.79688,-1.46484 -5.01953,-1.46484 l -3.39844,0 0,-3.24219 3.55469,0 q 2.91015,0 4.45312,-1.15234 1.54297,-1.17188 1.54297,-3.35938 0,-2.24609 -1.60156,-3.4375 -1.58203,-1.21093 -4.55078,-1.21093 -1.6211,0 -3.47657,0.35156 -1.85547,0.35156 -4.08203,1.09375 l 0,-3.51563 q 2.2461,-0.625 4.19922,-0.9375 1.97266,-0.3125 3.71094,-0.3125 4.49219,0 7.10937,2.05079 2.61719,2.03125 2.61719,5.50781 0,2.42187 -1.38672,4.10156 -1.38672,1.66016 -3.94531,2.30469 z"
         style="font-size:40px"
         id="path5976" />
    </g>
    <g
       transform="matrix(0,-0.5658524,0.56606201,0,-930.42891,-952.77496)"
       inkscape:transform-center-x="-18.297891"
       inkscape:transform-center-y="10.288751"
       style="font-style:normal;font-weight:normal;font-size:10px;line-height:125%;font-family:Sans;letter-spacing:0px;word-spacing:0px;fill:#000000;fill-opacity:1;stroke:none;stroke-width:1px;stroke-linecap:butt;stroke-linejoin:miter;stroke-opacity:1"
       id="flowRoot6200-2-4">
      <path
         d="m -751.66797,-205.83511 5.3125,0 12.92969,24.39453 0,-24.39453 3.82812,0 0,29.16015 -5.3125,0 -12.92968,-24.39453 0,24.39453 -3.82813,0 0,-29.16015 z"
         style="font-size:40px"
         id="path5949" />
      <path
         d="m -721.90234,-198.54996 3.59375,0 0,21.875 -3.59375,0 0,-21.875 z m 0,-8.51562 3.59375,0 0,4.55078 -3.59375,0 0,-4.55078 z"
         style="font-size:40px"
         id="path5951" />
      <path
         d="m -713.38672,-198.54996 3.8086,0 6.83593,18.35938 6.83594,-18.35938 3.80859,0 -8.20312,21.875 -4.88281,0 -8.20313,-21.875 z"
         style="font-size:40px"
         id="path5953" />
      <path
         d="m -668.42578,-188.51089 0,1.75781 -16.52344,0 q 0.23438,3.71094 2.22656,5.66406 2.01172,1.9336 5.58594,1.9336 2.07031,0 4.00391,-0.50782 1.95312,-0.50781 3.86719,-1.52343 l 0,3.39843 q -1.9336,0.82032 -3.96485,1.25 -2.03125,0.42969 -4.12109,0.42969 -5.23438,0 -8.30078,-3.04687 -3.04688,-3.04688 -3.04688,-8.24219 0,-5.3711 2.89063,-8.51563 2.91015,-3.16406 7.83203,-3.16406 4.41406,0 6.97265,2.85156 2.57813,2.83203 2.57813,7.71485 z m -3.59375,-1.05469 q -0.0391,-2.94922 -1.66016,-4.70703 -1.60156,-1.75781 -4.25781,-1.75781 -3.00781,0 -4.82422,1.69921 -1.79687,1.69922 -2.07031,4.78516 l 12.8125,-0.0195 z"
         style="font-size:40px"
         id="path5955" />
      <path
         d="m -662.52734,-207.06558 3.59375,0 0,30.39062 -3.59375,0 0,-30.39062 z"
         style="font-size:40px"
         id="path5957" />
      <path
         d="m -638.15234,-205.83511 15.48828,0 0,3.32031 -11.875,0 0,7.14844 q 0.85937,-0.29297 1.71875,-0.42969 0.85937,-0.15625 1.71875,-0.15625 4.88281,0 7.73437,2.67578 2.85157,2.67578 2.85157,7.2461 0,4.70703 -2.92969,7.32421 -2.92969,2.59766 -8.26172,2.59766 -1.83594,0 -3.75,-0.3125 -1.89453,-0.3125 -3.92578,-0.9375 l 0,-3.96484 q 1.75781,0.95703 3.63281,1.42578 1.875,0.46875 3.96484,0.46875 3.37891,0 5.35157,-1.77735 1.97265,-1.77734 1.97265,-4.82421 0,-3.04688 -1.97265,-4.82422 -1.97266,-1.77735 -5.35157,-1.77735 -1.58203,0 -3.16406,0.35157 -1.5625,0.35156 -3.20312,1.09375 l 0,-14.64844 z"
         style="font-size:40px"
         id="path5959" />
      <path
         d="m -615.04687,-189.23355 10.52734,0 0,3.20313 -10.52734,0 0,-3.20313 z"
         style="font-size:40px"
         id="path5961" />
      <path
         d="m -599.26562,-205.83511 18.75,0 0,1.67969 -10.58594,27.48046 -4.1211,0 9.96094,-25.83984 -14.0039,0 0,-3.32031 z"
         style="font-size:40px"
         id="path5963" />
    </g>
    <rect
       style="color:#000000;clip-rule:nonzero;display:inline;overflow:visible;visibility:visible;opacity:1;isolation:auto;mix-blend-mode:normal;color-interpolation:sRGB;color-interpolation-filters:linearRGB;solid-color:#000000;solid-opacity:1;fill:#ffffff;fill-opacity:1;fill-rule:nonzero;stroke:#000000;stroke-width:2;stroke-linecap:butt;stroke-linejoin:miter;stroke-miterlimit:4;stroke-dasharray:none;stroke-dashoffset:0;stroke-opacity:1;marker:none;color-rendering:auto;image-rendering:auto;shape-rendering:auto;text-rendering:auto;enable-background:accumulate"
       id="rect4216-2-3-3"
       width="383.54059"
       height="60.957787"
       x="-527.32434"
       y="-495.65216"
       rx="0.252538"
       ry="0.252538" />
    <g
       transform="matrix(0,-0.5658524,0.56606201,0,-926.99806,-839.59871)"
       inkscape:transform-center-x="-18.29789"
       inkscape:transform-center-y="10.288749"
       style="font-style:normal;font-weight:normal;font-size:10px;line-height:125%;font-family:Sans;letter-spacing:0px;word-spacing:0px;fill:#000000;fill-opacity:1;stroke:none;stroke-width:1px;stroke-linecap:butt;stroke-linejoin:miter;stroke-opacity:1"
       id="flowRoot6200-2-1">
      <path
         d="m -751.66797,-205.83511 5.3125,0 12.92969,24.39453 0,-24.39453 3.82812,0 0,29.16015 -5.3125,0 -12.92968,-24.39453 0,24.39453 -3.82813,0 0,-29.16015 z"
         style="font-size:40px"
         id="path5936" />
      <path
         d="m -721.90234,-198.54996 3.59375,0 0,21.875 -3.59375,0 0,-21.875 z m 0,-8.51562 3.59375,0 0,4.55078 -3.59375,0 0,-4.55078 z"
         style="font-size:40px"
         id="path5938" />
      <path
         d="m -713.38672,-198.54996 3.8086,0 6.83593,18.35938 6.83594,-18.35938 3.80859,0 -8.20312,21.875 -4.88281,0 -8.20313,-21.875 z"
         style="font-size:40px"
         id="path5940" />
      <path
         d="m -668.42578,-188.51089 0,1.75781 -16.52344,0 q 0.23438,3.71094 2.22656,5.66406 2.01172,1.9336 5.58594,1.9336 2.07031,0 4.00391,-0.50782 1.95312,-0.50781 3.86719,-1.52343 l 0,3.39843 q -1.9336,0.82032 -3.96485,1.25 -2.03125,0.42969 -4.12109,0.42969 -5.23438,0 -8.30078,-3.04687 -3.04688,-3.04688 -3.04688,-8.24219 0,-5.3711 2.89063,-8.51563 2.91015,-3.16406 7.83203,-3.16406 4.41406,0 6.97265,2.85156 2.57813,2.83203 2.57813,7.71485 z m -3.59375,-1.05469 q -0.0391,-2.94922 -1.66016,-4.70703 -1.60156,-1.75781 -4.25781,-1.75781 -3.00781,0 -4.82422,1.69921 -1.79687,1.69922 -2.07031,4.78516 l 12.8125,-0.0195 z"
         style="font-size:40px"
         id="path5942" />
      <path
         d="m -662.52734,-207.06558 3.59375,0 0,30.39062 -3.59375,0 0,-30.39062 z"
         style="font-size:40px"
         id="path5944" />
      <path
         d="m -627.35156,-202.39761 -9.96094,15.5664 9.96094,0 0,-15.5664 z m -1.03516,-3.4375 4.96094,0 0,19.0039 4.16016,0 0,3.28125 -4.16016,0 0,6.875 -3.92578,0 0,-6.875 -13.16406,0 0,-3.80859 12.1289,-18.47656 z"
         style="font-size:40px"
         id="path5946" />
    </g>
    <path
       inkscape:connector-curvature="0"
       id="path5776-2"
       style="fill:none;stroke:#000000;stroke-width:1.23812497;stroke-linecap:square;stroke-linejoin:miter;stroke-miterlimit:7.66129017;stroke-dasharray:none;stroke-opacity:1"
       d="m -343.79461,-472.29416 68.21048,0 0,18.81459 -68.21048,0 0,-18.81459 0,0 z" />
    <path
       inkscape:connector-curvature="0"
       id="path5780-2"
       style="fill:none;stroke:#000000;stroke-width:1.23812497;stroke-linecap:square;stroke-linejoin:miter;stroke-miterlimit:7.66129017;stroke-dasharray:none;stroke-opacity:1"
       d="m -343.79461,-472.29416 0,0 z" />
    <path
       inkscape:connector-curvature="0"
       id="path5784-6"
       style="fill:none;stroke:#000000;stroke-width:1.23812497;stroke-linecap:square;stroke-linejoin:miter;stroke-miterlimit:7.66129017;stroke-dasharray:none;stroke-opacity:1"
       d="m -275.58413,-453.47957 0,0 z" />
    <text
       id="text5788-1"
       style="font-variant:normal;font-weight:normal;font-size:11.31914425px;font-family:Arial;-inkscape-font-specification:ArialMT;writing-mode:lr-tb;fill:#000000;fill-opacity:1;fill-rule:nonzero;stroke:none"
       x="-324.41766"
       y="-458.44492"
       transform="scale(1.0001852,0.99981483)">
      <tspan
         id="tspan5790-0"
         sodipodi:role="line"
         y="-458.44492"
         x="-324.41766 -316.27917 -309.98575 -306.87296 -300.57953">Datos</tspan>
    </text>
    <path
       inkscape:connector-curvature="0"
       id="path5824-6"
       style="fill:none;stroke:#000000;stroke-width:1.23812497;stroke-linecap:square;stroke-linejoin:miter;stroke-miterlimit:7.66129017;stroke-dasharray:none;stroke-opacity:1"
       d="m -416.10903,-472.29416 72.31442,0 0,18.81459 -72.31442,0 0,-18.81459 0,0 z" />
    <path
       inkscape:connector-curvature="0"
       id="path5828-1"
       style="fill:none;stroke:#000000;stroke-width:1.23812497;stroke-linecap:square;stroke-linejoin:miter;stroke-miterlimit:7.66129017;stroke-dasharray:none;stroke-opacity:1"
       d="m -416.10903,-472.29416 0,0 z" />
    <path
       inkscape:connector-curvature="0"
       id="path5832-5"
       style="fill:none;stroke:#000000;stroke-width:1.23812497;stroke-linecap:square;stroke-linejoin:miter;stroke-miterlimit:7.66129017;stroke-dasharray:none;stroke-opacity:1"
       d="m -343.79461,-453.47957 0,0 z" />
    <text
       id="text5836-9"
       style="font-variant:normal;font-weight:normal;font-size:11.31914425px;font-family:Arial;-inkscape-font-specification:ArialMT;writing-mode:lr-tb;fill:#000000;fill-opacity:1;fill-rule:nonzero;stroke:none"
       x="-403.01498"
       y="-458.44492"
       transform="scale(1.0001852,0.99981483)">
      <tspan
         id="tspan5838-4"
         sodipodi:role="line"
         y="-458.44492"
         x="-403.01498 -394.8765 -388.58307 -382.28961 -379.24475 -372.45328 -364.31482">Cab TCP</tspan>
    </text>
    <path
       style="fill:#000000;fill-opacity:1;fill-rule:evenodd;stroke:#000000;stroke-width:2.79999995;stroke-linecap:butt;stroke-linejoin:miter;stroke-miterlimit:4;stroke-dasharray:none;stroke-opacity:1;marker-end:url(#Arrow1Lend-8)"
       d="m -764.75582,-228.532 0,-59.44611"
       id="path4405-7"
       inkscape:connector-curvature="0"
       sodipodi:nodetypes="cc" />
    <path
       style="fill:#000000;fill-opacity:1;fill-rule:evenodd;stroke:#000000;stroke-width:2.79999995;stroke-linecap:butt;stroke-linejoin:miter;stroke-miterlimit:4;stroke-dasharray:none;stroke-opacity:1;marker-end:url(#Arrow1Lend-8-5)"
       d="m -768.98523,-381.94671 0,-142.89931"
       id="path4405-7-9"
       inkscape:connector-curvature="0"
       sodipodi:nodetypes="cc" />
    <path
       style="fill:#000000;fill-opacity:1;fill-rule:evenodd;stroke:#000000;stroke-width:2.79999995;stroke-linecap:butt;stroke-linejoin:miter;stroke-miterlimit:4;stroke-dasharray:none;stroke-opacity:1;marker-end:url(#Arrow1Lend-8-5-7)"
       d="m -585.33019,-500.24249 64.68428,111.51119"
       id="path4405-7-9-6"
       inkscape:connector-curvature="0"
       sodipodi:nodetypes="cc" />
    <path
       style="fill:#000000;fill-opacity:1;fill-rule:evenodd;stroke:#000000;stroke-width:2.79999995;stroke-linecap:butt;stroke-linejoin:miter;stroke-miterlimit:4;stroke-dasharray:none;stroke-opacity:1;marker-end:url(#Arrow1Lend-8-8)"
       d="m -346.9902,-370.51476 0,-59.44611"
       id="path4405-7-4"
       inkscape:connector-curvature="0"
       sodipodi:nodetypes="cc" />
    <g
       id="g5932">
      <path
         sodipodi:nodetypes="cc"
         inkscape:connector-curvature="0"
         id="path4405-7-4-9"
         d="m -344.70297,-501.98213 0,-66.80794"
         style="fill:#000000;fill-opacity:1;fill-rule:evenodd;stroke:#000000;stroke-width:2.79999995;stroke-linecap:butt;stroke-linejoin:miter;stroke-miterlimit:4;stroke-dasharray:none;stroke-opacity:1;marker-end:url(#Arrow1Lend-8-8-9)" />
    </g>
  </g>
</svg>
