<?xml version="1.0" encoding="UTF-8" standalone="no"?>
<!DOCTYPE svg PUBLIC "-//W3C//DTD SVG 1.1//EN"
 "http://www.w3.org/Graphics/SVG/1.1/DTD/svg11.dtd">
<!-- Generated by graphviz version 2.36.0 (20140111.2315)
 -->
<!-- Title: %3 Pages: 1 -->
<svg width="368pt" height="752pt"
 viewBox="0.00 0.00 368.00 752.00" xmlns="http://www.w3.org/2000/svg" xmlns:xlink="http://www.w3.org/1999/xlink">
<g id="graph0" class="graph" transform="scale(1 1) rotate(0) translate(4 748)">
<title>%3</title>
<polygon fill="white" stroke="none" points="-4,4 -4,-748 364,-748 364,4 -4,4"/>
<!-- Descomprimir -->
<g id="node1" class="node"><title>Descomprimir</title>
<ellipse fill="none" stroke="black" cx="175" cy="-726" rx="62.0922" ry="18"/>
<text text-anchor="middle" x="175" y="-722.3" font-family="Times,serif" font-size="14.00">Descomprimir</text>
</g>
<!-- Instalar -->
<g id="node2" class="node"><title>Instalar</title>
<ellipse fill="none" stroke="black" cx="175" cy="-652" rx="37.0701" ry="18"/>
<text text-anchor="middle" x="175" y="-648.3" font-family="Times,serif" font-size="14.00">Instalar</text>
</g>
<!-- Descomprimir&#45;&gt;Instalar -->
<g id="edge1" class="edge"><title>Descomprimir&#45;&gt;Instalar</title>
<path fill="none" stroke="black" d="M175,-707.937C175,-699.807 175,-689.876 175,-680.705"/>
<polygon fill="black" stroke="black" points="178.5,-680.441 175,-670.441 171.5,-680.441 178.5,-680.441"/>
</g>
<!-- Paquetes_como_root -->
<g id="node3" class="node"><title>Paquetes_como_root</title>
<ellipse fill="none" stroke="black" cx="85" cy="-578" rx="85.2138" ry="18"/>
<text text-anchor="middle" x="85" y="-574.3" font-family="Times,serif" font-size="14.00">Paquetes_como_root</text>
</g>
<!-- Instalar&#45;&gt;Paquetes_como_root -->
<g id="edge2" class="edge"><title>Instalar&#45;&gt;Paquetes_como_root</title>
<path fill="none" stroke="black" d="M156.352,-636.082C144.042,-626.234 127.671,-613.137 113.715,-601.972"/>
<polygon fill="black" stroke="black" points="115.821,-599.175 105.826,-595.661 111.449,-604.641 115.821,-599.175"/>
</g>
<!-- Scripts_como_root -->
<g id="node4" class="node"><title>Scripts_como_root</title>
<ellipse fill="none" stroke="black" cx="266" cy="-578" rx="77.4897" ry="18"/>
<text text-anchor="middle" x="266" y="-574.3" font-family="Times,serif" font-size="14.00">Scripts_como_root</text>
</g>
<!-- Instalar&#45;&gt;Scripts_como_root -->
<g id="edge3" class="edge"><title>Instalar&#45;&gt;Scripts_como_root</title>
<path fill="none" stroke="black" d="M193.855,-636.082C206.389,-626.165 223.087,-612.954 237.261,-601.738"/>
<polygon fill="black" stroke="black" points="239.595,-604.355 245.265,-595.405 235.251,-598.866 239.595,-604.355"/>
</g>
<!-- Software_instalado -->
<g id="node5" class="node"><title>Software_instalado</title>
<ellipse fill="none" stroke="black" cx="195" cy="-504" rx="78.4642" ry="18"/>
<text text-anchor="middle" x="195" y="-500.3" font-family="Times,serif" font-size="14.00">Software_instalado</text>
</g>
<!-- Paquetes_como_root&#45;&gt;Software_instalado -->
<g id="edge4" class="edge"><title>Paquetes_como_root&#45;&gt;Software_instalado</title>
<path fill="none" stroke="black" d="M109.961,-560.662C125.291,-550.628 145.112,-537.654 161.761,-526.756"/>
<polygon fill="black" stroke="black" points="163.688,-529.678 170.138,-521.273 159.854,-523.821 163.688,-529.678"/>
</g>
<!-- Scripts_como_root&#45;&gt;Software_instalado -->
<g id="edge5" class="edge"><title>Scripts_como_root&#45;&gt;Software_instalado</title>
<path fill="none" stroke="black" d="M249.533,-560.301C240.303,-550.941 228.636,-539.11 218.464,-528.795"/>
<polygon fill="black" stroke="black" points="220.892,-526.272 211.378,-521.609 215.907,-531.187 220.892,-526.272"/>
</g>
<!-- Variables_en_bash -->
<g id="node6" class="node"><title>Variables_en_bash</title>
<ellipse fill="none" stroke="black" cx="195" cy="-430" rx="77.0154" ry="18"/>
<text text-anchor="middle" x="195" y="-426.3" font-family="Times,serif" font-size="14.00">Variables_en_bash</text>
</g>
<!-- Software_instalado&#45;&gt;Variables_en_bash -->
<g id="edge6" class="edge"><title>Software_instalado&#45;&gt;Variables_en_bash</title>
<path fill="none" stroke="black" d="M195,-485.937C195,-477.807 195,-467.876 195,-458.705"/>
<polygon fill="black" stroke="black" points="198.5,-458.441 195,-448.441 191.5,-458.441 198.5,-458.441"/>
</g>
<!-- dbca -->
<g id="node7" class="node"><title>dbca</title>
<ellipse fill="none" stroke="black" cx="106" cy="-356" rx="26.949" ry="18"/>
<text text-anchor="middle" x="106" y="-352.3" font-family="Times,serif" font-size="14.00">dbca</text>
</g>
<!-- Software_instalado&#45;&gt;dbca -->
<g id="edge7" class="edge"><title>Software_instalado&#45;&gt;dbca</title>
<path fill="none" stroke="black" d="M155.988,-488.129C138.424,-479.281 119.344,-466.176 109,-448 98.0344,-428.732 98.1837,-403.262 100.56,-384.169"/>
<polygon fill="black" stroke="black" points="104.059,-384.442 102.101,-374.03 97.1385,-383.39 104.059,-384.442"/>
</g>
<!-- netca -->
<g id="node8" class="node"><title>netca</title>
<ellipse fill="none" stroke="black" cx="283" cy="-356" rx="29.3722" ry="18"/>
<text text-anchor="middle" x="283" y="-352.3" font-family="Times,serif" font-size="14.00">netca</text>
</g>
<!-- Software_instalado&#45;&gt;netca -->
<g id="edge8" class="edge"><title>Software_instalado&#45;&gt;netca</title>
<path fill="none" stroke="black" d="M234.099,-488.178C251.684,-479.342 270.756,-466.232 281,-448 291.856,-428.677 291.417,-403.213 288.801,-384.136"/>
<polygon fill="black" stroke="black" points="292.211,-383.303 287.13,-374.006 285.304,-384.443 292.211,-383.303"/>
</g>
<!-- Variables_en_bash&#45;&gt;dbca -->
<g id="edge9" class="edge"><title>Variables_en_bash&#45;&gt;dbca</title>
<path fill="none" stroke="black" d="M174.358,-412.301C161.345,-401.774 144.469,-388.121 130.74,-377.015"/>
<polygon fill="black" stroke="black" points="132.638,-374.048 122.662,-370.479 128.235,-379.49 132.638,-374.048"/>
</g>
<!-- Variables_en_bash&#45;&gt;netca -->
<g id="edge10" class="edge"><title>Variables_en_bash&#45;&gt;netca</title>
<path fill="none" stroke="black" d="M215.41,-412.301C228.108,-401.911 244.528,-388.477 258.004,-377.451"/>
<polygon fill="black" stroke="black" points="260.431,-379.988 265.954,-370.946 255.999,-374.57 260.431,-379.988"/>
</g>
<!-- Instancia_creada -->
<g id="node11" class="node"><title>Instancia_creada</title>
<ellipse fill="none" stroke="black" cx="106" cy="-282" rx="69.3156" ry="18"/>
<text text-anchor="middle" x="106" y="-278.3" font-family="Times,serif" font-size="14.00">Instancia_creada</text>
</g>
<!-- dbca&#45;&gt;Instancia_creada -->
<g id="edge13" class="edge"><title>dbca&#45;&gt;Instancia_creada</title>
<path fill="none" stroke="black" d="M106,-337.937C106,-329.807 106,-319.876 106,-310.705"/>
<polygon fill="black" stroke="black" points="109.5,-310.441 106,-300.441 102.5,-310.441 109.5,-310.441"/>
</g>
<!-- Listener_creado -->
<g id="node9" class="node"><title>Listener_creado</title>
<ellipse fill="none" stroke="black" cx="283" cy="-282" rx="67.3907" ry="18"/>
<text text-anchor="middle" x="283" y="-278.3" font-family="Times,serif" font-size="14.00">Listener_creado</text>
</g>
<!-- netca&#45;&gt;Listener_creado -->
<g id="edge11" class="edge"><title>netca&#45;&gt;Listener_creado</title>
<path fill="none" stroke="black" d="M283,-337.937C283,-329.807 283,-319.876 283,-310.705"/>
<polygon fill="black" stroke="black" points="286.5,-310.441 283,-300.441 279.5,-310.441 286.5,-310.441"/>
</g>
<!-- Listener_levantado -->
<g id="node10" class="node"><title>Listener_levantado</title>
<ellipse fill="none" stroke="black" cx="283" cy="-194" rx="77.4897" ry="18"/>
<text text-anchor="middle" x="283" y="-190.3" font-family="Times,serif" font-size="14.00">Listener_levantado</text>
</g>
<!-- Listener_creado&#45;&gt;Listener_levantado -->
<g id="edge12" class="edge"><title>Listener_creado&#45;&gt;Listener_levantado</title>
<path fill="none" stroke="black" d="M283,-263.597C283,-251.746 283,-235.817 283,-222.292"/>
<polygon fill="black" stroke="black" points="286.5,-222.084 283,-212.084 279.5,-222.084 286.5,-222.084"/>
<text text-anchor="middle" x="313.5" y="-234.3" font-family="Times,serif" font-size="14.00">lsnrctl start</text>
</g>
<!-- Instancia_conectada -->
<g id="node13" class="node"><title>Instancia_conectada</title>
<ellipse fill="none" stroke="black" cx="206" cy="-106" rx="81.3398" ry="18"/>
<text text-anchor="middle" x="206" y="-102.3" font-family="Times,serif" font-size="14.00">Instancia_conectada</text>
</g>
<!-- Listener_levantado&#45;&gt;Instancia_conectada -->
<g id="edge16" class="edge"><title>Listener_levantado&#45;&gt;Instancia_conectada</title>
<path fill="none" stroke="black" d="M267.787,-176.009C256.397,-163.288 240.652,-145.702 227.906,-131.467"/>
<polygon fill="black" stroke="black" points="230.459,-129.071 221.181,-123.956 225.244,-133.74 230.459,-129.071"/>
</g>
<!-- Instancia_levantada -->
<g id="node12" class="node"><title>Instancia_levantada</title>
<ellipse fill="none" stroke="black" cx="106" cy="-194" rx="80.389" ry="18"/>
<text text-anchor="middle" x="106" y="-190.3" font-family="Times,serif" font-size="14.00">Instancia_levantada</text>
</g>
<!-- Instancia_creada&#45;&gt;Instancia_levantada -->
<g id="edge14" class="edge"><title>Instancia_creada&#45;&gt;Instancia_levantada</title>
<path fill="none" stroke="black" d="M106,-263.597C106,-251.746 106,-235.817 106,-222.292"/>
<polygon fill="black" stroke="black" points="109.5,-222.084 106,-212.084 102.5,-222.084 109.5,-222.084"/>
<text text-anchor="middle" x="139.5" y="-234.3" font-family="Times,serif" font-size="14.00">startup open</text>
</g>
<!-- Instancia_levantada&#45;&gt;Instancia_conectada -->
<g id="edge15" class="edge"><title>Instancia_levantada&#45;&gt;Instancia_conectada</title>
<path fill="none" stroke="black" d="M125.281,-176.418C140.499,-163.331 161.914,-144.914 178.863,-130.338"/>
<polygon fill="black" stroke="black" points="181.478,-132.705 186.778,-123.531 176.914,-127.398 181.478,-132.705"/>
<text text-anchor="middle" x="197.5" y="-146.3" font-family="Times,serif" font-size="14.00">Automático</text>
</g>
<!-- 😎 -->
<g id="node14" class="node"><title>😎</title>
<ellipse fill="none" stroke="black" cx="206" cy="-18" rx="27" ry="18"/>
<text text-anchor="middle" x="206" y="-14.3" font-family="Times,serif" font-size="14.00">😎</text>
</g>
<!-- Instancia_conectada&#45;&gt;😎 -->
<g id="edge17" class="edge"><title>Instancia_conectada&#45;&gt;😎</title>
<path fill="none" stroke="black" d="M206,-87.5966C206,-75.7459 206,-59.8169 206,-46.2917"/>
<polygon fill="black" stroke="black" points="209.5,-46.084 206,-36.084 202.5,-46.084 209.5,-46.084"/>
<text text-anchor="middle" x="240.5" y="-58.3" font-family="Times,serif" font-size="14.00">lsnrctl status</text>
</g>
</g>
</svg>
