<?xml version="1.0" encoding="UTF-8" standalone="no"?>
<!-- Created with Inkscape (http://www.inkscape.org/) -->

<svg
   xmlns:dc="http://purl.org/dc/elements/1.1/"
   xmlns:cc="http://creativecommons.org/ns#"
   xmlns:rdf="http://www.w3.org/1999/02/22-rdf-syntax-ns#"
   xmlns:svg="http://www.w3.org/2000/svg"
   xmlns="http://www.w3.org/2000/svg"
   xmlns:sodipodi="http://sodipodi.sourceforge.net/DTD/sodipodi-0.dtd"
   xmlns:inkscape="http://www.inkscape.org/namespaces/inkscape"
   id="svg2"
   version="1.1"
   inkscape:version="0.91 r13725"
   xml:space="preserve"
   width="698.60352"
   height="282.85452"
   viewBox="0 0 698.60352 282.85452"
   sodipodi:docname="enrutar-3.svg"><metadata
     id="metadata8"><rdf:RDF><cc:Work
         rdf:about=""><dc:format>image/svg+xml</dc:format><dc:type
           rdf:resource="http://purl.org/dc/dcmitype/StillImage" /><dc:title></dc:title></cc:Work></rdf:RDF></metadata><defs
     id="defs6"><clipPath
       clipPathUnits="userSpaceOnUse"
       id="clipPath16"><path
         d="M 0,0 720,0 720,540 0,540 0,0 Z"
         id="path18"
         inkscape:connector-curvature="0"
         style="clip-rule:evenodd" /></clipPath><clipPath
       clipPathUnits="userSpaceOnUse"
       id="clipPath28"><path
         d="m 0,10.8 719.8,0 0,529.1 L 0,539.9 0,10.8 Z"
         id="path30"
         inkscape:connector-curvature="0"
         style="clip-rule:evenodd" /></clipPath><clipPath
       clipPathUnits="userSpaceOnUse"
       id="clipPath38"><path
         d="m 0,498.1 22.4,0 0,41.8 -22.4,0 0,-41.8 z"
         id="path40"
         inkscape:connector-curvature="0"
         style="clip-rule:evenodd" /></clipPath><clipPath
       clipPathUnits="userSpaceOnUse"
       id="clipPath46"><path
         d="m 0,0 22.5,0 0,41.9 L 0,41.9 0,0 Z"
         id="path48"
         inkscape:connector-curvature="0" /></clipPath><linearGradient
       x1="26"
       y1="21"
       x2="-1"
       y2="21"
       gradientUnits="userSpaceOnUse"
       spreadMethod="pad"
       id="linearGradient50"><stop
         style="stop-opacity:1;stop-color:#ffffff"
         offset="0"
         id="stop52" /><stop
         style="stop-opacity:1;stop-color:#cccce6"
         offset="1"
         id="stop54" /></linearGradient><clipPath
       clipPathUnits="userSpaceOnUse"
       id="clipPath62"><path
         d="m 32.4,507.8 687.3,0 0,21.5 -687.3,0 0,-21.5 z"
         id="path64"
         inkscape:connector-curvature="0"
         style="clip-rule:evenodd" /></clipPath><clipPath
       clipPathUnits="userSpaceOnUse"
       id="clipPath70"><path
         d="m 0,0 687.4,0 0,21.6 L 0,21.6 0,0 Z"
         id="path72"
         inkscape:connector-curvature="0" /></clipPath><linearGradient
       x1="689"
       y1="11"
       x2="0"
       y2="11"
       gradientUnits="userSpaceOnUse"
       spreadMethod="pad"
       id="linearGradient74"><stop
         style="stop-opacity:1;stop-color:#ffffff"
         offset="0"
         id="stop76" /><stop
         style="stop-opacity:1;stop-color:#00007d"
         offset="1"
         id="stop78" /></linearGradient><clipPath
       clipPathUnits="userSpaceOnUse"
       id="clipPath86"><path
         d="m 0,10.8 719.8,0 0,529.1 L 0,539.9 0,10.8 Z"
         id="path88"
         inkscape:connector-curvature="0"
         style="clip-rule:evenodd" /></clipPath><clipPath
       clipPathUnits="userSpaceOnUse"
       id="clipPath110"><path
         d="M 0,0 720,0 720,540 0,540 0,0 Z"
         id="path112"
         inkscape:connector-curvature="0"
         style="clip-rule:evenodd" /></clipPath></defs><sodipodi:namedview
     pagecolor="#ffffff"
     bordercolor="#666666"
     borderopacity="1"
     objecttolerance="10"
     gridtolerance="10"
     guidetolerance="10"
     inkscape:pageopacity="0"
     inkscape:pageshadow="2"
     inkscape:window-width="1600"
     inkscape:window-height="836"
     id="namedview4"
     showgrid="false"
     inkscape:zoom="1.3866667"
     inkscape:cx="221.85511"
     inkscape:cy="78.52898"
     inkscape:window-x="0"
     inkscape:window-y="27"
     inkscape:window-maximized="1"
     inkscape:current-layer="g10"
     fit-margin-top="0"
     fit-margin-left="0"
     fit-margin-right="0"
     fit-margin-bottom="0" /><g
     id="g10"
     inkscape:groupmode="layer"
     inkscape:label="kk"
     transform="matrix(1.25,0,0,-1.25,-192.23671,523.91346)"><g
       id="g24"><g
         id="g26"
         clip-path="url(#clipPath28)"><g
           id="g32" /></g></g><path
       d="m 280.29231,376.23077 -29.2,0 0,42.9 58.4,0 0,-42.9 -29.2,0 z"
       style="fill:#ccffff;fill-opacity:1;fill-rule:evenodd;stroke:none"
       id="path120"
       inkscape:connector-curvature="0" /><g
       id="g122"
       transform="translate(88.269231,1.1538462)"><path
         d="m 192.6,374.5 -29.2,0 0,42.9 58.4,0 0,-42.9 -29.2,0 z"
         style="fill:none;stroke:#000000;stroke-width:0.99049997;stroke-linecap:square;stroke-linejoin:miter;stroke-miterlimit:7.66129017;stroke-dasharray:none;stroke-opacity:1"
         id="path124"
         inkscape:connector-curvature="0" /></g><g
       id="g132"
       transform="translate(88.269231,1.1538462)"><path
         d="m 192.7,374.5 0,-21.4"
         style="fill:none;stroke:#000000;stroke-width:0.99049997;stroke-linecap:square;stroke-linejoin:miter;stroke-miterlimit:7.66129017;stroke-dasharray:none;stroke-opacity:1"
         id="path134"
         inkscape:connector-curvature="0" /></g><g
       id="g136"><path
         d="M 154.28462,353.1 353.5,353.1"
         style="fill:none;stroke:#000000;stroke-width:0.99049997;stroke-linecap:square;stroke-linejoin:miter;stroke-miterlimit:7.66129017;stroke-dasharray:none;stroke-opacity:1"
         id="path138"
         inkscape:connector-curvature="0"
         sodipodi:nodetypes="cc" /></g><path
       d="m 382.7,331.7 -29.2,0 0,42.8 58.5,0 0,-42.8 -29.3,0 z"
       style="fill:#ccffff;fill-opacity:1;fill-rule:evenodd;stroke:none"
       id="path144"
       inkscape:connector-curvature="0" /><g
       id="g146"><path
         d="m 382.7,331.7 -29.2,0 0,42.8 58.5,0 0,-42.8 -29.3,0 z"
         style="fill:none;stroke:#000000;stroke-width:0.99049997;stroke-linecap:square;stroke-linejoin:miter;stroke-miterlimit:7.66129017;stroke-dasharray:none;stroke-opacity:1"
         id="path148"
         inkscape:connector-curvature="0" /></g><path
       d="m 193.26923,375.65385 -29.3,0 0,42.9 58.5,0 0,-42.9 -29.2,0 z"
       style="fill:#ccffff;fill-opacity:1;fill-rule:evenodd;stroke:none"
       id="path150"
       inkscape:connector-curvature="0" /><g
       id="g152"
       transform="translate(88.269231,1.1538462)"><path
         d="m 105,374.5 -29.3,0 0,42.9 58.5,0 0,-42.9 -29.2,0 z"
         style="fill:none;stroke:#000000;stroke-width:0.99049997;stroke-linecap:square;stroke-linejoin:miter;stroke-miterlimit:7.66129017;stroke-dasharray:none;stroke-opacity:1"
         id="path154"
         inkscape:connector-curvature="0" /></g><g
       id="g156"
       transform="translate(88.269231,1.1538462)"><path
         d="m 104.9,374.5 0,-21.4"
         style="fill:none;stroke:#000000;stroke-width:0.99049997;stroke-linecap:square;stroke-linejoin:miter;stroke-miterlimit:7.66129017;stroke-dasharray:none;stroke-opacity:1"
         id="path158"
         inkscape:connector-curvature="0" /></g><path
       d="m 551.37692,247.33077 -29.3,0 0,42.9 58.5,0 0,-42.9 -29.2,0 z"
       style="fill:#ccffff;fill-opacity:1;fill-rule:evenodd;stroke:none"
       id="path160"
       inkscape:connector-curvature="0" /><g
       id="g162"
       transform="translate(0.57692308,144.23077)"><path
         d="m 550.8,103.1 -29.3,0 0,42.9 58.5,0 0,-42.9 -29.2,0 z"
         style="fill:none;stroke:#000000;stroke-width:0.99049997;stroke-linecap:square;stroke-linejoin:miter;stroke-miterlimit:7.66129017;stroke-dasharray:none;stroke-opacity:1"
         id="path164"
         inkscape:connector-curvature="0" /></g><path
       d="m 646.37692,247.33077 -29.2,0 0,42.9 58.4,0 0,-42.9 -29.2,0 z"
       style="fill:#ccffff;fill-opacity:1;fill-rule:evenodd;stroke:none"
       id="path166"
       inkscape:connector-curvature="0" /><g
       id="g168"
       transform="translate(0.57692308,144.23077)"><path
         d="m 645.8,103.1 -29.2,0 0,42.9 58.4,0 0,-42.9 -29.2,0 z"
         style="fill:none;stroke:#000000;stroke-width:0.99049997;stroke-linecap:square;stroke-linejoin:miter;stroke-miterlimit:7.66129017;stroke-dasharray:none;stroke-opacity:1"
         id="path170"
         inkscape:connector-curvature="0" /></g><g
       id="g172"
       transform="translate(0.57692308,144.23077)"><path
         d="m 550.9,103.1 0,-21.4"
         style="fill:none;stroke:#000000;stroke-width:0.99049997;stroke-linecap:square;stroke-linejoin:miter;stroke-miterlimit:7.66129017;stroke-dasharray:none;stroke-opacity:1"
         id="path174"
         inkscape:connector-curvature="0" /></g><g
       id="g176"
       transform="translate(0.57692308,144.23077)"><path
         d="m 412,81.7 299.6,0"
         style="fill:none;stroke:#000000;stroke-width:0.99049997;stroke-linecap:square;stroke-linejoin:miter;stroke-miterlimit:7.66129017;stroke-dasharray:none;stroke-opacity:1"
         id="path178"
         inkscape:connector-curvature="0" /></g><g
       id="g180"
       transform="translate(0.57692308,144.23077)"><path
         d="m 645.7,103.1 0,-21.4"
         style="fill:none;stroke:#000000;stroke-width:0.99049997;stroke-linecap:square;stroke-linejoin:miter;stroke-miterlimit:7.66129017;stroke-dasharray:none;stroke-opacity:1"
         id="path182"
         inkscape:connector-curvature="0" /></g><path
       d="m 383.27692,204.53077 -29.2,0 0,42.8 58.5,0 0,-42.8 -29.3,0 z"
       style="fill:#ccffff;fill-opacity:1;fill-rule:evenodd;stroke:none"
       id="path184"
       inkscape:connector-curvature="0" /><g
       id="g186"
       transform="translate(0.57692308,144.23077)"><path
         d="m 382.7,60.3 -29.2,0 0,42.8 58.5,0 0,-42.8 -29.3,0 z"
         style="fill:none;stroke:#000000;stroke-width:0.99049997;stroke-linecap:square;stroke-linejoin:miter;stroke-miterlimit:7.66129017;stroke-dasharray:none;stroke-opacity:1"
         id="path188"
         inkscape:connector-curvature="0" /></g><path
       d="m 463.67692,247.33077 -29.2,0 0,42.9 58.4,0 0,-42.9 -29.2,0 z"
       style="fill:#ccffff;fill-opacity:1;fill-rule:evenodd;stroke:none"
       id="path190"
       inkscape:connector-curvature="0" /><g
       id="g192"
       transform="translate(0.57692308,144.23077)"><path
         d="m 463.1,103.1 -29.2,0 0,42.9 58.4,0 0,-42.9 -29.2,0 z"
         style="fill:none;stroke:#000000;stroke-width:0.99049997;stroke-linecap:square;stroke-linejoin:miter;stroke-miterlimit:7.66129017;stroke-dasharray:none;stroke-opacity:1"
         id="path194"
         inkscape:connector-curvature="0" /></g><g
       id="g196"
       transform="translate(0.57692308,144.23077)"><path
         d="m 463,103.1 0,-21.4"
         style="fill:none;stroke:#000000;stroke-width:0.99049997;stroke-linecap:square;stroke-linejoin:miter;stroke-miterlimit:7.66129017;stroke-dasharray:none;stroke-opacity:1"
         id="path198"
         inkscape:connector-curvature="0" /></g><g
       id="g200"><path
         d="m 382.7,331.7 0,-82.73846"
         style="fill:none;stroke:#000000;stroke-width:0.99049997;stroke-linecap:square;stroke-linejoin:miter;stroke-miterlimit:7.66129017;stroke-dasharray:none;stroke-opacity:1"
         id="path202"
         inkscape:connector-curvature="0"
         sodipodi:nodetypes="cc" /></g><g
       id="g204"
       transform="translate(-17.307692,2.8846153)"><text
         transform="matrix(1,0,0,-1,305.7,339.4)"
         style="font-variant:normal;font-weight:normal;font-size:10px;font-family:Arial;-inkscape-font-specification:ArialMT;writing-mode:lr-tb;fill:#000000;fill-opacity:1;fill-rule:nonzero;stroke:none"
         id="text206"><tspan
           x="0 5.5 11 16.5 19.290001 24.790001 30.290001 35.880001 38.580002 44.169998 46.869999 52.369999 57.959999"
           y="0"
           sodipodi:role="line"
           id="tspan208">192.168.1.254</tspan></text>
</g><g
       id="g210"
       transform="translate(90,17.884616)"><text
         transform="matrix(1,0,0,-1,78.7,362)"
         style="font-variant:normal;font-weight:normal;font-size:10px;font-family:Arial;-inkscape-font-specification:ArialMT;writing-mode:lr-tb;fill:#000000;fill-opacity:1;fill-rule:nonzero;stroke:none"
         id="text212"><tspan
           x="0 5.5 11 16.59 19.379999 24.780001 30.370001 35.869999 38.66 44.16 46.860001"
           y="0"
           sodipodi:role="line"
           id="tspan214">192.168.1.1</tspan></text>
</g><g
       id="g216"
       transform="translate(88.846154,17.884615)"><text
         transform="matrix(1,0,0,-1,163.7,362)"
         style="font-variant:normal;font-weight:normal;font-size:10px;font-family:Arial;-inkscape-font-specification:ArialMT;writing-mode:lr-tb;fill:#000000;fill-opacity:1;fill-rule:nonzero;stroke:none"
         id="text218"><tspan
           x="0 5.5 11 16.5 19.290001 24.790001 30.290001 35.880001 38.580002 44.080002 46.869999"
           y="0"
           sodipodi:role="line"
           id="tspan220">192.168.1.2</tspan></text>
</g><g
       id="g228"
       transform="translate(-9.8076923,125.76923)"><text
         transform="matrix(1,0,0,-1,385.1,67.2)"
         style="font-variant:normal;font-weight:normal;font-size:10px;font-family:Arial;-inkscape-font-specification:ArialMT;writing-mode:lr-tb;fill:#000000;fill-opacity:1;fill-rule:nonzero;stroke:none"
         id="text230"><tspan
           x="0 5.5 11 16.5 19.290001 24.790001 30.290001 35.790001 38.580002 44.080002 46.869999 52.369999 57.869999"
           y="0"
           sodipodi:role="line"
           id="tspan232">192.168.2.254</tspan></text>
</g><g
       id="g234"
       transform="translate(1.1538462,160.96154)"><text
         transform="matrix(1,0,0,-1,436,89.9)"
         style="font-variant:normal;font-weight:normal;font-size:10px;font-family:Arial;-inkscape-font-specification:ArialMT;writing-mode:lr-tb;fill:#000000;fill-opacity:1;fill-rule:nonzero;stroke:none"
         id="text236"><tspan
           x="0 5.5 11 16.5 19.290001 24.790001 30.290001 35.880001 38.580002 44.080002 46.869999"
           y="0"
           sodipodi:role="line"
           id="tspan238">192.168.2.1</tspan></text>
</g><g
       id="g240"
       transform="translate(1.7307692,160.38462)"><text
         transform="matrix(1,0,0,-1,520.9,89.9)"
         style="font-variant:normal;font-weight:normal;font-size:10px;font-family:Arial;-inkscape-font-specification:ArialMT;writing-mode:lr-tb;fill:#000000;fill-opacity:1;fill-rule:nonzero;stroke:none"
         id="text242"><tspan
           x="0 5.5900002 10.99 16.58 19.370001 24.870001 30.370001 35.869999 38.66 44.16 46.860001"
           y="0"
           sodipodi:role="line"
           id="tspan244">192.168.2.2</tspan></text>
</g><g
       id="g246"
       transform="translate(1.1538462,159.23077)"><text
         transform="matrix(1,0,0,-1,617.3,89.9)"
         style="font-variant:normal;font-weight:normal;font-size:10px;font-family:Arial;-inkscape-font-specification:ArialMT;writing-mode:lr-tb;fill:#000000;fill-opacity:1;fill-rule:nonzero;stroke:none"
         id="text248"><tspan
           x="0 5.5 11 16.59 19.290001 24.790001 30.379999 35.880001 38.580002 44.169998 46.869999"
           y="0"
           sodipodi:role="line"
           id="tspan250">192.168.2.3</tspan></text>
</g><g
       id="g252"
       transform="translate(-37.5,23.076923)"><text
         transform="matrix(1,0,0,-1,404.5,311)"
         style="font-variant:normal;font-weight:normal;font-size:10px;font-family:Arial;-inkscape-font-specification:ArialMT;writing-mode:lr-tb;fill:#000000;fill-opacity:1;fill-rule:nonzero;stroke:none"
         id="text254"><tspan
           x="0 5.5 11 13.79 19.290001 22.08 27.58 30.370001"
           y="0"
           sodipodi:role="line"
           id="tspan256">10.0.0.1</tspan></text>
</g><g
       id="g258"
       transform="translate(31.730769,125.19231)"><text
         transform="matrix(1,0,0,-1,330.7,112.5)"
         style="font-variant:normal;font-weight:normal;font-size:10px;font-family:Arial;-inkscape-font-specification:ArialMT;writing-mode:lr-tb;fill:#000000;fill-opacity:1;fill-rule:nonzero;stroke:none"
         id="text260"><tspan
           x="0 5.5900002 11.09 13.88 19.379999 22.08 27.67 30.370001"
           y="0"
           sodipodi:role="line"
           id="tspan262">10.0.0.2</tspan></text>
</g><g
       id="g264"
       transform="matrix(1.1256777,0,0,1.2286822,41.099192,-100.04883)"><text
         transform="matrix(1,0,0,-1,103.7,339.4)"
         style="font-variant:normal;font-weight:normal;font-size:10px;font-family:Arial;-inkscape-font-specification:ArialMT;writing-mode:lr-tb;fill:#000000;fill-opacity:1;fill-rule:nonzero;stroke:none"
         id="text266"><tspan
           x="0 7.1999998 12.79 18.290001 21.08 26.58 32.080002 37.580002 40.369999 45.869999 51.369999 56.869999 59.66 65.160004 67.949997 73.449997 76.150002 81.739998"
           y="0"
           sodipodi:role="line"
           id="tspan268">Red 192.168.1.0/24</tspan></text>
</g><g
       id="g270"
       transform="matrix(1.1256777,0,0,1.2286822,-62.554465,120.2374)"><text
         transform="matrix(1,0,0,-1,512,67.2)"
         style="font-variant:normal;font-weight:normal;font-size:10px;font-family:Arial;-inkscape-font-specification:ArialMT;writing-mode:lr-tb;fill:#000000;fill-opacity:1;fill-rule:nonzero;stroke:none"
         id="text272"><tspan
           x="0 7.1999998 12.7 18.200001 20.99 26.49 31.99 37.490002 40.279999 45.779999 51.279999 56.869999 59.57 65.07 67.860001 73.360001 76.150002 81.650002"
           y="0"
           sodipodi:role="line"
           id="tspan274">Red 192.168.2.0/24</tspan></text>
</g><g
       id="g276"
       transform="matrix(1.1256777,0,0,1.2286822,-149.29424,6.8384678)"><text
         transform="matrix(1,0,0,-1,391.2,226)"
         style="font-variant:normal;font-weight:normal;font-size:10px;font-family:Arial;-inkscape-font-specification:ArialMT;writing-mode:lr-tb;fill:#000000;fill-opacity:1;fill-rule:nonzero;stroke:none"
         id="text278"><tspan
           x="0 7.1999998 12.79 18.290001 20.99 26.58 32.080002 34.779999 40.279999 43.07 48.66 54.16 56.860001 62.360001"
           y="0"
           sodipodi:role="line"
           id="tspan280">Red 10.0.00/30</tspan></text>
</g><g
       id="g4646"
       transform="translate(200.76923,-179.42308)"><g
         id="g300"><path
           inkscape:connector-curvature="0"
           id="path302"
           style="fill:none;stroke:#000000;stroke-width:0.99049997;stroke-linecap:square;stroke-linejoin:miter;stroke-miterlimit:7.66129017;stroke-dasharray:none;stroke-opacity:1"
           d="m 107.6,389.1 -42.5,0 0,17 85,0 0,-17 -42.5,0 z" /></g><g
         id="g304"><text
           id="text306"
           style="font-variant:normal;font-weight:normal;font-size:7px;font-family:Arial;-inkscape-font-specification:ArialMT;writing-mode:lr-tb;fill:#000000;fill-opacity:1;fill-rule:nonzero;stroke:none"
           transform="matrix(1,0,0,-1,69.2,394.8)"><tspan
             id="tspan308"
             sodipodi:role="line"
             y="0"
             x="0 3.8010001 7.6929998 11.494 13.391 17.283001 21.084 24.976 26.872999 30.674 32.570999 36.463001 40.257 44.148998 47.950001 51.750999 53.745998 57.547001 61.348 65.239998 67.137001 70.938004 72.932999">192.168.1.1 192.168.2.3</tspan></text>
</g><g
         id="g310"><path
           inkscape:connector-curvature="0"
           id="path312"
           style="fill:none;stroke:#000000;stroke-width:0.99049997;stroke-linecap:square;stroke-linejoin:miter;stroke-miterlimit:7.66129017;stroke-dasharray:none;stroke-opacity:1"
           d="m 107.2,406.1 0,-17" /></g></g><text
       xml:space="preserve"
       style="font-style:normal;font-weight:normal;font-size:8px;line-height:125%;font-family:Sans;letter-spacing:0px;word-spacing:0px;fill:#000000;fill-opacity:1;stroke:none;stroke-width:1px;stroke-linecap:butt;stroke-linejoin:miter;stroke-opacity:1"
       x="420"
       y="-348.46155"
       id="text4655"
       sodipodi:linespacing="125%"
       transform="scale(1,-1)"><tspan
         sodipodi:role="line"
         id="tspan4657"
         x="420"
         y="-348.46155"
         style="font-size:20px">192.168.1.1 ➡️ 192.168.2.3</tspan></text>
</g></svg>