<?xml version="1.0" encoding="UTF-8" standalone="no"?>
<!-- Created with Inkscape (http://www.inkscape.org/) -->

<svg
   xmlns:dc="http://purl.org/dc/elements/1.1/"
   xmlns:cc="http://creativecommons.org/ns#"
   xmlns:rdf="http://www.w3.org/1999/02/22-rdf-syntax-ns#"
   xmlns:svg="http://www.w3.org/2000/svg"
   xmlns="http://www.w3.org/2000/svg"
   xmlns:sodipodi="http://sodipodi.sourceforge.net/DTD/sodipodi-0.dtd"
   xmlns:inkscape="http://www.inkscape.org/namespaces/inkscape"
   id="svg2"
   version="1.1"
   inkscape:version="0.91 r13725"
   xml:space="preserve"
   width="759.93182"
   height="347.89709"
   viewBox="0 0 759.93182 347.89709"
   sodipodi:docname="nat-7.svg"><metadata
     id="metadata8"><rdf:RDF><cc:Work
         rdf:about=""><dc:format>image/svg+xml</dc:format><dc:type
           rdf:resource="http://purl.org/dc/dcmitype/StillImage" /><dc:title></dc:title></cc:Work></rdf:RDF></metadata><defs
     id="defs6"><clipPath
       clipPathUnits="userSpaceOnUse"
       id="clipPath16"><path
         d="M 0,0 720,0 720,540 0,540 0,0 Z"
         id="path18"
         inkscape:connector-curvature="0"
         style="clip-rule:evenodd" /></clipPath><clipPath
       clipPathUnits="userSpaceOnUse"
       id="clipPath28"><path
         d="m 0,10.8 719.8,0 0,529.1 L 0,539.9 0,10.8 Z"
         id="path30"
         inkscape:connector-curvature="0"
         style="clip-rule:evenodd" /></clipPath><clipPath
       clipPathUnits="userSpaceOnUse"
       id="clipPath38"><path
         d="m 0,498.1 22.4,0 0,41.8 -22.4,0 0,-41.8 z"
         id="path40"
         inkscape:connector-curvature="0"
         style="clip-rule:evenodd" /></clipPath><clipPath
       clipPathUnits="userSpaceOnUse"
       id="clipPath46"><path
         d="m 0,0 22.5,0 0,41.9 L 0,41.9 0,0 Z"
         id="path48"
         inkscape:connector-curvature="0" /></clipPath><linearGradient
       x1="26"
       y1="21"
       x2="-1"
       y2="21"
       gradientUnits="userSpaceOnUse"
       spreadMethod="pad"
       id="linearGradient50"><stop
         style="stop-opacity:1;stop-color:#ffffff"
         offset="0"
         id="stop52" /><stop
         style="stop-opacity:1;stop-color:#cccce6"
         offset="1"
         id="stop54" /></linearGradient><clipPath
       clipPathUnits="userSpaceOnUse"
       id="clipPath62"><path
         d="m 32.4,507.8 687.3,0 0,21.5 -687.3,0 0,-21.5 z"
         id="path64"
         inkscape:connector-curvature="0"
         style="clip-rule:evenodd" /></clipPath><clipPath
       clipPathUnits="userSpaceOnUse"
       id="clipPath70"><path
         d="m 0,0 687.4,0 0,21.6 L 0,21.6 0,0 Z"
         id="path72"
         inkscape:connector-curvature="0" /></clipPath><linearGradient
       x1="689"
       y1="11"
       x2="0"
       y2="11"
       gradientUnits="userSpaceOnUse"
       spreadMethod="pad"
       id="linearGradient74"><stop
         style="stop-opacity:1;stop-color:#ffffff"
         offset="0"
         id="stop76" /><stop
         style="stop-opacity:1;stop-color:#00007d"
         offset="1"
         id="stop78" /></linearGradient><clipPath
       clipPathUnits="userSpaceOnUse"
       id="clipPath86"><path
         d="m 0,10.8 719.8,0 0,529.1 L 0,539.9 0,10.8 Z"
         id="path88"
         inkscape:connector-curvature="0"
         style="clip-rule:evenodd" /></clipPath><clipPath
       clipPathUnits="userSpaceOnUse"
       id="clipPath110"><path
         d="M 0,0 720,0 720,540 0,540 0,0 Z"
         id="path112"
         inkscape:connector-curvature="0"
         style="clip-rule:evenodd" /></clipPath></defs><sodipodi:namedview
     pagecolor="#ffffff"
     bordercolor="#666666"
     borderopacity="1"
     objecttolerance="10"
     gridtolerance="10"
     guidetolerance="10"
     inkscape:pageopacity="0"
     inkscape:pageshadow="2"
     inkscape:window-width="1600"
     inkscape:window-height="836"
     id="namedview4"
     showgrid="false"
     inkscape:zoom="1"
     inkscape:cx="292.04869"
     inkscape:cy="162.31215"
     inkscape:window-x="0"
     inkscape:window-y="27"
     inkscape:window-maximized="1"
     inkscape:current-layer="g10"
     fit-margin-top="0"
     fit-margin-left="0"
     fit-margin-right="0"
     fit-margin-bottom="0" /><g
     id="g10"
     inkscape:groupmode="layer"
     inkscape:label="kk"
     transform="matrix(1.25,0,0,-1.25,-39.086539,509.0761)"><g
       id="g24"><g
         id="g26"
         clip-path="url(#clipPath28)"><g
           id="g32" /></g></g><g
       id="g120"><path
         d="m 54.6,324.9 220.4,0"
         style="fill:none;stroke:#000000;stroke-width:0.99049997;stroke-linecap:square;stroke-linejoin:miter;stroke-miterlimit:7.66129017;stroke-dasharray:none;stroke-opacity:1"
         id="path122"
         inkscape:connector-curvature="0" /></g><path
       d="m 304.2,306.5 -29.2,0 0,42.9 58.5,0 0,-42.9 -29.3,0 z"
       style="fill:#ccffff;fill-opacity:1;fill-rule:evenodd;stroke:none"
       id="path124"
       inkscape:connector-curvature="0" /><g
       id="g126"><path
         d="m 304.2,306.5 -29.2,0 0,42.9 58.5,0 0,-42.9 -29.3,0 z"
         style="fill:none;stroke:#000000;stroke-width:0.99049997;stroke-linecap:square;stroke-linejoin:miter;stroke-miterlimit:7.66129017;stroke-dasharray:none;stroke-opacity:1"
         id="path128"
         inkscape:connector-curvature="0" /></g><path
       d="m 105.8,346.3 -29.3,0 0,42.8 58.5,0 0,-42.8 -29.2,0 z"
       style="fill:#ccffff;fill-opacity:1;fill-rule:evenodd;stroke:none"
       id="path130"
       inkscape:connector-curvature="0" /><g
       id="g132"><path
         d="m 105.8,346.3 -29.3,0 0,42.8 58.5,0 0,-42.8 -29.2,0 z"
         style="fill:none;stroke:#000000;stroke-width:0.99049997;stroke-linecap:square;stroke-linejoin:miter;stroke-miterlimit:7.66129017;stroke-dasharray:none;stroke-opacity:1"
         id="path134"
         inkscape:connector-curvature="0" /></g><g
       id="g136"><path
         d="m 105.8,346.3 0,-21.4"
         style="fill:none;stroke:#000000;stroke-width:0.99049997;stroke-linecap:square;stroke-linejoin:miter;stroke-miterlimit:7.66129017;stroke-dasharray:none;stroke-opacity:1"
         id="path138"
         inkscape:connector-curvature="0" /></g><path
       d="m 469.26154,145.36154 -29.3,0 0,42.9 58.5,0 0,-42.9 -29.2,0 z"
       style="fill:#ccffff;fill-opacity:1;fill-rule:evenodd;stroke:none"
       id="path140"
       inkscape:connector-curvature="0" /><g
       id="g142"
       transform="translate(-101.53846,25.961538)"><path
         d="m 570.8,119.4 -29.3,0 0,42.9 58.5,0 0,-42.9 -29.2,0 z"
         style="fill:none;stroke:#000000;stroke-width:0.99049997;stroke-linecap:square;stroke-linejoin:miter;stroke-miterlimit:7.66129017;stroke-dasharray:none;stroke-opacity:1"
         id="path144"
         inkscape:connector-curvature="0" /></g><g
       id="g146"
       transform="translate(6.3461539,16.730769)"><text
         transform="matrix(1,0,0,-1,203.6,311)"
         style="font-variant:normal;font-weight:normal;font-size:10px;font-family:Arial;-inkscape-font-specification:ArialMT;writing-mode:lr-tb;fill:#000000;fill-opacity:1;fill-rule:nonzero;stroke:none"
         id="text148"><tspan
           x="0 5.5 11 16.5 19.290001 24.790001 30.290001 35.790001 38.580002 44.080002 46.869999 52.369999 57.869999"
           y="0"
           sodipodi:role="line"
           id="tspan150">192.168.1.254</tspan></text>
</g><g
       id="g152"
       transform="translate(-0.57692308,15)"><text
         transform="matrix(1,0,0,-1,79.4,333.8)"
         style="font-variant:normal;font-weight:normal;font-size:10px;font-family:Arial;-inkscape-font-specification:ArialMT;writing-mode:lr-tb;fill:#000000;fill-opacity:1;fill-rule:nonzero;stroke:none"
         id="text154"><tspan
           x="0 5.5900002 11.09 16.59 19.379999 24.879999 30.379999 35.880001 38.669998 44.169998 46.869999"
           y="0"
           sodipodi:role="line"
           id="tspan156">192.168.1.1</tspan></text>
</g><g
       id="g158"
       transform="translate(-73.744256,0.43693808)"><text
         transform="matrix(1,0,0,-1,322.5,294)"
         style="font-variant:normal;font-weight:normal;font-size:10px;font-family:Arial;-inkscape-font-specification:ArialMT;writing-mode:lr-tb;fill:#000000;fill-opacity:1;fill-rule:nonzero;stroke:none"
         id="text160"><tspan
           x="0 5.5 11 13.79 19.290001 24.790001 27.58 33.080002 38.580002 41.369999 46.869999"
           y="0"
           sodipodi:role="line"
           id="tspan162">82.20.30.40</tspan></text>
</g><g
       id="g164"
       transform="translate(-65.769232,42.115385)"><text
         transform="matrix(1,0,0,-1,509.2,129.6)"
         style="font-variant:normal;font-weight:normal;font-size:10px;font-family:Arial;-inkscape-font-specification:ArialMT;writing-mode:lr-tb;fill:#000000;fill-opacity:1;fill-rule:nonzero;stroke:none"
         id="text166"><tspan
           x="0 5.5900002 8.29 13.79 16.58 22.08 24.870001"
           y="0"
           sodipodi:role="line"
           id="tspan168">8.8.8.8</tspan></text>
</g><g
       id="g170"
       transform="translate(32.884615,14.423077)"><text
         transform="matrix(1,0,0,-1,24.3,299.7)"
         style="font-variant:normal;font-weight:normal;font-size:10px;font-family:Arial;-inkscape-font-specification:ArialMT;writing-mode:lr-tb;fill:#000000;fill-opacity:1;fill-rule:nonzero;stroke:none"
         id="text172"><tspan
           sodipodi:role="line"
           id="tspan174"
           x="0"
           y="0">Red privada 192.168.1.0/24</tspan></text>
</g><g
       id="g204" /><g
       id="g198"
       transform="translate(199.13818,-19.30524)" /><g
       id="g236"
       transform="translate(6.9230769,34.038462)"><path
         d="m 246,156 c -2.6,11.2 9.7,21.8 21.9,21.8 3.9,0.1 7.9,-1 11.2,-2.6 3.1,5 9,8.1 15.5,8.1 4.4,-0.2 9,-1.7 12.3,-4.4 2.4,4.5 7.4,7.1 12.8,7.1 4.5,0 8.6,-1.9 11.2,-4.8 3.1,3 7.6,4.8 12.3,4.8 7.7,0 14.2,-4.7 15.6,-11.3 7.4,-1.9 12.8,-7.9 12.8,-14.7 0,-2.1 -0.4,-4.2 -1.5,-6.1 3.1,-3.4 5,-7.5 5,-11.7 0,-9.7 -8.4,-17.8 -19.4,-19.1 0,-9.2 -8.3,-16.5 -18.9,-16.5 -3.6,0 -7,0.9 -10,2.6 -2.7,-8.1 -11.5,-13.8 -21.3,-13.8 -7.2,0 -14.1,3.4 -18.3,8.8 -3.8,-2.1 -1.8,-3.3 -12.9,-3.3 -9.1,0 -17.5,4.2 -21.9,11.1 -10.5,0.2 -15.9,5.6 -15.9,12.5 0,3.2 1.4,6.1 3.8,8.5 -4.5,2 -7,6 -7,10.6 0,6.4 5.5,11.7 12.7,12.4 l 0,0 z"
         style="fill:none;stroke:#000000;stroke-width:0.99049997;stroke-linecap:square;stroke-linejoin:miter;stroke-miterlimit:7.66129017;stroke-dasharray:none;stroke-opacity:1"
         id="path238"
         inkscape:connector-curvature="0" /></g><g
       id="g244"
       transform="translate(6.9230769,34.038462)"><path
         d="m 375.1,95.4 0,0 z"
         style="fill:none;stroke:#000000;stroke-width:0.99049997;stroke-linecap:square;stroke-linejoin:miter;stroke-miterlimit:7.66129017;stroke-dasharray:none;stroke-opacity:1"
         id="path246"
         inkscape:connector-curvature="0" /></g><g
       id="g256"
       transform="translate(6.9230769,34.038462)"><path
         d="m 375.1,95.4 0,0 z"
         style="fill:none;stroke:#000000;stroke-width:0.99049997;stroke-linecap:square;stroke-linejoin:miter;stroke-miterlimit:7.66129017;stroke-dasharray:none;stroke-opacity:1"
         id="path258"
         inkscape:connector-curvature="0" /></g><g
       id="g268"
       transform="translate(6.9230769,34.038462)"><path
         d="m 375.1,95.4 0,0 z"
         style="fill:none;stroke:#000000;stroke-width:0.99049997;stroke-linecap:square;stroke-linejoin:miter;stroke-miterlimit:7.66129017;stroke-dasharray:none;stroke-opacity:1"
         id="path270"
         inkscape:connector-curvature="0" /></g><g
       id="g272"
       transform="translate(6.9230769,34.038462)"><path
         d="M 306.9,178.9 C 306.4,178 306.1,177 305.7,176"
         style="fill:none;stroke:#000000;stroke-width:0.99049997;stroke-linecap:square;stroke-linejoin:miter;stroke-miterlimit:7.66129017;stroke-dasharray:none;stroke-opacity:1"
         id="path274"
         inkscape:connector-curvature="0" /></g><g
       id="g280"
       transform="translate(6.9230769,34.038462)"><path
         d="m 375.1,95.4 0,0 z"
         style="fill:none;stroke:#000000;stroke-width:0.99049997;stroke-linecap:square;stroke-linejoin:miter;stroke-miterlimit:7.66129017;stroke-dasharray:none;stroke-opacity:1"
         id="path282"
         inkscape:connector-curvature="0" /></g><g
       id="g284"
       transform="translate(6.9230769,34.038462)"><path
         d="m 330.9,181.2 c -0.9,-1 -1.5,-2.4 -2.1,-3.6"
         style="fill:none;stroke:#000000;stroke-width:0.99049997;stroke-linecap:square;stroke-linejoin:miter;stroke-miterlimit:7.66129017;stroke-dasharray:none;stroke-opacity:1"
         id="path286"
         inkscape:connector-curvature="0" /></g><g
       id="g292"
       transform="translate(6.9230769,34.038462)"><path
         d="m 375.1,95.4 0,0 z"
         style="fill:none;stroke:#000000;stroke-width:0.99049997;stroke-linecap:square;stroke-linejoin:miter;stroke-miterlimit:7.66129017;stroke-dasharray:none;stroke-opacity:1"
         id="path294"
         inkscape:connector-curvature="0" /></g><g
       id="g5917"><g
         transform="translate(41.03818,127.76399)"
         id="g194"><path
           inkscape:connector-curvature="0"
           id="path196"
           style="fill:none;stroke:#000000;stroke-width:0.99049997;stroke-linecap:square;stroke-linejoin:miter;stroke-miterlimit:7.66129017;stroke-dasharray:none;stroke-opacity:1"
           d="m 229.6,224.6 -62.4,0 0,17 124.7,0 0,-17 -62.3,0 z" /></g><text
         y="-358.19476"
         x="234.13818"
         id="text200"
         style="font-variant:normal;font-weight:normal;font-size:9px;font-family:Arial;-inkscape-font-specification:ArialMT;writing-mode:lr-tb;fill:#000000;fill-opacity:1;fill-rule:nonzero;stroke:none"
         transform="scale(1,-1)"><tspan
           id="tspan202"
           sodipodi:role="line"
           x="234.13818"
           y="-358.19476">8.8.8.8</tspan></text>
<g
         transform="translate(31.96126,128.91784)"
         id="g206"><text
           id="text208"
           style="font-variant:normal;font-weight:normal;font-size:9px;font-family:Arial;-inkscape-font-specification:ArialMT;writing-mode:lr-tb;fill:#000000;fill-opacity:1;fill-rule:nonzero;stroke:none"
           transform="matrix(1,0,0,-1,249.3,229.5)"><tspan
             id="tspan210"
             sodipodi:role="line"
             x="0"
             y="0">192.168.1</tspan></text>
</g><g
         transform="translate(41.03818,127.76399)"
         id="g212"><path
           inkscape:connector-curvature="0"
           id="path214"
           style="fill:none;stroke:#000000;stroke-width:0.99049997;stroke-linecap:square;stroke-linejoin:miter;stroke-miterlimit:7.66129017;stroke-dasharray:none;stroke-opacity:1"
           d="m 229,241.6 0,-17" /></g><g
         transform="translate(41.03818,127.76399)"
         id="g216"><path
           inkscape:connector-curvature="0"
           id="path218"
           style="fill:none;stroke:#000000;stroke-width:0.99049997;stroke-linecap:square;stroke-linejoin:miter;stroke-miterlimit:7.66129017;stroke-dasharray:none;stroke-opacity:1"
           d="m 229.6,241.6 -62.4,0 0,17 124.7,0 0,-17 -62.3,0 z" /></g><g
         transform="translate(43.97664,126.96399)"
         id="g220"><text
           id="text222"
           style="font-variant:normal;font-weight:normal;font-size:9px;font-family:Arial;-inkscape-font-specification:ArialMT;writing-mode:lr-tb;fill:#000000;fill-opacity:1;fill-rule:nonzero;stroke:none"
           transform="matrix(1,0,0,-1,206.8,246.5)"><tspan
             id="tspan224"
             sodipodi:role="line"
             x="0"
             y="0">80</tspan></text>
</g><g
         transform="translate(55.16895,128.56399)"
         id="g226"><text
           id="text228"
           style="font-variant:normal;font-weight:normal;font-size:9px;font-family:Arial;-inkscape-font-specification:ArialMT;writing-mode:lr-tb;fill:#000000;fill-opacity:1;fill-rule:nonzero;stroke:none"
           transform="matrix(1,0,0,-1,242.2,246.5)"><tspan
             id="tspan230"
             sodipodi:role="line"
             x="0"
             y="0">23456</tspan></text>
</g><g
         transform="translate(41.03818,127.76399)"
         id="g232"><path
           inkscape:connector-curvature="0"
           id="path234"
           style="fill:none;stroke:#000000;stroke-width:0.99049997;stroke-linecap:square;stroke-linejoin:miter;stroke-miterlimit:7.66129017;stroke-dasharray:none;stroke-opacity:1"
           d="m 229,258.6 0,-17" /></g><g
         transform="translate(-158.67692,182.83846)"
         id="g296"><path
           inkscape:connector-curvature="0"
           id="path298"
           style="fill:none;stroke:#000000;stroke-width:0.99049997;stroke-linecap:square;stroke-linejoin:miter;stroke-miterlimit:7.66129017;stroke-dasharray:none;stroke-opacity:1"
           d="m 358.8,174.7 c 0.1,-0.8 0.8,-2.5 0.5,-2.8" /></g></g><g
       id="g304"
       transform="translate(6.9230769,34.038462)"><path
         d="m 375.1,95.4 0,0 z"
         style="fill:none;stroke:#000000;stroke-width:0.99049997;stroke-linecap:square;stroke-linejoin:miter;stroke-miterlimit:7.66129017;stroke-dasharray:none;stroke-opacity:1"
         id="path306"
         inkscape:connector-curvature="0" /></g><g
       id="g308"
       transform="translate(6.9230769,34.038462)"><path
         d="m 370.1,153.9 c -1.1,-2.1 -2.6,-4 -4.8,-5.6"
         style="fill:none;stroke:#000000;stroke-width:0.99049997;stroke-linecap:square;stroke-linejoin:miter;stroke-miterlimit:7.66129017;stroke-dasharray:none;stroke-opacity:1"
         id="path310"
         inkscape:connector-curvature="0" /></g><g
       id="g316"
       transform="translate(6.9230769,34.038462)"><path
         d="m 375.1,95.4 0,0 z"
         style="fill:none;stroke:#000000;stroke-width:0.99049997;stroke-linecap:square;stroke-linejoin:miter;stroke-miterlimit:7.66129017;stroke-dasharray:none;stroke-opacity:1"
         id="path318"
         inkscape:connector-curvature="0" /></g><g
       id="g320"
       transform="translate(6.9230769,34.038462)"><path
         d="m 355.8,123.1 c 0.5,3.4 -2.5,11.7 -10.9,14.9"
         style="fill:none;stroke:#000000;stroke-width:0.99049997;stroke-linecap:square;stroke-linejoin:miter;stroke-miterlimit:7.66129017;stroke-dasharray:none;stroke-opacity:1"
         id="path322"
         inkscape:connector-curvature="0" /></g><g
       id="g328"
       transform="translate(6.9230769,34.038462)"><path
         d="m 375.1,95.4 0,0 z"
         style="fill:none;stroke:#000000;stroke-width:0.99049997;stroke-linecap:square;stroke-linejoin:miter;stroke-miterlimit:7.66129017;stroke-dasharray:none;stroke-opacity:1"
         id="path330"
         inkscape:connector-curvature="0" /></g><g
       id="g332"
       transform="translate(6.9230769,34.038462)"><path
         d="m 326.8,109.2 c 0.5,1.4 0.7,2.7 0.9,4"
         style="fill:none;stroke:#000000;stroke-width:0.99049997;stroke-linecap:square;stroke-linejoin:miter;stroke-miterlimit:7.66129017;stroke-dasharray:none;stroke-opacity:1"
         id="path334"
         inkscape:connector-curvature="0" /></g><g
       id="g340"
       transform="translate(6.9230769,34.038462)"><path
         d="m 375.1,95.4 0,0 z"
         style="fill:none;stroke:#000000;stroke-width:0.99049997;stroke-linecap:square;stroke-linejoin:miter;stroke-miterlimit:7.66129017;stroke-dasharray:none;stroke-opacity:1"
         id="path342"
         inkscape:connector-curvature="0" /></g><g
       id="g352"
       transform="translate(6.9230769,34.038462)"><path
         d="m 375.1,95.4 0,0 z"
         style="fill:none;stroke:#000000;stroke-width:0.99049997;stroke-linecap:square;stroke-linejoin:miter;stroke-miterlimit:7.66129017;stroke-dasharray:none;stroke-opacity:1"
         id="path354"
         inkscape:connector-curvature="0" /></g><g
       id="g364"
       transform="translate(6.9230769,34.038462)"><path
         d="m 375.1,95.4 0,0 z"
         style="fill:none;stroke:#000000;stroke-width:0.99049997;stroke-linecap:square;stroke-linejoin:miter;stroke-miterlimit:7.66129017;stroke-dasharray:none;stroke-opacity:1"
         id="path366"
         inkscape:connector-curvature="0" /></g><g
       id="g376"
       transform="translate(6.9230769,34.038462)"><path
         d="m 375.1,95.4 0,0 z"
         style="fill:none;stroke:#000000;stroke-width:0.99049997;stroke-linecap:square;stroke-linejoin:miter;stroke-miterlimit:7.66129017;stroke-dasharray:none;stroke-opacity:1"
         id="path378"
         inkscape:connector-curvature="0" /></g><g
       id="g388"
       transform="translate(6.9230769,34.038462)"><path
         d="m 375.1,95.4 0,0 z"
         style="fill:none;stroke:#000000;stroke-width:0.99049997;stroke-linecap:square;stroke-linejoin:miter;stroke-miterlimit:7.66129017;stroke-dasharray:none;stroke-opacity:1"
         id="path390"
         inkscape:connector-curvature="0" /></g><g
       id="g400"
       transform="translate(6.9230769,34.038462)"><path
         d="m 375.1,95.4 0,0 z"
         style="fill:none;stroke:#000000;stroke-width:0.99049997;stroke-linecap:square;stroke-linejoin:miter;stroke-miterlimit:7.66129017;stroke-dasharray:none;stroke-opacity:1"
         id="path402"
         inkscape:connector-curvature="0" /></g><g
       id="g412"
       transform="translate(6.9230769,34.038462)"><path
         d="m 375.1,95.4 0,0 z"
         style="fill:none;stroke:#000000;stroke-width:0.99049997;stroke-linecap:square;stroke-linejoin:miter;stroke-miterlimit:7.66129017;stroke-dasharray:none;stroke-opacity:1"
         id="path414"
         inkscape:connector-curvature="0" /></g><g
       id="g416"
       transform="translate(6.9230769,34.038462)"><text
         transform="matrix(1,0,0,-1,268.8,135.5)"
         style="font-variant:normal;font-weight:normal;font-size:18px;font-family:Arial;-inkscape-font-specification:ArialMT;writing-mode:lr-tb;fill:#000000;fill-opacity:1;fill-rule:nonzero;stroke:none"
         id="text418"><tspan
           x="0 5.0760002 14.976 20.052 29.952 35.945999 45.953999 55.962002"
           y="0"
           sodipodi:role="line"
           id="tspan420">Internet</tspan></text>
</g><g
       id="g422"><path
         d="m 304.2,306.5 0.3077,-88.58462"
         style="fill:none;stroke:#000000;stroke-width:0.99049997;stroke-linecap:square;stroke-linejoin:miter;stroke-miterlimit:7.66129017;stroke-dasharray:none;stroke-opacity:1"
         id="path424"
         inkscape:connector-curvature="0"
         sodipodi:nodetypes="cc" /></g><g
       id="g426"
       transform="translate(6.9230769,34.038462)"><path
         d="M 374.86923,140.48462 431.88462,140.8"
         style="fill:none;stroke:#000000;stroke-width:0.99049997;stroke-linecap:square;stroke-linejoin:miter;stroke-miterlimit:7.66129017;stroke-dasharray:none;stroke-opacity:1"
         id="path428"
         inkscape:connector-curvature="0"
         sodipodi:nodetypes="cc" /></g><g
       id="g434"
       transform="translate(5.7692308,40.961539)"><path
         d="m 25.5,179.3 0,0 z"
         style="fill:none;stroke:#000000;stroke-width:0.99049997;stroke-linecap:square;stroke-linejoin:miter;stroke-miterlimit:7.66129017;stroke-dasharray:none;stroke-opacity:1"
         id="path436"
         inkscape:connector-curvature="0" /></g><g
       id="g438"
       transform="translate(5.7692308,40.961539)"><path
         d="m 189.9,94.1 0,0 z"
         style="fill:none;stroke:#000000;stroke-width:0.99049997;stroke-linecap:square;stroke-linejoin:miter;stroke-miterlimit:7.66129017;stroke-dasharray:none;stroke-opacity:1"
         id="path440"
         inkscape:connector-curvature="0" /></g><g
       id="g472"
       transform="translate(-50.585331,23.660881)"><text
         transform="matrix(1,0,0,-1,460.1,367.1)"
         style="font-variant:normal;font-weight:bold;font-size:12px;font-family:'Times New Roman';-inkscape-font-specification:TimesNewRomanPS-BoldMT;writing-mode:lr-tb;fill:#000000;fill-opacity:1;fill-rule:nonzero;stroke:none"
         id="text474"><tspan
           x="0 7.4039998 12.9 19.584 22.968 28.872 31.872 38.664001 43.860001 46.860001 52.164001 58.164001 63.467999 68.568001 73.764 78.456001 85.139999 91.139999 97.823997 104.508 109.812 116.604 121.8 125.184 131.18401 135.87601 138.87601 147.48 155.67599"
           y="0"
           sodipodi:role="line"
           id="tspan476">Tabla de correspondencias NAT</tspan></text>
</g><g
       id="g478"
       transform="translate(-50.585331,23.660881)"><text
         transform="matrix(1,0,0,-1,401.1,344.3)"
         style="font-variant:normal;font-weight:bold;font-size:12px;font-family:'Times New Roman';-inkscape-font-specification:TimesNewRomanPS-BoldMT;writing-mode:lr-tb;fill:#000000;fill-opacity:1;fill-rule:nonzero;stroke:none"
         id="text480"><tspan
           x="0 9.3000002 14.604 17.988001 23.988001 29.292"
           y="0"
           sodipodi:role="line"
           id="tspan482">Origen</tspan></text>
</g><g
       id="g484"
       transform="translate(-50.585331,23.660881)"><text
         transform="matrix(1,0,0,-1,517.2,344.3)"
         style="font-variant:normal;font-weight:bold;font-size:12px;font-family:'Times New Roman';-inkscape-font-specification:TimesNewRomanPS-BoldMT;writing-mode:lr-tb;fill:#000000;fill-opacity:1;fill-rule:nonzero;stroke:none"
         id="text486"><tspan
           x="0 8.6040001 13.908 18.504 22.5 25.884001 32.568001"
           y="0"
           sodipodi:role="line"
           id="tspan488">Destino</tspan></text>
</g><g
       id="g490"
       transform="translate(-50.585331,23.660881)"><text
         transform="matrix(1,0,0,-1,587.2,344.3)"
         style="font-variant:normal;font-weight:bold;font-size:12px;font-family:'Times New Roman';-inkscape-font-specification:TimesNewRomanPS-BoldMT;writing-mode:lr-tb;fill:#000000;fill-opacity:1;fill-rule:nonzero;stroke:none"
         id="text492"><tspan
           x="0 8.6040001 15.288 20.591999 26.591999 32.591999 35.591999 44.976002 50.279999 53.580002 59.580002 64.884003"
           y="0"
           sodipodi:role="line"
           id="tspan494">Nuevo Origen</tspan></text>
</g><g
       id="g496"
       transform="translate(-50.585331,23.660881)"><text
         transform="matrix(1,0,0,-1,401.1,321.5)"
         style="font-variant:normal;font-weight:normal;font-size:12px;font-family:'Times New Roman';-inkscape-font-specification:TimesNewRomanPSMT;writing-mode:lr-tb;fill:#000000;fill-opacity:1;fill-rule:nonzero;stroke:none"
         id="text498"><tspan
           sodipodi:role="line"
           id="tspan500"
           y="0"
           x="0 6 12 18 21 27 33 39 42 48 51 57 60.299999 66.300003 72.300003 78.300003 84.300003">192.168.1.1:23456</tspan></text>
</g><g
       id="g502"
       transform="translate(-50.585331,23.660881)"><text
         transform="matrix(1,0,0,-1,517.2,321.5)"
         style="font-variant:normal;font-weight:normal;font-size:12px;font-family:'Times New Roman';-inkscape-font-specification:TimesNewRomanPSMT;writing-mode:lr-tb;fill:#000000;fill-opacity:1;fill-rule:nonzero;stroke:none"
         id="text504"><tspan
           sodipodi:role="line"
           id="tspan506"
           y="0"
           x="0 6 9 14.904 17.988001 23.988001 26.988001 32.891998 36.276001 42.276001">8.8.8.8:80</tspan></text>
</g><g
       id="g508"
       transform="translate(-50.585331,23.660881)"><text
         transform="matrix(1,0,0,-1,587.2,321.5)"
         style="font-variant:normal;font-weight:normal;font-size:12px;font-family:'Times New Roman';-inkscape-font-specification:TimesNewRomanPSMT;writing-mode:lr-tb;fill:#000000;fill-opacity:1;fill-rule:nonzero;stroke:none"
         id="text510"><tspan
           sodipodi:role="line"
           id="tspan512"
           y="0"
           x="0 6 12 15 21 27 30 36 42 45 51 57 60.299999 66.300003 72.300003 78.300003">82.20.30.40:4321</tspan></text>
</g><g
       id="g514"
       transform="translate(-50.585331,23.660881)"><text
         transform="matrix(1,0,0,-1,401.1,298.7)"
         style="font-variant:normal;font-weight:normal;font-size:12px;font-family:'Times New Roman';-inkscape-font-specification:TimesNewRomanPSMT;writing-mode:lr-tb;fill:#000000;fill-opacity:1;fill-rule:nonzero;stroke:none"
         id="text516"><tspan
           x="0"
           y="0"
           id="tspan518"> </tspan></text>
</g><g
       id="g520"
       transform="translate(-50.585331,23.660881)"><text
         transform="matrix(1,0,0,-1,517.2,298.7)"
         style="font-variant:normal;font-weight:normal;font-size:12px;font-family:'Times New Roman';-inkscape-font-specification:TimesNewRomanPSMT;writing-mode:lr-tb;fill:#000000;fill-opacity:1;fill-rule:nonzero;stroke:none"
         id="text522"><tspan
           x="0"
           y="0"
           id="tspan524"> </tspan></text>
</g><g
       id="g526"
       transform="translate(-50.585331,23.660881)"><text
         transform="matrix(1,0,0,-1,587.2,298.7)"
         style="font-variant:normal;font-weight:normal;font-size:12px;font-family:'Times New Roman';-inkscape-font-specification:TimesNewRomanPSMT;writing-mode:lr-tb;fill:#000000;fill-opacity:1;fill-rule:nonzero;stroke:none"
         id="text528"><tspan
           x="0"
           y="0"
           id="tspan530"> </tspan></text>
</g><g
       id="g532"
       transform="translate(-50.585331,23.660881)"><text
         transform="matrix(1,0,0,-1,401.1,275.9)"
         style="font-variant:normal;font-weight:normal;font-size:12px;font-family:'Times New Roman';-inkscape-font-specification:TimesNewRomanPSMT;writing-mode:lr-tb;fill:#000000;fill-opacity:1;fill-rule:nonzero;stroke:none"
         id="text534"><tspan
           x="0"
           y="0"
           id="tspan536"> </tspan></text>
</g><g
       id="g538"
       transform="translate(-50.585331,23.660881)"><text
         transform="matrix(1,0,0,-1,517.2,275.9)"
         style="font-variant:normal;font-weight:normal;font-size:12px;font-family:'Times New Roman';-inkscape-font-specification:TimesNewRomanPSMT;writing-mode:lr-tb;fill:#000000;fill-opacity:1;fill-rule:nonzero;stroke:none"
         id="text540"><tspan
           x="0"
           y="0"
           id="tspan542"> </tspan></text>
</g><g
       id="g544"
       transform="translate(-50.585331,23.660881)"><text
         transform="matrix(1,0,0,-1,587.2,275.9)"
         style="font-variant:normal;font-weight:normal;font-size:12px;font-family:'Times New Roman';-inkscape-font-specification:TimesNewRomanPSMT;writing-mode:lr-tb;fill:#000000;fill-opacity:1;fill-rule:nonzero;stroke:none"
         id="text546"><tspan
           x="0"
           y="0"
           id="tspan548"> </tspan></text>
</g><g
       id="g550"
       transform="translate(-50.585331,23.660881)"><text
         transform="matrix(1,0,0,-1,401.1,253.1)"
         style="font-variant:normal;font-weight:normal;font-size:12px;font-family:'Times New Roman';-inkscape-font-specification:TimesNewRomanPSMT;writing-mode:lr-tb;fill:#000000;fill-opacity:1;fill-rule:nonzero;stroke:none"
         id="text552"><tspan
           x="0"
           y="0"
           id="tspan554"> </tspan></text>
</g><g
       id="g556"
       transform="translate(-50.585331,23.660881)"><text
         transform="matrix(1,0,0,-1,517.2,253.1)"
         style="font-variant:normal;font-weight:normal;font-size:12px;font-family:'Times New Roman';-inkscape-font-specification:TimesNewRomanPSMT;writing-mode:lr-tb;fill:#000000;fill-opacity:1;fill-rule:nonzero;stroke:none"
         id="text558"><tspan
           x="0"
           y="0"
           id="tspan560"> </tspan></text>
</g><g
       id="g562"
       transform="translate(-50.585331,23.660881)"><text
         transform="matrix(1,0,0,-1,587.2,253.1)"
         style="font-variant:normal;font-weight:normal;font-size:12px;font-family:'Times New Roman';-inkscape-font-specification:TimesNewRomanPSMT;writing-mode:lr-tb;fill:#000000;fill-opacity:1;fill-rule:nonzero;stroke:none"
         id="text564"><tspan
           x="0"
           y="0"
           id="tspan566"> </tspan></text>
</g><path
       d="m 343.61467,406.86088 -0.2,0.2 -0.2,0.2 0,-23.1 0.2,0.2 0.2,0.3 0,22.2 z"
       style="fill:#000000;fill-opacity:1;fill-rule:evenodd;stroke:none"
       id="path568"
       inkscape:connector-curvature="0" /><path
       d="m 639.21467,407.26088 -0.2,-0.2 -0.2,-0.2 0,-22.2 0.2,-0.3 0.2,-0.2 0,23.1 z"
       style="fill:#000000;fill-opacity:1;fill-rule:evenodd;stroke:none"
       id="path570"
       inkscape:connector-curvature="0" /><path
       d="m 343.21467,407.26088 0.2,-0.2 0.2,-0.2 295.2,0 0.2,0.2 0.2,0.2 -296,0 z"
       style="fill:#000000;fill-opacity:1;fill-rule:evenodd;stroke:none"
       id="path572"
       inkscape:connector-curvature="0" /><path
       d="m 343.61467,384.16088 -0.2,0.2 -0.2,0.3 0,-23.3 0.2,0.2 0.2,0.3 0,22.3 z"
       style="fill:#000000;fill-opacity:1;fill-rule:evenodd;stroke:none"
       id="path574"
       inkscape:connector-curvature="0" /><path
       d="m 459.71467,384.16088 -0.2,0.2 -0.3,-0.2 0,-22.3 0.3,-0.3 0.2,0.3 0,22.3 z"
       style="fill:#000000;fill-opacity:1;fill-rule:evenodd;stroke:none"
       id="path576"
       inkscape:connector-curvature="0" /><path
       d="m 343.61467,384.66088 -0.2,-0.3 0.2,-0.2 115.6,0 0.3,0.2 0.2,0.3 -116.1,0 z"
       style="fill:#000000;fill-opacity:1;fill-rule:evenodd;stroke:none"
       id="path578"
       inkscape:connector-curvature="0" /><path
       d="m 459.71467,384.16088 -0.2,0.2 -0.3,-0.2 0,-22.3 0.3,-0.3 0.2,0.3 0,22.3 z"
       style="fill:#000000;fill-opacity:1;fill-rule:evenodd;stroke:none"
       id="path580"
       inkscape:connector-curvature="0" /><path
       d="m 529.71467,384.66088 -0.2,-0.3 -0.2,-0.2 0,-22.3 0.2,-0.3 0.2,-0.2 0,23.3 z"
       style="fill:#000000;fill-opacity:1;fill-rule:evenodd;stroke:none"
       id="path582"
       inkscape:connector-curvature="0" /><path
       d="m 459.21467,384.66088 0.3,-0.3 0.2,-0.2 69.6,0 0.2,0.2 0.2,0.3 -70.5,0 z"
       style="fill:#000000;fill-opacity:1;fill-rule:evenodd;stroke:none"
       id="path584"
       inkscape:connector-curvature="0" /><path
       d="m 529.71467,384.16088 -0.2,0.2 -0.2,-0.2 0,-22.3 0.2,-0.3 0.2,0.3 0,22.3 z"
       style="fill:#000000;fill-opacity:1;fill-rule:evenodd;stroke:none"
       id="path586"
       inkscape:connector-curvature="0" /><path
       d="m 639.21467,384.66088 -0.2,-0.3 -0.2,-0.2 0,-22.3 0.2,-0.3 0.2,-0.2 0,23.3 z"
       style="fill:#000000;fill-opacity:1;fill-rule:evenodd;stroke:none"
       id="path588"
       inkscape:connector-curvature="0" /><path
       d="m 529.31467,384.66088 0.2,-0.3 0.2,-0.2 109.1,0 0.2,0.2 -0.2,0.3 -109.5,0 z"
       style="fill:#000000;fill-opacity:1;fill-rule:evenodd;stroke:none"
       id="path590"
       inkscape:connector-curvature="0" /><path
       d="m 343.61467,361.36088 -0.2,0.2 -0.2,0.3 0,-23.3 0.2,0.3 0.2,0.2 0,22.3 z"
       style="fill:#000000;fill-opacity:1;fill-rule:evenodd;stroke:none"
       id="path592"
       inkscape:connector-curvature="0" /><path
       d="m 459.71467,361.36088 -0.2,0.2 -0.3,-0.2 0,-22.3 0.3,-0.2 0.2,0.2 0,22.3 z"
       style="fill:#000000;fill-opacity:1;fill-rule:evenodd;stroke:none"
       id="path594"
       inkscape:connector-curvature="0" /><path
       d="m 343.61467,361.86088 -0.2,-0.3 0.2,-0.2 115.6,0 0.3,0.2 -0.3,0.3 -115.6,0 z"
       style="fill:#000000;fill-opacity:1;fill-rule:evenodd;stroke:none"
       id="path596"
       inkscape:connector-curvature="0" /><path
       d="m 459.71467,361.36088 -0.2,0.2 -0.3,-0.2 0,-22.3 0.3,-0.2 0.2,0.2 0,22.3 z"
       style="fill:#000000;fill-opacity:1;fill-rule:evenodd;stroke:none"
       id="path598"
       inkscape:connector-curvature="0" /><path
       d="m 529.71467,361.86088 -0.2,-0.3 -0.2,-0.2 0,-22.3 0.2,-0.2 0.2,-0.3 0,23.3 z"
       style="fill:#000000;fill-opacity:1;fill-rule:evenodd;stroke:none"
       id="path600"
       inkscape:connector-curvature="0" /><path
       d="m 459.71467,361.86088 -0.2,-0.3 0.2,-0.2 69.6,0 0.2,0.2 -0.2,0.3 -69.6,0 z"
       style="fill:#000000;fill-opacity:1;fill-rule:evenodd;stroke:none"
       id="path602"
       inkscape:connector-curvature="0" /><path
       d="m 529.71467,361.36088 -0.2,0.2 -0.2,-0.2 0,-22.3 0.2,-0.2 0.2,0.2 0,22.3 z"
       style="fill:#000000;fill-opacity:1;fill-rule:evenodd;stroke:none"
       id="path604"
       inkscape:connector-curvature="0" /><path
       d="m 639.21467,361.86088 -0.2,-0.3 -0.2,-0.2 0,-22.3 0.2,-0.2 0.2,-0.3 0,23.3 z"
       style="fill:#000000;fill-opacity:1;fill-rule:evenodd;stroke:none"
       id="path606"
       inkscape:connector-curvature="0" /><path
       d="m 529.71467,361.86088 -0.2,-0.3 0.2,-0.2 109.1,0 0.2,0.2 -0.2,0.3 -109.1,0 z"
       style="fill:#000000;fill-opacity:1;fill-rule:evenodd;stroke:none"
       id="path608"
       inkscape:connector-curvature="0" /><path
       d="m 343.61467,338.56088 -0.2,0.3 -0.2,0.2 0,-23.3 0.2,0.3 0.2,0.2 0,22.3 z"
       style="fill:#000000;fill-opacity:1;fill-rule:evenodd;stroke:none"
       id="path610"
       inkscape:connector-curvature="0" /><path
       d="m 459.71467,338.56088 -0.2,0.3 -0.3,-0.3 0,-22.3 0.3,-0.2 0.2,0.2 0,22.3 z"
       style="fill:#000000;fill-opacity:1;fill-rule:evenodd;stroke:none"
       id="path612"
       inkscape:connector-curvature="0" /><path
       d="m 343.61467,339.06088 -0.2,-0.2 0.2,-0.3 115.6,0 0.3,0.3 -0.3,0.2 -115.6,0 z"
       style="fill:#000000;fill-opacity:1;fill-rule:evenodd;stroke:none"
       id="path614"
       inkscape:connector-curvature="0" /><path
       d="m 459.71467,338.56088 -0.2,0.3 -0.3,-0.3 0,-22.3 0.3,-0.2 0.2,0.2 0,22.3 z"
       style="fill:#000000;fill-opacity:1;fill-rule:evenodd;stroke:none"
       id="path616"
       inkscape:connector-curvature="0" /><path
       d="m 529.71467,339.06088 -0.2,-0.2 -0.2,-0.3 0,-22.3 0.2,-0.2 0.2,-0.3 0,23.3 z"
       style="fill:#000000;fill-opacity:1;fill-rule:evenodd;stroke:none"
       id="path618"
       inkscape:connector-curvature="0" /><path
       d="m 459.71467,339.06088 -0.2,-0.2 0.2,-0.3 69.6,0 0.2,0.3 -0.2,0.2 -69.6,0 z"
       style="fill:#000000;fill-opacity:1;fill-rule:evenodd;stroke:none"
       id="path620"
       inkscape:connector-curvature="0" /><path
       d="m 529.71467,338.56088 -0.2,0.3 -0.2,-0.3 0,-22.3 0.2,-0.2 0.2,0.2 0,22.3 z"
       style="fill:#000000;fill-opacity:1;fill-rule:evenodd;stroke:none"
       id="path622"
       inkscape:connector-curvature="0" /><path
       d="m 639.21467,339.06088 -0.2,-0.2 -0.2,-0.3 0,-22.3 0.2,-0.2 0.2,-0.3 0,23.3 z"
       style="fill:#000000;fill-opacity:1;fill-rule:evenodd;stroke:none"
       id="path624"
       inkscape:connector-curvature="0" /><path
       d="m 529.71467,339.06088 -0.2,-0.2 0.2,-0.3 109.1,0 0.2,0.3 -0.2,0.2 -109.1,0 z"
       style="fill:#000000;fill-opacity:1;fill-rule:evenodd;stroke:none"
       id="path626"
       inkscape:connector-curvature="0" /><path
       d="m 343.61467,315.76088 -0.2,0.3 -0.2,0.2 0,-23.3 0.2,0.3 0.2,0.2 0,22.3 z"
       style="fill:#000000;fill-opacity:1;fill-rule:evenodd;stroke:none"
       id="path628"
       inkscape:connector-curvature="0" /><path
       d="m 459.71467,315.76088 -0.2,0.3 -0.3,-0.3 0,-22.3 0.3,-0.2 0.2,0.2 0,22.3 z"
       style="fill:#000000;fill-opacity:1;fill-rule:evenodd;stroke:none"
       id="path630"
       inkscape:connector-curvature="0" /><path
       d="m 343.61467,316.26088 -0.2,-0.2 0.2,-0.3 115.6,0 0.3,0.3 -0.3,0.2 -115.6,0 z"
       style="fill:#000000;fill-opacity:1;fill-rule:evenodd;stroke:none"
       id="path632"
       inkscape:connector-curvature="0" /><path
       d="m 459.71467,315.76088 -0.2,0.3 -0.3,-0.3 0,-22.3 0.3,-0.2 0.2,0.2 0,22.3 z"
       style="fill:#000000;fill-opacity:1;fill-rule:evenodd;stroke:none"
       id="path634"
       inkscape:connector-curvature="0" /><path
       d="m 529.71467,316.26088 -0.2,-0.2 -0.2,-0.3 0,-22.3 0.2,-0.2 0.2,-0.3 0,23.3 z"
       style="fill:#000000;fill-opacity:1;fill-rule:evenodd;stroke:none"
       id="path636"
       inkscape:connector-curvature="0" /><path
       d="m 459.71467,316.26088 -0.2,-0.2 0.2,-0.3 69.6,0 0.2,0.3 -0.2,0.2 -69.6,0 z"
       style="fill:#000000;fill-opacity:1;fill-rule:evenodd;stroke:none"
       id="path638"
       inkscape:connector-curvature="0" /><path
       d="m 529.71467,315.76088 -0.2,0.3 -0.2,-0.3 0,-22.3 0.2,-0.2 0.2,0.2 0,22.3 z"
       style="fill:#000000;fill-opacity:1;fill-rule:evenodd;stroke:none"
       id="path640"
       inkscape:connector-curvature="0" /><path
       d="m 639.21467,316.26088 -0.2,-0.2 -0.2,-0.3 0,-22.3 0.2,-0.2 0.2,-0.3 0,23.3 z"
       style="fill:#000000;fill-opacity:1;fill-rule:evenodd;stroke:none"
       id="path642"
       inkscape:connector-curvature="0" /><path
       d="m 529.71467,316.26088 -0.2,-0.2 0.2,-0.3 109.1,0 0.2,0.3 -0.2,0.2 -109.1,0 z"
       style="fill:#000000;fill-opacity:1;fill-rule:evenodd;stroke:none"
       id="path644"
       inkscape:connector-curvature="0" /><path
       d="m 343.61467,292.96088 -0.2,0.3 -0.2,0.2 0,-23.2 0.2,0.2 0.2,0.2 0,22.3 z"
       style="fill:#000000;fill-opacity:1;fill-rule:evenodd;stroke:none"
       id="path646"
       inkscape:connector-curvature="0" /><path
       d="m 343.61467,270.66088 -0.2,-0.2 -0.2,-0.2 116.5,0 -0.2,0.2 -0.3,0.2 -115.6,0 z"
       style="fill:#000000;fill-opacity:1;fill-rule:evenodd;stroke:none"
       id="path648"
       inkscape:connector-curvature="0" /><path
       d="m 459.71467,292.96088 -0.2,0.3 -0.3,-0.3 0,-22.3 0.3,-0.2 0.2,0.2 0,22.3 z"
       style="fill:#000000;fill-opacity:1;fill-rule:evenodd;stroke:none"
       id="path650"
       inkscape:connector-curvature="0" /><path
       d="m 343.61467,293.46088 -0.2,-0.2 0.2,-0.3 115.6,0 0.3,0.3 -0.3,0.2 -115.6,0 z"
       style="fill:#000000;fill-opacity:1;fill-rule:evenodd;stroke:none"
       id="path652"
       inkscape:connector-curvature="0" /><path
       d="m 459.71467,292.96088 -0.2,0.3 -0.3,-0.3 0,-22.3 0.3,-0.2 0.2,0.2 0,22.3 z"
       style="fill:#000000;fill-opacity:1;fill-rule:evenodd;stroke:none"
       id="path654"
       inkscape:connector-curvature="0" /><path
       d="m 459.71467,270.66088 -0.2,-0.2 -0.3,-0.2 70.5,0 -0.2,0.2 -0.2,0.2 -69.6,0 z"
       style="fill:#000000;fill-opacity:1;fill-rule:evenodd;stroke:none"
       id="path656"
       inkscape:connector-curvature="0" /><path
       d="m 529.71467,293.46088 -0.2,-0.2 -0.2,-0.3 0,-22.3 0.2,-0.2 0.2,-0.2 0,23.2 z"
       style="fill:#000000;fill-opacity:1;fill-rule:evenodd;stroke:none"
       id="path658"
       inkscape:connector-curvature="0" /><path
       d="m 459.71467,293.46088 -0.2,-0.2 0.2,-0.3 69.6,0 0.2,0.3 -0.2,0.2 -69.6,0 z"
       style="fill:#000000;fill-opacity:1;fill-rule:evenodd;stroke:none"
       id="path660"
       inkscape:connector-curvature="0" /><path
       d="m 529.71467,292.96088 -0.2,0.3 -0.2,-0.3 0,-22.3 0.2,-0.2 0.2,0.2 0,22.3 z"
       style="fill:#000000;fill-opacity:1;fill-rule:evenodd;stroke:none"
       id="path662"
       inkscape:connector-curvature="0" /><path
       d="m 529.71467,270.66088 -0.2,-0.2 -0.2,-0.2 109.9,0 -0.2,0.2 -0.2,0.2 -109.1,0 z"
       style="fill:#000000;fill-opacity:1;fill-rule:evenodd;stroke:none"
       id="path664"
       inkscape:connector-curvature="0" /><path
       d="m 639.21467,293.46088 -0.2,-0.2 -0.2,-0.3 0,-22.3 0.2,-0.2 0.2,-0.2 0,23.2 z"
       style="fill:#000000;fill-opacity:1;fill-rule:evenodd;stroke:none"
       id="path666"
       inkscape:connector-curvature="0" /><path
       d="m 529.71467,293.46088 -0.2,-0.2 0.2,-0.3 109.1,0 0.2,0.3 -0.2,0.2 -109.1,0 z"
       style="fill:#000000;fill-opacity:1;fill-rule:evenodd;stroke:none"
       id="path668"
       inkscape:connector-curvature="0" /><g
       id="g670"
       transform="matrix(-0.0168044,-0.9998588,0.9998588,-0.0168044,-10.970553,639.77609)"
       inkscape:transform-center-x="-0.87477451"
       inkscape:transform-center-y="1.983015"><path
         d="m 287.8,219 0,-17.1 4.3,0 -8.6,-5.6 -8.6,5.6 4.3,0 0,17.1 8.6,0 z"
         style="fill:none;stroke:#000000;stroke-width:0.99049997;stroke-linecap:square;stroke-linejoin:miter;stroke-miterlimit:7.66129017;stroke-dasharray:none;stroke-opacity:1"
         id="path672"
         inkscape:connector-curvature="0" /></g><g
       id="g674"
       transform="translate(7.4010157,25.459583)"><path
         d="m 292.1,219 0,0 z"
         style="fill:none;stroke:#000000;stroke-width:0.99049997;stroke-linecap:square;stroke-linejoin:miter;stroke-miterlimit:7.66129017;stroke-dasharray:none;stroke-opacity:1"
         id="path676"
         inkscape:connector-curvature="0" /></g><g
       id="g678"
       transform="translate(7.4010157,25.459583)"><path
         d="m 274.9,196.2 0,0 z"
         style="fill:none;stroke:#000000;stroke-width:0.99049997;stroke-linecap:square;stroke-linejoin:miter;stroke-miterlimit:7.66129017;stroke-dasharray:none;stroke-opacity:1"
         id="path680"
         inkscape:connector-curvature="0" /></g><flowRoot
       xml:space="preserve"
       id="flowRoot5664"
       style="font-style:normal;font-weight:normal;font-size:10px;line-height:125%;font-family:Sans;letter-spacing:0px;word-spacing:0px;fill:#000000;fill-opacity:1;stroke:none;stroke-width:1px;stroke-linecap:butt;stroke-linejoin:miter;stroke-opacity:1"><flowRegion
         id="flowRegion5666"><rect
           id="rect5668"
           width="139.72157"
           height="41.814487"
           x="110.14548"
           y="377.19925" /></flowRegion><flowPara
         id="flowPara5670"></flowPara></flowRoot></g></svg>