<?xml version="1.0" encoding="iso-8859-1"?>
<!-- Generator: Adobe Illustrator 19.0.0, SVG Export Plug-In . SVG Version: 6.00 Build 0)  -->
<svg version="1.1" id="Layer_1" xmlns="http://www.w3.org/2000/svg" xmlns:xlink="http://www.w3.org/1999/xlink" x="0px" y="0px"
	 viewBox="0 0 511.999 511.999" style="enable-background:new 0 0 511.999 511.999;" xml:space="preserve">
<g>
	<g>
		<path d="M510.135,116.911c-0.475-2.803-2.474-5.105-5.181-5.97c-2.707-0.865-5.674-0.149-7.683,1.861l-33.803,33.804
			c-15.541,15.541-40.739,15.541-56.28,0l-41.792-41.793c-15.541-15.541-15.541-40.739,0-56.28l33.804-33.804
			c2.011-2.011,2.732-4.977,1.867-7.687c-0.865-2.709-3.172-4.703-5.976-5.178c-38.678-6.558-78.569,4.157-107.032,32.621
			c-32.17,32.17-41.661,78.934-29.175,122.048L20.003,395.409c-26.671,26.671-26.671,69.915,0,96.587
			c26.671,26.671,69.915,26.671,96.587,0l238.877-238.877c43.114,12.486,89.878,2.994,122.048-29.175
			C505.979,195.48,516.693,155.589,510.135,116.911z M91.447,455.963c-9.778,9.778-25.632,9.778-35.411,0
			c-9.778-9.778-9.778-25.632,0-35.41c9.778-9.778,25.632-9.778,35.411,0S101.225,446.185,91.447,455.963z"/>
	</g>
</g>
<g>
</g>
<g>
</g>
<g>
</g>
<g>
</g>
<g>
</g>
<g>
</g>
<g>
</g>
<g>
</g>
<g>
</g>
<g>
</g>
<g>
</g>
<g>
</g>
<g>
</g>
<g>
</g>
<g>
</g>
</svg>
