<?xml version="1.0" encoding="iso-8859-1"?>
<!-- Generator: Adobe Illustrator 19.0.0, SVG Export Plug-In . SVG Version: 6.00 Build 0)  -->
<svg version="1.1" id="Layer_1" xmlns="http://www.w3.org/2000/svg" xmlns:xlink="http://www.w3.org/1999/xlink" x="0px" y="0px"
	 viewBox="0 0 459.54 459.54" style="enable-background:new 0 0 459.54 459.54;" xml:space="preserve">
<g id="XMLID_711_">
	<g>
		<g>
			<path d="M256.293,60.904h-53.046c-8.125,0-14.735,6.61-14.735,14.735s6.61,14.735,14.735,14.735h53.046
				c8.125,0,14.735-6.61,14.735-14.735S264.418,60.904,256.293,60.904z"/>
			<path d="M295.586,0H163.954c-16.791,0-30.452,13.661-30.452,30.452v367.604c0,16.187,12.697,29.461,28.654,30.395v5.768
				c0,13.962,11.359,25.321,25.321,25.321c13.962,0,25.321-11.359,25.321-25.321v-5.711h33.943v5.711
				c0,13.962,11.359,25.321,25.321,25.321c13.962,0,25.321-11.359,25.321-25.321v-5.768c15.957-0.934,28.655-14.207,28.655-30.395
				V30.452C326.038,13.661,312.377,0,295.586,0z M229.77,369.355c-12.207,0-22.102-9.896-22.102-22.102
				c0-12.207,9.896-22.102,22.102-22.102s22.102,9.896,22.102,22.102C251.872,359.46,241.977,369.355,229.77,369.355z
				 M280.851,246.671H178.689c-5.425,0-9.823-4.398-9.823-9.823c0-5.425,4.398-9.823,9.823-9.823h102.162
				c5.425,0,9.823,4.398,9.823,9.823C290.675,242.273,286.277,246.671,280.851,246.671z M280.851,205.36H178.689
				c-5.425,0-9.823-4.398-9.823-9.823s4.398-9.823,9.823-9.823h102.162c5.425,0,9.823,4.398,9.823,9.823
				C290.675,200.962,286.277,205.36,280.851,205.36z M280.851,164.049H178.689c-5.425,0-9.823-4.398-9.823-9.823
				c0-5.425,4.398-9.823,9.823-9.823h102.162c5.425,0,9.823,4.398,9.823,9.823C290.675,159.651,286.277,164.049,280.851,164.049z
				 M256.293,110.021h-53.046c-18.958,0-34.382-15.423-34.382-34.382c0-18.958,15.423-34.381,34.382-34.381h53.046
				c18.958,0,34.382,15.423,34.382,34.381C290.675,94.598,275.251,110.021,256.293,110.021z"/>
		</g>
	</g>
</g>
<g>
</g>
<g>
</g>
<g>
</g>
<g>
</g>
<g>
</g>
<g>
</g>
<g>
</g>
<g>
</g>
<g>
</g>
<g>
</g>
<g>
</g>
<g>
</g>
<g>
</g>
<g>
</g>
<g>
</g>
</svg>
