<?xml version="1.0" encoding="iso-8859-1"?>
<!-- Generator: Adobe Illustrator 19.0.0, SVG Export Plug-In . SVG Version: 6.00 Build 0)  -->
<svg version="1.1" id="Layer_1" xmlns="http://www.w3.org/2000/svg" xmlns:xlink="http://www.w3.org/1999/xlink" x="0px" y="0px"
	 viewBox="0 0 452.262 452.262" style="enable-background:new 0 0 452.262 452.262;" xml:space="preserve">
<g id="XMLID_2_">
	<g>
		<path d="M359.35,0H92.91C69.534,0,50.517,19.018,50.517,42.394v367.474c0,23.376,19.017,42.394,42.393,42.394h266.44
			c23.376,0,42.395-19.018,42.395-42.394V42.394C401.744,19.018,382.726,0,359.35,0z M226.13,425.09
			c-12.426,0-22.5-10.074-22.5-22.5c0-12.426,10.074-22.5,22.5-22.5c12.426,0,22.5,10.074,22.5,22.5
			C248.63,415.017,238.557,425.09,226.13,425.09z M345.873,347.998H106.387V59.533h239.486V347.998z"/>
	</g>
</g>
<g>
</g>
<g>
</g>
<g>
</g>
<g>
</g>
<g>
</g>
<g>
</g>
<g>
</g>
<g>
</g>
<g>
</g>
<g>
</g>
<g>
</g>
<g>
</g>
<g>
</g>
<g>
</g>
<g>
</g>
</svg>
